<?xml version="1.0" encoding="UTF-8"?>
<svg id="Layer_1" xmlns="http://www.w3.org/2000/svg" version="1.1" viewBox="0 0 321.17 253.5">
  <!-- Generator: Adobe Illustrator 30.2.1, SVG Export Plug-In . SVG Version: 2.1.1 Build 1)  -->
  <defs>
    <style>
      .st0 {
        fill: #ffefc6;
      }
    </style>
  </defs>
  <path class="st0" d="M250.64,219.25c-.11.59-.23,1.17-.34,1.76-.57,3.09-2.33,5.54-4.97,7.5-1.5,1.12-3.19,1.93-5,2.57-.16.06-.32.09-.58.16-.81-1.53-1.61-3.05-2.45-4.65.27-.12.51-.24.75-.35.98-.47,1.99-.88,2.92-1.41,1.64-.95,2.49-2.42,2.94-4.08.21-.76.25-1.55.38-2.42-.34-.03-.59-.07-.83-.07-1.37,0-2.75,0-4.12,0-.98,0-1-.02-1-.87,0-3.25,0-6.51,0-9.76,0-.83.07-.89,1.01-.89,3.77,0,7.53,0,11.3,0v12.54Z"/>
  <path class="st0" d="M40.44,60.68c.29.03.31-.16.37-.34.79-2.46,2.29-4.48,4.44-6.13,1.44-1.1,3.04-1.94,4.77-2.6.32-.12.64-.24,1.05-.39.82,1.58,1.63,3.14,2.49,4.78-2.63.89-4.98,1.97-6.11,4.39-.57,1.23-.89,2.5-.8,3.93h5.77c.04.31.09.54.09.77,0,3.28,0,6.56,0,9.83,0,.88-.09.95-1.05.95-3.36,0-6.71,0-10.07,0-.32,0-.64.03-.96.04v-15.24Z"/>
  <path class="st0" d="M239.19,197.86h-6.29v-1.23c0-43.49,0-86.98,0-130.47,0-.48,0-.95-.06-1.43-.2-1.71-1.64-2.96-3.53-3.08-.41-.02-.82-.02-1.23-.02H79v-5.71h59.63c30.01,0,60.02,0,90.03,0,1.72,0,3.38.23,4.91.97,3.55,1.71,5.42,4.39,5.61,8.03.02.35.02.69.02,1.03v131.89Z"/>
  <path class="st0" d="M210.51,220.18v5.68c-.33.01-.62.04-.9.04H62.22c-3.84,0-6.9-1.36-9.01-4.32-.98-1.36-1.45-2.87-1.53-4.49-.02-.34-.01-.69-.01-1.03,0-43.65,0-87.29,0-130.94v-1c.71-.19,5.33-.22,6.3-.03v114.63c0,5.95,0,11.9,0,17.86,0,1.26.52,2.25,1.64,2.99.58.38,1.24.57,1.96.61.41.02.82.01,1.22.01h147.73Z"/>
  <path class="st0" d="M222.01,231.27c-.84-1.6-1.65-3.13-2.5-4.76,2.57-.81,4.85-1.89,6.07-4.17.66-1.25.83-2.61.99-4.03-.32-.02-.57-.06-.83-.06-1.43,0-2.86,0-4.29,0-.89,0-.92-.03-.92-.86,0-3.25,0-6.5,0-9.76,0-.28.07-.56.11-.86.31-.02.53-.05.76-.05h10.59c.17,0,.35,0,.52.02.33.04.53.22.57.52.02.21.02.42.02.63,0,2.77.07,5.55-.02,8.33-.09,2.42-.25,4.86-1.22,7.16-1.09,2.56-3.05,4.47-5.52,5.98-1.3.8-2.72,1.42-4.33,1.91"/>
  <path class="st0" d="M71.42,55.99c-5.49,1.61-6.98,4.49-7.06,8.31h5.79c.05.27.12.47.12.66,0,3.36.01,6.71,0,10.07,0,.76-.11.85-.98.85-3.5,0-7,0-10.5,0-.9,0-.99-.09-.99-.93,0-3.01-.05-6.03.02-9.04.04-1.81.19-3.63.69-5.41.63-2.26,1.96-4.15,3.82-5.75,1.61-1.39,3.46-2.41,5.51-3.14.3-.11.58-.24.94-.39.11.17.23.34.32.52.58,1.1,1.14,2.2,1.72,3.29.17.32.39.63.6.94"/>
  <path class="st0" d="M71.77,125.29c-.16.67-.3,1.23-.41,1.8-.23,1.25-.5,2.5-.33,3.78.21,1.56,1.16,2.62,2.67,3.3,1.24.56,2.59.82,3.96.93,1.91.16,3.84.28,5.76.3,5.02.03,10.04.03,15.06-.04,2.1-.03,4.19-.27,6.28-.43.22-.02.44-.09.75-.16-1.75-3.66-3.96-7.04-6.15-10.49.89-.67,1.73-1.32,2.58-1.96,1.64-1.24,3.29-2.45,4.91-3.71.41-.31.81-.45,1.35-.42.81.04,1.62,0,2.5,0,.99,5.63,1.74,11.2,1.73,16.82,2.29.71,9.4.34,11.41-.28-1.73-3.64-3.95-7.04-6.16-10.47,1.02-.86,2-1.69,2.99-2.51,1.26-1.06,2.54-2.11,3.79-3.18.34-.3.7-.41,1.17-.4,1.1.03,2.21.01,3.39.01.97,5.61,1.75,11.18,1.69,16.85,1.11.28,2.19.27,3.26.36.43.04.86-.03,1.26.24.16.1.45.06.68.06,4.84,0,9.69.02,14.54,0,1.93,0,3.86-.11,5.72-.59.72-.18,1.4-.47,2.31-.78-.44-.29-.69-.5-.98-.63-1.37-.64-2.75-1.29-4.14-1.88-1.19-.5-2.44-.89-3.61-1.42-2.17-.98-4.42-1.05-6.74-.63-1.16.21-2.23.57-3.2,1.22-.41.28-.89.48-1.38.75-.16-.42.08-.65.21-.89,1.32-2.51,3.13-4.7,5.26-6.69.91-.85,1.86-1.68,2.86-2.45,1.59-1.2,3.43-1.71,5.53-1.59,3.7.2,7.05,1.35,10.22,2.99,1.93.99,3.84,2.02,5.79,2.97,3.84,1.86,7.89,3.27,11.99,4.59,2.61.84,5.25,1.58,8.13,1.78-.15.24-.24.43-.37.59-1.99,2.49-3.98,4.96-5.96,7.46-.28.35-.57.44-1.03.4-1.8-.15-3.61-.27-5.41-.4-.2-.02-.4,0-.66,0,0,.76-.1,1.5.04,2.21.08.42.48.84.86,1.14.7.57,1.6.74,2.51.81,2.95.21,5.83-.26,8.63-1.02,2.07-.56,4.08-1.26,6.12-1.88.65-.2.94-.56.89-1.17-.13-1.66-.16-3.33-.39-4.98-.45-3.3-.98-6.6-1.54-9.89-.61-3.58-1.28-7.14-1.92-10.72-.07-.37-.27-.61-.59-.83-.68-.46-1.35-.92-1.99-1.42-.75-.59-.76-.69-.33-1.48,1.57-2.9,3.33-5.7,5.4-8.34.3-.39.64-.76,1-1.1.21-.2.49-.33.82-.55.09.8.16,1.47.25,2.14.18,1.34.87,2.35,2.18,3.08,2.71,1.5,5.38,3.07,8.08,4.59.56.32,1.2.53,1.85.8-.16.19-.3.38-.47.56-2.32,2.58-4.64,5.17-6.98,7.74-.3.33-.43.65-.38,1.08.39,3.65.74,7.31,1.14,10.97.13,1.19-.11,2.32-.43,3.45-.35,1.25-.75,2.49-1.15,3.81.29.13.57.26.85.37,2.11.82,3.99,1.96,5.69,3.36,2.14,1.74,3.06,3.85,2.58,6.47-.53,2.83-1.85,5.32-3.86,7.76-.29-.34-.52-.64-.8-.91-.91-.89-1.83-1.78-2.76-2.67-1.91-1.83-4.3-2.67-7.04-2.71-.3,0-.64.07-.91.2-4.2,2.04-8.71,3.29-13.35,4.16-1.77.33-3.57.5-5.39.27-3.25-.41-4.92-2.22-5.14-5.12-.16-2.03.24-4,.89-5.94.45-1.34.98-2.65,1.47-3.98.06-.15.1-.3.17-.5-.28-.02-.5-.06-.72-.07-1.2-.05-2.39-.07-3.59-.14-2.17-.12-4.24.28-6.21,1.08-1.83.75-3.61,1.6-5.43,2.37-1.27.54-2.55,1.04-3.85,1.51-1.42.51-2.91.71-4.45.71-3.53-.02-7.06,0-10.6,0h-.97c-.09.25-.15.45-.21.62-.72.18-1.33.06-1.8-.4-.79-.77-1.55-1.58-2.31-2.37-.19-.19-.33-.42-.62-.78-.13,1.07-.24,1.97-.36,2.93-1.3.12-2.57.29-3.84.35-3.15.15-6.3.22-9.44.37-.91.04-1.61-.24-2.17-.81-.73-.75-1.4-1.55-2.1-2.33-.11-.12-.19-.25-.4-.51-.13,1.07-.25,1.97-.36,2.92-.96.07-1.88.14-2.81.21-9.41.69-18.84.52-28.27.48-2.98-.01-5.93-.43-8.74-1.42-1.88-.66-3.54-1.61-4.76-3.12-1.3-1.61-1.87-3.44-2.05-5.4-.31-3.36.58-6.5,1.98-9.56.23-.51.39-1.18.83-1.45.43-.26,1.17-.12,1.78-.14.72-.02,1.44,0,2.24,0"/>
  <path class="st0" d="M221.16,100.23c.07.99.15,1.88.19,2.77.21,4.41.4,8.82.6,13.23.23,4.91.42,9.83.72,14.74.11,1.92-.17,3.8-.31,5.69-.16,2.32-.43,4.63-.65,6.95-.05.55-.07,1.11-.15,1.66-.03.22-.12.47-.28.64-1.97,2.13-3.96,4.24-5.95,6.35-.03.03-.09.05-.21.1,0-.67-.03-1.31,0-1.95.07-1.24.23-2.48.25-3.72.02-1.11-.07-2.22-.17-3.32-.25-2.45-.53-4.89-.81-7.33-.3-2.6-.6-5.2-.96-7.8-.41-2.99-.84-5.97-1.32-8.95-.57-3.55-1.21-7.1-1.83-10.65-.11-.6-.18-1.21-.35-1.79-.12-.4.03-.64.33-.89,1.56-1.28,3.1-2.57,4.64-3.86.58-.48,1.17-.96,1.73-1.46.31-.27.63-.42,1.08-.41,1.11.03,2.21,0,3.44,0"/>
  <path class="st0" d="M134.53,154.26c-1.98,1.87-3.91,3.69-5.92,5.59-1.06-1.02-2.07-1.99-3.17-3.05-1.26,1.21-2.48,2.39-3.79,3.64-1.98-1.92-3.92-3.8-5.9-5.7.16-.19.28-.36.43-.51,1.38-1.4,2.78-2.78,4.15-4.19.34-.35.7-.45,1.2-.49.82-.06,1.37.18,1.83.79.39.52.9.97,1.43,1.52.24-.22.45-.42.66-.62.68-.66,1.34-1.32,2.03-1.97.46-.43,1.9-.47,2.31-.04,1.58,1.66,3.13,3.33,4.74,5.04"/>
  <path class="st0" d="M162.03,154.78c-.26.39-.45.78-.75,1.08-1.69,1.71-3.4,3.41-5.14,5.08-.63.61-.71.59-1.5.19-2.29-1.17-4.56-2.34-6.83-3.54-.44-.23-.8-.59-1.25-.93.3-.37.49-.7.77-.96,1.73-1.57,3.47-3.13,5.24-4.66.79-.68.89-.64,1.83-.16,2.08,1.07,4.14,2.16,6.22,3.23.43.22.88.41,1.41.66"/>
  <path class="st0" d="M89.72,155.51c.74-.74,1.41-1.43,2.1-2.11,1.02-1.02,2.06-2.02,3.05-3.05.34-.34.68-.55,1.2-.5.29.03.59-.03.87.02.24.04.53.12.67.27,1.68,1.76,3.33,3.54,4.99,5.31.06.06.07.14.13.26-2.15,2.02-4.31,4.05-6.52,6.12-2.17-2.12-4.29-4.18-6.49-6.32"/>
  <path class="st0" d="M187.52,177.25c.71-.16,1.27,0,1.77.42,1.62-.71,3.16-.64,4.5.35.78-.27,1.48-.62,2.22-.76,1.96-.36,3.98.96,4.32,2.76.05.29.09.58.09.87,0,2.43,0,4.86,0,7.29,0,.13-.02.26-.03.38-1.4.39-2.37-.21-2.37-1.48,0-1.96,0-3.91,0-5.87,0-.31-.03-.64-.13-.94-.17-.52-.78-.88-1.33-.87-.62.02-1.18.41-1.33.97-.07.28-.09.57-.09.86-.01,1.98,0,3.97-.02,5.95-.02.97-.64,1.5-1.71,1.51-.2,0-.4-.03-.71-.06v-.87c0-2.25,0-4.5,0-6.74,0-.33-.03-.71-.19-.99-.25-.45-.75-.68-1.32-.62-.56.06-1,.33-1.17.83-.11.3-.14.62-.14.93-.01,1.9,0,3.81,0,5.71,0,1.4-.67,1.92-2.26,1.75-.18-.55-.23-10.45-.05-11.4"/>
  <path class="st0" d="M113.16,188.67c-.18.02-.32.04-.47.04-1.18,0-1.85-.58-1.85-1.64,0-1.93,0-3.86,0-5.79,0-.24,0-.48-.03-.71-.1-.66-.75-1.17-1.44-1.14-.67.02-1.26.51-1.35,1.14-.03.24-.02.48-.02.71,0,1.88-.07,3.76.02,5.63.07,1.23-1.06,2.13-2.47,1.68v-.74c0-2.25,0-4.49,0-6.74,0-.21.02-.43-.03-.63-.12-.59-.72-1.05-1.35-1.05-.67,0-1.31.47-1.42,1.08-.04.23-.03.47-.03.71,0,1.9,0,3.81,0,5.71,0,1.37-.77,1.93-2.36,1.7v-11.34q.94-.12,1.84.37c1.61-.7,3.14-.6,4.56.46.29-.17.55-.33.83-.47,2.45-1.23,5.56.28,5.65,2.81.09,2.67.02,5.34.02,8.01,0,.05-.04.1-.09.21"/>
  <path class="st0" d="M143.47,174.34c.27,0,.5-.02.73,0,.97.08,1.57.66,1.61,1.57.02.47,0,.94,0,1.39.81,0,1.55-.09,2.25.02,1.73.28,2.98,1.64,3.01,3.24.03,1.53-.03,3.06.02,4.59.07,2.36-2.54,4.28-5.37,3.29-.13-.05-.27-.1-.41-.16-.29.13-.56.3-.85.36-.3.07-.63.04-.93.05-.18-.61-.24-13.11-.07-14.36M148.65,182.99v-2.22c-.04-.83-.64-1.38-1.46-1.37-.77.02-1.37.58-1.38,1.36-.02,1.45-.02,2.9,0,4.36,0,.82.62,1.41,1.42,1.4.82,0,1.4-.57,1.42-1.4.02-.71,0-1.43,0-2.14"/>
  <path class="st0" d="M89.1,188.6c-.51-.12-1-.24-1.45-.34-.73.15-1.45.4-2.18.43-2.09.08-3.74-1.32-3.9-3.22-.17-2.08.95-3.42,3.22-3.86.62-.12,1.25-.23,1.94-.36.03-.2.06-.4.08-.6.07-.64-.17-1.16-.82-1.44-.63-.27-1.18-.07-1.68.34-.77.62-1.64.97-2.7.77-.03-1.43.92-2.69,2.39-3.21,1.49-.53,3.25-.13,4.3.96.57.6.94,1.29.94,2.08.01,2.72,0,5.44,0,8.16,0,.05-.04.1-.13.31M86.8,183.51c-.7.13-1.3.2-1.88.37-.74.21-1.08.86-.91,1.59.15.66.8,1.11,1.51,1.05.71-.06,1.23-.58,1.26-1.29.03-.54,0-1.09,0-1.72"/>
  <path class="st0" d="M183.13,183.06c0,.76.02,1.53,0,2.3-.05,1.87-1.69,3.33-3.77,3.35-2.12.02-3.86-1.42-3.9-3.31-.04-1.64-.04-3.27,0-4.91.05-1.85,1.78-3.29,3.85-3.28,2.06,0,3.77,1.48,3.82,3.32.02.84,0,1.69,0,2.54M180.7,183.05h0c0-.79.02-1.59,0-2.38-.03-.76-.58-1.26-1.37-1.27-.79-.02-1.44.47-1.45,1.2-.04,1.56-.04,3.12,0,4.68.02.72.67,1.24,1.42,1.25.77,0,1.39-.57,1.41-1.33.02-.71,0-1.43,0-2.14"/>
  <path class="st0" d="M125.21,183.02c0,.82.02,1.64,0,2.45-.07,1.76-1.63,3.15-3.61,3.23-1.98.08-3.74-1.17-3.97-2.88-.1-.75-.07-1.53-.08-2.29,0-1.06,0-2.11.03-3.17.08-2.06,2.5-3.66,4.92-3.03,1.23.32,2.76,1.58,2.72,3.15-.02.84,0,1.69,0,2.54h0ZM122.81,182.94h0c0-.76.03-1.53,0-2.29-.04-.86-.84-1.4-1.74-1.22-.66.13-1.11.66-1.12,1.42-.02,1.42-.02,2.84,0,4.27.02.82.63,1.41,1.42,1.42.85.01,1.42-.56,1.44-1.46.02-.71,0-1.42,0-2.13"/>
  <path class="st0" d="M168.83,184.84h2.18c.44,1.56-.86,3.25-2.52,3.71-1.84.52-3.72-.18-4.61-1.71-.34-.58-.46-1.2-.46-1.84,0-1.32,0-2.65,0-3.97,0-.69.11-1.37.48-1.99.89-1.49,2.79-2.19,4.56-1.67,1.52.44,2.95,1.97,2.56,3.77-.58,0-1.19.03-1.79-.02-.18-.02-.36-.21-.49-.36-.08-.09-.07-.25-.11-.38-.19-.58-.72-.97-1.33-.98-.6,0-1.17.37-1.37.93-.07.2-.1.41-.1.62,0,1.32,0,2.64,0,3.97,0,.23.03.48.11.7.21.55.81.91,1.41.88.59-.03,1.08-.4,1.26-.94.07-.22.13-.45.2-.73"/>
  <path class="st0" d="M128.33,192.79v-2.11c.3-.14.6-.23.85-.4.43-.29.56-.71.55-1.19,0-1.5,0-3.01,0-4.51,0-1.77,0-3.54,0-5.31,0-1.44.66-1.98,2.37-1.86.02.21.05.44.05.67,0,3.72.01,7.44,0,11.17,0,1.66-1.04,2.93-2.72,3.38-.32.09-.67.1-1.1.16"/>
  <path class="st0" d="M93.58,188.6c-.02-.21-.05-.44-.05-.67,0-3.89,0-7.77,0-11.66,0-1.46.64-1.98,2.38-1.9,0,.25.03.5.03.75,0,3.94-.05,7.88.03,11.82.02,1.27-1.13,2.06-2.39,1.66"/>
  <path class="st0" d="M136.59,188.61v-1.3c0-2.73,0-5.45,0-8.18,0-1.44.66-1.98,2.36-1.9.03.19.08.39.08.59,0,3.04.01,6.08,0,9.13,0,1.36-.8,1.91-2.44,1.66"/>
  <path class="st0" d="M158.71,187.34c.02.77-.6,1.35-1.46,1.37-.8.01-1.43-.54-1.45-1.28-.02-.76.53-1.32,1.35-1.35.87-.03,1.54.5,1.56,1.26"/>
  <path class="st0" d="M130.94,173.89c.71,0,1.26.5,1.26,1.16s-.57,1.15-1.27,1.13c-.67-.02-1.2-.5-1.21-1.11-.01-.65.54-1.18,1.23-1.18"/>
  <path class="st0" d="M138.68,174.91c-.01.65-.6,1.16-1.3,1.12-.71-.03-1.24-.57-1.2-1.21.03-.61.59-1.09,1.25-1.09.71,0,1.26.53,1.25,1.17"/>
</svg>