<?xml version="1.0" encoding="UTF-8"?>
<svg id="Layer_1" data-name="Layer 1" xmlns="http://www.w3.org/2000/svg" viewBox="0 0 206.67 184.44">
  <defs>
    <style>
      .cls-1 {
        fill: #efede5;
      }
    </style>
  </defs>
  <path class="cls-1" d="M30.28,148.59c1.34-1.66,2.18-3.67,3.28-5.48,1.37-2.25,3.24-4.49,4.33-6.91.82-1.82-.19-1.95-.46-3.51-.18-1.07-.33-3.2.16-4.14.23-.45.69-.7.88-1.06.66-1.27,0-2.83.02-4.07.04-3.03.64-6.5.24-9.53-.17-1.27-2.36-2.39-2.35-4.31l.8-5.17c1.44.02,1.38-.85,1.54-2.07l1.16.2c.68-.33.15-.94.18-1.39.19-3.22.12-6.45.18-9.72.05-2.62.74-3.64-1.09-6.05-.37-.49.08-.93-1.06-.77-.7-1.95.52-3.49.74-5.4l1.81-.24c.47-.29.02-4.23.02-5.06-.02-2.35.51-3.74-.6-6.08-.6-1.26-1.49-1.33-1.13-3.21.1-.5.5-.4.65-.7.28-.57-.06-1.58.03-1.74.1-.17,1.73-1.42,2.13-.9.62-.94-1.32-4.31-1.26-4.61.14-.76,1.37-.72,1.49-.93,1.1-1.9-1.37-6.89,2.15-8.01,0-.87-.09-1.74.17-2.59.22-.72,1.04-2.02,1.12-2.79.06-.52-.42-.87-.42-1.28,0-.6.82-.92.64-1.93-.06-.33-.43-.6-.43-.88s.38-.54.42-.87c.12-.96-.17-1.96.23-2.91.32-.3.39.02.43.32.09.71-.02,1.62,0,2.38.02.71-.06,2.4,0,2.8.07.45.57.78.61,1.13.04.39-.49.79-.39,1.46s1.1,1.93,1.25,2.66c.18.88-.15,2.01.19,2.82.18.43.64.3.95.64,1.23,1.34.38,5.6.63,7.41,3.37-.06-.37,3.3.03,5.04.23.96,1.91.14,2.57,1.33.38.68.06,1.17.24,1.71.1.32.73.28.76.91.08,1.38-.94,2.15-1.34,3.11-.53,1.27-.7,3.48-.76,4.86-.04.95-.16,5.23.04,5.82s1.76.32,2.25.77c.21.51.02,1.07.14,1.59.1.43.56.71.58,1.11.1,1.92-1.22,2.08-1.75,3.42-.19.47-.78,2.66-.8,3.1-.04.73.38,1.33.43,2.12.25,3.91-.2,8.07,0,12,.31.36,1.19-1.13,1.1-1.49l.85.07c.26.9,1.24,1.3,1.44,2.23.22,1.01-.12,2.25.06,3.18.09.47.57.68.59.86.1,1.15-2.26,4.03-2.42,4.84-.07.33.16.81.12,1.21-.07.76-.35,1.49-.23,2.27.55.1.39-.08.53-.43.37-.93.54-1.92,1.02-2.88,2.39-4.81,8.1-6.17,11.92-9.47.18-.16,1.15-1.21,1.24-1.37.26-.43.09-2.68.22-3.44.04-.23.07-.81.41-.78l.2,4.22c3.93,4.77,11.75,6.61,13.32,13.28.22.92.13,2.32.36,3.1.11.39.66.56.78.95.31,1.03.01,3.48.29,4.68.14.41,1.07.55,1.48.57-.08-.33-.67-.7-.81-1.46-.17-.94.14-1.84.07-2.55-.04-.38-.46-.63-.54-1.08-.4-2.12.9-4.72,1.83-6.58.27,1.34-.92,2.56-1.14,3.83-.15.89-.31,3.07,1.04,2.51l.42-.72c.39,1.9-2.12,2.52-1.05,4.4,1.03,1.82,1.93-1.25,2.57-1.92,2.13-2.21,2.08,1.27,4.01,1.4,1.03.07,1.63-.91,2.2-1.03.49-.1,1.37.41,1.97.15.65-.4-.85-3.78.24-4.29.69,1.14.24,3.62,1.52,4.21,1.8.84-.23-2.73.76-2.7.98.92,1.24,3.97-.45,4.1-.58.05-1.88-.61-1.36.95.55,1.62,4.96-1.65,5.34-2.61l-1.04-5.46c.69-.12.59.92.89,1.38.54.81,1.29-.53,2.12-.53.17-.23-.81-2.86-.2-3.44.35-.34,1.14,1.11,1.08,1.6-.04.34-.57,1.04-.43,1.21.36.43.61-.75.86-.65-1.17,2.59,1.17,5.48-.27,8.05-.59,1.05-1.84,1.32-2.38.1-.22-.49-.03-1.09-.49-1.45-.81,1.24-3.41,3.77-4.94,3.62-1.86-.18-.81-2.98-.57-4.05-.78-.12-.31,1.05-1.01,1.27-.59.19-1.21-.43-1.66-.36-.95.15-1.4,1.96-3.25,1-1.18-.61-1.35-2.74-2.73-1.38-1.02,1.01-.73,2.56-2.59,2.48.07.3-.24,1.52.32,1.29.37-.15,3.17-2.14,3.35-1.94.26,1.37-3.4,2.03-3.65,2.73-.58,1.61,1.71,1.15,1.91,1.72.25.72-.52.96-.59,1.3-.15.7,1.16,2.77.17,3.43l.21.22c4.21.85,8.61,2.41,12.87,2.91,7.12.84,14.76-1.39,21.73-2.91,5.72-1.25,11.52-3.26,17.39-3.57,7.71-.41,16.35.28,23.96,1.54.89.15,3.65.61,4.3.89.94.39.57,1.94.66,2.63.18,1.48,3.68,6.04,4.64,7.63,1.38,2.29,2.49,4.74,3.93,6.98v.65h-2.16l-5.95-.65c-18.58-1.26-37.27-2.33-55.76-4.01-5.98,4.05-13.38,4.38-19.23-.11-3.67.37-7.36.81-11.04,1.09-10.93.84-21.89,1.57-32.85,2.38-3.53.26-7.8,1.09-11.24,1.08-1.76,0-4.01-.51-5.84-.65-.68-.05-1.37.03-2.05,0v-.65ZM103.97,117.26l-2.15.43c.57,1.35.49,3.27.97,4.54.26.71.73.84,1.4.53,1.52-.69-.22-4.22-.22-5.5Z"/>
  <path class="cls-1" d="M100.74,47.21l-1.19-1.94-.34.75c.78,7.38,3.38,15.34.88,22.59.37.1.43-.15.65-.32,4.41-3.43,6.88-7.42,13.04-3.75,4.41,2.63,2.71,6.07-.29,9.04,2.79-.66,5.23-2.19,7.55-3.8.57-.39,3.07-2.83,3.69-2.25-.7,1.97.74,3.74,2.49,4.49,2.99-3.24,7.72-10.56,12.7-10.27,2.39.14,6.29,2.6,7.34,4.77.96,1.99-.57,5.2-2.2,6.53-.03.17.2.13.32.1,1.29-.33,4.58-1.46,5.67-2.11.29-.17.45-.2.5-.6.13-.91-.87-4.79-1.06-6.08-.93-6.44-1.45-12.97-2.44-19.39-.08-.5-.17-1.41-.33-1.82-.1-.26-.48-.24-.51-.4-.07-.42,1-3.31,1.2-3.31,1.57,1.92,2.84,4.06,4.34,6.03,4.37,5.73,8.57,10.62,11.22,17.53,2.84,7.4,2.7,15.05-.32,22.36l.45.24c2.3-.74,3.08,4.87,2.74,6.2-.12.47-1.54,2.83-2.03,2.92-2.32-.4-5.19-1.66-5.94-4.03-1.48-.23-2.22,1.47-3.08,2.28-.68.63-2.39,1.83-2.83,2.46-.69,1-1.02,3.17-1.67,4.38-1.94,3.62-10.5,8.44-14.55,8.79-6.47.56-7.38-5.86-6.16-10.8-1.55.29-3.37.5-4.54-.82-.64-.72-.47-1.51-.97-2.21-2.15.95-4.17,2.16-6.42,2.87-3.49,1.1-8.37,1.93-11.07-1.15l-.87-1.93c-1.61,3.7-4.67,5.49-7.14,1.3-1.08,1-1.53,2.21-2.89,2.94-2.81,1.51-4.75.43-5.99-2.29-5.53,2.65-9.97,4.49-14.8-.54-1.81-1.88-1.77-3.64-4.94-2.15-1.36.64-2.55,2.1-3.35,3.35-1.54,2.39-3.47,9.27-7.04,4.85-2.15-2.66-2.69-7.75-1.67-10.96.26-.82.94-1.21,1.03-.28.07.68-.42,2.39-.45,3.24-.07,1.82.21,3.43,1.41,4.88,3.04,3.66,5.2-2.85,6.51-4.74,1.06-1.53,2.75-3.23,4.48-3.95.65-.27,1.82-.76,2.42-.41.96.55,2.41,3.13,3.67,4.12,3.14,2.45,6.73,2.06,10.26.76,1.61-.6,3.11-1.66,4.76-2.05.3.29-1.67,2.36.96,3.25,1.58.54,3.64-.13,4.86-1.22.81-.72,2-3.03,2.72-3.33.8-.33-.22,1.38-.24,1.5-.2,1.15,1.66,2.13,2.64,2.15,2.39.06,2.88-3.85,4.08-3.87.02,1.81,1.08,2.93,2.71,3.57,3.86,1.52,9.29-.18,12.96-1.73.93-.39,2.33-1.37,3.14-1.61.31-.09.38.03.32.32-1.26,1.47-.25,2.37,1.33,2.77,2.05.51,4.09-.56,5.33-2.16.47-.61,1.8-3.34,2.52-3.31.88.04-.53,1.64-.5,2.01.15,1.66,3.41,2.3,4.71,1.65l-.82-2.02,1.36-2.74c2.72,3.27-.34,10.76-5.23,7.82-1.72-1.03-1.42-2.01-3.18.41-1.73,2.38-2.37,6.14.32,8.07,3.87,2.77,11.61-1.36,14.97-3.81,1.22-.89,3.87-2.43,2.95-4.07-1.84.66-4.22,1.44-6.04.32-2.94-1.81-.58-6.4,1.87-7.63,2.07-1.03,2.2.36,3.31.09,2.32-1.57,5.19-2.76,7.25-4.66,2.32-2.15,1.18-1.27.1-2.49-1.52-1.7,1.82-4.85,2.71-3.79s-.28,2.53-.11,3.56c.11.7,1.2,1.15,1.42,1.64.12.26-.03,1-.12,1.07-.34.25-1.38-1.26-2.02-1.07-2.02,3.29-5.55,4.26-8.63,6.09-.76.45.27,1.13.71,1.79.29.43.52.88.67,1.38,2.85-.21,4.57-2.88,6.69-4.39,2.15-1.53,3.5-1.14,4.46-3.97,4.2-12.34-1.84-23.72-9.14-33.32-.81-1.07-2.29-3.17-3.12-4.01-.21-.21-.28-.41-.64-.33.01.46-.04.94,0,1.4.37,4.64,1.21,10.25,1.98,14.88.16.97,1.12,6.89,1.79,7,4.5-1.36,7.46-.48,6.01,4.77-.96,3.47-2.87,4.39-5.6,1.71-.62-.61-1.34-2.19-1.69-2.52-.2-.18-.37-.26-.65-.23-3.93,1.5-7.69,2.97-11.92,3.45-4.58.52-9.59.63-13.78-1.47l-1.64,2.36c-.35-.78.92-2.41.83-2.89-.05-.28-1.08-1.06-1.36-1.45-.56-.79-.86-1.74-1.31-2.58-1.6,1.04-3.04,2.34-4.72,3.28-5.73,3.21-17.53,5.07-23.98,4.02-3.09-.5-5.41-3.04-6.24-5.97-.65-.42-4.19,1.19-5.16,1.27.43.63,1.41.4,2.22.69,3.51,1.26,2.5,5.46.16,7.41-2.21,1.84-10.01,5.1-12.92,5.88-2.96.8-5.1.86-8.05-.07-.42,1.54-2,3.71-1.34,5.26.42.98,1.12.84,1.67.06.2,1.62-1.49,2.79-2.29.77-.83-2.12.94-4.51,1.54-6.49-6.09-3.69-4.62-12.06-1.1-17.09-.72-1.16-1.14-2.31-1.29-3.68-.27-8.63,5.72-15.61,8.43-23.45.87-.86-.04,2.17-.12,2.37-1.87,5.23-8.46,14.59-6.2,20.04.54,1.3,1.84,2.29,2.82.79.37-.57.39-1.53,1-2.02.31-.02.46.13.45.44,0,1.55-1.87,5.49-3.38,5.94-.36.11-.75-.15-.97.08-.82.9-2.35,4.51-2.49,5.74-.48,4.3,2.31,7.84,6.62,8.3,3.93.41,7.91-1.28,11.47-2.75.79-.33,6.14-2.57,6.33-2.86.41-.62-1.07-1.24-1.51-1.39-1.28-.43-7.19-.84-7.68-1.63-.04-.65.38-2.18.72-2.75.42-.7,2.98-1.62,3.88-1.95,1.92-.71,3.94-1.13,5.86-1.81-.26-2.89-.91-6.39,1.33-8.72,3.57-3.72,5.72,1.25,5.63,4.54-.06,2.18-1.67,5.11-3.89,5.73-.4.58,3.06,4.43,5.07,3.01,1.26-.88,3.66-3.54,4.07-5.01,1.54-5.49-1.35-20.54-2.24-26.86-.06-.4-.35-.69-.41-1.09l1.4-2.7c.23-.4.46,0,.63.22.48.65,2.99,6.7,3.1,7.5.08.58.14,1.16-.6,1.13ZM88.21,68.83c.22.16,3.72-1.31,3.85-1.87-.09-1.67-1.15-4.86-3.37-4.01-2.88,1.1-.88,3.79-.49,5.88ZM145.7,69.91c-1.37-2.83-5.11-5.23-8.31-4.74-3.05.47-6.83,4.53-8.66,6.9-.17.22-.42.28-.32.65,5.76,1.56,12.15-.06,17.29-2.81ZM95.99,74.88c5.04.07,10.98-1.05,15.61-3.08,3.59-1.58,3.94-2.25.28-4.27-6.22-3.44-11.26,2.86-15.53,6.75-.21.19-.46.19-.36.61ZM158.88,74.45c-.04-1.4-1.84-1.89-3.02-1.73-.06.92,2.54,2.19,3.02,1.73ZM159.31,81.37c.39-1.01.24-3.16-1.01-1.66-.7.85.11,1.57,1.01,1.66ZM164.5,90.88c-.3-1.79-.85-2.79-2.81-2.16-.34.32,2.1,2.51,2.81,2.16ZM149.16,93.69c-.4-1.43-2.63-2.54-3.65-1.15-.31,1.22,2.94,1.25,3.65,1.15Z"/>
  <path class="cls-1" d="M107.66,116.17l.86-.43c.05.58-.57.89-.65,1.42-.13.84.45,2.1.44,3-.03,1.57-1.52,3.06.35,4.21.82.14,1.65-3.06,3.45-3.22,1.01-.09.75.43,1.18.74,1.53,1.1,3.43,1.29,5.22.71.69-.22,1.44-.98,1.8-1.03.3-.04,2.28.59,1.94-.21-1.02-.87-1.19-1.12-.65-2.38.8-1.88,2.38-2.58,3.35-.43-.74-.07-1.13-.38-1.89-.05-1.64.71-.71,2.04.68,1.99.84-.03,1.53-.88,2.19-1.07.29-.08.4.03.32.32-.48,1.61-3.74,1.75-4.23,3.77-1.1,4.55,4.72,1.41,6.39.23l-.11-.43c-.55-.02-1.88.18-2.13-.49-.24-.65.44-2.37,1-2.61,1.02-.52,1.31,1.42,1.81,1.57.68.19,1.56-.73,1.95-.79.56-.09,1.95,1,2.35.39.43-.65-.51-3.24-.55-4.12l-1.29.22.87-.79-.23-3.42.43-.11c.75,1.08.69,1.54.44,2.81l.86-.65c.06.53-.55.96-.59,1.44-.1,1.08,1,3.09.55,5.11-.48,2.16-2.66,0-3.35.31-.1.04-1.25.72-1.3.77-.31.28-.39,1.35-1.38,2.19-3.11,2.66-7.43,3.7-6.23-2.11l-1.5-.55c-.6,1.44-2.83,1.8-4.26,1.71-1.72-.12-2.54-.97-3.84-1.92-1.84.16-2.95,6.66-4.47,1.27l-3.67,1.73c-.12-.58.15-.37.43-.54.93-.56,3.04-1.85,3.37-2.91.4-1.31-.03-3.04-.34-4.34-.21-.2-1.9,1.06-1.73,0,2.87-.21.52-2.83,1.62-4.32,1.04,1.19.97,1.56.54,3.03ZM126.68,122c.14.13.86-.1.86-.32,0-.64-1.27-.06-.86.32Z"/>
  <path class="cls-1" d="M120.77,76.55c-.8.91-5.5,2.18-6.9,2.71-1.29.49-6.62,2.26-7.28,2.87-.88.8-2.91,5.84-.77,6.37,1.56-1.15.71,1.02-.09,1.19-3.02-1.2-1.06-4.65-.2-6.68.14-.34.24-.25-.14-.57l-19.13,8.97-.64-.23.71-1.22c11.21-5.41,22.62-10.39,34.42-14.43l.29.5c-.06.18-.12.36-.25.51Z"/>
  <path class="cls-1" d="M114.79,57.81c.78.59-1.07,4.87-2.78,2.02-2-3.33,1.47-7.85,2.6-10.96.12-.32.26-.25-.14-.57l-12.43,6.04c-.17-1,.61-1.36,1.32-1.81,2.09-1.33,5.17-2.66,7.46-3.78,5.64-2.75,11.46-5.15,17.05-8.02.89.91-1.27,1.98-1.97,2.35-3.28,1.69-7.13,2.86-10.25,4.88-.87,2.42-4.19,8.39-2.97,10.77.98,1.9,1.57-1.33,2.11-.92Z"/>
  <path class="cls-1" d="M73.07,49.16c-.46-.26-2.16,1.04-2.27,1.28-.18.4.42,2.67.97,2.93,1.42.68,2.75-.44,3.61-.5.3-.02.53.39.83.4,1.23.05,2.15-4.75-.11-4.33.06-.87.68-.8,1.2-.23.81.89.64,2.68.09,3.69.51.07.74-.54,1.22-.59.28-.03,1.08.23,1.15.5.39,1.33-2.89,1.51-2.96,1.92l.59,3.14c.42-.03.19-.74.48-1.03s1.97-.51,1.68.06c-.25.5-1.91.18-1.41.98.6.96,1.37-.47,2.06-.12-.6.66-1.48,1.36-2.43,1.14-1.24-.29-.67,0-1.32,0-.28,0-1.41-.77-1.34.25.05.82.57-.05.88.44l.1,1.51-.59-.5c.31-1.91-1.51.58-.49,1.03.89.39,1.56-.3,2.16-.86l-.66-.65.56-1.19c2.51,1.25-1.2,4.13-2.28,3.36l-.41-.9-.66.13c.49-.2,1.67-2.57.76-2.59-.85-.01-.33,1.64-1.19,2.06-1.11.53-1.38-.77-1.83-.78-.72.05-.92,1.56-1.72,1.31s-.3-1.83-.36-1.91c-.05-.07-.45-.12-.64-.34-.71-.84-.16-1.47-.25-2.13-.09-.7-.76-1.4.15-2.32l-.08,1.36c.3.89,2.77.32,3.22-.39l-1.05-.13c-.47-.66.15-1.21.15-1.8,0-1.14-.4-2.64-.61-3.79l.54.43c1.36-.61.98-1.17,1.19-2.38.76.06,1.21.83,1.08,1.51ZM79.12,52.4c-.7-.08-1.41.21-1.73.86.54-.09,1.75-.06,1.73-.86ZM74.8,53.92c.44-.21,1.02.93.86,1.08h-.32c-.37-.29-.63-.58-.54-1.08-.55.15-1.94.3-2.5.23-.83-.11-1.02-.95-1.39.1l1.2.76c.73,1.39-2.52,1.8-3.27,2.15l.13,1.31c.7.07.84-.78,1.24-1.09,1.41-1.08,1.46,1.1,3.08.65,0-.66-.09-1.23-.86-1.08.88-.74.34-1.36.43-2.38,1.29.72.39,2.35.86,3.46,1.12.1,1.14-.91,0-.87-.24-.58.54-.41.63-.77.11-.45-.79-1.39-.09-1.82l.33,1.29c.08.09,1.56-.87,1.94-.11l-.97.97-.1-.64c-.83-.16-1.04,1.23-.64,1.51.11.08,1.45-.38,1.83.22.6-.03,0-3.31-.16-3.62-.03-.06-1.01-.71-1.14-.71-.38-.01-.5.43-.54.44ZM70.26,60.4l1.21-1.51c.39-.09.53.59.88.83.68.48,1.44.15,1.15-.71-.17-.49-1.05-.29-1.51-.44s-.8-.88-1.35-.75c-.76.19-.87,1.41-1,2.05l.63.52Z"/>
  <path class="cls-1" d="M128.41,48.73l.13-.66,6.57-3.34c-2.01-.56-4.2-.34-6.27-.21-.61-.37,1.01-2.64,1.43-2.9.71-.45,7.09-.39,7.77.19.47.4.07,1.15-.16,1.58-2.06,4.03-5.47,4.38-9.47,5.33Z"/>
  <path class="cls-1" d="M143.49,117.52c.22.25.23,1.89.81.6.38,1.33,1.46,1.33,2.25,2.07,1.25,1.18,1.06,2.39-.25,3.38-.59.44-5.19,2.93-5.69,2.98-.26.03-.5.03-.74-.1-1.24-.6-.2-3.14-.54-3.14-2.98,1.77-6.17,2.97-9.62,3.46,1-.9,2.22-1.15,1.51-2.81l-.86.22c.02-1.57,1.49-.91,1.5.33,0,.39-.87,1.31-.09,1.19.63-.09,3.3-1.39,4.08-1.76.9-.43,4.42-2.09,4.64-2.92.4-1.47-1.2-.06-1.37-.06-1.44,0-.73-2.94.22-3.46.28-.06,1.03.99,1.15,1.22,1.56,2.99-1.33,3.73-.59,6.53.92.21,1.68-.4,2.4-.84.61-.37.71-.36,1.18-.6s2.98-1.44,3.06-1.59c.37-.65-1.96-2.07-2.62-1.89-.2.05-.51.49-.59.4-.16-.37.38-.56.38-.76,0-.5-2.35-2.01-1.68-3.13.3.37,1.29.5,1.46.7ZM139.43,118.98c-.79,0-.79.64,0,.65v-.65Z"/>
  <path class="cls-1" d="M142.67,55.21c.64-.48,2.08.86,2.17,1.42.33,2.31-4.28,3.97-3.37-.35.35-1.65,2.49-3.38,0-4.69-3.9,4.73-9.49,8.55-15.45,10.11-.12-.58.15-.37.43-.54.98-.58,2.1-.91,3.1-1.45,4.03-2.17,8.13-4.87,11.17-8.29l-1.39-1.19c-1.17-1.13.36-3.75,1.56-4.06,1.93-.49.81,3.28.95,3.92.08.36.81.77,1.05,1.12.9,1.35-.06,2.59-.21,4ZM141.16,47.43c-1.9.28-1.59,2.23.22,2.16l-.22-2.16ZM142.67,55.43c-1.57,1.35,0,3.59,1.3,1.62-.57-.5-1.36-.71-1.3-1.62Z"/>
  <path class="cls-1" d="M121.76,83.8c-.21.21-1.73,3.78-1.77,4.18-.06.59.09,2.04.78,2.22.95.25.76-1.49,1.58-1.71.01.74-.73,2.58-1.45,2.78-.72.26-1.31-.65-1.47-1.26-.57-2.17.84-3.87,1.41-5.84l-10.53,4.49c-.95.34-.35-.91.04-1.26,5.41-2.47,10.92-4.77,16.49-6.86,2.03-.76,4.31-1.73,6.37-2.27.97-.25,2.17-.61,1.02.8l-12.47,4.72Z"/>
  <path class="cls-1" d="M95.34,105.14c-.17-.94-3.01.14-3.37-2.16-.18-1.11.86-2.6,1.98-2.8,2.16-.4,2.91.58,4.59,1.22,1.04.4,2.01-.12,2.1,1.35.07,1.11-3.07,1.91-2.49,2.39,1.19.3,1.43-.68,2.17-1.17.41-.27,1.69-.74,1.84-.99.24-.38-.43-1.46.2-1.94.58.82.64,1.83.11,2.65-.14.22-.46.26-.65.59.46-.2,1.52-.22,1.85-.87.28-.55-.4-1.4.2-1.94,1.31,1.6-.41,3.91-2.27,3.67-.05-.33.05-.59.22-.86-1.01.43-2.48,1.88-3.15,1.95-1.3.13-1.04-1.02-1.3-1.09-.23-.06-1.69-.03-2.03.01.24,1.35-3.17,1.96-4.18,2.63-.62.41-1.01,1.1-1.66,1.48.06-1.95,4.23-3.88,5.83-4.11ZM98.98,102.95c.35-.61-1.32-1.37-1.76-1.53-1.13-.41-3.14-.72-4.13.07-.9.72,0,1.92.89,2.1,1.06.22,1.75-.54,2.65-.83l-.43,1.29c.86.1,1.15-.54,1.08-1.3l.76.86.94-.67Z"/>
  <path class="cls-1" d="M64,78.34c-.08-.39.19-.54.44-.74,1.85-1.5,4.89-2.81,6.97-4.27s4.01-3.12,5.35-5.26c0-.62-1.49-.79-1.71-1.56-.33-1.16,1.53-4.3,2.69-3.32.93.93.08,2.81.33,3.55.18.53,3.57,1.57,1.48,2.64-2.37-2.48-2.34-.38-3.68,1.29-2.85,3.56-7.96,5.53-11.88,7.68ZM77.39,66.45c-.06-.53.35-2.41-.72-2.13-1.42.38-.71,2.26.72,2.13Z"/>
  <path class="cls-1" d="M104.42,109.25c-.11-.63.15-.35.5-.46,1.45-.44,2.67-.66,4.11-1.3,3.38-1.51,7.71-5.51,11.47-4.93.72.11,1.71.89,2.37.85.94-.06,1.9-1.1,2.18-1.95h.54c-.51.91.15,1.41,1.08,1.3l.33-1.51c1.06.55.13,2.48-.75,2.71-.7.19-1.28-.59-1.6-.53-.23.04-.82.8-1.23.94-1.6.55-2.02-.34-3.14-.52-5.12-.83-10.37,6.07-15.87,5.39Z"/>
  <path class="cls-1" d="M168.83,116.6l.64-.43c.18.61-.39,1.14-.41,1.61-.02.59.53,2.04.6,2.85.1,1.16.24,2.88-.93,3.55-2.03,1.17-2.28-1.91-2.51-3.14-.07-.35.15-.38-.42-.33-.24,1.78-1.51,2.83-3.03,3.56-1.28.62-2.96,1.12-4.32,1.62,2.12-2.13,7.16-3.1,7.15-6.81,0-1.59-.49-3.26-.45-4.86.55-.1.39.08.53.43.63,1.58.52,3.57.82,5.24.08.46.49,2.35.64,2.61.54.94,2.18.78,2.13-.59-.02-.55-.62-3.68-1-3.77l-.96.19c-.18-.71.64-.37.87-.79.26-1.02-.89-3,.2-3.75.44,1.3,1.18,1.29.44,2.81Z"/>
  <path class="cls-1" d="M95.98,41.81c.12.7-.21,1.14-.79,1.48l-14.77,7.6c-.32-1.38,1.42-2.03,2.45-2.63,3.04-1.77,9.16-5.13,12.31-6.28.27-.1.5-.23.8-.17Z"/>
  <path class="cls-1" d="M148.06,113.15c1.22,2.6.38,5.59.66,8.31.25,2.42,2.16,1.66,3.77.96l.42.45c1.34-.14,1.41-.99,1.97-1.95l.2.88c.21.32,1.1.31,1.32,0s-.2-1.04.53-.87c0,.78.16,1.66-.43,2.28-.49.3-1.35-.38-1.81-.29-.25.05-.82.82-1.53,1.05s-3.21.57-3.86.37c-1.5-.44-.94-4.18-1.02-5.46s-.24-2.74-.48-4.06c-.21-.6-.74-.32-1.04,0-.28.3-.55,1.56-1.07.81.23-.56,1.64-2.96,2.36-2.47Z"/>
  <path class="cls-1" d="M114.79,40.3c-.4.38-.6-.77-.99-.85-.69-.15-.9,1.59-.95,2.05-.11,1.21.38,4.95-1,5.48-.14.06-.53.13-.51-.11.05-.64-.95-3-1.36-3.26-.38-.25-1.5-.17-2.05-.44-1.2-.58-.53-2.47.49-2.41,1.34.08,3.09,3.29,3.46,4.52.73-.31.09-2.45.1-3.12.02-.85.67-4.01,1.66-4.19,1.02-.04,1.8,1.73,1.15,2.34Z"/>
  <path class="cls-1" d="M123.87,52.19c-.71,1.97-.38,4.27-.75,6.28-.07.4-.58,1.84-1.09,1.72l-1.86-4.09c-1.71.18-3.59-1.14-1.7-2.72,1.35-.64,3.59,4.3,3.78,5.31,1.16-1.1-.09-7.61,1.96-7.79.99,0,2.36,2.05,1.18,2.5l-1.51-1.19Z"/>
  <path class="cls-1" d="M159.31,117.25c.47.84.92.79.44,1.94l.65-.21c-.44,1.32.57,1.9.02,3.37-1.19,3.16-8.43,4.43-11.15,5.71l-.11-.54c2.55-1.19,5.29-2.11,7.76-3.48,1.51-.84,3.93-1.8,2.62-3.76l-.86.43c-.09-.44.39-.55.41-.96.04-.6-1.07-2.41.23-2.49Z"/>
  <path class="cls-1" d="M89.92,56.93c-.24.07-.42,0-.63-.1-.25-.12-2.85-1.89-2.94-2.05-.34-.63.79-2.52.99-3.24.17-.13,3.46,1.67,3.64,2.32.2.75-.92,2.25-1.06,3.08Z"/>
  <path class="cls-1" d="M94.04,81.37l-.65-1.19-.55.11c-.53,1.42-.06,6.2-1.73,6.7-.58-.91-.74-3.16-1.78-3.62-.39-.17-.97-.12-1.34-.39-.71-.52-.59-1.96.2-2.36,1.99.24,2.55,2.93,3.03,4.54.09.31-.14.38.43.32.38-1.25,0-6.25,1.45-6.67,1.16-.34,1.95,2.01.93,2.56Z"/>
  <path class="cls-1" d="M147.42,81.37l-2.58,1.08c-.37.44,1.05.78,1.24.81,2.1.31,3.08-.57,4.71-1.67l.3.5-.57.79-5.24,3.45c-.03-.36,0-.71.16-1.03.24-.52.86-.3.71-.91-3.93-.23-1.72-3.53.81-4.06,2.2-.46,1.27,1.89.81,1.89l-.33-.85Z"/>
  <path class="cls-1" d="M132.3,84.18c-.08.65.49,1.14.6,1.67.44,2.07-.92,4.01-2.65,2.01-.27,0-.88,1.81-2.11,1.48-1.03-.65-1.38-1.82-1.24-3l-1.29-.32c.52-.61,1.08-1.09,1.94-.97.04,1.07-.3,2.37.8,3l.71-.07c1.1-.81.22-2.16.23-3.23,0-.18.15-.96.52-.77.93,1.13.32,3.3,2.16,3.67,1.2-.25-1.44-3.33.33-3.46Z"/>
  <path class="cls-1" d="M76.9,97.43c.58.5.71,2.05.07,1.77l-.77-.75c-1.18-.26-.91,4.88-1.05,5.62-.1.49-.46.98-.58,1.47h-.61c-.32-.84-.83-2.83-1.43-3.44-.46-.48-3.04-.17-2.38-2.16.6-1.83,2.81.68,3.19,1.59l1.26,2.74c.41-2.34-.4-5.46,1.66-7.09.21-.04.49.1.66.24Z"/>
  <path class="cls-1" d="M161.04,108.17c-.71.51-.62-2.36-.67-2.67-.33-2-1.49-4.61-.57-6.47.18-.36.54-.52.7-.82.47-.88.7-2.84,2.27-1.81.87.57,1.87,1.65.87,2.59-.84,0-3.38.18-3.64,1.12-.14.53.89,3.79,1.02,4.74.08.55.37,3.07.02,3.32ZM162.34,97.79c-.11-.55-1.09-.6-1.29-.1v.32s1.29-.22,1.29-.22Z"/>
  <path class="cls-1" d="M68.42,77.52c.58.59,2.9,1.33,3.11,2.06.19.66-.96,2.46-1.38,3.08l-3.1-2.09c-.26-.59.86-3.05,1.37-3.05Z"/>
  <path class="cls-1" d="M75.01,81.79c-.31.22-2.85-1.29-2.98-1.87.11-1.15.5-2.3,1.37-3.09l2.89,2.08-1.28,2.88Z"/>
  <path class="cls-1" d="M149.16,117.68c.46-1.77,3.48-1.52,1.91-3.75-.41-.59-1.2-.62-1.05-1.44,1.3.22,1.86,1.3,1.78,2.54-.02.25-.15.36.28.27l5.51-3.03-.33,1.07-8.09,4.33Z"/>
  <path class="cls-1" d="M135.76,116.17l.86-.43c.19.63-.61,1.14-.6,1.58.03.99.76,1.92.6,3.5-.03.3-.75,3.06-1.3,2.48.29-.78.58-1.14.66-2.04.11-1.29-.11-2.56-.45-3.79l-1.4.43-.32-.43,1.48-.78c-.19-1.21-.55-2.35-.18-3.55,1.31,1.03,1.11,1.6.65,3.02Z"/>
  <path class="cls-1" d="M137.92,117.03c.18-1.51,2.47-1.17,1.63-3.25h-.76c-.03-1.42,1.35-.99,1.31.32,0,.28-.52,1.18.09.98,1.83-.98,3.78-2.37,5.62-3.25.3-.14.18-.33.54.11l-.78.94-7.64,4.14Z"/>
  <path class="cls-1" d="M123.87,112.71c.04.69-.61,1.06-1.1,1.38-2.5,1.58-5.66,2.63-8.19,4.24l.32-.87,8.97-4.75Z"/>
  <path class="cls-1" d="M164.07,120.71c-.04-1.01-.7-1.74-1.41-2.38l-.41.6-1.41-.18c-.1-.77-.37-1.56.34-2.14,1.8-.45,3.13,1.88,3.24,3.45.02.34.07.54-.34.65Z"/>
  <path class="cls-1" d="M75.01,49.16c.2.86.16,1.63.98,2.16.8-.67-.04-.59-.1-.78-.02-.08-.11-1.92.42-1.38.11.72.76,1.92.16,2.54-.55.57-1.11-.12-1.35-.11-.2.01-1.09,1.29-1.82.25-.27-.39-.04-1.09-.45-1.17l-.33,1.51c-.8.86-1.16-1.45-.97-1.94.52.22-.05,1.7.86,1.51-.09-.26.63-2.69,1.08-2.16l-.18,1.36c.28.76,1.22.77,1.44,0,.19-.66-.68-1.91.25-1.79Z"/>
  <path class="cls-1" d="M83.23,85.04c.04,1.54-1.82,3.41-1.72,4.85.08,1.2,1.37,1.75,1.51.12.35-.02.49-.1.43.32-.08.57-.64,1.98-1.39,1.85-2.54-1.14-.36-5.01.64-6.72.16-.28-.04-.54.54-.43Z"/>
  <path class="cls-1" d="M85.61,116.6l3.45-2.18c-.33-.96-.7-1.46.22-2.27.55-.29,2.28,1.71,1.53,2.19-2-.06-3.24,1.91-5.2,2.26ZM89.5,113.57l-.1-.65-.32.32.43.32ZM90.36,113.36h-.43s.33.43.33.43l.11-.43Z"/>
  <path class="cls-1" d="M85.56,100.87c.69.71.12,2.38-.34,3.12-.21.34-2.14,2.51-2.42,2.23.26-1.59,3.3-2.76,2.05-4.54l-1.18.64c-.19-.9,1.16-2.21,1.89-1.46Z"/>
  <path class="cls-1" d="M138.13,103.41l-.43-.11c-.1-1.28,2.86-2.79,1.4-4.43l-.97.65c-.16-.82.51-1.56,1.31-1.63,2.26,1.53-.57,3.92-1.32,5.52Z"/>
  <path class="cls-1" d="M96.36,113.3l-6,2.86c-.71-.63,5.9-3.39,6.16-3.89l-.17,1.03Z"/>
  <path class="cls-1" d="M116.65,125.26c.45-.14.92.41,1.13.78l-.39.85-1.2-.55-.67.85-.75-.3-.17-.61.51-.8.87.64.67-.85Z"/>
  <path class="cls-1" d="M90.8,125.68l-.22.86-1.25-.47.18-1.26,1.21.63.63-.86c1.25.08,1.55.86.64,1.73l-1.19-.64Z"/>
  <path class="cls-1" d="M127.32,113.14c.34.84-1.62,2.65-2.16,2.16-.47-.42,1.21-.74.32-.87l-.97.44c0-1.81,1.48-1.47,2.81-1.73Z"/>
  <path class="cls-1" d="M128.84,116.17c1.6-.04.79,1.14.89,1.6.08.37,1.07.31.8,1.27s-1.36.17-1.46-.2c-.08-.3.24-.68.17-1.01-.11-.44-1.01-.66-.4-1.66Z"/>
  <path class="cls-1" d="M113.92,119.41l-1.29-.65-.24.84c-1.31.19-1.57-.82-.74-1.7l1.19.64.34-.87.94.58-.2,1.16Z"/>
  <path class="cls-1" d="M161.48,112.49c.01.98-.91,2.1-1.94,1.94l.22-.65-.86.21c.07-1.41,1.38-1.69,2.59-1.51Z"/>
  <path class="cls-1" d="M154.17,118.07c.08.1.93.16,1.15.69l-.33,1.08c-.7-.07-1.17-.66-.86-1.29-1.19-.03-1.7-.7-.96-1.74,1.09.02.82,1.03,1.01,1.26Z"/>
  <path class="cls-1" d="M101.82,126.54l-1.17-.43-.64.65c-.33-.09-1-.26-.96-.73.13-1.46,1.45-.33,1.58-.36.28-.06.41-.96.87-.86.73.49.57,1,.33,1.73Z"/>
  <path class="cls-1" d="M90.36,118.11l-1.18-.43-.66.85c-.3-.23-.99-.46-.94-.92.14-1.55,1.42.05,1.69-.15.07-1.07.69-1.2,1.25-.3l-.17.95Z"/>
  <path class="cls-1" d="M118.68,119.63c.35-.02.48-.1.43.32-.19,1.37-1.66,2.26-1.74.43-.06-1.34.78-2.33,1.09-3.56.39-.05.18.45.12.66-.28,1.01-1.39,1.98-.23,2.79l.33-.64Z"/>
  <path class="cls-1" d="M113,124.97c-.21.21-3.45,1.73-3.61,1.57-.17-.18-.05-.51.27-.71,1.06-.66,2.48-.91,3.51-1.67.28.12-.05.68-.17.8Z"/>
  <path class="cls-1" d="M166.66,112.06c.2.18-.6,1.3-.87,1.41-.53.23-1.13-.42-1.72.31-.03-1.58,1.33-1.64,2.59-1.73Z"/>
  <path class="cls-1" d="M147.1,124.6c.25-.02.27.29.15.57-.37.88-2.09,1.4-2.97,1.57-.14.03-.78.39-.74-.1.01-.19,2.45-1.21,2.88-1.44.23-.12.64-.61.68-.61Z"/>
  <path class="cls-1" d="M170.12,124.6c.46,1.2-3.25,2.35-3.46,2.16l.5-.69,2.96-1.47Z"/>
  <path class="cls-1" d="M130.11,114.41l.03-.4c.93-.15.09.94-.22,1.19l-2.16.32v-1.08s1.16.2,1.16.2l.35-.64.84.4Z"/>
  <path class="cls-1" d="M125.6,122.22c.07.49,0,.56-.35.83-.29.22-2.71,1.49-2.89,1.33l.45-.74,2.79-1.42Z"/>
  <path class="cls-1" d="M165.36,123.95v.65s.44-.22.44-.22c.42.63-1.31,1.39-1.73,1.73.21-1.03-.3-2.35,1.29-2.16Z"/>
  <path class="cls-1" d="M91.45,118.76l.75.43.54-.86.33.64.54-.86-.1,1.3c-.44.18-1.63.95-1.96.43l-.1-1.09Z"/>
  <path class="cls-1" d="M112.42,115.74l.34.44c-.66,1.42-1.53.82-1.44-.55.04-.56.32-.94.55-1.41.14-.3.45-.97.76-1.08.16,1.17-1.61,2.16-.54,3.24l.33-.64Z"/>
  <path class="cls-1" d="M97.93,116.6c.46.41.74-1.21.86-.32l-.97.98c-.78-1.02-.46-1.44-.08-2.46.14-.38.5-1.2.83-1.43.23.79-1.32,2.64-.64,3.24Z"/>
  <path class="cls-1" d="M101.77,114.17c-.17.2-1.45.55-1.75.47l-.36-.84c.81.08,1.06.1,1.41-.65.4,1.06.47.11.97-.22-.02.3-.1,1.05-.27,1.24Z"/>
  <path class="cls-1" d="M94.47,126.54c.12-1.21-1.22-1.54-.65-2.81.52-.51,1.81,2.5.65,2.81Z"/>
  <path class="cls-1" d="M156.51,117.9l.76-.43c.29.27-.22,1.06-.65,1.09-.41.12-.52-.56-.53-.79-.03-.81.39-1.78,1.07-2.25l-.65,2.38Z"/>
  <path class="cls-1" d="M153.68,119.01l-.21,1.03c-1.2.12-1.38-.47-1.06-1.5l1.27.47Z"/>
  <path class="cls-1" d="M95.12,117.03l-1.07-.23.21-1.28c.42-.07.75.08.98.44l-.12,1.08Z"/>
  <path class="cls-1" d="M137.05,127.4c.37-.55.77-1,.65-1.73l-.86-.11c1.63-1.77,1.82,1.61.21,1.83Z"/>
  <path class="cls-1" d="M115.6,113.42c.3.3.53,1.22.49,1.67l-1.27-1c-.2-.73.27-1.18.78-.67Z"/>
  <path class="cls-1" d="M79.77,54.13c.35.33-2.04,1.67-2.38,1.73-.41-.41,2.17-1.92,2.38-1.73Z"/>
  <path class="cls-1" d="M117.6,113.36s-.49-.11-.67.13c-.32.44.04,1.38-.41,1.6.04-.71-.17-1.63.24-2.24.59-.89,1.06.29.84.52Z"/>
  <path class="cls-1" d="M98.8,99.09c.78-.12,1.52.7.75,1.29-.64-.07-.84-.75-.75-1.29Z"/>
  <path class="cls-1" d="M70.04,53.27l-1.08-2.38c1.15.16,1.15,1.51,1.08,2.38Z"/>
  <path class="cls-1" d="M75.23,48.08c.19.66-1.33,1.05-1.51.86l.14-.65,1.37-.21Z"/>
  <path class="cls-1" d="M143.11,122.87l-.21-.78-.66.13c.33-1.8,2-.14.87.65Z"/>
  <path class="cls-1" d="M71.99,60.62c.35.33-1.55,1.44-1.94,1.29-.13-.59.18-.37.43-.53s1.35-.92,1.51-.76Z"/>
  <path class="cls-1" d="M73.5,61.05c-.3.58-1.1.99-1.73,1.08-.39-.36,1.36-1.26,1.73-1.08Z"/>
  <path class="cls-1" d="M79.12,60.18c-.6.23-1.11-1.33-.54-1.29l.54,1.29Z"/>
  <path class="cls-1" d="M74.58,47.22c-.37-.32-1.01-.74-.86-1.29l.86,1.29Z"/>
  <path class="cls-1" d="M69.73,54.78c.6-.14.64.86.21.86-.16,0-.81-.72-.21-.86Z"/>
  <polygon class="cls-1" points="69.83 53.92 69.4 53.81 69.83 53.48 69.83 53.92"/>
  <rect class="cls-1" x="142.89" y="123.09" width=".21" height=".43"/>
  <path class="cls-1" d="M78.58,60.83c.14.07.14.14,0,.22v-.22Z"/>
</svg>