<?xml version="1.0" encoding="UTF-8"?>
<svg id="Layer_1" xmlns="http://www.w3.org/2000/svg" version="1.1" xmlns:xlink="http://www.w3.org/1999/xlink" viewBox="135 88 797 803">
  <defs>
    <style>
      .st0 {
        fill: url(#linear-gradient2);
      }

      .st1 {
        fill: #021342;
      }

      .st2 {
        fill: url(#linear-gradient1);
      }

      .st3 {
        fill: #f51146;
      }

      .st4 {
        fill: url(#linear-gradient);
      }

      .st5 {
        fill: #fdba4d;
      }
    </style>
    <linearGradient id="linear-gradient" x1="654.79" y1="184.84" x2="692.83" y2="184.84" gradientUnits="userSpaceOnUse">
      <stop offset="0" stop-color="#008bda"/>
      <stop offset="1" stop-color="#0ab1ff"/>
    </linearGradient>
    <linearGradient id="linear-gradient1" x1="717.76" y1="707.32" x2="717.76" y2="364.29" xlink:href="#linear-gradient"/>
    <linearGradient id="linear-gradient2" x1="197.06" y1="539.85" x2="377.4" y2="539.85" xlink:href="#linear-gradient"/>
  </defs>
  <path class="st5" d="M613.32,422.09c-9.45-.59-18.96-1.64-28.35-2.43l-.63-1.87c1.75-23.3,2.33-46.53,3.55-69.85,1.06-20.34,1.74-40.95,3.03-61.21l-176.38-13.68c-.45,20.63,2.74,44.13,3.83,64.97.74,14.17,1.61,28.38,2.28,42.58.45,9.48.66,19.05.73,28.54-3.66-.09-7.35.12-11.02-.01-9.04-.32-19.27-2.26-28.17-2.31-1.54-.01-2.5.25-2.62,1.94l12.16,191.21c.43.48,7.02-4.66,8.16-5.14,6.2-2.66,11.98-2.74,18.41-.96,1.18-.87.02-9.77,0-11.74-.23-31.64-2.52-57.69,16.47-84.72,23.53-33.49,67.92-45.67,105.48-28.86,2.39,1.07,11.78,6.74,13.05,6.7,1.52-.05,3.55-2.49,5.16-3.16,8.59-3.53,16.32-3.87,25.04-.41l35.77,22.01,2.47-.14,3.82-70.78c-.98-1.4-9.95-.53-12.24-.68ZM533.9,386.33h-61.2c-.08,0-1.14-1.06-1.14-1.14v-46.38c0-1.35,3.59-10.57,4.54-12.18,11.29-19.21,40.12-19.92,52.5-1.52,1.24,1.85,5.3,9.72,5.3,11.42v49.8Z"/>
  <path class="st3" d="M637.29,192.47l-4.14,50.96c-6.79,2.77-13.46,5.81-20.19,8.69-4.49,1.92-8.61,3.54-12.77,5.64-1.14.58-3.81.95-4.5,1.8-1.52,1.86-1.74,14.26-2.51,17.52-.55,2.31-2.07,6.76-2.26,9.65l-176.38-13.68c.2-9.49,3.08-18.78,2.65-28.13l-33.84-21.83,3.81-51.17c22.58,1.3,45.1,3.73,67.67,5.33l-1.51,21.28c7.81.66,15.68,1.66,23.56,1.53l1.52-20.53,67.66,5.33-1.2,20.56c.97,1.34,20.27,2.45,23.26,2.25.32-3.31.09-8.58.77-11.65.12-.53,1.24-.45,1.45-1.1,1.15-3.7-1.51-8.11,4.94-7.8.5.02.06,1.39,1.52,1.6,4.58.64,11.08-1.06,16.02-.06l44.47,3.81Z"/>
  <path class="st3" d="M331.66,275.32c-12.75-.01-25.46-2.83-38.25-2.13l-22.55,27.62-2.3.37c-2.22-12.13-5.2-24.38-8.56-36.31l-34.76-14.25c9.91-7.1,20.54-13.27,31.21-19.14l1.47-5.19,1.52-33.07c.91-.93,4.79,2.34,5.68,3.06,4.17,3.39,7.97,7.63,12.09,11.09,2.26,1.89,10.97,9.44,12.99,9.47l35.38-9.18c1.3,1.41-12.92,30.69-13.68,35.3,5.9,11.2,13.91,21.22,19.76,32.36Z"/>
  <path class="st5" d="M750.58,287.48l-19.57,10.85c-2.34,7.87-.9,16.24-2.48,24.13-.63.46-4.87-3.13-5.68-3.82-2.04-1.75-10.96-10.86-12.35-11.26-3.37-.96-18.48,4.76-23.02,5.2-2-2.11,8.65-18.99,8.39-22.37-.2-2.5-12.74-19.01-11.43-20.2,6.36-1.53,17.44,3,23.03,1.36,2.06-.61,10.56-12.12,12.74-14.44.63-.67,3.01-3.45,3.76-2.89,1.02.78,3.15,19.18,5.29,22.46,2.45,3.74,16.59,6.07,20.51,9.14.76.59,1.02.78.81,1.84Z"/>
  <path class="st4" d="M682.24,191.4c-1.57,2.78-.87,9.7-1.61,13.22-1.3,1.52-8.94-7.68-11.22-8.22-3.13-.75-9.35,3.14-13.1,2.13-.52-.46,4.67-9.93,4.61-12.56-.09-3.34-5.99-7.88-6.13-11.75,4.19-1.52,8.92,1.86,13.15.59,2.58-.77,7.77-11.49,10.41-9.72.38.26,1.96,7.75,2.16,8.94.26,1.58-1.03,3.19.03,4.41,1.21,1.39,11.71,2.99,12.26,5.28.55,2.29-9.07,5.06-10.56,7.68Z"/>
  <path class="st5" d="M369.6,147.23c-.18,3.39,4.23,8.05,3.88,11.77-.72.72-9.94-2.8-12.37-2.16-2.13.56-8.46,8.34-9.67,7.48-1.75-3.5.32-9.36-1.49-12.39-.88-1.48-11.26-5.48-9.92-7.36,1.11-1.55,8.96-2.6,10.68-4.91,1.6-2.15,1.88-8.94,3.01-11.83,1.19-1.09,5.45,5.53,6.4,6.52.79.83,2.11,2.51,3.1,2.66,1.78.25,10.55-1.9,11.78-.81-.23,3.63-5.23,7.74-5.4,11.03Z"/>
  <path class="st1" d="M792.09,641.03c-23.82,59.82-64.74,141.31-142.78,126.74-26.09-4.87-49.49-23.38-69.04-40.44-5.44-4.75-15.36-16.34-20.33-19.38-3.74-2.28-7.93-2.44-10.23,1.73-12.44,20.53-20.24,51.93-34.19,70.72-7.9,10.64-18.66,8.08-29.72,4.14l-92.29-39.13c-7.42,2.74-13.81,7.83-21.04,11.31-58.06,27.99-143.67,17.61-181.77-38.22-26.85-39.33-13.38-76.04-.23-117.17,11.64-36.43,25.07-72.45,39.77-107.73,1.22-2.12,3.27-3.09,5.6-1.94l39.74,26.19c3.97,4.31,2.71,6.85,1.15,11.6-15.04,45.85-40.68,92.23-49.76,140.31-11.25,59.53,38.11,77.78,85.96,54.79,44.67-21.47,76.21-67.66,93.96-112.63,1.81-1.89,3.58-1.38,5.63-.43,5.33,2.49,29.65,19.07,33.9,23.12,3.48,3.31,3.17,5.95,1.91,10.18-4.23,14.11-16.37,35.47-18.41,48.5-5.33,34.13,39.75,48.81,55.12,18.62,6.47-12.73,12.32-31.09,17.5-44.85,21.5-57.1,40.18-115.28,59.47-173.17,2.44-6.19,8.43-7.84,14.39-5.23,5.58,2.45,28.93,17.25,33.47,21.27,5.01,4.44,4.76,8.79,3.48,14.77-10.41,48.7-53.01,146.12-10,187.53,14.07,13.54,35.29,15.83,53.58,11.15,50.14-12.81,66.24-74.47,83.6-116.36,1.62-2.69,6-4.32,8.81-2.38,11.58,10.52,27.68,19,38.85,29.56,1.9,1.8,4.77,3.88,3.9,6.83Z"/>
  <path class="st2" d="M809.88,364.29l-14.44,68.42c-2.48-.36-4.78.65-7.19.79-3.08.18-13.14-1.36-13.36,1.86l9.9,172.21c-1.41.27-1.66-.04-2.61-.81-13.28-10.73-29.1-28.35-47.98-18.99-.61.3-5.97,3.78-6.22,4.05-.4.46-.37,1.7-.95,2.43-6.13,7.62-8.44,18.74-12.28,27.9-14.4,34.36-35.59,93.94-84.5,84.08-7.42-1.49-3.7-9.27-3.56-14.62,1.11-43.28,3.97-86.16,6.8-129.28,4.04-61.57,8.32-123.08,12.87-184.64,1.1-1.55,25.05-2.32,28.96-2.77l-.77,18.26,31.43-1.5c2.4-.56,1.39-18.78,2.89-19.69l30.31-2.39c-.12,5.08-.28,10.5-.8,15.55-.13,1.27-.98,1.99-1.15,2.68-.62,2.4,2.22.65,3.1.73,8.45.74,15.23-.78,23.56-1.32,2.02-.13,4.27,1.63,6.79-.2,3.02-2.2,1.64-18.94,3.42-20.15l35.78-2.6Z"/>
  <path class="st0" d="M373.74,637.47c-17.58,32.72-57.59,77.13-97.92,78.09-52.52,1.25-25.61-63.22-15.97-91.23,10.14-29.48,24.85-59.14,34.34-88.07,3.48-10.62,3.8-22.96-4.73-31.32-6.62-6.49-29.22-20.23-38.15-25.72-6.95-4.27-13.8-8.01-22.28-6.22l2.33-38.27c-.53-2.44-16.98-.26-19.91-2.46l-14.36-66.86c-.1-1.58-.01-.97,1.12-1.13,1.81-.26,4.95-.12,6.9-.03,8.6.38,17.73,2.48,26.47,2.41,3.32,1.11,1.29,16.6,3.48,20.1l33.5,2.61-.76-19.77,29.54,2.39c1.67,2.63,1.13,19.24,2.86,19.71l32.22,2.23-.75-19.01c4.15,1.29,27.1.98,28.56,2.99,3.3,41.42,5.82,82.9,8.7,124.36,2.01,28.97,4.37,57.77,6.08,86.67.68,11.53,1.9,23.15,2.3,34.95.31,8.97-.05,7.04-3.57,13.58Z"/>
  <path class="st1" d="M829.21,764.89c-2.61,3.82-7.37,12.22-11.7,13.39-4.24,1.14-6.09-.72-9.39-2.83-7.14-4.55-26.82-19.51-32.48-25.3-4.27-4.37-4.23-8.02-1.91-13.37,7.43-17.14,21.41-35.75,29.96-53.67,20.74-43.42,31.18-101.5,32.07-149.63.16-8.17-1.72-19.25-.72-26.58.56-4.08,3.57-8.31,8.02-8.57,1.29-.07,3.38.62,4.61,1.14,6.33,2.7,35.45,18.83,39.41,22.93,4.64,4.81,4.61,10.64,4.95,17.09,4.17,80.15-17.92,159.4-62.82,225.4Z"/>
  <path class="st1" d="M420.37,818.3c-76.47,43.16-155.36,48.5-222.53-14.18-5.69-5.31-16.1-14.18-8.09-22.18,6.91-6.92,18.61,2.77,25.84,5.95,45.2,19.92,93.6,24.78,139.4,3.81,7.72-3.54,19.95-12.85,27.32-13.74,7.98-.96,21.37,5.49,29.16,8.68,5.19,2.13,20.45,7.82,23.6,11.38,7.73,8.7-8.56,16.82-14.7,20.28Z"/>
  <path class="st1" d="M764.78,827.42c-43.59,24.24-90.04,31.59-136.88,11.17-15.75-6.87-36.15-18.34-48.86-29.84-3.57-3.23-14.79-14.66-15.89-18.69-1.88-6.82,3.91-10.94,10.33-9.56,6.53,1.4,17.05,6.94,24.12,9.32,45.79,15.41,92.29,24.44,134.21-6,4.84-3.52,13.94-13.36,19.16-13.6,2.14-.1,4.59.93,6.42,1.99,4.7,2.74,26.32,20.55,30.07,24.67,11.69,12.89-13.27,25.31-22.68,30.54Z"/>
</svg>
