<?xml version="1.0" encoding="UTF-8"?>
<svg id="Layer_1" xmlns="http://www.w3.org/2000/svg" version="1.1" viewBox="0 0 312 225.35">
  <!-- Generator: Adobe Illustrator 30.2.1, SVG Export Plug-In . SVG Version: 2.1.1 Build 1)  -->
  <defs>
    <style>
      .st0 {
        fill: #fff;
      }

      .st1 {
        fill: #fbb03b;
      }
    </style>
  </defs>
  <path class="st0" d="M85.11,93.86c0,3.42,2.78,6.19,6.19,6.19s6.19-2.78,6.19-6.19-2.77-6.19-6.19-6.19-6.19,2.77-6.19,6.19"/>
  <path class="st0" d="M93.59,58.62c-.52-.6-.93-1.08-1.33-1.55-.41-.47-.81-.94-1.34-1.55-.99,1.26-1.54,1.96-2.53,3.21l.61,27.5c1.78-.5,3.62-.32,5.22.4l-.62-28.01Z"/>
  <path class="st0" d="M92.56,101.33l9.84,17.34c.66.14,1.18.24,1.69.34.52.11,1.03.21,1.69.34.45-1.27.7-1.98,1.14-3.25l-9.83-17.32c-1.15,1.33-2.75,2.25-4.54,2.54"/>
  <path class="st1" d="M91.3,161.75c17.87,0,32.86-12.54,36.62-29.29.6-2.65.91-5.4.91-8.23v-59.34c0-20.69-16.84-37.53-37.53-37.53s-37.52,16.84-37.52,37.53v59.34c0,2.78.3,5.5.89,8.12,3.71,16.8,18.72,29.4,36.63,29.4M60.74,100.05h7.26c.91,0,1.66-.74,1.66-1.65v-.64c0-.91-.75-1.65-1.66-1.65h-7.26v-1.35h7.26c.91,0,1.66-.74,1.66-1.65v-.65c0-.91-.75-1.66-1.66-1.66h-7.26v-25.92c0-15.29,11.27-27.99,25.94-30.22v4.7c0,.91.74,1.65,1.65,1.65h.64c.91,0,1.65-.74,1.65-1.65v-5.03c.23,0,.45-.02.67-.02s.45.01.67.02v5.03c0,.91.74,1.65,1.65,1.65h.65c.91,0,1.66-.74,1.66-1.65v-4.7c14.66,2.23,25.94,14.93,25.94,30.22v25.92h-7.85c-.91,0-1.65.75-1.65,1.66v.65c0,.91.74,1.65,1.65,1.65h7.85v1.35h-7.85c-.91,0-1.65.74-1.65,1.65v.64c0,.91.74,1.65,1.65,1.65h7.85v24.18c0,15.28-11.28,27.98-25.94,30.22v-4.7c0-.91-.75-1.66-1.66-1.66h-.65c-.91,0-1.65.75-1.65,1.66v5.03c-.22,0-.44,0-.67,0s-.44,0-.67,0v-5.03c0-.91-.74-1.66-1.65-1.66h-.64c-.91,0-1.65.75-1.65,1.66v4.7c-14.67-2.24-25.94-14.94-25.94-30.22v-24.18Z"/>
  <path class="st1" d="M139.41,118.58c0-.92-.75-1.67-1.66-1.67h-3.64c-.91,0-1.66.75-1.66,1.67v8.67c0,21.64-17.54,39.18-39.17,39.18h-3.95c-21.64,0-39.18-17.54-39.18-39.18v-8.67c0-.92-.75-1.67-1.66-1.67h-3.64c-.91,0-1.66.75-1.66,1.67v8.67c0,24.04,18.48,43.84,41.98,45.95v8.14c0,1.05.85,1.91,1.91,1.91h8.45c1.05,0,1.9-.86,1.9-1.91v-8.14c17.08-1.53,31.51-12.41,38.12-27.47.74-1.68,1.37-3.41,1.91-5.19,1.27-4.21,1.95-8.67,1.95-13.29v-8.67Z"/>
  <path class="st0" d="M224.76,99.68c0-4.81.05-9.63.05-14.44,0-.63-.08-1.34-.08-1.97-.01-5.43.7-12.21-.87-17.52-3.99-13.54-18.55-9.88-23.11-.44-1.81,3.76-2.12,9.36-.42,13.53,2.69,6.53,10.11,6.73,15.89,6.75l-.16,6.41h-23.32l-.11-21.4h-8.62l.02,21.4h-6.44l-.11-21.4h-8.61v21.4h-36.34l.12,7.7h92.1ZM216.21,77.99h-3.81c-.17,0-1.1-.23-1.32-.29-5.51-1.71-3.1-10.19.59-12.01.98-.47,2.73-.76,3.65.18,1.39,1.41.88,5.81.87,7.64,0,1.49.07,3,.02,4.49"/>
  <path class="st0" d="M240.8,98.76c5.4,1.4,11.04.76,16.45.91l-.07,8.77h8.62l-.03-8.77h30.3s-.03-29.1-.03-29.1h-8.72s.11,21.4.11,21.4h-6.43l-.11-21.39h-8.62v21.39s-6.43,0-6.43,0c-.12-3.58.06-7.13,0-10.69-.14-9.31-.17-23-12.71-24.3-15.3-1.59-21.24,10.59-21.89,23.73-.39,7.82.27,15.62,9.56,18.05M240,77.96c.79-6.51,4.05-15.24,12.51-13.02,4.01,1.05,4.38,6.11,4.55,9.35.21,3.88.12,8.04.12,11.93,0,1.95-.01,3.93-.07,5.86-2.65-.08-5.4.15-8.05,0-8.56-.46-9.9-7.17-9.06-14.12"/>
  <path class="st0" d="M272.5,140.53h-6.53l-.07-14.99h-8.64v15h-6.48c-1.49-1.68-1.74-4.4-1.84-6.46-.25-5.43.29-11.02-.04-16.47-.31-5.23-1.93-9.2-7.35-11.07-5.24-1.81-11.01-.88-16.35-1.1l.07,28.68h8.62l-.08-20.2c2.16-.06,5.15.43,6.05,2.85.3.79.37,1.97.41,2.81.23,4.9-.25,9.98,0,14.88.11,2.12.49,4.17,1.66,6.07h-23.08c-.08-5.58.04-11.12-.17-16.71-.71-9.14-2.56-17.79-13.64-18.4-14.85-.81-20.16,11.38-20.77,24.12-.14,2.78-.13,5.77.5,8.55.17.81.45,1.67.8,2.43h-43.77c-.72,2.64-1.66,5.21-2.8,7.69h142.02s.04-42.79.04-42.79h-8.62l.09,35.1ZM197.32,139.41c-6.86-3.67-4.58-16.09-1.91-21.14,2.02-3.79,4.75-5.62,9.42-4.91,3.66.55,4.62,3.68,5.07,6.82.42,6.81.14,13.58.3,20.37-3.97-.34-9.15.86-12.88-1.13"/>
  <polygon class="st0" points="296.11 116.28 287.49 116.28 287.57 148.22 296.19 148.22 296.11 116.28"/>
  <polygon class="st0" points="296.08 105.43 287.46 105.43 287.48 111.88 296.1 111.87 296.08 105.43"/>
  <polygon class="st0" points="257.02 122.89 265.64 122.89 265.63 116.45 257.01 116.45 257.02 122.89"/>
  <polygon class="st0" points="225.51 150.94 225.53 157.38 234.15 157.38 234.13 150.94 225.51 150.94"/>
  <polygon class="st0" points="179.36 108.62 187.98 108.62 187.96 102.18 179.34 102.18 179.36 108.62"/>
  <polygon class="st0" points="177.21 102.18 168.59 102.18 168.6 108.62 177.22 108.62 177.21 102.18"/>
  <polygon class="st0" points="164.49 77.52 164.48 71.08 155.86 71.08 155.88 77.52 164.49 77.52"/>
  <polygon class="st0" points="153.74 77.52 153.72 71.08 145.11 71.08 145.12 77.52 153.74 77.52"/>
  <polygon class="st0" points="286.88 67.32 286.86 60.88 278.24 60.88 278.26 67.32 286.88 67.32"/>
  <polygon class="st0" points="276.12 67.32 276.11 60.88 267.49 60.88 267.51 67.32 276.12 67.32"/>
  <path class="st0" d="M158.79,125.7c0,5.45,4.42,9.87,9.87,9.87s9.87-4.42,9.87-9.87-4.42-9.87-9.87-9.87-9.87,4.42-9.87,9.87"/>
  <path class="st0" d="M206.57,53.08c2.64,0,4.78-2.14,4.78-4.78s-2.14-4.78-4.78-4.78-4.78,2.14-4.78,4.78,2.14,4.78,4.78,4.78"/>
  <path class="st0" d="M217.45,53.08c2.64,0,4.78-2.14,4.78-4.78s-2.14-4.78-4.78-4.78-4.78,2.14-4.78,4.78,2.14,4.78,4.78,4.78"/>
  <path class="st0" d="M149.05,151.64h-3.23v9.04h.71v-3.94h2.43c1.75,0,2.88-.96,2.88-2.58s-1.14-2.52-2.79-2.52M149.02,156.1h-2.49v-3.81h2.54c1.21,0,2.01.69,2.01,1.9,0,1.14-.61,1.91-2.07,1.91"/>
  <path class="st0" d="M160.24,154.07c-1.87,0-2.89,1.54-2.89,3.38,0,1.95,1.08,3.38,2.83,3.38,1.92,0,2.92-1.6,2.92-3.4,0-2.03-1.14-3.37-2.85-3.37M160.22,160.23c-1.37,0-2.2-1.24-2.2-2.78s.7-2.78,2.17-2.78,2.21,1.25,2.21,2.78c0,1.63-.79,2.78-2.18,2.78"/>
  <path class="st0" d="M174.43,151.16h-.65v3.87c-.19-.41-.71-.97-2-.97-1.76,0-2.85,1.47-2.85,3.46s1.01,3.3,2.68,3.3c1.12,0,1.85-.45,2.17-1.24,0,.32.01.93.04,1.08h.62c-.01-.65-.01-1.24-.01-1.86v-7.66ZM171.64,160.23c-1.11,0-2.03-.96-2.03-2.72s.87-2.83,2.14-2.83c1.65,0,2.05.95,2.05,2.62,0,1.76-.46,2.93-2.17,2.93"/>
  <path class="st0" d="M183.54,154.68c1.1,0,1.59.71,1.78,1.46h.66c-.12-.9-.79-2.07-2.43-2.07-1.9,0-2.84,1.64-2.84,3.41,0,2.16,1.15,3.36,2.76,3.36,1.45,0,2.2-.92,2.5-2.05h-.66c-.34.97-.9,1.45-1.85,1.45-1.36,0-2.08-1.24-2.08-2.78,0-1.61.77-2.78,2.14-2.78"/>
  <path class="st0" d="M196.64,156.11c0-1.42-.83-2.04-2.3-2.04-1.78,0-2.22,1.1-2.3,1.81h.65c.14-.53.34-1.21,1.64-1.21,1.47,0,1.67.87,1.67,1.51v.66h-1.23c-1.94,0-3.03.65-3.03,2.07,0,.97.65,1.94,2.14,1.94,1.33,0,1.9-.67,2.12-1.15.03.56.06.84.12,1h.62c-.04-.21-.09-.66-.09-1.23v-3.34ZM196.01,157.62c0,1.39-.26,2.62-2.1,2.62-.9,0-1.49-.56-1.49-1.37,0-1.11.89-1.49,2.32-1.49h1.27v.23Z"/>
  <path class="st0" d="M205.24,156.94c-1.28-.31-1.59-.61-1.59-1.2,0-.52.32-1.07,1.45-1.07s1.52.67,1.64,1.21h.64c-.1-.92-.8-1.81-2.26-1.81s-2.13.83-2.13,1.72.41,1.36,2.08,1.76c1.45.35,1.76.71,1.76,1.45s-.46,1.25-1.61,1.25c-1.02,0-1.61-.5-1.83-1.34h-.66c.18,1.16,1.01,1.94,2.48,1.94,1.36,0,2.31-.72,2.31-1.9,0-.97-.45-1.56-2.27-2"/>
  <path class="st0" d="M214.64,152.21h-.65v2.01h-1.2v.61h1.2v4.49c0,1.03.46,1.44,1.29,1.44.27,0,.58-.02.8-.12v-.57c-.21.07-.48.08-.67.08-.62,0-.77-.41-.77-1.14v-4.2h1.54v-.61h-1.54v-2.01Z"/>
</svg>