<?xml version="1.0" encoding="UTF-8"?>
<svg id="Layer_1" data-name="Layer 1" xmlns="http://www.w3.org/2000/svg" viewBox="0 0 598.67 196">
  <defs>
    <style>
      .cls-1 {
        fill: #0c5442;
      }
    </style>
  </defs>
  <path class="cls-1" d="M497.26,37.79c-33.64,0-60.9,27.26-60.9,60.9,0,29.2,20.54,53.6,47.98,59.52l-1.46-24.26,20.97-32.63h6.48v56.86c27.36-5.99,47.83-30.35,47.83-59.49,0-33.64-27.27-60.9-60.9-60.9ZM517.24,82.29l-39.98,20.53v-1.5l11.46-16.87c-5.2-4.32-8.64-11.02-8.64-15.56,0-11.89,12.53-24.64,23.77-24.64,6.7,0,9.72,6.05,9.72,11.03s-1.94,6.7-2.81,8.42l-13.83-4.1c-5.19.86-10.81,3.66-10.81,7.34,0,6.27,16.43,7.57,29.61,1.09l1.51-.65v14.91Z"/>
  <g>
    <g>
      <path class="cls-1" d="M61.14,140.63c-.29-.29-.57-.67-.82-1.15-.26-.47-.53-1.03-.82-1.69l-7.86-19.15h-1.09l-10.03,23.63h1.63l2.84-6.82h10.04l.92,2.34c.51,1.39,1.27,2.5,2.27,3.36,1,.85,2.26,1.28,3.79,1.28.58,0,1.05-.05,1.42-.16v-.71c-.98-.11-1.75-.42-2.29-.93ZM45.53,134.03l4.48-10.37,4.31,10.37h-8.79Z"/>
      <path class="cls-1" d="M80.23,134.19c-.22-.58-.53-1.09-.93-1.52-.4-.44-.87-.84-1.41-1.21-.55-.36-1.13-.72-1.75-1.09l-4.42-2.62c-.62-.39-1.18-.77-1.69-1.11-.51-.35-.93-.7-1.26-1.07-.65-.65-.98-1.49-.98-2.51,0-1.16.43-2.06,1.29-2.7.85-.63,1.8-.95,2.86-.95,2.04,0,3.62.52,4.75,1.55,1.12,1.04,1.91,2.76,2.34,5.16h.6v-3.82c0-.8-.28-1.47-.84-2.02-.57-.54-1.26-.99-2.08-1.34-.81-.34-1.66-.59-2.53-.73-.88-.15-1.62-.22-2.24-.22-.91,0-1.79.13-2.65.38-.85.26-1.6.64-2.23,1.15-.64.51-1.15,1.14-1.53,1.91-.38.76-.57,1.65-.57,2.67,0,1.35.31,2.47.95,3.38s1.72,1.84,3.25,2.78l4.42,2.57c1.31.8,2.29,1.56,2.94,2.29.66.73.98,1.62.98,2.67,0,.66-.13,1.21-.41,1.67-.27.45-.63.82-1.09,1.12-.45.29-.96.51-1.52.65-.57.15-1.12.22-1.67.22-2.04,0-3.64-.53-4.83-1.58-1.18-1.06-1.97-2.79-2.37-5.19h-.65v3.82c0,.8.3,1.48.92,2.05.62.56,1.37,1.02,2.24,1.36.87.35,1.77.59,2.7.74.93.14,1.7.22,2.32.22,2.07,0,3.83-.55,5.26-1.64,1.44-1.09,2.16-2.75,2.16-4.96,0-.8-.11-1.5-.33-2.08Z"/>
      <path class="cls-1" d="M106.15,141.56c-1.06,0-1.74-.33-2.05-.98-.31-.66-.46-1.53-.46-2.62v-19.32h-3.22v10.75h-10.7v-6.44c0-.69,0-1.31-.05-1.85-.04-.55-.16-1-.38-1.36-.22-.37-.55-.64-.98-.82-.44-.18-1.04-.28-1.8-.28h-3.28v.71h.77c1.05,0,1.73.33,2.04.99.31.65.47,1.52.47,2.61v19.32h3.21v-11.46h10.7v7.15c0,.65.02,1.25.08,1.8.05.54.19,1,.41,1.36.22.37.53.65.95.85.42.2,1.01.3,1.78.3h3.22v-.71h-.71Z"/>
      <path class="cls-1" d="M111.11,118.64v20.84c0,2.19-.27,3.9-.82,5.13-.54,1.24-1.4,1.86-2.56,1.86v.71c1.38,0,2.5-.17,3.35-.49.86-.33,1.53-.82,2.02-1.48.49-.65.82-1.46.98-2.42.17-.97.25-2.07.25-3.31v-20.84h-3.22Z"/>
      <path class="cls-1" d="M139.32,140.63c-.3-.29-.57-.67-.82-1.15-.26-.47-.53-1.03-.82-1.69l-7.86-19.15h-1.09l-10.04,23.63h1.64l2.84-6.82h10.03l.93,2.34c.51,1.39,1.27,2.5,2.27,3.36,1,.85,2.26,1.28,3.79,1.28.58,0,1.05-.05,1.42-.16v-.71c-.99-.11-1.75-.42-2.29-.93ZM123.71,134.03l4.48-10.37,4.31,10.37h-8.79Z"/>
      <path class="cls-1" d="M161.25,118.64v17.73l-12.5-15.6c-.58-.65-1.24-1.17-1.99-1.55-.74-.38-1.7-.58-2.86-.58h-2.29v.71h.32c1.24,0,2.09.33,2.54.99.46.65.68,1.52.68,2.61v19.32h1.42v-18.77l15.39,19.15h.76v-24.01h-1.47Z"/>
      <path class="cls-1" d="M198.56,140.63c-.29-.29-.56-.67-.82-1.15-.25-.47-.52-1.03-.81-1.69l-7.86-19.15h-1.09l-10.04,23.63h1.64l2.83-6.82h10.04l.93,2.34c.51,1.39,1.26,2.5,2.26,3.36,1,.85,2.27,1.28,3.8,1.28.58,0,1.05-.05,1.41-.16v-.71c-.98-.11-1.74-.42-2.29-.93ZM182.96,134.03l4.47-10.37,4.31,10.37h-8.78Z"/>
      <path class="cls-1" d="M207.51,140.85v-17.9c0-.69-.02-1.31-.05-1.85-.04-.55-.17-1-.39-1.36-.21-.37-.54-.64-.98-.82-.43-.18-1.04-.28-1.8-.28h-3.27v.71h.76c1.06,0,1.74.33,2.05.99.31.65.46,1.52.46,2.61v19.32h15.88v-1.42h-12.66Z"/>
      <path class="cls-1" d="M235.72,118.64c-2.04,0-3.06.97-3.06,2.9v2.67h.71c0-1.46.38-2.51,1.15-3.17.76-.65,1.87-.98,3.32-.98h3.22v22.21h3.22v-22.21h8.07v-1.42h-16.63Z"/>
      <path class="cls-1" d="M274.67,140.63c-.29-.29-.57-.67-.82-1.15-.26-.47-.53-1.03-.82-1.69l-7.85-19.15h-1.1l-10.03,23.63h1.63l2.84-6.82h10.04l.92,2.34c.51,1.39,1.27,2.5,2.27,3.36,1,.85,2.26,1.28,3.79,1.28.58,0,1.05-.05,1.42-.16v-.71c-.98-.11-1.75-.42-2.29-.93ZM259.07,134.03l4.47-10.37,4.31,10.37h-8.78Z"/>
      <path class="cls-1" d="M283.61,140.85v-17.9c0-.69-.01-1.31-.05-1.85-.04-.55-.16-1-.38-1.36-.22-.37-.55-.64-.98-.82-.44-.18-1.04-.28-1.8-.28h-3.28v.71h.77c1.05,0,1.73.33,2.04.99.31.65.47,1.52.47,2.61v19.32h15.87v-1.42h-12.66Z"/>
      <path class="cls-1" d="M318.48,140.63c-.3-.29-.57-.67-.82-1.15-.26-.47-.53-1.03-.82-1.69l-7.86-19.15h-1.09l-10.04,23.63h1.64l2.84-6.82h10.04l.92,2.34c.51,1.39,1.27,2.5,2.27,3.36,1,.85,2.26,1.28,3.79,1.28.58,0,1.05-.05,1.42-.16v-.71c-.99-.11-1.75-.42-2.29-.93ZM302.87,134.03l4.48-10.37,4.31,10.37h-8.79Z"/>
      <path class="cls-1" d="M341.99,148.35c-.91-.35-1.76-.81-2.54-1.39-.78-.58-1.47-1.25-2.07-1.99-.6-.75-1.03-1.54-1.28-2.38,1.38-.4,2.58-1,3.6-1.8,1.02-.8,1.87-1.73,2.56-2.81.69-1.07,1.2-2.25,1.53-3.54.33-1.29.49-2.61.49-3.96,0-1.67-.24-3.27-.74-4.8-.49-1.53-1.2-2.86-2.12-4.01-.93-1.14-2.09-2.05-3.47-2.73-1.38-.67-2.98-1.01-4.8-1.01s-3.36.35-4.75,1.04c-1.38.69-2.53,1.61-3.46,2.76-.93,1.14-1.64,2.47-2.13,3.98-.49,1.51-.73,3.1-.73,4.77,0,1.31.16,2.6.49,3.88.32,1.27.82,2.44,1.47,3.51.65,1.08,1.47,2.02,2.46,2.81.98.81,2.12,1.42,3.43,1.86,1.97,2.4,4.13,4.17,6.49,5.32,2.37,1.14,5.1,1.72,8.19,1.72v-.71c-.84,0-1.71-.18-2.62-.52ZM329.52,140.49c-.96-.71-1.73-1.61-2.32-2.7-.58-1.09-.99-2.28-1.22-3.57-.24-1.29-.36-2.54-.36-3.74s.12-2.45.36-3.76c.23-1.31.64-2.51,1.22-3.6.59-1.09,1.36-1.99,2.32-2.7.97-.71,2.18-1.07,3.63-1.07s2.72.36,3.68,1.07c.97.71,1.73,1.61,2.29,2.7.57,1.09.97,2.29,1.21,3.6.23,1.31.35,2.56.35,3.76s-.12,2.45-.35,3.74c-.24,1.29-.65,2.48-1.23,3.57-.59,1.09-1.36,1.99-2.32,2.7-.97.71-2.17,1.07-3.63,1.07s-2.66-.36-3.63-1.07Z"/>
      <path class="cls-1" d="M367.85,140.63c-.29-.29-.57-.67-.82-1.15-.26-.47-.53-1.03-.82-1.69l-7.85-19.15h-1.1l-10.03,23.63h1.63l2.84-6.82h10.04l.93,2.34c.5,1.39,1.26,2.5,2.26,3.36,1,.85,2.26,1.28,3.79,1.28.58,0,1.06-.05,1.42-.16v-.71c-.98-.11-1.75-.42-2.29-.93ZM352.25,134.03l4.47-10.37,4.31,10.37h-8.78Z"/>
      <path class="cls-1" d="M389.78,118.64v17.73l-12.49-15.6c-.59-.65-1.25-1.17-2-1.55-.74-.38-1.7-.58-2.86-.58h-2.29v.71h.33c1.23,0,2.08.33,2.53.99.46.65.69,1.52.69,2.61v19.32h1.41v-18.77l15.39,19.15h.76v-24.01h-1.47Z"/>
      <path class="cls-1" d="M403.69,141.56c-1.05,0-1.74-.33-2.04-.98-.31-.66-.47-1.53-.47-2.62v-19.32h-3.22v19.32c0,.65.03,1.25.09,1.8.05.54.19,1,.4,1.36.22.37.54.65.96.85.42.2,1.01.3,1.77.3h3.22v-.71h-.71Z"/>
    </g>
    <g>
      <path class="cls-1" d="M204.09,61.87c-.63,0-1.1.33-1.81,1.25h-.01c.14-.39.2-.7.2-1v-.28l.56-.41-.56-.79v-.59h-.21c-.38.19-.61.43-.7.73-.09.29-.02.59.2.88l.02.02.09,2s-.05.05-.07.09h-1.46v.2l1.4,1.07c1.23,0,1.88-.03,2.35-.14.31-.07.57-.16.84-.3.21-.64.32-1.23.32-1.58,0-.69-.49-1.15-1.16-1.15ZM202.13,63.76c.56-.46,1.01-.62,1.55-.62.43,0,.93.14,1.23.38-.56.14-1.18.22-2.78.24Z"/>
      <path class="cls-1" d="M382.83,95.07l-.59,1.15c.28.24.56.48.83.72-.4-.04-.96-.22-1.46-.47v-.71h-.26l-.09.4c-.13.55-.36.76-.8.76-.34,0-.83-.16-1.3-.44l.02-.03.16-.39-.22-.12-.16.28c-.28.49-.57.61-1.41.61h-.69l-.26.26v1.38h.69c.51,0,.84-.12,1.17-.56.46.34,1.06.65,1.58.65.41,0,.61-.16.81-.61l.08-.18c.3.22.63.4.98.52.35.13.67.19.95.19.22-.26.4-.56.53-.9.13-.34.2-.65.2-.93,0-.45-.2-1.08-.48-1.57h-.26Z"/>
      <path class="cls-1" d="M333.01,63.16c0,1.13.95,1.88,2.23,1.88l1.44-1.09-.05-.15c-.38.07-.76.12-1.22.12-1.19,0-2.09-.43-2.09-1.12,0-.41.26-.75.78-1.01.52-.26,1.25-.42,2.21-.47l.25-1.05h-.29c-.25,0-.45-.02-1.07-.1-.84-.11-1.09-.13-1.24-.13-.45,0-.7.34-.7.91,0,.13.01.27.05.45h.17c.02-.24.12-.35.41-.35.2,0,.54.02.96.04v.02c-1.19.4-1.83,1.1-1.83,2.04Z"/>
      <polygon class="cls-1" points="80.85 104.44 77.27 100.86 73.26 104.91 77.27 108.92 80.85 105.34 84.43 108.92 88.49 104.91 84.43 100.86 80.85 104.44"/>
      <rect class="cls-1" x="95.34" y="51.49" width="6" height="6" transform="translate(-9.73 85.49) rotate(-45)"/>
      <path class="cls-1" d="M102.01,76.21c.52-1.46.75-2.97.75-4.34,0-4.19-1.13-7.16-3.72-9.99h-1.41l-3.63,8.06c2.31,1.08,4.67,2.17,6.98,3.49-2.26.61-5.89.8-10.75.85l-1.65,8.15,9.85.99c2.17.24,3.82.57,4.9.99-5.23,3.11-15.41,5.18-26.25,5.18-12.3,0-24.88-3.02-35.82-9.1l-.75,1.08,10.46,12.35c8.06,3.06,17.01,4.62,26.11,4.62,12.58,0,22.2-2.64,27.33-7.49.71-1.84,1.23-3.72,1.51-5.66.24-1.93.38-3.49.38-4.76,0-2.45-1.13-3.72-4.29-4.43Z"/>
      <polygon class="cls-1" points="142.23 60.75 145.81 64.34 149.86 60.33 145.81 56.28 142.23 59.86 138.65 56.28 134.64 60.33 138.65 64.34 142.23 60.75"/>
      <path class="cls-1" d="M160.52,59.2v-4.2h-1.42c-5.09,2.64-6.59,6.89-3.91,10.84l.71,15.04c-1.32.23-2.64.33-3.96.33s-2.5-.05-3.72-.14c.89-1.61,1.37-3.26,1.37-4.95,0-5.14-3.16-9.71-6.88-9.71-4.15,0-8.3,6.17-8.3,12.3,0,.9.09,1.7.24,2.5h-13.55c-1.93,0-3.2-.24-3.82-.66-.66-.43-.99-1.23-.99-2.5v-23.05h-1.41l-4.57,7.12.89,15.93c.55,8.92,2.49,12.01,7.98,12.1h0s.51.01.51.01c2.05-.03,6.47-.23,10.72-.59,4.25-.35,8.33-.85,9.7-1.48,2.69,1.37,6.13,2.07,10.42,2.07,3.39,0,5.94-.52,8.53-1.79.75-2.68,1.46-6.64,1.46-10.08v-10.7l3.96-2.83-3.96-5.56ZM144.02,80.6c-4.52-.76-7.72-2.12-7.72-3.49,0-1.09,1.83-1.75,4.24-1.75,3.25,0,7.16,1.84,7.16,3.3,0,.9-1.22,1.51-3.68,1.94Z"/>
      <path class="cls-1" d="M220.93,59.2v-4.2h-1.41c-5.09,2.64-6.6,6.89-3.91,10.84l.71,15.04c-1.32.23-2.64.33-3.96.33-1.75,0-3.11-.05-4.43-.1.42-2.07.66-3.81.66-5.18,0-4.85-3.44-8.11-8.11-8.11-4.43,0-7.73,2.36-12.72,8.77l-.1-.05c.99-2.64,1.37-4.85,1.37-6.97v-1.98l3.96-2.83-3.96-5.56v-4.2h-1.41c-2.69,1.37-4.34,3.07-4.95,5.14-.61,2.08-.14,4.15,1.41,6.22l.1.14.66,14.05c-.14.23-.33.42-.47.66h-7.69c-1.93,0-3.2-.24-3.81-.66-.66-.43-.99-1.23-.99-2.5v-23.05h-1.42l-4.57,7.12.9,15.93c.52,8.46,2.28,11.68,7.15,12.07v.04s1.33,0,1.33,0c4.83-.02,9.87-.15,14.38-.41,4.51-.26,8.48-.65,11.16-1.19,2.92,1.08,6.32,1.6,10.13,1.6h.01c3.39,0,5.93-.52,8.52-1.79.76-2.68,1.46-6.64,1.46-10.08v-10.7l3.96-2.83-3.96-5.56ZM186.63,81.16c3.96-3.2,7.16-4.38,10.98-4.38,3.01,0,6.41.89,8.53,2.54-5.89,1.23-11.26,1.65-19.51,1.84Z"/>
      <polygon class="cls-1" points="226.54 62.12 227.9 90.16 229.32 90.16 232.52 79.84 232.52 55 231.11 55 226.54 62.12"/>
      <rect class="cls-1" x="277.31" y="74.11" width="6" height="6" transform="translate(27.58 220.8) rotate(-45)"/>
      <path class="cls-1" d="M302.08,69.71l-3.63,8.06c3.44,3.49,5.61,5.99,6.5,7.54-4.48,2.59-12.16,4.29-24.18,4.29-11.08,0-26.2-3.06-37.7-9.1l-.75,1.08,10.37,12.21c8.63,3.25,18.33,4.76,28.09,4.76,11.45,0,20.17-1.93,24.84-5.37,1.18-3.77,1.7-8.95,1.7-11.97,0-3.25-1.27-8.25-3.82-11.5h-1.41Z"/>
      <rect class="cls-1" x="341.78" y="89.33" width="6" height="6" transform="translate(35.7 270.85) rotate(-45)"/>
      <rect class="cls-1" x="378.76" y="60.05" width="5" height="5" transform="translate(67.44 287.91) rotate(-45)"/>
      <polygon class="cls-1" points="381.26 69.71 384.84 73.29 388.89 69.28 384.84 65.23 381.26 68.81 377.68 65.23 373.67 69.28 377.68 73.29 381.26 69.71"/>
      <path class="cls-1" d="M390.26,71.59l-3.2,6.27c1.56,1.32,3.06,2.64,4.52,3.96-2.22-.24-5.28-1.23-7.96-2.59v-3.86h-1.41l-.52,2.17c-.71,3.02-1.98,4.15-4.38,4.15-1.89,0-4.52-.89-7.12-2.4l.09-.19.85-2.12-1.23-.66-.89,1.55c-1.51,2.69-3.11,3.35-7.73,3.35s-7.3-.47-8.06-1.79c.8-.05,1.74-.09,2.73-.09h1.65l2.12-8.48h-.99c-6.88,0-9.66-.24-14.47-1.51-4.19-1.08-6.13-1.51-7.68-1.51-3.82,0-5.89,2.83-5.89,7.68,0,1.08.09,2.31.42,3.77h1.41c.24-1.98,1.23-2.97,2.97-2.97.9,0,2.26.19,5.61.94,1.84.42,3.96.75,6.22,1.08v.19c-2.03.24-4.38.71-7.59,1.41-3.36.7-14.33,1.26-17.69,1.27-1.9,0-3.16-.24-3.76-.66-.66-.42-.99-1.23-.99-2.5v-23.05h-1.41l-4.57,7.12.9,15.93c.54,8.77,2.42,11.91,7.71,12.1h0c.11.01.26,0,.38,0,.13,0,.26,0,.4,0l.02-.02c5.53-.16,17.98-1.89,23.37-6.06,3.35-2.59,5.18-3.77,7.07-4.29.09,3.82.85,6.5,2.21,8.06,1.37,1.56,3.53,2.31,6.5,2.31h0c2.78,0,4.57-.66,6.41-3.06,2.5,1.88,5.8,3.54,8.62,3.54,2.22,0,3.35-.85,4.43-3.35l.42-.99c1.65,1.23,3.44,2.17,5.37,2.83,1.93.71,3.68,1.04,5.18,1.04,1.18-1.41,2.17-3.06,2.92-4.9.71-1.84,1.08-3.53,1.08-5.09,0-2.45-1.08-5.89-2.64-8.58h-1.41Z"/>
      <path class="cls-1" d="M405.57,52.98c-2.87,1.41-6.46,1.13-6.46-.24,0-.8,1.23-1.41,2.36-1.6l3.02.9c.19-.38.61-.71.61-1.84s-.66-2.4-2.12-2.4c-2.45,0-5.18,2.78-5.18,5.37,0,.99.75,2.45,1.88,3.39l-2.5,3.68v.33l8.72-4.48v-3.25l-.33.14Z"/>
      <polygon class="cls-1" points="398.41 67.35 399.78 90.16 401.19 90.16 404.4 79.84 404.4 60.24 402.98 60.24 398.41 67.35"/>
      <path class="cls-1" d="M262.86,67.75c.36-1.09.79-1.75,1.27-2,1.57-.85,3.33,2.9,3.81,3.99.73,1.81,1.51,3.57,2.36,5.38.12-2.42.24-3.75.24-4.11.24-1.75.42-3.15.79-4.29.3.6,1.57,1.21,2.24.79,1.03-.54,2.24-2.66,1.75-4.48-.6-2.3-1.69-3.02-3.21-2.18-1.75.97-2.66,4.05-2.84,9.37-3.14-7.32-5.75-10.46-7.56-9.5-.97.54-1.15,2.78-.73,4.42.3,1.03.91,1.94,1.87,2.6Z"/>
      <path class="cls-1" d="M60.84,67.75c.36-1.09.79-1.75,1.27-2,1.57-.85,3.33,2.9,3.81,3.99.73,1.81,1.51,3.57,2.36,5.38.12-2.42.24-3.75.24-4.11.24-1.75.42-3.15.79-4.29.3.6,1.57,1.21,2.24.79,1.03-.54,2.24-2.66,1.75-4.48-.6-2.3-1.69-3.02-3.21-2.18-1.75.97-2.66,4.05-2.84,9.37-3.14-7.32-5.75-10.46-7.56-9.5-.97.54-1.15,2.78-.73,4.42.3,1.03.91,1.94,1.87,2.6Z"/>
      <path class="cls-1" d="M382.88,51.7c-.67.45-1.37.86-2.09,1.23-.86.44-1.73.88-2.59,1.32-.52.27-1.04.54-1.62.84.15.1.23.08.32.07.53-.06,1.04-.16,1.56-.26.82-.16,1.65-.3,2.47-.45.41-.08.79-.24,1.1-.52.22-.19.45-.38.67-.58.82-.76,1.56-1.6,2.29-2.45.26-.3.48-.63.66-.99.16-.3.26-.62.28-.97.01-.23-.07-.4-.26-.52-.11-.07-.23-.14-.35-.18-.19-.06-.39-.12-.6-.16-1-.19-2.01-.26-3.02-.29-.53-.01-1.06.04-1.58.13-.24.04-.43.14-.6.33-.36.43-.69.88-.98,1.36-.3.49-.59.98-.88,1.47-.04.06-.08.12-.06.21.04,0,.08.02.12.02,1.07-.13,2.14-.19,3.21-.21.56-.01,1.12.03,1.67.06.3.02.4.07.61.26-.08.13-.22.19-.34.27Z"/>
      <path class="cls-1" d="M325.36,66.3c.32,1.19.36,2.41.31,3.62-.08,1.75-.48,3.44-1.09,5.08-.08.22-.2.43-.11.7.35-.03.38-.34.48-.55.68-1.45,1.11-2.99,1.53-4.53.52-1.92.53-3.87.19-5.82-.41-2.42-1.5-4.56-2.88-6.56-.23-.33-.47-.65-.8-1.11-.28.88-.47,1.6-.73,2.29-.15.41-.06.69.2,1.03,1.37,1.75,2.32,3.71,2.89,5.85Z"/>
      <path class="cls-1" d="M177.49,66.3c.32,1.19.36,2.41.31,3.62-.08,1.75-.48,3.44-1.09,5.08-.08.22-.2.43-.11.7.35-.03.38-.34.48-.55.68-1.45,1.11-2.99,1.53-4.53.52-1.92.53-3.87.19-5.82-.41-2.42-1.5-4.56-2.88-6.56-.23-.33-.47-.65-.8-1.11-.28.88-.47,1.6-.73,2.29-.15.41-.06.69.2,1.03,1.37,1.75,2.32,3.71,2.9,5.85Z"/>
      <path class="cls-1" d="M125.78,66.3c.32,1.19.36,2.41.31,3.62-.08,1.75-.48,3.44-1.09,5.08-.08.22-.2.43-.11.7.35-.03.38-.34.48-.55.68-1.45,1.11-2.99,1.53-4.53.52-1.92.53-3.87.2-5.82-.41-2.42-1.5-4.56-2.88-6.56-.23-.33-.47-.65-.8-1.11-.28.88-.47,1.6-.73,2.29-.15.41-.06.69.2,1.03,1.37,1.75,2.32,3.71,2.89,5.85Z"/>
    </g>
  </g>
</svg>