<?xml version="1.0" encoding="UTF-8"?>
<svg id="Layer_1" xmlns="http://www.w3.org/2000/svg" version="1.1" viewBox="0 0 450 320.17">
  <!-- Generator: Adobe Illustrator 30.2.1, SVG Export Plug-In . SVG Version: 2.1.1 Build 1)  -->
  <defs>
    <style>
      .st0, .st1 {
        fill: #084138;
      }

      .st1 {
        font-family: itfQomraArabic-Medium, 'itf Qomra Arabic';
        font-size: 31.71px;
        font-weight: 500;
      }
    </style>
  </defs>
  <g>
    <path class="st0" d="M256.34,101.33c-.73-.28.2-2.47.41-2.79,1.8-2.87,10.18-3.08,14.07-4.76,5.14-2.22,9.74-6.69,11.01-12.28,1.8-7.92-2.96-13.32,9.58-11.41,4.3.65,19.1,18.37,22.95,22.52,1.04,1.12,4.21,2.84,4.36,4.57h-6.86c-1.56,0-7.01-8.25-8.61-9.58-.22-.19-1.38-1.27-1.12-.16.52,2.21,11.94,12.93,13.08,16.44h-4.63c-4.83,0-8.93-9.81-11.8-13.08l12.6,19.94c-11.25,2.42-11.49-10.39-17.55-16.11l11.65,22.97c-11.15.29-11.26-13.55-16.29-20.74l7.18,18.82c-9.64.48-9.17-10.83-12.45-17.23l4.47,15.63c-8.52.55-7.89-8.95-9.89-14.68-1.18,1.87,3.05,12.63,2.56,13.08-.54.5-4.31-.8-5-1.38-2.24-1.86-2.5-9.78-7.92-9.78-1.87,0-10.89.35-11.81,0Z"/>
    <path class="st0" d="M177.04,97.18c-.82-.69,4.04-4.21,4.36-4.57,4.16-4.52,15.29-18.35,19.5-20.94,1.44-.89,2.36-1.34,4.1-1.57,11.21-1.45,7.55,2.32,8.56,9.86.82,6.17,5.78,11.4,11.39,13.82,3.6,1.55,12.34,2.1,13.94,4.56.23.35,1.32,2.98.54,2.98h-11.81c-5.39,0-5.61,7.78-7.92,9.79-.74.64-4.3,1.99-5,1.38-.5-.44,3.71-11.23,2.56-13.08-2.08,5.65-1.26,14.75-9.38,14.65l3.96-15.61c-3.4,6.42-2.67,17.75-12.45,17.23l7.18-18.82c-5.18,7.11-5.12,21.1-16.29,20.74-.63-3.33,12.56-22.06,11.65-22.97s-7.77,14.33-10.56,15.44c-.8.32-6.95,1.39-6.98.67-.06-1.17,12.36-16.74,12.92-19.63l-8.62,11.47c-.78.5-2.66,1.29-3.51,1.29h-4.63c1.14-3.48,12.56-14.25,13.08-16.44.26-1.11-.9-.03-1.12.16-1.67,1.38-6.95,9.58-8.61,9.58-1,0-6.6.22-6.86,0Z"/>
    <path class="st0" d="M261.28,113.14c.32-.5,4.07-.42,4.91.04,1.46.79.93,2.47,1.2,2.79.21.26,4.86,1.73,6.17,2.6,14.97,9.97,5.02,27.91-7.8,34.31-6.88,3.44-25.72,5.84-29.05,9.25-7.37,7.55,7.57,11.53,8.6,13.26.21.35-.01.79-.32,1.09-4.39,4.4-13.99-4.11-14.36-9.55-1.3-19.14,41.81-10.11,44.02-33.23.33-3.47-2.78-9.82-6.57-9.96-1.64-.06,0,1.65-1.24,2.13-.37.14-5.56-.03-5.56-1.39,0-1.54-.3-10.85,0-11.33Z"/>
    <path class="st0" d="M234.48,113.14v11.33c0,1.36-5.17,1.54-5.56,1.39-1.08-.41.12-2.05-.98-2.19-1.43-.18-5.73,3.71-6.18,5.06-3.89,11.59,9.99,19.34,18.72,22.68.23.09,4.18.24,2.95,1.15-.35.26-7.89,2.45-8.43,2.38-14.97-2.15-29.24-25.73-12.36-36.64,1.15-.75,5.02-1.96,5.47-2.43.57-.59.21-1.86,1.29-2.54,1-.63,3.9-.6,5.09-.17Z"/>
    <path class="st0" d="M251.07,102.92l-.96,47.39c-.35,1.18-2.82,1-3.95,1.41l-1.48-48.79h6.38Z"/>
    <path class="st0" d="M262.38,158.94c6.28,5.88,1.97,13.23-4.07,17.12-2.64,1.7-15.73,6.74-16.52,8.05-2,3.31,4.18,3.85,3.48,5.56-1.19,2.9-5.64.38-6.78-1.58-6.33-10.9,25.05-12.47,22.12-23.39-1.02-3.81-4.99-3.96-7.62-5.93,4.51-.77,5.55-3.44,9.39.17Z"/>
    <path class="st0" d="M252.03,191.64c-.28.35,3.96,4.17.63,8.43-4.62,5.9-14.17-.06-9.54-7.54.64-1.04,2.88-1.79,3.11-2.39.76-2-1.75-8.23,2.58-7.95,2.14.14-.5,6.71,1.15,6.89.2.02,3.43-1.87,3.56-2.03,2.89-3.37-3.85-4.51-2.94-5.65,2.13-2.67,6.56-1.21,7.17,2.43,1.11,6.66-3.95,5.56-5.72,7.8ZM250.35,197.62c1.45-3.31-3.84-5.37-4.95-1.93-1.09,3.34,4.04,4.01,4.95,1.93Z"/>
    <path class="st0" d="M246.2,81.31c9.79-1.78,10.55,11.46,3.03,12.6-9.3,1.41-10.2-11.3-3.03-12.6Z"/>
    <path class="st0" d="M231.67,67.12c1.24.59,4.76-2.23,5.03-.73.04.22-2.27,2.95-2.24,3.81,0,.21,3.11,2.94,2.57,3.37-.61.49-3.36-.84-4.24-.59-.95.27-2.19,3.47-2.62,3.46-1.08-.04-.55-3.59-1.08-4.33-.67-.93-3.81-.47-4.18-1.72.46-.14,4-1.45,4.11-1.64.57-.96-.86-4.65-.12-4.75,1.04-.14,2.58,3.03,2.77,3.12Z"/>
    <path class="st0" d="M266.75,68.74c.22.39,4.11,1.23,4.11,2.28-4.61.13-4.64,1.69-5.11,5.75-2.54-3.85-2.17-4.26-7.02-3.19-.05-1.54,2.38-2.16,2.4-3.68.01-1.15-2.33-3.77-2.08-3.98.87-.71,3.59,1.67,4.87,1.29.31-.09,1.94-3.36,2.94-3.2.82.13-.67,3.74-.11,4.74Z"/>
    <path class="st0" d="M245.97,175.36c-.5-.55.43-12.82-.34-14.8.14-.32,3.43-1.04,3.96-.8.64.29.44,13.46.16,14.11-.21.49-3.49,1.8-3.78,1.48Z"/>
    <path class="st0" d="M249.21,64.57c.54.69,4.08.26,5.05.38-.32.72-3.65,2.61-3.74,3.02-.11.48,1.66,3.78,1.19,4.32-.53.61-3.45-2.52-3.67-2.55-.37-.05-3.6,3.24-4.3,2.55-.17-.17,1.66-3.42,1.24-4.56-.21-.57-3.13-1.97-3.47-2.77.88-.05,4.61.16,5.05-.37.21-.25.42-3.91,1.17-4.1,1.1-.27,1.27,3.81,1.49,4.09Z"/>
    <polygon class="st0" points="231.77 64.64 231.92 64.79 231.77 64.95 231.77 64.64"/>
    <polygon class="st0" points="245.17 176.95 245.33 177.11 245.17 177.27 245.17 176.95"/>
  </g>
  <text class="st1" transform="translate(108.23 264.97)"><tspan x="0" y="0">نقابــــة أطبّـــــــاء سوريّــــة</tspan></text>
</svg>