<?xml version="1.0" encoding="UTF-8"?>
<svg id="Layer_1" xmlns="http://www.w3.org/2000/svg" version="1.1" xmlns:xlink="http://www.w3.org/1999/xlink" viewBox="30 69 431 169">
  <!-- Generator: Adobe Illustrator 30.2.1, SVG Export Plug-In . SVG Version: 2.1.1 Build 1)  -->
  <defs>
    <style>
      .st0 {
        fill: url(#linear-gradient2);
      }

      .st1 {
        fill: url(#linear-gradient10);
      }

      .st2 {
        fill: url(#linear-gradient1);
      }

      .st3 {
        fill: url(#linear-gradient9);
      }

      .st4 {
        fill: url(#linear-gradient18);
      }

      .st5 {
        fill: url(#linear-gradient8);
      }

      .st6 {
        fill: url(#linear-gradient11);
      }

      .st7 {
        fill: none;
      }

      .st8 {
        fill: url(#linear-gradient16);
      }

      .st9 {
        fill: url(#linear-gradient12);
      }

      .st10 {
        fill: url(#linear-gradient7);
      }

      .st11 {
        fill: url(#linear-gradient4);
      }

      .st12 {
        fill: url(#linear-gradient14);
      }

      .st13 {
        fill: url(#linear-gradient5);
      }

      .st14 {
        fill: url(#linear-gradient3);
      }

      .st15 {
        fill: url(#linear-gradient15);
      }

      .st16 {
        fill: url(#linear-gradient17);
      }

      .st17 {
        fill: url(#linear-gradient6);
      }

      .st18 {
        fill: url(#linear-gradient13);
      }

      .st19 {
        fill: #cec29d;
      }

      .st20 {
        fill: url(#linear-gradient);
      }

      .st21 {
        clip-path: url(#clippath);
      }
    </style>
    <clipPath id="clippath">
      <path class="st7" d="M410.98,109.84c.13,3.35.33,6.71-.19,10.05-.04.27-.1.55.02.69.99,1.11,2.01,2.2,2.98,3.33,1.32,1.55.8,3.23.31,4.97-1.95-.84-3.78-.65-5.54.31-2.07,1.12-2.45,2.29-1.67,4.5,1.32,3.77,2.72,7.51,3.85,11.34,1.41,4.77,1.9,9.65,1.01,14.6-.21,1.15-.65,2.25-.99,3.38-.11-.03-.21-.05-.32-.08.12-1.14.26-2.29.37-3.43.38-4.05.17-8.05-1.18-11.92-1.15-3.3-2.3-6.59-3.52-9.86-.8-2.16-1.23-4.34-.93-6.65.37-2.89,2.03-4.52,5.2-5.22.24-.05.49-.09.74-.14-.78-1.73-2.15-1.82-4.13-.1-.04-.55-.21-1.01-.07-1.33.41-.94.95-1.82,1.42-2.73.12-.23.29-.53.22-.73-.82-2.23-1.64-4.47-3.15-6.35-.08-.11-.18-.2-.32-.35-.19.41-.36.77-.57,1.24-.86-.89-1.69-1.68-2.42-2.54-.94-1.11-.83-3.5.25-4.48.27-.24,1.01-.28,1.34-.09.63.37,1.19.92,1.67,1.49,1.6,1.88,2.58,4.1,3.37,6.42.17.5.45.96.68,1.43.11-.02.22-.05.32-.07.03-.79.09-1.58.07-2.37-.04-2.1-.16-4.19-.17-6.29,0-.83.1-1.68.32-2.48.4-1.45,1.64-1.95,2.96-1.21,1.36.77,2.16,1.62,1.8,3.39-.11.54-.14,1.1-.22,1.7-.64-.51-1.19-1.05-1.84-1.44-.36-.22-.99-.38-1.29-.2-.28.16-.4.81-.38,1.23ZM365.48,115.61c1.44-.35,2.87-.71,4.3-1.06,6.68-1.64,12.55-4.73,17.38-9.69,2.55-2.62,5.12-5.23,7.77-7.76,2.99-2.86,4.82-3.1,8.56-1.39,2.36,1.08,3.91.6,5.22-1.64.5-.85.98-1.71,1.42-2.47,1.05.46,1.95.99,2.92,1.24,1.34.34,2.68.22,3.58-1.06,1.43-2.02.98-5.74-1-7.54.08,1.62-1.03,3.17.5,4.64-1.31.51-2.47.51-3.65,0-1.41-.62-.99-1.86-.9-2.99-.12-.02-.24-.04-.36-.06-.23.36-.51.69-.67,1.07-.37.92-.69,1.87-1.01,2.81-.71,2.03-2.42,3.03-4.54,2.56-.6-.13-1.24-.34-1.74-.68-2.41-1.64-4.58-.97-6.61.65-1.24.99-2.37,2.12-3.52,3.21-2.7,2.58-5.26,5.32-8.09,7.74-5.77,4.94-12.42,8.5-19.31,11.61-.48.21-.93.48-1.39.72.03.09.07.17.1.26.35-.05.7-.08,1.04-.16ZM144.85,92.77c.9.67,1.68,1.36,2.58,1.86.48.26,1.22.4,1.71.22,1.65-.6,1.73-.67,2.53.96,1.76,3.57,3.54,7.14,3.99,11.19.02.19.18.37.42.83.5-.72,1.05-1.24,1.27-1.87.51-1.46.92-2.97,1.28-4.48.75-3.15,1.31-6.36,2.21-9.47.83-2.86,2.31-3.7,4.42-.98.73.95,1.23.8,1.74-.35.85-1.91.57-3.58-.89-5.12-1.63-1.73-3.28-1.85-4.66.09-1.03,1.45-1.88,3.13-2.37,4.84-.84,2.99-1.34,6.08-1.99,9.13-.06.3-.18.59-.24.78-.84-2.51-1.57-5.04-2.55-7.48-.82-2.01-2.02-3.84-3.88-5.1-2.27-1.55-3.15-1.34-4.47,1-.08.15-.18.3-.25.46-1.93,4.3-5.23,7.41-9.05,9.96-5.75,3.85-11.59,7.58-17.41,11.33-.67.43-1.25.8-.78,1.77,10.74-3.87,20.9-8.5,26.37-19.56ZM191.34,90.91c.97-.54,1.25-.08,1.52.55.91,2.11,1.77,4.25,2.59,6.4.1.27-.08.77-.3,1.01-1,1.1-1.66,3.41-1.28,4.76,2.16-2.08,2.23-2.1,3.33-.84-.15.06-.27.14-.41.18-2.79.78-4.33,2.61-3.7,6.39.73,4.32,1.64,8.61,2.33,12.94.25,1.53.09,3.12.11,4.69.2.01.4.02.59.03.13-1.42.35-2.83.37-4.25.07-4.77-.8-9.41-2.33-13.91-.3-.89-.1-1.42.66-1.72,1.57-.62,3.17-1.2,4.77-1.73,1.6-.54,2.42-2.97,1.22-4.13-1.23-1.18-2.68-2.13-4.14-3.26.18-.63.47-1.56.69-2.51.22-.96.31-1.94.54-2.9.32-1.32.64-2.65,1.13-3.91.56-1.44,1.28-1.52,2.34-.42.25.27.51.52,1.01,1.02.29-.92.6-1.6.71-2.3.13-.84-.98-2.39-1.83-2.67-1.12-.37-1.83.32-2.35,1.14-.48.76-.92,1.59-1.15,2.45-.51,1.97-.87,3.98-1.31,5.98-.04.21-.15.4-.22.59-.5-1.55-.8-3.11-1.51-4.46-.7-1.33-1.67-2.62-2.79-3.62-1.18-1.04-1.87-.75-2.68.61-.21.36-.38.74-.61,1.09-.43.67-.24,1.23.29,1.71.69.62,1.41,1.66,2.38,1.12ZM65.3,108.48c.26-1.13.9-1.97,1.86-2.63,1.4-.96,2.78-1.96,4.12-2.99.5-.39.88-.93,1.36-1.46-.68-.25-1.25-.41-1.78-.66-1.03-.49-1.37-1.14-1.24-2.25.04-.36.08-.74.21-1.08.35-.9.5-1.78.36-2.79-.19-1.37,1.07-2.44,2.4-2.05,2.9.84,4.99,2.71,6.31,5.41.41.85-.48,3.42-1.29,3.95-.2.13-.53.14-.78.1-.87-.11-1.73-.31-2.6-.39-.26-.02-.67.16-.79.37-1.41,2.62-3.63,4.29-6.27,5.49-.18.08-.39.15-.51.29-.16.17-.33.41-.33.62,0,.12.32.33.51.34,1.41.06,2.84.27,4.22.08,2.27-.3,4.5-.85,6.74-1.3.19-.04.38-.07.57-.11-1.4,1.37-3.03,2.29-4.85,2.88-2.02.66-4.05,1.3-6.22,1.05-1.8-.21-2.42-1.1-2.01-2.87ZM74.62,99.39c1.04.12,2.02.24,3.11.37-.48-1.55-1.43-2.41-2.85-2.98-.09.94-.17,1.74-.26,2.62ZM73.59,99.26c-.09-.87-.12-1.48-.23-2.07-.1-.54-.28-1.1-1.01-.99-.59.09-1.79,1.48-1.65,1.86.06.17.22.37.38.42.75.26,1.52.47,2.51.77ZM251.17,104.24c.26-1.13.9-1.97,1.86-2.63,1.4-.96,2.78-1.96,4.12-2.99.5-.39.88-.93,1.36-1.46-.68-.25-1.25-.41-1.78-.66-1.03-.49-1.37-1.14-1.24-2.25.04-.36.08-.74.21-1.08.35-.9.5-1.78.36-2.79-.19-1.37,1.07-2.44,2.4-2.05,2.9.84,4.99,2.71,6.31,5.41.41.85-.48,3.42-1.29,3.95-.2.13-.53.14-.78.1-.87-.11-1.73-.31-2.6-.39-.26-.02-.67.16-.79.37-1.41,2.62-3.63,4.29-6.27,5.49-.18.08-.39.15-.51.29-.16.17-.33.41-.33.62,0,.12.32.33.51.34,1.41.06,2.84.27,4.22.08,2.27-.3,4.5-.85,6.74-1.3.19-.04.38-.07.58-.11-1.4,1.37-3.03,2.29-4.85,2.88-2.02.66-4.05,1.3-6.22,1.05-1.8-.21-2.42-1.1-2.01-2.87ZM260.49,95.15c1.04.12,2.02.24,3.11.37-.48-1.55-1.43-2.41-2.85-2.98-.09.94-.17,1.74-.26,2.62ZM259.46,95.02c-.09-.87-.12-1.48-.23-2.07-.1-.54-.28-1.1-1.01-.99-.59.09-1.79,1.48-1.65,1.86.06.17.22.37.38.42.75.26,1.52.47,2.51.77ZM271.42,192.37c.66,1.3-.05,4.23-1.25,5.04-.32.21-.85.3-1.22.21-2.26-.52-3.85.08-5.46,1.97-2.61,3.04-6.15,5.01-9.83,6.61-1.68.73-3.43,1.32-5.16,1.95-.51.18-1.05.27-1.58.4-.04-.1-.09-.19-.13-.29.5-.35.98-.74,1.51-1.05,4.33-2.66,8.68-5.28,13-7.96.9-.56,1.67-1.31,2.6-2.05-.18-.12-.21-.14-.24-.15-2.75-.77-3.74-2.19-2.57-5.77.21-.63.29-1.34.22-1.99-.23-2.21,1.31-3.58,3.36-2.75,2.89,1.16,5.3,2.98,6.75,5.85ZM265.25,193.1c-.01-.9.07-1.96-.97-2.29-1-.31-1.49.68-2.05,1.29-.6.66-.47,1.21.38,1.55.78.31,1.63.45,2.64.72,0-.62,0-.95,0-1.28ZM270.07,195.03c-.17-1.59-1.79-3.3-3.18-3.49-.13.95-.26,1.91-.41,2.99,1.21.17,2.38.33,3.59.5ZM383.23,135.42c-5.65,4.49-13.88,9.39-24.68,14.71-1.16.58-2.53,1.25-4.11,1.99-.08-.08-.21-.17-.37-.25.08-.25.54-.66,1.37-1.25,7.98-5.4,13.46-9.02,16.46-10.85,9.81-5.98,16.12-10.8,18.95-14.46-4.16-1.66-6.23-3.37-6.23-5.11s.96-3.95,2.87-6.36c1.91-2.41,3.62-3.62,5.11-3.62,1.99,0,2.99,1.7,2.99,5.11,0,1.41-.5,3.49-1.5,6.23,1.08.5,1.99.91,2.74,1.25.08,0,.12.08.12.25,0,.42-.27,1.14-.81,2.18-.54,1.04-.89,1.56-1.06,1.56,0,0-.91-.33-2.74-1-1.41,2.66-4.45,5.86-9.1,9.6ZM392.95,121.09c.17-.66.25-1.37.25-2.12,0-1.25-.25-2.33-.75-3.24-.5-.83-.96-1.25-1.37-1.25-.66,0-1.48.46-2.43,1.37-.96.91-1.43,1.58-1.43,1.99,0,.66,1.91,1.75,5.73,3.24ZM360.36,110.24c1.99,0,2.99,1.7,2.99,5.11,0,1.41-.5,3.49-1.5,6.23,1.08.5,1.99.91,2.74,1.25.08,0,.12.08.12.25,0,.42-.27,1.14-.81,2.18-.54,1.04-.89,1.56-1.06,1.56,0,0-.91-.33-2.74-1-1.41,2.66-4.45,5.86-9.1,9.6-5.65,4.49-13.88,9.39-24.68,14.71-1.16.58-2.53,1.25-4.11,1.99-.08-.08-.21-.17-.37-.25.08-.25.54-.66,1.37-1.25,7.98-5.4,13.46-9.02,16.46-10.85,9.81-5.98,16.12-10.8,18.95-14.46-4.16-1.66-6.23-3.37-6.23-5.11s.96-3.95,2.87-6.36c1.91-2.41,3.62-3.62,5.11-3.62ZM360.99,118.97c0-1.25-.25-2.33-.75-3.24-.5-.83-.96-1.25-1.37-1.25-.66,0-1.48.46-2.43,1.37-.96.91-1.43,1.58-1.43,1.99,0,.66,1.91,1.75,5.73,3.24.17-.66.25-1.37.25-2.12ZM429.67,95.2c0-.78.46-1.78,1.39-2.99,1.07-1.35,2.06-2.03,2.99-2.03.36,0,.82.16,1.39.48.57.32,1.1.52,1.6.59,1.78-3.84,3.95-5.76,6.51-5.76,1.07,0,1.6.57,1.6,1.71,0,1.71-.68,3.27-2.03,4.7-1.57,1.64-3.52,2.45-5.87,2.45-.92,0-1.76-.2-2.51-.59-.75-.39-1.37-.59-1.87-.59s-1.07.39-1.71,1.17c-.64.78-1.03,1.17-1.17,1.17-.21,0-.32-.11-.32-.32ZM438.32,91.47c1.28.07,2.44-.16,3.47-.69,1.03-.53,1.55-1.05,1.55-1.55,0-.92-.43-1.39-1.28-1.39-1.21,0-2.45,1.21-3.74,3.63ZM63.7,136.62l7.65,5.74,4.53-6.63-7.78-5.8-4.53,6.31-7.65-5.67-4.34,6.57,7.78,5.8,4.34-6.31ZM77.41,155.74c-2.3,4.51-5.44,9.37-9.44,14.6.17.09.38.26.64.51,3.57,3.19,5.36,7.12,5.36,11.8-.04,2.85-.66,5.48-1.85,7.91-1.45,2.42-4.49,4.59-9.12,6.5-1.7.64-3,.96-3.89.96-2.55-.34-3.87-2.36-3.95-6.06,0-5.23,1.51-10.52,4.53-15.88.21-.38.61-.97,1.18-1.75.57-.79.95-1.29,1.12-1.5-2.85-3.27-5.4-6.52-7.65-9.76l-2.3-1.28,1.02-8.42c.26.21,4.02,2.98,11.29,8.29.76.81.66,1.23-.32,1.28-.13,0-.76-.12-1.88-.35-1.13-.23-1.78-.31-1.94-.22,1.02,1.19,2.74,2.98,5.16,5.36,7.23-9.65,11.43-16.05,12.62-19.19l.19-.19.06.19.06,2.74c0,1.49-.3,2.98-.89,4.46ZM64.21,175.32c-3.78,5.02-5.9,8.19-6.34,9.53-.45,1.34-.67,2.33-.67,2.96.08,1.32,1.01,1.97,2.77,1.94,1.76-.02,3.85-.69,6.25-2.01,2.4-1.32,4.2-2.57,5.39-3.76-.68-1.4-1.66-2.74-2.93-4.02-2.42-2.46-3.91-4.02-4.46-4.65ZM158.53,195.74l-7.78-5.8-4.65,6.57,7.91,5.8,4.53-6.57ZM192.96,144.41l-4.53,6.38-7.65-5.67-4.65,6.57,7.91,5.87,4.53-6.5,7.65,5.55,4.53-6.38-7.78-5.8ZM201.44,190.63h0c5.31.04,9.16-2.27,11.54-6.95,1.61-3.19,2.76-6.72,3.44-10.58,1.32,11.52,5.16,17.49,11.54,17.92,0,0,0,0,0,0,1.23,0,2.51-.21,3.83-.64,3.87-1.27,6.61-4.02,8.22-8.23,1.61-4.25,2.42-10.56,2.42-18.94.04-8.42-1.72-28.71-5.29-60.89l.19-.64.64.13c2.17,2.72,3.63,4.12,4.4,4.21.13-.04.19-.3.19-.76,0-.64-.98-3.7-2.93-9.18-.85-2-1.82-4.25-2.9-6.76-1.08-2.51-1.8-4.21-2.14-5.1l-3.76,7.46.89,1.79c2.68,24.61,4.82,50.63,6.44,78.04.3,5.1.45,7.67.45,7.72-1.87,2.55-4.63,3.95-8.29,4.21,0,0,0,0,0,0-2.81-.17-4.89-.91-6.25-2.23-2.17-2.13-3.59-6.18-4.27-12.18-.55-4.85-1.25-13.6-2.1-26.27-1.66-25.04-3.81-43.08-6.44-54.13-.76-2.12-1.15-3.23-1.15-3.32-.21.51-.64,1.76-1.27,3.76-.64,2-1.17,3.63-1.59,4.91.34,1.15.83,4.74,1.47,10.78,3.23,30.69,4.85,52.79,4.85,66.31,0,3.32-.13,5.76-.38,7.33-2.06,2.73-5.12,4.29-9.16,4.7-.05-.02-.09-.04-.15-.04-4.8-.04-7.25-2.89-7.33-8.54.04-.51.15-1.51.32-3l-.13-.25c-.51.3-1.74,1.74-3.7,4.34-3.57,4.88-7.69,7.4-12.34,7.58-.07-.02-.14-.04-.22-.05-1.74.09-3.38-.08-4.91-.51-4.42-1.23-6.63-3.72-6.63-7.46v-.64l4.78.25,3-7.14h-.96c-15.98-.34-30.54-2.34-43.68-5.99-.26-.08-.62-.19-1.08-.32-5.06-1.36-8.27-1.98-9.63-1.85-2.68.26-5.33.98-7.97,2.17-.21.72-.68,2.06-1.4,4.02-.72,1.96-1.17,3.21-1.34,3.76,1.19-.13,3.15-.19,5.87-.19l7.78.13c2.25.04,3.59-.21,4.02-.76v-.13c6.08,2.04,12.45,3.4,19.13,4.08-6.04,2.51-10.69,4.55-13.96,6.12-7.1,3.44-13.26,5.29-18.49,5.55-.07,0-.14.03-.21.04-5.78-.31-9.24-5.1-10.37-14.39-.68-5.36-1.42-15.47-2.23-30.35-1.28-21.93-3.8-39.76-7.59-53.5-.17.51-.59,1.71-1.24,3.6-.66,1.89-1.24,3.6-1.75,5.13,2.98,9.95,5.27,27.18,6.89,51.71,1.4,21.51,2.87,34.18,4.4,38,1.91,4.76,5.16,7.21,9.76,7.33,2.93.09,6.11-.38,9.53-1.4,3.42-1.02,10.27-3.92,20.53-8.7,10.27-4.78,18.37-7.17,24.32-7.17h.96c-.55,1.96-.82,3.68-.8,5.16.02,1.49.2,2.78.54,3.89,1.44,4.76,4.91,7.14,10.39,7.14h.13c4.89,0,9.54-3.21,13.96-9.63.77-1.06,1.25-1.68,1.47-1.85-.09.43-.13,1.21-.13,2.36s.11,2.13.32,2.93c1.02,3.78,3.55,5.82,7.59,6.12,0,0,0,0,0,0ZM272.09,168.66c-.6,2.72-1.4,5.04-2.42,6.95-1.78,2.47-5.31,4.59-10.58,6.38-2,.64-3.46.96-4.4.96-2.89-.13-4.36-2.27-4.4-6.44v-1.02c.3-5.1,2.1-9.92,5.42-14.47,1.4-1.95,4.74-5.97,10.01-12.05-1.28-2.51-2.7-5.04-4.27-7.59l2.36-8.29.13.25.13-.13c.17.64.58,1.57,1.24,2.81.66,1.23,1.92,4.17,3.79,8.8,4.46-5.36,7.14-9.18,8.03-11.48.08-.21.15-.34.19-.38l.06.13c-.04.17-.28,1.83-.7,4.97-.77,2.81-2.83,6.27-6.18,10.39,1.15,3.27,2.83,9.37,5.04,18.3,2.34,9.32,6.65,14.21,12.94,14.7.09-.02.18-.03.26-.03,4.34-.13,7.65-1.36,9.95-3.7.38-.42.68-.85.89-1.28-.77-2.93-2.44-5.97-5.04-9.12l1.59-8.29c3.61,5.19,5.46,9.93,5.55,14.22v.57c-.17,4-1.11,7.27-2.81,9.82-2.38,3.14-6.54,4.93-12.48,5.35,0,0-.01,0-.02,0-6.72-.21-11.48-6.99-14.28-20.34ZM270.5,168.02c-.04-5.1-1.15-10.27-3.32-15.49-1.06,1.19-2.64,2.93-4.72,5.23-5.27,5.65-8.37,9.73-9.31,12.24-.3.94-.47,1.76-.51,2.49.17,1.4,1.19,2.1,3.06,2.1,1.91-.04,4.42-.8,7.52-2.26,3.1-1.47,5.53-2.9,7.27-4.3ZM262.72,122.05l7.65,5.67,4.46-6.57-7.91-5.87-4.21,6.18-7.78-5.55-4.53,6.57,7.91,5.74,4.4-6.18ZM295.94,200.41l-7.78-5.68-4.53,6.63,7.91,5.8,4.4-6.5,7.65,5.67,4.65-6.5-7.91-5.87-4.4,6.44ZM97.37,197.33c.93-2.81,1.4-5.44,1.4-7.91,0-4.34-1.17-8.25-3.51-11.73-2.34-3.53-3.72-5.74-4.14-6.63l.13-.45.89-.13c1.79.77,2.83,1.19,3.12,1.28h.19c.42.17.75.17.99,0,.23-.17-.09-.75-.96-1.75-.87-1-2.36-2.69-4.46-5.07-2.1-2.38-3.54-4.08-4.3-5.1l-2.61,8.03,1.47,1.4c.77,3.57,2.64,7.75,5.61,12.53,2.97,4.78,4.76,8.19,5.36,10.23-1.66,2.47-4.25,5.21-7.78,8.22-10.54,9.01-19.49,13.52-26.84,13.52-3.87,0-7.03-.94-9.5-2.81-3.23-2.42-4.85-6.44-4.85-12.05v-.96c.13-2.17.57-4.53,1.34-7.08.68-2.21.98-3.48.89-3.83-.04-.21-.08-.34-.13-.38-.21-.21-.49-.02-.83.57-.26.51-.47.98-.64,1.4-2,4.97-3.01,9.7-3.03,14.19-.02,4.48.78,8.24,2.39,11.25,2.76,5.14,7.52,7.72,14.28,7.72,2.08,0,4.06-.28,5.93-.83,5.95-1.78,12.75-6.08,20.4-12.88,5.14-4.59,8.2-8.18,9.18-10.78ZM354.19,205.3c-7.65,6.8-14.45,11.09-20.4,12.88-1.87.55-3.85.83-5.93.83-6.47,0-11.11-2.37-13.92-7.08-5.83,4.61-11.11,7.64-15.86,9.06-1.87.55-3.85.83-5.93.83-6.76,0-11.52-2.57-14.28-7.72-1.61-3.02-2.41-6.77-2.39-11.25.02-4.48,1.03-9.21,3.03-14.19.17-.42.38-.89.64-1.4.34-.59.62-.79.83-.57.04.04.09.17.13.38.09.34-.21,1.62-.89,3.83-.76,2.55-1.21,4.91-1.34,7.08v.96c0,5.61,1.62,9.63,4.85,12.05,2.47,1.87,5.63,2.81,9.5,2.81,5.58,0,12.09-2.6,19.51-7.8-.37-1.81-.55-3.79-.54-5.94.02-4.49,1.03-9.21,3.03-14.19.17-.42.38-.89.64-1.4.34-.59.62-.79.83-.57.04.04.09.17.13.38,0,.6-.3,1.87-.89,3.83-.77,2.55-1.21,4.91-1.34,7.08v.96c0,2.95.45,5.45,1.34,7.51,1.35-1.04,2.73-2.16,4.14-3.37,3.53-3.02,6.12-5.76,7.78-8.22-.6-2.04-2.38-5.45-5.36-10.23-2.98-4.78-4.85-8.96-5.61-12.53l-1.47-1.4,2.61-8.03c.77,1.02,2.2,2.72,4.3,5.1,2.1,2.38,3.59,4.07,4.46,5.07.87,1,1.19,1.58.96,1.75-.23.17-.56.17-.99,0h-.19c-.3-.08-1.34-.51-3.12-1.28l-.89.13-.13.45c.42.89,1.81,3.1,4.14,6.63,2.34,3.49,3.51,7.4,3.51,11.73,0,2.47-.47,5.1-1.4,7.91-.98,2.59-4.04,6.18-9.18,10.78-.02.02-.05.04-.07.06,0,0,0,0,0,0,2.47,1.87,5.63,2.81,9.5,2.81,7.35,0,16.3-4.51,26.84-13.52,3.53-3.02,6.12-5.76,7.78-8.23-.36-1.1-.98-2.38-1.86-3.84-.68.29-1.37.59-2.1.9h0c-3.19.76-5.82,1.15-7.9,1.15s-3.51-.34-4.53-1.02c-1.78-1.53-2.7-3.51-2.74-5.93v-.89c.26-2.13.81-3.93,1.66-5.42,1.91-3.32,4.27-4.97,7.08-4.97,1.83,0,3.68.83,5.55,2.49,2.08,1.84,3.68,3.95,4.82,6.31,6.54-2.73,11.29-5.23,14.25-7.52.98-.76,1.55-1.15,1.72-1.15l.06.06-.06.13c-.85,1.83-1.28,3.4-1.28,4.72,0,3.95,2.08,5.91,6.25,5.87,3.19-.04,6.95-2.95,11.29-8.74.93-1.23,1.57-1.89,1.91-1.98.3-.04.42,0,.38.13-.47,1.02-.72,1.85-.77,2.49-.13,3.74,1.51,5.65,4.91,5.74,2.93.09,5.12-1.08,6.57-3.51.55-.93.93-1.87,1.15-2.81.42-2.04,1.06-3.51,1.91-4.4-.09.72-.11,1.64-.06,2.74,0,4.72,2.7,7.25,8.1,7.59,3.66-.26,6.42-1.66,8.29-4.21,0-.04-.15-2.61-.45-7.72-1.62-27.42-3.76-47.37-6.44-71.99l-.89-1.79,3.76-7.46c.34.89,1.05,2.59,2.14,5.1,1.08,2.51,2.05,4.76,2.9,6.76,1.95,5.48,2.93,8.54,2.93,9.18,0,.47-.06.72-.19.76-.76-.08-2.23-1.49-4.4-4.21l-.64-.13-.19.64c3.57,32.18,5.33,46.42,5.29,54.83,0,8.37-.81,14.69-2.42,18.94-1.62,4.21-4.36,6.95-8.22,8.23-1.32.43-2.59.64-3.83.64,0,0,0,0,0,0s0,0,0,0c-4.59-.26-7.04-2.76-7.33-7.52-2.13,5.27-4.91,7.93-8.35,7.97-3.36.04-5.46-1.4-6.31-4.34-.21-.72-.32-1.87-.32-3.44-.26.26-.85,1.11-1.79,2.55-2.55,3.74-5.1,5.99-7.65,6.76-.81.26-1.72.38-2.74.38-3.57,0-5.91-1.49-7.01-4.46-.6-1.62-.72-3.25-.38-4.91-1.21,1.31-4.65,3.26-10.3,5.85.19,1.19.29,2.43.29,3.72,0,2.25-.4,4.59-1.21,7.01-.98,2.59-4.04,6.18-9.18,10.78ZM356.55,179.73c-2.55-2.21-4.55-3.42-5.99-3.63-1.57.09-2.95.96-4.14,2.61.72,1.15,2.1,1.7,4.14,1.66,2-.04,3.99-.25,5.99-.64ZM378.61,169.4l-.13.13v.13l.13-.26ZM439.16,114.49l.57.13c2.13,2.68,3.57,4.08,4.34,4.21,0-.04.06-.17.19-.38-.04-1.27-1.91-6.5-5.61-15.69-1.15-2.76-1.98-4.72-2.49-5.87l-3.7,7.46.89,1.98c4.85,44.12,7.29,73.18,7.33,87.16l-.32,7.91c0,.81.21,1.32.64,1.53h.25c.13-.25.42-1.08.89-2.49,1.95-6.63,2.95-12.58,3-17.85,0-11.05-2.08-33.62-6.25-67.71l.26-.38ZM320.44,130.34c.27-.09,1.84-.6,2.09-.67.14-.04.28-.09.41-.13,4.65-1.55,9.29-3.1,13.94-4.66,1.84-.62,3.67-1.27,5.51-1.9.5-.17.97-.4,1.32-.8.56-.63,1.07-1.29,1.5-2.02.15-.25.28-.51.32-.8.02-.14-.11-.3-.24-.3-.11,0-.23,0-.34.04-.67.17-1.36.31-2.02.52-6,1.9-11.99,3.82-17.98,5.72-7.93,2.51-15.77,5.29-23.72,7.74-3.08.95-6.1,2.06-9.14,3.1-3.66,1.25-7.2,2.75-10.63,4.53-.46.24-.92.5-1.35.79-.78.53-1.28,1.25-1.41,2.2-.04.29-.1.57-.15.86-.17,1.03-.39,2.05-.43,3.1-.06,1.4.4,2.62,1.38,3.63.87.89,1.94,1.46,3.09,1.89.96.36.95.47,1.4-.7.05-.13.07-.28.09-.42.18-.92-.12-1.66-.86-2.22-.3-.23-.61-.44-.95-.61-.65-.34-1.2-.81-1.73-1.31-.21-.2-.39-.44-.53-.68-.39-.7-.29-1.42.26-1.99.18-.19.39-.35.59-.51.48-.38,1.02-.66,1.56-.95,3.83-2.02,7.84-3.6,11.96-4.93,7.25-2.34,14.49-4.74,21.74-7.11,1.43-.47,2.87-.92,4.31-1.38ZM129.98,117.53c-3.08.95-6.1,2.06-9.14,3.1-3.66,1.25-7.2,2.75-10.63,4.53-.46.24-.92.5-1.35.79-.78.53-1.28,1.25-1.41,2.2-.04.29-.1.57-.15.86-.17,1.03-.39,2.05-.43,3.1-.06,1.4.4,2.62,1.38,3.63.87.89,1.94,1.46,3.09,1.89.96.36.95.47,1.4-.7.05-.13.07-.28.09-.42.18-.92-.12-1.66-.86-2.22-.3-.23-.61-.44-.95-.61-.65-.34-1.2-.81-1.73-1.31-.21-.2-.39-.44-.53-.68-.39-.7-.29-1.42.26-1.99.18-.19.39-.35.59-.51.48-.38,1.02-.66,1.56-.95,3.83-2.02,7.84-3.6,11.96-4.93,7.25-2.34,14.49-4.74,21.74-7.11,1.43-.47,2.87-.92,4.31-1.38.27-.09,1.84-.6,2.09-.67.14-.04.28-.09.41-.13,4.65-1.55,9.3-3.1,13.94-4.66,1.84-.62,3.67-1.27,5.51-1.9.5-.17.97-.4,1.32-.8.56-.63,1.07-1.29,1.5-2.02.15-.25.28-.51.32-.8.02-.14-.11-.3-.24-.3-.11,0-.23,0-.34.04-.67.17-1.36.31-2.02.52-6,1.9-11.99,3.82-17.98,5.72-7.93,2.51-15.77,5.29-23.73,7.74ZM166.82,138.81c-4.73,1.48-20.53,7.04-22.62,7.97-.71.32-1.28.79-1.7,1.44-.56.86-.85,1.82-1.28,2.92,1.06-.43,1.95-.78,2.83-1.14,4.54-1.84,9.13-3.54,13.78-5.09,2.59-.86,5.19-1.7,7.79-2.53-.04.15-.09.3-.13.45-.26.98-.49,1.97-.76,2.94-.37,1.31-.69,2.63-1.28,3.87-.17.37-.29.76-.45,1.13-.25.59-.29,1.24-.45,1.85-.17.64-.22,1.31-.12,1.98.07.49.21.96.3,1.44.19,1.04.63,1.98,1.13,2.89.43.78,1.09,1.25,1.9,1.55.33.12.61.13.89-.1.36-.29.74-.56,1.07-.88,1.91-1.86,2.76-4.16,2.78-6.8,0-.35,0-.7,0-1.04,0-.11-.01-.24-.15-.28-.15-.04-.2.08-.24.18-.22.57-.43,1.13-.66,1.7-.28.67-.62,1.31-1.07,1.88-.49.62-1.12.98-1.94.97-.28,0-.5-.09-.67-.32-.37-.48-.74-.96-1.03-1.5-.42-.79-.62-1.62-.5-2.51.05-.43.21-.84.35-1.25.46-1.43.92-2.86,1.36-4.3.44-1.42.82-2.86,1.1-4.33,1.14-.37,2.29-.74,3.43-1.11,4.35-1.43,8.74-2.71,13.13-4.01,7.03-2.08,14.05-4.19,21.08-6.28.69-.2,1.27-.53,1.79-1.01.85-.78,1.46-1.72,1.85-2.8.03-.07.02-.16.02-.24-.28-.13-.52-.01-.77.05-3.46.85-6.88,1.88-10.28,2.93-3.41,1.04-6.81,2.12-10.22,3.15-2.36.71-4.74,1.35-7.09,2.07-4.4,1.36-8.79,2.77-13.19,4.15ZM281.6,107.53c4.21-1.39,8.44-2.72,12.65-4.11,4.35-1.43,8.74-2.71,13.13-4.01,7.03-2.08,14.05-4.19,21.08-6.28.69-.2,1.27-.53,1.79-1.01.85-.78,1.46-1.72,1.85-2.8.03-.07.02-.16.02-.24-.28-.13-.52-.01-.77.05-3.46.85-6.88,1.88-10.28,2.93-3.41,1.04-6.81,2.12-10.22,3.15-2.36.71-4.74,1.35-7.09,2.07-4.4,1.36-8.79,2.77-13.19,4.15-4.73,1.48-20.53,7.04-22.62,7.97-.71.32-1.28.79-1.7,1.44-.55.86-.85,1.82-1.28,2.92,1.06-.43,1.95-.78,2.83-1.14,4.54-1.84,9.13-3.54,13.78-5.09ZM52.89,121.49c-1.27.65-2.11,1.58-2.55,2.8-.16.44-.25.9-.36,1.35-.07.32.08.42.46.31.22-.06.44-.14.66-.22,1.37-.47,2.73-.93,4.1-1.4,6.77-2.32,13.53-4.64,20.31-6.95,3.04-1.04,6.1-2.04,9.16-3.04,2.29-.75,3.34-2.29,3.67-4.29,0-.05-.05-.1-.11-.21-.49.14-1,.26-1.5.42-1.75.57-3.49,1.15-5.24,1.73-8.97,2.99-17.93,6.01-26.98,8.84-.57.18-1.11.39-1.63.66ZM404.89,203.64c-.42,1.14-.45,2.32-.35,3.52.02.27.07.53.09.8.02.34-.14.5-.49.45-.99-.15-1.94-.44-2.86-.83-1-.43-1-.43-.96-1.54.01-.5.05-1,.06-1.49,0-.15.02-.34-.18-.37-.16-.03-.26.13-.33.26-.25.43-.5.86-.72,1.31-.22.45-.42.9-.61,1.36-.53,1.28-1.44,2.11-2.78,2.55-.97.32-1.87.34-2.79-.06-.39-.17-.76-.36-1.14-.55-.41-.21-.81-.43-1.23-.63-.84-.42-1.73-.57-2.68-.52-1.82.11-3.55.59-5.23,1.27-1.92.78-3.77,1.72-5.59,2.71-2.33,1.27-4.75,2.33-7.25,3.2-3.16,1.09-6.42,1.78-9.72,2.33-.79.13-1.58.29-2.36.49-.48.12-.95.32-1.33.65-.05.04-.08.14-.06.2.02.06.09.14.15.15,1.1.18,2.21.3,3.32.27,2.15-.06,4.29-.23,6.42-.43,2.6-.24,5.03-.96,7.35-2.13.65-.33,1.3-.65,1.95-.98,1.33-.68,2.66-1.38,4-2.02,2.08-1,4.24-1.75,6.55-2.08,1.54-.22,2.97-.01,4.32.78.6.35,1.22.65,1.81,1.01.7.44,1.45.46,2.22.29.72-.16,1.37-.48,1.95-.94.77-.6,1.36-1.34,1.83-2.19.3-.56.38-.57.85-.2.76.6,1.55,1.13,2.47,1.44.7.24,1.4.33,2.15.22.66-.1,1.11-.39,1.42-1.01,1.28-2.6,1.23-5.23.35-7.97-.45.18-.5.47-.59.71ZM333.63,95.6c1.66.77,3.07,1.91,4.51,3,.78.59,1.58,1.17,2.47,1.58.57.26.93.67,1.23,1.2,1.5,2.7,2.84,5.47,3.76,8.43.26.84.55,1.67.84,2.5.2.56.48,1.07.93,1.47.49.44,1.08.32,1.25-.32.24-.94.45-1.9.61-2.87.48-3.05.7-6.12.93-9.19.16-2.24.39-4.48.89-6.68.26-1.16.65-2.26,1.42-3.18.81-.96,1.81-1.11,2.88-.49.51.3.94.7,1.32,1.16.4.49.77,1.01,1.18,1.5.43.51.79,1.11,1.61,1.58.34-1.79.64-3.42.95-5.05.12-.65.04-1.26-.33-1.82-.29-.45-.56-.92-.85-1.37-.54-.83-1.18-1.56-2.01-2.12-.84-.57-1.76-.84-2.78-.66-.3.05-.57.13-.8.34-1.06.95-2.09,1.93-2.56,3.34-.22.65-.47,1.29-.68,1.94-1.1,3.48-1.47,7.07-1.72,10.69-.11,1.66-.22,3.32-.33,4.98,0,.14-.01.29-.17.36-.24.11-.37-.07-.48-.22-.29-.41-.4-.88-.52-1.36-.5-2.15-1.13-4.25-2.13-6.23-1-1.97-2.2-3.81-3.44-5.63-.86-1.27-1.94-2.33-3.08-3.34-.63-.56-1.34-.98-2.17-1.18-1.23-.3-1.59-.13-1.98,1.04-.66,1.96-.9,4-1.12,6.05-.03.3.15.46.37.56ZM244.35,194.82c-.54-.83-1.18-1.56-2.01-2.12-.84-.57-1.76-.84-2.78-.66-.3.05-.57.13-.8.34-1.06.95-2.09,1.93-2.56,3.34-.22.65-.47,1.29-.68,1.94-1.1,3.48-1.47,7.07-1.72,10.69-.11,1.66-.22,3.32-.33,4.98,0,.14-.01.29-.17.36-.24.11-.37-.07-.48-.22-.29-.41-.4-.88-.52-1.36-.5-2.15-1.13-4.25-2.13-6.23-1-1.97-2.2-3.81-3.44-5.63-.86-1.27-1.94-2.33-3.08-3.34-.63-.56-1.34-.98-2.17-1.18-1.23-.3-1.59-.13-1.98,1.04-.66,1.96-.9,4-1.12,6.05-.03.3.15.46.37.56,1.66.77,3.07,1.91,4.51,3,.78.59,1.58,1.17,2.47,1.58.57.26.93.67,1.23,1.2,1.5,2.7,2.84,5.47,3.76,8.43.26.84.55,1.67.84,2.5.2.56.48,1.07.93,1.47.49.44,1.08.32,1.25-.32.24-.94.45-1.9.61-2.87.48-3.05.7-6.12.93-9.19.16-2.24.39-4.48.89-6.68.26-1.16.65-2.26,1.42-3.18.81-.96,1.81-1.11,2.88-.49.51.3.94.7,1.32,1.16.4.49.77,1.01,1.18,1.5.43.51.79,1.11,1.61,1.58.34-1.79.64-3.42.96-5.05.12-.65.04-1.26-.33-1.82-.29-.45-.56-.92-.85-1.37ZM434.45,194.82c-.54-.83-1.18-1.56-2.01-2.12-.84-.57-1.76-.84-2.78-.66-.3.05-.57.13-.8.34-1.06.95-2.09,1.93-2.56,3.34-.22.65-.47,1.29-.68,1.94-1.1,3.48-1.47,7.07-1.72,10.69-.11,1.66-.22,3.32-.33,4.98,0,.14-.01.29-.17.36-.24.11-.37-.07-.48-.22-.29-.41-.4-.88-.52-1.36-.5-2.15-1.13-4.25-2.13-6.23-1-1.97-2.2-3.81-3.44-5.63-.86-1.27-1.94-2.33-3.08-3.34-.63-.56-1.34-.98-2.17-1.18-1.23-.3-1.59-.13-1.98,1.04-.66,1.96-.9,4-1.12,6.05-.03.3.15.46.37.56,1.66.77,3.07,1.91,4.51,3,.78.59,1.58,1.17,2.47,1.58.57.26.93.67,1.23,1.2,1.5,2.7,2.84,5.47,3.76,8.43.26.84.55,1.67.84,2.5.2.56.48,1.07.93,1.47.49.44,1.08.32,1.25-.32.24-.94.45-1.9.61-2.87.48-3.05.7-6.12.93-9.19.16-2.24.39-4.48.89-6.68.26-1.16.65-2.26,1.42-3.18.81-.96,1.81-1.11,2.88-.49.51.3.94.7,1.32,1.16.4.49.77,1.01,1.18,1.5.43.51.79,1.11,1.61,1.58.34-1.79.64-3.42.95-5.05.12-.65.04-1.26-.33-1.82-.29-.45-.56-.92-.85-1.37ZM128.63,194.82c-.54-.83-1.18-1.56-2.01-2.12-.84-.57-1.76-.84-2.78-.66-.3.05-.57.13-.8.34-1.06.95-2.09,1.93-2.56,3.34-.22.65-.47,1.29-.68,1.94-1.1,3.48-1.47,7.07-1.72,10.69-.11,1.66-.22,3.32-.33,4.98,0,.14-.01.29-.17.36-.24.11-.37-.07-.48-.22-.29-.41-.4-.88-.52-1.36-.5-2.15-1.13-4.25-2.13-6.23-1-1.97-2.2-3.81-3.44-5.63-.86-1.27-1.94-2.33-3.08-3.34-.63-.56-1.34-.98-2.17-1.18-1.23-.3-1.59-.13-1.98,1.04-.66,1.96-.9,4-1.12,6.05-.03.3.15.46.37.56,1.66.77,3.07,1.91,4.51,3,.78.59,1.58,1.17,2.47,1.58.57.26.93.67,1.23,1.2,1.5,2.7,2.84,5.47,3.76,8.43.26.84.55,1.67.84,2.5.2.56.48,1.07.93,1.47.49.44,1.08.32,1.25-.32.24-.94.45-1.9.61-2.87.48-3.05.7-6.12.93-9.19.16-2.24.39-4.48.89-6.68.26-1.16.65-2.26,1.42-3.18.81-.96,1.81-1.11,2.88-.49.51.3.94.7,1.32,1.16.4.49.77,1.01,1.18,1.5.43.51.79,1.11,1.61,1.58.34-1.79.64-3.42.96-5.05.12-.65.04-1.26-.33-1.82-.29-.45-.56-.92-.85-1.37ZM381.89,150.5c.15,1.45.85,2.59,2,3.47.63.48,1.34.51,2.06.22.76-.3,1.38-.8,1.86-1.47.4-.56.72-1.17.99-1.81.24-.56.47-1.13.72-1.68.06-.15.29-.17.37-.04.22.36.43.72.65,1.08.6.99,1.46,1.64,2.56,1.99,1.11.35,2.03.09,2.78-.8.97-1.16,1.46-2.51,1.36-4.02-.14-2.11-.58-4.16-1.52-6.08-.57-1.17-1.07-2.36-1.51-3.59-.12-.32-.26-.63-.4-.95-.07-.15-.2-.26-.35-.23-.08.02-.17.16-.2.26-.54,1.78-.55,3.54.24,5.25.51,1.11,1.03,2.22,1.54,3.33.21.45.42.9.57,1.37.15.48.24.99-.15,1.41-.4.43-.91.31-1.4.17-1.17-.34-2-1.09-2.51-2.19-.43-.94-.74-1.92-.95-2.94-.37-1.75-.73-3.51-1.09-5.27-.08-.38-.18-.74-.36-1.08-.1-.2-.32-.2-.45,0-.72,1.15-1.01,2.39-.74,3.72.29,1.42.58,2.84.91,4.26.45,1.99-.32,3.96-2.02,5.08-.95.62-1.78.56-2.59-.23-.58-.57-.99-1.25-1.11-2.09-.1-.76-.09-1.52-.02-2.29.07-.72.13-1.44.2-2.17.01-1.35-.18-2.67-.68-3.93-.08-.21-.17-.47-.44-.46-.23,0-.43.16-.55.37-.08.13-.14.27-.18.41-.33,1.12-.42,2.25-.05,3.38.3.91.44,1.86.45,2.82.02,1.11,0,2.21,0,3.32,0,.46-.03.92.01,1.37ZM311.95,154.28c.97-1.16,1.46-2.51,1.36-4.02-.14-2.11-.58-4.16-1.52-6.08-.57-1.17-1.07-2.36-1.51-3.59-.12-.32-.26-.63-.4-.95-.07-.15-.2-.26-.35-.23-.08.02-.17.16-.2.26-.54,1.78-.55,3.54.24,5.25.51,1.11,1.03,2.22,1.54,3.33.21.45.42.9.57,1.37.15.48.24.99-.15,1.41-.4.43-.91.31-1.4.17-1.17-.34-2-1.09-2.51-2.19-.43-.94-.74-1.92-.95-2.94-.37-1.75-.73-3.51-1.09-5.27-.08-.38-.18-.74-.36-1.08-.1-.2-.32-.2-.45,0-.72,1.15-1.01,2.39-.74,3.72.29,1.42.58,2.84.91,4.26.45,1.99-.32,3.96-2.02,5.08-.95.62-1.78.56-2.59-.23-.58-.57-.99-1.25-1.11-2.09-.1-.76-.09-1.52-.02-2.29.07-.72.13-1.44.2-2.17.01-1.35-.18-2.67-.68-3.93-.08-.21-.17-.47-.44-.46-.23,0-.43.16-.55.37-.08.13-.14.27-.18.41-.33,1.12-.42,2.25-.05,3.38.3.91.44,1.86.45,2.82.02,1.11,0,2.21,0,3.32,0,.46-.03.92.01,1.37.15,1.45.85,2.59,2,3.47.63.48,1.34.51,2.06.22.76-.3,1.38-.8,1.86-1.47.4-.56.72-1.17.99-1.81.24-.56.47-1.13.72-1.68.06-.15.29-.17.37-.04.22.36.43.72.65,1.08.6.99,1.46,1.64,2.56,1.99,1.11.35,2.03.09,2.78-.8ZM172.64,125.57c-.58-.57-.99-1.25-1.11-2.09-.1-.76-.09-1.52-.02-2.29.07-.72.13-1.44.2-2.17.01-1.35-.18-2.67-.68-3.93-.08-.21-.17-.47-.44-.46-.23,0-.43.16-.55.37-.08.13-.14.27-.18.41-.33,1.12-.42,2.25-.05,3.38.3.91.44,1.86.45,2.82.02,1.11,0,2.21,0,3.32,0,.46-.03.92.01,1.37.15,1.45.85,2.59,2,3.47.63.48,1.34.51,2.06.22.76-.3,1.38-.8,1.86-1.47.4-.56.72-1.17.99-1.81.24-.56.47-1.13.72-1.68.06-.15.29-.17.37-.04.22.36.43.72.65,1.08.6.99,1.46,1.64,2.56,1.99,1.11.35,2.03.09,2.78-.8.97-1.16,1.46-2.51,1.36-4.02-.14-2.11-.58-4.16-1.52-6.08-.57-1.17-1.07-2.36-1.51-3.59-.12-.32-.26-.63-.4-.95-.07-.15-.2-.26-.35-.23-.08.02-.17.16-.2.26-.54,1.78-.55,3.54.24,5.25.51,1.11,1.03,2.22,1.54,3.33.21.45.42.9.57,1.37.15.48.24.99-.15,1.41-.4.43-.91.31-1.4.17-1.17-.34-2-1.09-2.51-2.19-.43-.94-.74-1.92-.95-2.94-.37-1.75-.73-3.51-1.09-5.27-.08-.38-.18-.74-.36-1.08-.1-.2-.32-.2-.45,0-.72,1.15-1.01,2.39-.74,3.72.29,1.42.58,2.84.91,4.26.45,1.99-.32,3.96-2.02,5.08-.95.62-1.78.56-2.59-.23ZM368.53,103.17c.19,1.04.63,1.98,1.13,2.89.43.78,1.09,1.25,1.9,1.55.33.12.61.13.89-.1.36-.29.74-.56,1.07-.88,1.91-1.86,2.76-4.16,2.78-6.8,0-.35,0-.7,0-1.04,0-.11-.01-.24-.15-.28-.15-.04-.2.08-.24.18-.22.57-.43,1.13-.66,1.7-.28.67-.62,1.31-1.07,1.88-.49.62-1.12.98-1.94.97-.28,0-.5-.09-.67-.32-.37-.48-.74-.96-1.03-1.5-.42-.79-.62-1.62-.5-2.51.05-.43.21-.84.35-1.25.46-1.43.92-2.86,1.36-4.3.48-1.58.91-3.17,1.19-4.8.14-.83.24-1.66.18-2.5,0-.07-.04-.12-.11-.11-.05,0-.12.02-.15.06-.07.09-.12.2-.17.3-.63,1.15-1.06,2.38-1.4,3.64-.26.98-.49,1.97-.76,2.94-.36,1.31-.69,2.63-1.28,3.87-.17.37-.29.76-.45,1.13-.25.59-.29,1.24-.45,1.85-.17.64-.22,1.31-.12,1.98.07.49.21.96.3,1.44ZM370.38,128.61c.46-1.43.92-2.86,1.36-4.3.48-1.58.91-3.17,1.19-4.8.14-.83.24-1.66.18-2.5,0-.07-.04-.12-.11-.11-.05,0-.12.02-.15.06-.07.09-.12.2-.17.3-.63,1.15-1.06,2.38-1.4,3.64-.26.98-.49,1.97-.76,2.94-.36,1.31-.69,2.63-1.28,3.87-.17.37-.29.76-.45,1.13-.25.59-.29,1.24-.45,1.85-.17.64-.22,1.31-.12,1.98.07.49.21.96.3,1.44.19,1.04.63,1.98,1.13,2.89.43.78,1.09,1.25,1.9,1.55.33.12.61.13.89-.1.36-.29.74-.56,1.07-.88,1.91-1.86,2.76-4.16,2.78-6.8,0-.35,0-.7,0-1.04,0-.11-.01-.24-.15-.28-.15-.04-.2.08-.24.18-.22.57-.43,1.13-.66,1.7-.28.67-.62,1.31-1.07,1.88-.49.62-1.12.98-1.94.97-.28,0-.5-.09-.67-.32-.37-.48-.74-.96-1.03-1.5-.42-.79-.62-1.62-.5-2.51.05-.43.21-.84.35-1.25ZM248.36,149.9c.19,1.04.63,1.98,1.13,2.89.43.78,1.09,1.25,1.9,1.55.33.12.61.13.89-.1.36-.29.74-.56,1.07-.88,1.91-1.86,2.76-4.16,2.78-6.8,0-.35,0-.7,0-1.04,0-.11-.01-.24-.15-.28-.15-.04-.2.08-.24.18-.22.57-.43,1.13-.66,1.7-.28.67-.62,1.31-1.07,1.88-.49.62-1.12.98-1.94.97-.28,0-.5-.09-.67-.32-.37-.48-.74-.96-1.03-1.5-.42-.79-.62-1.62-.5-2.51.05-.43.21-.84.35-1.25.46-1.43.92-2.86,1.36-4.3.48-1.58.91-3.17,1.19-4.8.14-.83.24-1.66.18-2.5,0-.07-.04-.12-.11-.11-.05,0-.12.02-.15.06-.07.09-.12.2-.17.3-.63,1.15-1.06,2.38-1.4,3.64-.26.98-.49,1.97-.76,2.94-.36,1.31-.69,2.63-1.28,3.87-.17.37-.29.76-.45,1.13-.25.59-.29,1.24-.45,1.85-.17.64-.22,1.31-.12,1.98.07.49.21.96.3,1.44ZM174.55,205.86c.46-1.43.92-2.86,1.36-4.3.48-1.58.91-3.17,1.19-4.8.14-.83.24-1.66.18-2.5,0-.07-.04-.12-.11-.11-.05,0-.12.02-.15.06-.07.09-.12.2-.17.3-.63,1.15-1.06,2.38-1.4,3.64-.26.98-.49,1.97-.76,2.94-.36,1.31-.69,2.63-1.28,3.87-.17.37-.29.76-.45,1.13-.25.59-.29,1.24-.45,1.85-.17.64-.22,1.31-.12,1.98.07.49.21.96.3,1.44.19,1.04.63,1.98,1.13,2.89.43.78,1.09,1.25,1.9,1.55.33.12.61.13.89-.1.36-.29.74-.56,1.07-.88,1.91-1.86,2.76-4.16,2.78-6.8,0-.35,0-.7,0-1.04,0-.11-.01-.24-.15-.28-.15-.04-.2.08-.24.18-.22.57-.43,1.13-.66,1.7-.28.67-.62,1.31-1.07,1.88-.49.62-1.12.98-1.94.97-.28,0-.5-.09-.67-.32-.37-.48-.74-.96-1.03-1.5-.42-.79-.62-1.62-.5-2.51.05-.43.21-.84.35-1.25ZM201.38,215.8c.33.12.61.13.89-.1.36-.29.74-.56,1.07-.88,1.91-1.86,2.76-4.16,2.78-6.8,0-.35,0-.7,0-1.04,0-.11-.01-.24-.15-.28-.15-.04-.2.08-.24.18-.22.57-.43,1.13-.66,1.7-.28.67-.62,1.31-1.07,1.88-.49.62-1.12.98-1.94.97-.28,0-.5-.09-.67-.32-.37-.48-.74-.96-1.03-1.5-.42-.79-.62-1.62-.5-2.51.05-.43.21-.84.35-1.25.46-1.43.92-2.86,1.36-4.3.48-1.58.91-3.17,1.19-4.8.14-.83.24-1.66.18-2.5,0-.07-.04-.12-.11-.11-.05,0-.12.02-.15.06-.07.09-.12.2-.17.3-.63,1.15-1.06,2.38-1.4,3.64-.26.98-.49,1.97-.76,2.94-.37,1.31-.69,2.63-1.28,3.87-.17.37-.29.76-.45,1.13-.25.59-.29,1.24-.45,1.85-.17.64-.22,1.31-.12,1.98.07.49.21.96.3,1.44.19,1.04.63,1.98,1.13,2.89.43.78,1.09,1.25,1.9,1.55ZM219.96,105.6c.19,1.04.63,1.98,1.13,2.89.43.78,1.09,1.25,1.9,1.55.33.12.61.13.89-.1.36-.29.74-.56,1.07-.88,1.91-1.86,2.76-4.16,2.78-6.8,0-.35,0-.7,0-1.04,0-.11-.01-.24-.15-.28-.15-.04-.2.08-.24.18-.22.57-.43,1.13-.66,1.7-.28.67-.62,1.31-1.07,1.88-.49.62-1.12.98-1.94.97-.28,0-.5-.09-.67-.32-.37-.48-.74-.96-1.03-1.5-.42-.79-.62-1.62-.5-2.51.05-.43.21-.84.35-1.25.46-1.43.92-2.86,1.36-4.3.48-1.58.91-3.17,1.19-4.8.14-.83.24-1.66.18-2.5,0-.07-.04-.12-.11-.11-.05,0-.12.02-.15.06-.07.09-.12.2-.17.3-.63,1.15-1.06,2.38-1.4,3.64-.26.98-.49,1.97-.76,2.94-.37,1.31-.69,2.63-1.28,3.87-.17.37-.29.76-.45,1.13-.25.59-.29,1.24-.45,1.85-.17.64-.22,1.31-.12,1.98.07.49.21.96.3,1.44ZM200.39,171.02c.19,1.04.63,1.98,1.13,2.89.43.78,1.09,1.25,1.9,1.55.33.12.61.13.89-.1.36-.29.74-.56,1.07-.88,1.91-1.86,2.76-4.16,2.78-6.8,0-.35,0-.7,0-1.04,0-.11-.01-.24-.15-.28-.15-.04-.2.08-.24.18-.22.57-.43,1.13-.66,1.7-.28.67-.62,1.31-1.07,1.88-.49.62-1.12.98-1.94.97-.28,0-.5-.09-.67-.32-.37-.48-.74-.96-1.03-1.5-.42-.79-.62-1.62-.5-2.51.05-.43.21-.84.35-1.25.46-1.43.92-2.86,1.36-4.3.48-1.58.91-3.17,1.19-4.8.14-.83.24-1.66.18-2.5,0-.07-.04-.12-.11-.11-.05,0-.12.02-.15.06-.07.09-.12.2-.17.3-.63,1.15-1.06,2.38-1.4,3.64-.26.98-.49,1.97-.76,2.94-.37,1.31-.69,2.63-1.28,3.87-.17.37-.29.76-.45,1.13-.25.59-.29,1.24-.45,1.85-.17.64-.22,1.31-.12,1.98.07.49.21.96.3,1.44ZM153.78,129.56c.46-1.43.92-2.86,1.36-4.3.48-1.58.91-3.17,1.19-4.8.14-.83.24-1.66.18-2.5,0-.07-.04-.12-.11-.11-.05,0-.12.02-.15.06-.07.09-.12.2-.17.3-.63,1.15-1.06,2.38-1.4,3.64-.26.98-.49,1.97-.76,2.94-.37,1.31-.69,2.63-1.28,3.87-.17.37-.29.76-.45,1.13-.25.59-.29,1.24-.45,1.85-.17.64-.22,1.31-.12,1.98.07.49.21.96.3,1.44.19,1.04.63,1.98,1.13,2.89.43.78,1.09,1.25,1.9,1.55.33.12.61.13.89-.1.36-.29.74-.56,1.07-.88,1.91-1.86,2.76-4.16,2.78-6.8,0-.35,0-.7,0-1.04,0-.11-.01-.24-.15-.28-.15-.04-.2.08-.24.18-.22.57-.43,1.13-.66,1.7-.28.67-.62,1.31-1.07,1.88-.49.62-1.12.98-1.94.97-.28,0-.5-.09-.67-.32-.37-.48-.74-.96-1.03-1.5-.42-.79-.62-1.62-.5-2.51.05-.43.21-.84.35-1.25ZM49.35,111.11c.19,1.04.63,1.98,1.13,2.89.43.78,1.09,1.25,1.9,1.55.33.12.61.13.89-.1.36-.29.74-.56,1.07-.88,1.91-1.86,2.76-4.16,2.78-6.8,0-.35,0-.7,0-1.04,0-.11-.01-.24-.15-.28-.15-.04-.2.08-.24.18-.22.57-.43,1.13-.66,1.7-.28.67-.62,1.31-1.07,1.88-.49.62-1.12.98-1.94.97-.28,0-.5-.09-.67-.32-.37-.48-.74-.96-1.03-1.5-.42-.79-.62-1.62-.5-2.51.05-.43.21-.84.35-1.25.46-1.43.92-2.86,1.36-4.3.48-1.58.91-3.17,1.19-4.8.14-.83.24-1.66.18-2.5,0-.07-.04-.12-.11-.11-.05,0-.12.02-.15.06-.07.09-.12.2-.17.3-.63,1.15-1.06,2.38-1.4,3.64-.26.98-.49,1.97-.76,2.94-.36,1.31-.69,2.63-1.28,3.87-.17.37-.29.76-.45,1.13-.25.59-.29,1.24-.45,1.85-.17.64-.22,1.31-.12,1.98.07.49.21.96.3,1.44ZM135.69,136.21c.46-1.43.92-2.86,1.36-4.3.48-1.58.91-3.17,1.19-4.8.14-.83.24-1.66.18-2.5,0-.07-.04-.12-.11-.11-.05,0-.12.02-.15.06-.07.09-.12.2-.17.3-.63,1.15-1.06,2.38-1.4,3.64-.26.98-.49,1.97-.76,2.94-.36,1.31-.69,2.63-1.28,3.87-.17.37-.29.76-.45,1.13-.25.59-.29,1.24-.45,1.85-.17.64-.22,1.31-.12,1.98.07.49.21.96.3,1.44.19,1.04.63,1.98,1.13,2.89.43.78,1.09,1.25,1.9,1.55.33.12.61.13.89-.1.36-.29.74-.56,1.07-.88,1.91-1.86,2.76-4.16,2.78-6.8,0-.35,0-.7,0-1.04,0-.11-.01-.24-.15-.28-.15-.04-.2.08-.24.18-.22.57-.43,1.13-.66,1.7-.28.67-.62,1.31-1.07,1.88-.49.62-1.12.98-1.94.97-.28,0-.5-.09-.67-.32-.37-.48-.74-.96-1.03-1.5-.42-.79-.62-1.62-.5-2.51.05-.43.21-.84.35-1.25ZM86.38,140.77c-.28,0-.5-.09-.67-.32-.37-.48-.74-.96-1.03-1.5-.42-.79-.62-1.62-.5-2.51.05-.43.21-.84.35-1.25.46-1.43.92-2.86,1.36-4.3.48-1.58.91-3.17,1.19-4.8.14-.83.24-1.66.18-2.5,0-.07-.04-.12-.11-.11-.05,0-.12.02-.15.06-.07.09-.12.2-.17.3-.63,1.15-1.06,2.38-1.4,3.64-.26.98-.49,1.97-.76,2.94-.37,1.31-.69,2.63-1.28,3.87-.17.37-.29.76-.45,1.13-.25.59-.29,1.24-.45,1.85-.17.64-.22,1.31-.12,1.98.07.49.21.96.3,1.44.19,1.04.63,1.98,1.13,2.89.43.78,1.09,1.25,1.9,1.55.33.12.61.13.89-.1.36-.29.74-.56,1.07-.88,1.91-1.86,2.76-4.16,2.78-6.8,0-.35,0-.7,0-1.04,0-.11-.01-.24-.15-.28-.15-.04-.2.08-.24.18-.22.57-.43,1.13-.66,1.7-.28.67-.62,1.31-1.07,1.88-.49.62-1.12.98-1.94.97ZM117.59,142.86c.46-1.43.92-2.86,1.36-4.3.48-1.58.91-3.17,1.19-4.8.14-.83.24-1.66.18-2.5,0-.07-.04-.12-.11-.11-.05,0-.12.02-.15.06-.07.09-.12.2-.17.3-.63,1.15-1.06,2.38-1.4,3.64-.26.98-.49,1.97-.76,2.94-.37,1.31-.69,2.63-1.28,3.87-.17.37-.29.76-.45,1.13-.25.59-.29,1.24-.45,1.85-.17.64-.22,1.31-.12,1.98.07.49.21.96.3,1.44.19,1.04.63,1.98,1.13,2.89.43.78,1.09,1.25,1.9,1.55.33.12.61.13.89-.1.36-.29.74-.56,1.07-.88,1.91-1.86,2.76-4.16,2.78-6.8,0-.35,0-.7,0-1.04,0-.11-.01-.24-.15-.28-.15-.04-.2.08-.24.18-.22.57-.43,1.13-.66,1.7-.28.67-.62,1.31-1.07,1.88-.49.62-1.12.98-1.94.97-.28,0-.5-.09-.67-.32-.37-.48-.74-.96-1.03-1.5-.42-.79-.62-1.62-.5-2.51.05-.43.21-.84.35-1.25ZM324.58,108.51c.46-1.43.92-2.86,1.36-4.3.48-1.58.91-3.17,1.19-4.8.14-.83.24-1.66.18-2.5,0-.07-.04-.12-.11-.11-.05,0-.12.02-.15.06-.07.09-.12.2-.17.3-.63,1.15-1.06,2.38-1.4,3.64-.26.98-.49,1.97-.76,2.94-.36,1.31-.69,2.63-1.28,3.87-.17.37-.29.76-.45,1.13-.25.59-.29,1.24-.45,1.85-.17.64-.22,1.31-.12,1.98.07.49.21.96.3,1.44.19,1.04.63,1.98,1.13,2.89.43.78,1.09,1.25,1.9,1.55.33.12.61.13.89-.1.36-.29.74-.56,1.07-.88,1.91-1.86,2.76-4.16,2.78-6.8,0-.35,0-.7,0-1.04,0-.11-.01-.24-.15-.28-.15-.04-.2.08-.24.18-.22.57-.43,1.13-.66,1.7-.28.67-.62,1.31-1.07,1.88-.49.62-1.12.98-1.94.97-.28,0-.5-.09-.67-.32-.37-.48-.74-.96-1.03-1.5-.42-.79-.62-1.62-.5-2.51.05-.43.21-.84.35-1.25ZM176.7,101.72c.19,1.04.63,1.98,1.13,2.89.43.78,1.09,1.25,1.9,1.55.33.12.61.13.89-.1.36-.29.74-.56,1.07-.88,1.91-1.86,2.76-4.16,2.78-6.8,0-.35,0-.7,0-1.04,0-.11-.01-.24-.15-.28-.15-.04-.2.08-.24.18-.22.57-.43,1.13-.66,1.7-.28.67-.62,1.31-1.07,1.88-.49.62-1.12.98-1.94.97-.28,0-.5-.09-.67-.32-.37-.48-.74-.96-1.03-1.5-.42-.79-.62-1.62-.5-2.51.05-.43.21-.84.35-1.25.46-1.43.92-2.86,1.36-4.3.48-1.58.91-3.17,1.19-4.8.14-.83.24-1.66.18-2.5,0-.07-.04-.12-.11-.11-.05,0-.12.02-.15.06-.07.09-.12.2-.17.3-.63,1.15-1.06,2.38-1.4,3.64-.26.98-.49,1.97-.76,2.94-.36,1.31-.69,2.63-1.28,3.87-.17.37-.29.76-.45,1.13-.25.59-.29,1.24-.45,1.85-.17.64-.22,1.31-.12,1.98.07.49.21.96.3,1.44ZM334.97,164.25c.46-1.43.92-2.86,1.36-4.3.48-1.58.91-3.17,1.19-4.8.14-.83.24-1.66.18-2.5,0-.07-.04-.12-.11-.11-.05,0-.12.02-.15.06-.07.09-.12.2-.17.3-.63,1.15-1.06,2.38-1.4,3.64-.26.98-.49,1.97-.76,2.94-.36,1.31-.69,2.63-1.28,3.87-.17.37-.29.76-.45,1.13-.25.59-.29,1.24-.45,1.85-.17.64-.22,1.31-.12,1.98.07.49.21.96.3,1.44.19,1.04.63,1.98,1.13,2.89.43.78,1.09,1.25,1.9,1.55.33.12.61.13.89-.1.36-.29.74-.56,1.07-.88,1.91-1.86,2.76-4.16,2.78-6.8,0-.35,0-.7,0-1.04,0-.11-.01-.24-.15-.28-.15-.04-.2.08-.24.18-.22.57-.43,1.13-.66,1.7-.28.67-.62,1.31-1.07,1.88-.49.62-1.12.98-1.94.97-.28,0-.5-.09-.67-.32-.37-.48-.74-.96-1.03-1.5-.42-.79-.62-1.62-.5-2.51.05-.43.21-.84.35-1.25ZM416.67,164.47c-.25.59-.29,1.24-.45,1.85-.17.64-.22,1.31-.12,1.98.07.49.21.96.3,1.44.19,1.04.63,1.98,1.13,2.89.43.78,1.09,1.25,1.9,1.55.33.12.61.13.89-.1.36-.29.74-.56,1.07-.88,1.91-1.86,2.76-4.16,2.78-6.8,0-.35,0-.7,0-1.04,0-.11-.01-.24-.15-.28-.15-.04-.2.08-.24.18-.22.57-.43,1.13-.66,1.7-.28.67-.62,1.31-1.07,1.88-.49.62-1.12.98-1.94.97-.28,0-.5-.09-.67-.32-.37-.48-.74-.96-1.03-1.5-.42-.79-.62-1.62-.5-2.51.05-.43.21-.84.35-1.25.46-1.43.92-2.86,1.36-4.3.48-1.58.91-3.17,1.19-4.8.14-.83.24-1.66.18-2.5,0-.07-.04-.12-.11-.11-.05,0-.12.02-.15.06-.07.09-.12.2-.17.3-.63,1.15-1.06,2.38-1.4,3.64-.26.98-.49,1.97-.76,2.94-.36,1.31-.69,2.63-1.28,3.87-.17.37-.29.76-.45,1.13ZM366.14,161.35c.46-1.43.92-2.86,1.36-4.3.48-1.58.91-3.17,1.19-4.8.14-.83.24-1.66.18-2.5,0-.07-.04-.12-.11-.11-.05,0-.12.02-.15.06-.07.09-.12.2-.17.3-.63,1.15-1.06,2.38-1.4,3.64-.26.98-.49,1.97-.76,2.94-.37,1.31-.69,2.63-1.28,3.87-.17.37-.29.76-.45,1.13-.25.59-.29,1.24-.45,1.85-.17.64-.22,1.31-.12,1.98.07.49.21.96.3,1.44.19,1.04.63,1.98,1.13,2.89.43.78,1.09,1.25,1.9,1.55.33.12.61.13.89-.1.36-.29.74-.56,1.07-.88,1.91-1.86,2.76-4.16,2.78-6.8,0-.35,0-.7,0-1.04,0-.11-.01-.24-.15-.28-.15-.04-.2.08-.24.18-.22.57-.43,1.13-.66,1.7-.28.67-.62,1.31-1.07,1.88-.49.62-1.12.98-1.94.97-.28,0-.5-.09-.67-.32-.37-.48-.74-.96-1.03-1.5-.42-.79-.62-1.62-.5-2.51.05-.43.21-.84.35-1.25ZM369.11,198.16c.46-1.43.92-2.86,1.36-4.3.48-1.58.91-3.17,1.19-4.8.14-.83.24-1.66.18-2.5,0-.07-.04-.12-.11-.11-.05,0-.12.02-.15.06-.07.09-.12.2-.17.3-.63,1.15-1.06,2.38-1.4,3.64-.26.98-.49,1.97-.76,2.94-.36,1.31-.69,2.63-1.28,3.87-.17.37-.29.76-.45,1.13-.25.59-.29,1.24-.45,1.85-.17.64-.22,1.31-.12,1.98.07.49.21.96.3,1.44.19,1.04.63,1.98,1.13,2.89.43.78,1.09,1.25,1.9,1.55.33.12.61.13.89-.1.36-.29.74-.56,1.07-.88,1.91-1.86,2.76-4.16,2.78-6.8,0-.35,0-.7,0-1.04,0-.11-.01-.24-.15-.28-.15-.04-.2.08-.24.18-.22.57-.43,1.13-.66,1.7-.28.67-.62,1.31-1.07,1.88-.49.62-1.12.98-1.94.97-.28,0-.5-.09-.67-.32-.37-.48-.74-.96-1.03-1.5-.42-.79-.62-1.62-.5-2.51.05-.43.21-.84.35-1.25ZM283.95,164.25c.46-1.43.92-2.86,1.36-4.3.48-1.58.91-3.17,1.19-4.8.14-.83.24-1.66.18-2.5,0-.07-.04-.12-.11-.11-.05,0-.12.02-.15.06-.07.09-.12.2-.17.3-.63,1.15-1.06,2.38-1.4,3.64-.26.98-.49,1.97-.76,2.94-.37,1.31-.69,2.63-1.28,3.87-.17.37-.29.76-.45,1.13-.25.59-.29,1.24-.45,1.85-.17.64-.22,1.31-.12,1.98.07.49.21.96.3,1.44.19,1.04.63,1.98,1.13,2.89.43.78,1.09,1.25,1.91,1.55.33.12.61.13.89-.1.36-.29.74-.56,1.07-.88,1.91-1.86,2.76-4.16,2.78-6.8,0-.35,0-.7,0-1.04,0-.11-.01-.24-.15-.28-.15-.04-.2.08-.24.18-.22.57-.43,1.13-.66,1.7-.28.67-.62,1.31-1.07,1.88-.49.62-1.12.98-1.94.97-.28,0-.5-.09-.67-.32-.37-.48-.74-.96-1.03-1.5-.42-.79-.62-1.62-.5-2.51.05-.43.21-.84.35-1.25ZM306.48,115.16c.46-1.43.92-2.86,1.36-4.3.48-1.58.91-3.17,1.19-4.8.14-.83.24-1.66.18-2.5,0-.07-.04-.12-.11-.11-.05,0-.12.02-.15.06-.07.09-.12.2-.17.3-.63,1.15-1.06,2.38-1.4,3.64-.26.98-.49,1.97-.76,2.94-.37,1.31-.69,2.63-1.28,3.87-.17.37-.29.76-.45,1.13-.25.59-.29,1.24-.45,1.85-.17.64-.22,1.31-.12,1.98.07.49.21.96.3,1.44.19,1.04.63,1.98,1.13,2.89.43.78,1.09,1.25,1.9,1.55.33.12.61.13.89-.1.36-.29.74-.56,1.07-.88,1.91-1.86,2.76-4.16,2.78-6.8,0-.35,0-.7,0-1.04,0-.11-.01-.24-.15-.28-.15-.04-.2.08-.24.18-.22.57-.43,1.13-.66,1.7-.28.67-.62,1.31-1.07,1.88-.49.62-1.12.98-1.94.97-.28,0-.5-.09-.67-.32-.37-.48-.74-.96-1.03-1.5-.42-.79-.62-1.62-.5-2.51.05-.43.21-.84.35-1.25ZM288.38,121.81c.46-1.43.92-2.86,1.36-4.3.48-1.58.91-3.17,1.19-4.8.14-.83.24-1.66.18-2.5,0-.07-.04-.12-.11-.11-.05,0-.12.02-.15.06-.07.09-.12.2-.17.3-.63,1.15-1.06,2.38-1.4,3.64-.26.98-.49,1.97-.76,2.94-.37,1.31-.69,2.63-1.28,3.87-.17.37-.29.76-.45,1.13-.25.59-.29,1.24-.45,1.85-.17.64-.22,1.31-.12,1.98.07.49.21.96.3,1.44.19,1.04.63,1.98,1.13,2.89.43.78,1.09,1.25,1.9,1.55.33.12.61.13.89-.1.36-.29.74-.56,1.07-.88,1.91-1.86,2.76-4.16,2.78-6.8,0-.35,0-.7,0-1.04,0-.11-.01-.24-.15-.28-.15-.04-.2.08-.24.18-.22.57-.43,1.13-.66,1.7-.28.67-.62,1.31-1.07,1.88-.49.62-1.12.98-1.94.97-.28,0-.5-.09-.67-.32-.37-.48-.74-.96-1.03-1.5-.42-.79-.62-1.62-.5-2.51.05-.43.21-.84.35-1.25ZM225.97,137.8c-.37-.48-.74-.96-1.03-1.5-.42-.79-.62-1.62-.5-2.51.05-.43.21-.84.35-1.25.46-1.43.92-2.86,1.36-4.3.48-1.58.91-3.17,1.19-4.8.14-.83.24-1.66.18-2.5,0-.07-.04-.12-.11-.11-.05,0-.12.02-.15.06-.07.09-.12.2-.17.3-.63,1.15-1.06,2.38-1.4,3.64-.26.98-.49,1.97-.76,2.94-.36,1.31-.69,2.63-1.28,3.87-.17.37-.29.76-.45,1.13-.25.59-.29,1.24-.45,1.85-.17.64-.22,1.31-.12,1.98.07.49.21.96.3,1.44.19,1.04.63,1.98,1.13,2.89.43.78,1.09,1.25,1.9,1.55.33.12.61.13.89-.1.36-.29.74-.56,1.07-.88,1.91-1.86,2.76-4.16,2.78-6.8,0-.35,0-.7,0-1.04,0-.11-.01-.24-.15-.28-.15-.04-.2.08-.24.18-.22.57-.43,1.13-.66,1.7-.28.67-.62,1.31-1.07,1.88-.49.62-1.12.98-1.94.97-.28,0-.5-.09-.67-.32ZM227.75,164.96c.46-1.43.92-2.86,1.36-4.3.48-1.58.91-3.17,1.19-4.8.14-.83.24-1.66.18-2.5,0-.07-.04-.12-.11-.11-.05,0-.12.02-.15.06-.07.09-.12.2-.17.3-.63,1.15-1.06,2.38-1.4,3.64-.26.98-.49,1.97-.76,2.94-.36,1.31-.69,2.63-1.28,3.87-.17.37-.29.76-.45,1.13-.25.59-.29,1.24-.45,1.85-.17.64-.22,1.31-.12,1.98.07.49.21.96.3,1.44.19,1.04.63,1.98,1.13,2.89.43.78,1.09,1.25,1.9,1.55.33.12.61.13.89-.1.36-.29.74-.56,1.07-.88,1.91-1.86,2.76-4.16,2.78-6.8,0-.35,0-.7,0-1.04,0-.11-.01-.24-.15-.28-.15-.04-.2.08-.24.18-.22.57-.43,1.13-.66,1.7-.28.67-.62,1.31-1.07,1.88-.49.62-1.12.98-1.94.97-.28,0-.5-.09-.67-.32-.37-.48-.74-.96-1.03-1.5-.42-.79-.62-1.62-.5-2.51.05-.43.21-.84.35-1.25ZM266.85,212.78c-2.21-.76-4.61-.54-6.89.77-.33.19-.81.29-.87.8.31.27.72.23,1.09.31.79.16,1.58.3,2.37.47,1.18.25,1.46,1.28,1.15,2.18-.2.58-.55,1.05-1.08,1.37-1.12.69-2.31,1.15-3.63,1.28-.94.09-1.89.1-2.83,0-1.08-.12-2.15-.26-3.23-.39-1.32-.17-2.64-.3-3.98-.24-.6.03-1.19.09-1.76.26-.15.04-.19.23-.08.33.43.38.93.6,1.5.69,2,.31,4,.66,6.01.96,1.46.22,2.92.29,4.4.21,2.52-.15,4.72-1.2,6.87-2.41.42-.24.81-.54,1.2-.85.76-.61,1.27-1.39,1.58-2.3.51-1.48-.07-2.73-1.8-3.44ZM219.09,212.78c-2.21-.76-4.61-.54-6.89.77-.33.19-.81.29-.87.8.31.27.72.23,1.09.31.79.16,1.58.3,2.37.47,1.18.25,1.46,1.28,1.15,2.18-.2.58-.55,1.05-1.08,1.37-1.12.69-2.31,1.15-3.63,1.28-.94.09-1.89.1-2.83,0-1.08-.12-2.15-.26-3.23-.39-1.32-.17-2.64-.3-3.98-.24-.59.03-1.19.09-1.76.26-.15.04-.19.23-.08.33.43.38.93.6,1.5.69,2,.31,4,.66,6.01.96,1.46.22,2.92.29,4.4.21,2.52-.15,4.72-1.2,6.87-2.41.42-.24.81-.54,1.2-.85.76-.61,1.27-1.39,1.58-2.3.51-1.48-.07-2.73-1.8-3.44ZM191.12,212.78c-2.21-.76-4.61-.54-6.89.77-.33.19-.81.29-.87.8.31.27.72.23,1.09.31.79.16,1.58.3,2.37.47,1.18.25,1.46,1.28,1.15,2.18-.2.58-.55,1.05-1.08,1.37-1.12.69-2.31,1.15-3.63,1.28-.94.09-1.89.1-2.83,0-1.08-.12-2.15-.26-3.23-.39-1.32-.17-2.64-.3-3.98-.24-.59.03-1.19.09-1.76.26-.15.04-.19.23-.08.33.43.38.93.6,1.5.69,2,.31,4,.66,6.01.96,1.46.22,2.92.29,4.4.21,2.52-.15,4.72-1.2,6.87-2.41.42-.24.81-.54,1.2-.85.76-.61,1.27-1.39,1.58-2.3.51-1.48-.07-2.73-1.8-3.44ZM102.95,212.78c-2.21-.76-4.61-.54-6.89.77-.33.19-.81.29-.87.8.31.27.72.23,1.09.31.79.16,1.58.3,2.37.47,1.18.25,1.46,1.28,1.15,2.18-.2.58-.55,1.05-1.08,1.37-1.12.69-2.31,1.15-3.63,1.28-.94.09-1.89.1-2.83,0-1.08-.12-2.15-.26-3.23-.39-1.32-.17-2.64-.3-3.98-.24-.6.03-1.19.09-1.76.26-.15.04-.19.23-.08.33.43.38.93.6,1.5.69,2,.31,4,.66,6.01.96,1.46.22,2.92.29,4.4.21,2.52-.15,4.72-1.2,6.87-2.41.42-.24.81-.54,1.2-.85.76-.61,1.27-1.39,1.58-2.3.51-1.48-.07-2.73-1.8-3.44ZM111.51,103.12c.51,1.91.59,3.89.5,5.84-.13,2.82-.77,5.55-1.75,8.2-.13.35-.32.7-.18,1.13.57-.05.61-.55.77-.89,1.09-2.35,1.79-4.83,2.47-7.32.85-3.1.85-6.25.31-9.39-.67-3.9-2.42-7.36-4.64-10.59-.36-.53-.75-1.04-1.29-1.79-.45,1.43-.76,2.58-1.18,3.69-.25.67-.1,1.12.32,1.67,2.21,2.82,3.74,5.99,4.67,9.45ZM156.24,209.74c-1.99,1.77-4.12,3.31-6.56,4.41-1.63.74-3.28,1.42-5.06,1.69-1.48.22-2.97.27-4.41-.26-1.53-.56-1.58-.44-.66-1.92.75-1.21,1.64-2.32,2.51-3.45.81-1.05,1.56-2.14,2.15-3.33.57-1.17.9-2.41.91-3.73,0-.46-.1-.6-.55-.66-.92-.13-1.84-.22-2.75-.35-1.07-.15-2.1,0-3.14.26-.9.23-1.54.75-1.95,1.55-.26.5-.5,1.01-.68,1.54-.13.38-.48.72-.33,1.18.38-.07.77-.11,1.15-.2,1.75-.4,3.53-.51,5.31-.59.13,0,.27,0,.39.03.1.02.17.12.13.22-.05.12-.14.23-.23.32-.85.84-1.55,1.81-2.25,2.77-1.01,1.4-1.81,2.92-2.2,4.62-.26,1.11-.19,2.23-.23,3.35-.01.4.16.77.36,1.12.33.56.8.97,1.37,1.26,1.19.62,2.43.79,3.75.54,2.72-.52,5.28-1.48,7.65-2.91,3.32-2,5.99-4.66,7.91-8.04.39-.68.78-1.37.84-2.25-.29.21-.59.41-.87.64-.86.72-1.73,1.44-2.57,2.18Z"/>
    </clipPath>
    <linearGradient id="linear-gradient" x1="417.35" y1="180.14" x2="427.23" y2="180.14" gradientUnits="userSpaceOnUse">
      <stop offset=".35" stop-color="#9f7a45" stop-opacity="0"/>
      <stop offset=".99" stop-color="#9f7a45"/>
    </linearGradient>
    <linearGradient id="linear-gradient1" x1="402.16" y1="176.96" x2="411.5" y2="176.96" xlink:href="#linear-gradient"/>
    <linearGradient id="linear-gradient2" x1="388.3" y1="177.07" x2="401.29" y2="170.14" gradientUnits="userSpaceOnUse">
      <stop offset=".15" stop-color="#9f7a45" stop-opacity="0"/>
      <stop offset=".99" stop-color="#9f7a45"/>
    </linearGradient>
    <linearGradient id="linear-gradient3" x1="366.52" y1="179.65" x2="379.13" y2="171.94" xlink:href="#linear-gradient"/>
    <linearGradient id="linear-gradient4" x1="362.28" y1="184.13" x2="363.29" y2="190.14" gradientUnits="userSpaceOnUse">
      <stop offset="0" stop-color="#9f7a45"/>
      <stop offset=".85" stop-color="#9f7a45" stop-opacity="0"/>
    </linearGradient>
    <linearGradient id="linear-gradient5" x1="438.43" y1="105.72" x2="438.12" y2="122.19" xlink:href="#linear-gradient4"/>
    <linearGradient id="linear-gradient6" x1="424.08" y1="92.97" x2="423.76" y2="109.78" xlink:href="#linear-gradient4"/>
    <linearGradient id="linear-gradient7" x1="324.37" y1="212.59" x2="316.17" y2="205.76" gradientUnits="userSpaceOnUse">
      <stop offset=".35" stop-color="#9f7a45" stop-opacity="0"/>
      <stop offset="1" stop-color="#9f7a45"/>
    </linearGradient>
    <linearGradient id="linear-gradient8" x1="313.94" y1="204.65" x2="311.97" y2="198.03" gradientUnits="userSpaceOnUse">
      <stop offset="0" stop-color="#9f7a45"/>
      <stop offset=".35" stop-color="#9f7a45" stop-opacity="0"/>
    </linearGradient>
    <linearGradient id="linear-gradient9" x1="319.79" y1="200.44" x2="334.25" y2="186.62" gradientUnits="userSpaceOnUse">
      <stop offset=".05" stop-color="#9f7a45" stop-opacity="0"/>
      <stop offset=".66" stop-color="#9f7a45"/>
    </linearGradient>
    <linearGradient id="linear-gradient10" x1="293.7" y1="183.93" x2="305.79" y2="172.38" gradientUnits="userSpaceOnUse">
      <stop offset=".05" stop-color="#9f7a45" stop-opacity="0"/>
      <stop offset=".12" stop-color="#9f7a45" stop-opacity=".04"/>
      <stop offset=".23" stop-color="#9f7a45" stop-opacity=".17"/>
      <stop offset=".36" stop-color="#9f7a45" stop-opacity=".37"/>
      <stop offset=".51" stop-color="#9f7a45" stop-opacity=".66"/>
      <stop offset=".66" stop-color="#9f7a45"/>
    </linearGradient>
    <linearGradient id="linear-gradient11" x1="275.55" y1="171.98" x2="261.45" y2="156.93" xlink:href="#linear-gradient10"/>
    <linearGradient id="linear-gradient12" x1="226.8" y1="179.18" x2="237.8" y2="171.73" xlink:href="#linear-gradient10"/>
    <linearGradient id="linear-gradient13" x1="208.3" y1="184.19" x2="216.8" y2="176.77" xlink:href="#linear-gradient10"/>
    <linearGradient id="linear-gradient14" x1="150.58" y1="180.55" x2="160.8" y2="166.16" xlink:href="#linear-gradient10"/>
    <linearGradient id="linear-gradient15" x1="122.03" y1="179.83" x2="103.78" y2="176.91" xlink:href="#linear-gradient10"/>
    <linearGradient id="linear-gradient16" x1="89.15" y1="199.97" x2="97.9" y2="188.14" xlink:href="#linear-gradient10"/>
    <linearGradient id="linear-gradient17" x1="68.64" y1="175.84" x2="63.97" y2="170.23" xlink:href="#linear-gradient10"/>
    <linearGradient id="linear-gradient18" x1="60.93" y1="195.99" x2="55.98" y2="196.6" xlink:href="#linear-gradient10"/>
  </defs>
  <path class="st19" d="M410.98,109.84c.13,3.35.33,6.71-.19,10.05-.04.27-.1.55.02.69.99,1.11,2.01,2.2,2.98,3.33,1.32,1.55.8,3.23.31,4.97-1.95-.84-3.78-.65-5.54.31-2.07,1.12-2.45,2.29-1.67,4.5,1.32,3.77,2.72,7.51,3.85,11.34,1.41,4.77,1.9,9.65,1.01,14.6-.21,1.15-.65,2.25-.99,3.38-.11-.03-.21-.05-.32-.08.12-1.14.26-2.29.37-3.43.38-4.05.17-8.05-1.18-11.92-1.15-3.3-2.3-6.59-3.52-9.86-.8-2.16-1.23-4.34-.93-6.65.37-2.89,2.03-4.52,5.2-5.22.24-.05.49-.09.74-.14-.78-1.73-2.15-1.82-4.13-.1-.04-.55-.21-1.01-.07-1.33.41-.94.95-1.82,1.42-2.73.12-.23.29-.53.22-.73-.82-2.23-1.64-4.47-3.15-6.35-.08-.11-.18-.2-.32-.35-.19.41-.36.77-.57,1.24-.86-.89-1.69-1.68-2.42-2.54-.94-1.11-.83-3.5.25-4.48.27-.24,1.01-.28,1.34-.09.63.37,1.19.92,1.67,1.49,1.6,1.88,2.58,4.1,3.37,6.42.17.5.45.96.68,1.43.11-.02.22-.05.32-.07.03-.79.09-1.58.07-2.37-.04-2.1-.16-4.19-.17-6.29,0-.83.1-1.68.32-2.48.4-1.45,1.64-1.95,2.96-1.21,1.36.77,2.16,1.62,1.8,3.39-.11.54-.14,1.1-.22,1.7-.64-.51-1.19-1.05-1.84-1.44-.36-.22-.99-.38-1.29-.2-.28.16-.4.81-.38,1.23ZM365.48,115.61c1.44-.35,2.87-.71,4.3-1.06,6.68-1.64,12.55-4.73,17.38-9.69,2.55-2.62,5.12-5.23,7.77-7.76,2.99-2.86,4.82-3.1,8.56-1.39,2.36,1.08,3.91.6,5.22-1.64.5-.85.98-1.71,1.42-2.47,1.05.46,1.95.99,2.92,1.24,1.34.34,2.68.22,3.58-1.06,1.43-2.02.98-5.74-1-7.54.08,1.62-1.03,3.17.5,4.64-1.31.51-2.47.51-3.65,0-1.41-.62-.99-1.86-.9-2.99-.12-.02-.24-.04-.36-.06-.23.36-.51.69-.67,1.07-.37.92-.69,1.87-1.01,2.81-.71,2.03-2.42,3.03-4.54,2.56-.6-.13-1.24-.34-1.74-.68-2.41-1.64-4.58-.97-6.61.65-1.24.99-2.37,2.12-3.52,3.21-2.7,2.58-5.26,5.32-8.09,7.74-5.77,4.94-12.42,8.5-19.31,11.61-.48.21-.93.48-1.39.72.03.09.07.17.1.26.35-.05.7-.08,1.04-.16ZM144.85,92.77c.9.67,1.68,1.36,2.58,1.86.48.26,1.22.4,1.71.22,1.65-.6,1.73-.67,2.53.96,1.76,3.57,3.54,7.14,3.99,11.19.02.19.18.37.42.83.5-.72,1.05-1.24,1.27-1.87.51-1.46.92-2.97,1.28-4.48.75-3.15,1.31-6.36,2.21-9.47.83-2.86,2.31-3.7,4.42-.98.73.95,1.23.8,1.74-.35.85-1.91.57-3.58-.89-5.12-1.63-1.73-3.28-1.85-4.66.09-1.03,1.45-1.88,3.13-2.37,4.84-.84,2.99-1.34,6.08-1.99,9.13-.06.3-.18.59-.24.78-.84-2.51-1.57-5.04-2.55-7.48-.82-2.01-2.02-3.84-3.88-5.1-2.27-1.55-3.15-1.34-4.47,1-.08.15-.18.3-.25.46-1.93,4.3-5.23,7.41-9.05,9.96-5.75,3.85-11.59,7.58-17.41,11.33-.67.43-1.25.8-.78,1.77,10.74-3.87,20.9-8.5,26.37-19.56ZM191.34,90.91c.97-.54,1.25-.08,1.52.55.91,2.11,1.77,4.25,2.59,6.4.1.27-.08.77-.3,1.01-1,1.1-1.66,3.41-1.28,4.76,2.16-2.08,2.23-2.1,3.33-.84-.15.06-.27.14-.41.18-2.79.78-4.33,2.61-3.7,6.39.73,4.32,1.64,8.61,2.33,12.94.25,1.53.09,3.12.11,4.69.2.01.4.02.59.03.13-1.42.35-2.83.37-4.25.07-4.77-.8-9.41-2.33-13.91-.3-.89-.1-1.42.66-1.72,1.57-.62,3.17-1.2,4.77-1.73,1.6-.54,2.42-2.97,1.22-4.13-1.23-1.18-2.68-2.13-4.14-3.26.18-.63.47-1.56.69-2.51.22-.96.31-1.94.54-2.9.32-1.32.64-2.65,1.13-3.91.56-1.44,1.28-1.52,2.34-.42.25.27.51.52,1.01,1.02.29-.92.6-1.6.71-2.3.13-.84-.98-2.39-1.83-2.67-1.12-.37-1.83.32-2.35,1.14-.48.76-.92,1.59-1.15,2.45-.51,1.97-.87,3.98-1.31,5.98-.04.21-.15.4-.22.59-.5-1.55-.8-3.11-1.51-4.46-.7-1.33-1.67-2.62-2.79-3.62-1.18-1.04-1.87-.75-2.68.61-.21.36-.38.74-.61,1.09-.43.67-.24,1.23.29,1.71.69.62,1.41,1.66,2.38,1.12ZM65.3,108.48c.26-1.13.9-1.97,1.86-2.63,1.4-.96,2.78-1.96,4.12-2.99.5-.39.88-.93,1.36-1.46-.68-.25-1.25-.41-1.78-.66-1.03-.49-1.37-1.14-1.24-2.25.04-.36.08-.74.21-1.08.35-.9.5-1.78.36-2.79-.19-1.37,1.07-2.44,2.4-2.05,2.9.84,4.99,2.71,6.31,5.41.41.85-.48,3.42-1.29,3.95-.2.13-.53.14-.78.1-.87-.11-1.73-.31-2.6-.39-.26-.02-.67.16-.79.37-1.41,2.62-3.63,4.29-6.27,5.49-.18.08-.39.15-.51.29-.16.17-.33.41-.33.62,0,.12.32.33.51.34,1.41.06,2.84.27,4.22.08,2.27-.3,4.5-.85,6.74-1.3.19-.04.38-.07.57-.11-1.4,1.37-3.03,2.29-4.85,2.88-2.02.66-4.05,1.3-6.22,1.05-1.8-.21-2.42-1.1-2.01-2.87ZM74.62,99.39c1.04.12,2.02.24,3.11.37-.48-1.55-1.43-2.41-2.85-2.98-.09.94-.17,1.74-.26,2.62ZM73.59,99.26c-.09-.87-.12-1.48-.23-2.07-.1-.54-.28-1.1-1.01-.99-.59.09-1.79,1.48-1.65,1.86.06.17.22.37.38.42.75.26,1.52.47,2.51.77ZM251.17,104.24c.26-1.13.9-1.97,1.86-2.63,1.4-.96,2.78-1.96,4.12-2.99.5-.39.88-.93,1.36-1.46-.68-.25-1.25-.41-1.78-.66-1.03-.49-1.37-1.14-1.24-2.25.04-.36.08-.74.21-1.08.35-.9.5-1.78.36-2.79-.19-1.37,1.07-2.44,2.4-2.05,2.9.84,4.99,2.71,6.31,5.41.41.85-.48,3.42-1.29,3.95-.2.13-.53.14-.78.1-.87-.11-1.73-.31-2.6-.39-.26-.02-.67.16-.79.37-1.41,2.62-3.63,4.29-6.27,5.49-.18.08-.39.15-.51.29-.16.17-.33.41-.33.62,0,.12.32.33.51.34,1.41.06,2.84.27,4.22.08,2.27-.3,4.5-.85,6.74-1.3.19-.04.38-.07.58-.11-1.4,1.37-3.03,2.29-4.85,2.88-2.02.66-4.05,1.3-6.22,1.05-1.8-.21-2.42-1.1-2.01-2.87ZM260.49,95.15c1.04.12,2.02.24,3.11.37-.48-1.55-1.43-2.41-2.85-2.98-.09.94-.17,1.74-.26,2.62ZM259.46,95.02c-.09-.87-.12-1.48-.23-2.07-.1-.54-.28-1.1-1.01-.99-.59.09-1.79,1.48-1.65,1.86.06.17.22.37.38.42.75.26,1.52.47,2.51.77ZM271.42,192.37c.66,1.3-.05,4.23-1.25,5.04-.32.21-.85.3-1.22.21-2.26-.52-3.85.08-5.46,1.97-2.61,3.04-6.15,5.01-9.83,6.61-1.68.73-3.43,1.32-5.16,1.95-.51.18-1.05.27-1.58.4-.04-.1-.09-.19-.13-.29.5-.35.98-.74,1.51-1.05,4.33-2.66,8.68-5.28,13-7.96.9-.56,1.67-1.31,2.6-2.05-.18-.12-.21-.14-.24-.15-2.75-.77-3.74-2.19-2.57-5.77.21-.63.29-1.34.22-1.99-.23-2.21,1.31-3.58,3.36-2.75,2.89,1.16,5.3,2.98,6.75,5.85ZM265.25,193.1c-.01-.9.07-1.96-.97-2.29-1-.31-1.49.68-2.05,1.29-.6.66-.47,1.21.38,1.55.78.31,1.63.45,2.64.72,0-.62,0-.95,0-1.28ZM270.07,195.03c-.17-1.59-1.79-3.3-3.18-3.49-.13.95-.26,1.91-.41,2.99,1.21.17,2.38.33,3.59.5ZM383.23,135.42c-5.65,4.49-13.88,9.39-24.68,14.71-1.16.58-2.53,1.25-4.11,1.99-.08-.08-.21-.17-.37-.25.08-.25.54-.66,1.37-1.25,7.98-5.4,13.46-9.02,16.46-10.85,9.81-5.98,16.12-10.8,18.95-14.46-4.16-1.66-6.23-3.37-6.23-5.11s.96-3.95,2.87-6.36c1.91-2.41,3.62-3.62,5.11-3.62,1.99,0,2.99,1.7,2.99,5.11,0,1.41-.5,3.49-1.5,6.23,1.08.5,1.99.91,2.74,1.25.08,0,.12.08.12.25,0,.42-.27,1.14-.81,2.18-.54,1.04-.89,1.56-1.06,1.56,0,0-.91-.33-2.74-1-1.41,2.66-4.45,5.86-9.1,9.6ZM392.95,121.09c.17-.66.25-1.37.25-2.12,0-1.25-.25-2.33-.75-3.24-.5-.83-.96-1.25-1.37-1.25-.66,0-1.48.46-2.43,1.37-.96.91-1.43,1.58-1.43,1.99,0,.66,1.91,1.75,5.73,3.24ZM360.36,110.24c1.99,0,2.99,1.7,2.99,5.11,0,1.41-.5,3.49-1.5,6.23,1.08.5,1.99.91,2.74,1.25.08,0,.12.08.12.25,0,.42-.27,1.14-.81,2.18-.54,1.04-.89,1.56-1.06,1.56,0,0-.91-.33-2.74-1-1.41,2.66-4.45,5.86-9.1,9.6-5.65,4.49-13.88,9.39-24.68,14.71-1.16.58-2.53,1.25-4.11,1.99-.08-.08-.21-.17-.37-.25.08-.25.54-.66,1.37-1.25,7.98-5.4,13.46-9.02,16.46-10.85,9.81-5.98,16.12-10.8,18.95-14.46-4.16-1.66-6.23-3.37-6.23-5.11s.96-3.95,2.87-6.36c1.91-2.41,3.62-3.62,5.11-3.62ZM360.99,118.97c0-1.25-.25-2.33-.75-3.24-.5-.83-.96-1.25-1.37-1.25-.66,0-1.48.46-2.43,1.37-.96.91-1.43,1.58-1.43,1.99,0,.66,1.91,1.75,5.73,3.24.17-.66.25-1.37.25-2.12ZM429.67,95.2c0-.78.46-1.78,1.39-2.99,1.07-1.35,2.06-2.03,2.99-2.03.36,0,.82.16,1.39.48.57.32,1.1.52,1.6.59,1.78-3.84,3.95-5.76,6.51-5.76,1.07,0,1.6.57,1.6,1.71,0,1.71-.68,3.27-2.03,4.7-1.57,1.64-3.52,2.45-5.87,2.45-.92,0-1.76-.2-2.51-.59-.75-.39-1.37-.59-1.87-.59s-1.07.39-1.71,1.17c-.64.78-1.03,1.17-1.17,1.17-.21,0-.32-.11-.32-.32ZM438.32,91.47c1.28.07,2.44-.16,3.47-.69,1.03-.53,1.55-1.05,1.55-1.55,0-.92-.43-1.39-1.28-1.39-1.21,0-2.45,1.21-3.74,3.63ZM63.7,136.62l7.65,5.74,4.53-6.63-7.78-5.8-4.53,6.31-7.65-5.67-4.34,6.57,7.78,5.8,4.34-6.31ZM77.41,155.74c-2.3,4.51-5.44,9.37-9.44,14.6.17.09.38.26.64.51,3.57,3.19,5.36,7.12,5.36,11.8-.04,2.85-.66,5.48-1.85,7.91-1.45,2.42-4.49,4.59-9.12,6.5-1.7.64-3,.96-3.89.96-2.55-.34-3.87-2.36-3.95-6.06,0-5.23,1.51-10.52,4.53-15.88.21-.38.61-.97,1.18-1.75.57-.79.95-1.29,1.12-1.5-2.85-3.27-5.4-6.52-7.65-9.76l-2.3-1.28,1.02-8.42c.26.21,4.02,2.98,11.29,8.29.76.81.66,1.23-.32,1.28-.13,0-.76-.12-1.88-.35-1.13-.23-1.78-.31-1.94-.22,1.02,1.19,2.74,2.98,5.16,5.36,7.23-9.65,11.43-16.05,12.62-19.19l.19-.19.06.19.06,2.74c0,1.49-.3,2.98-.89,4.46ZM64.21,175.32c-3.78,5.02-5.9,8.19-6.34,9.53-.45,1.34-.67,2.33-.67,2.96.08,1.32,1.01,1.97,2.77,1.94,1.76-.02,3.85-.69,6.25-2.01,2.4-1.32,4.2-2.57,5.39-3.76-.68-1.4-1.66-2.74-2.93-4.02-2.42-2.46-3.91-4.02-4.46-4.65ZM158.53,195.74l-7.78-5.8-4.65,6.57,7.91,5.8,4.53-6.57ZM192.96,144.41l-4.53,6.38-7.65-5.67-4.65,6.57,7.91,5.87,4.53-6.5,7.65,5.55,4.53-6.38-7.78-5.8ZM201.44,190.63h0c5.31.04,9.16-2.27,11.54-6.95,1.61-3.19,2.76-6.72,3.44-10.58,1.32,11.52,5.16,17.49,11.54,17.92,0,0,0,0,0,0,1.23,0,2.51-.21,3.83-.64,3.87-1.27,6.61-4.02,8.22-8.23,1.61-4.25,2.42-10.56,2.42-18.94.04-8.42-1.72-28.71-5.29-60.89l.19-.64.64.13c2.17,2.72,3.63,4.12,4.4,4.21.13-.04.19-.3.19-.76,0-.64-.98-3.7-2.93-9.18-.85-2-1.82-4.25-2.9-6.76-1.08-2.51-1.8-4.21-2.14-5.1l-3.76,7.46.89,1.79c2.68,24.61,4.82,50.63,6.44,78.04.3,5.1.45,7.67.45,7.72-1.87,2.55-4.63,3.95-8.29,4.21,0,0,0,0,0,0-2.81-.17-4.89-.91-6.25-2.23-2.17-2.13-3.59-6.18-4.27-12.18-.55-4.85-1.25-13.6-2.1-26.27-1.66-25.04-3.81-43.08-6.44-54.13-.76-2.12-1.15-3.23-1.15-3.32-.21.51-.64,1.76-1.27,3.76-.64,2-1.17,3.63-1.59,4.91.34,1.15.83,4.74,1.47,10.78,3.23,30.69,4.85,52.79,4.85,66.31,0,3.32-.13,5.76-.38,7.33-2.06,2.73-5.12,4.29-9.16,4.7-.05-.02-.09-.04-.15-.04-4.8-.04-7.25-2.89-7.33-8.54.04-.51.15-1.51.32-3l-.13-.25c-.51.3-1.74,1.74-3.7,4.34-3.57,4.88-7.69,7.4-12.34,7.58-.07-.02-.14-.04-.22-.05-1.74.09-3.38-.08-4.91-.51-4.42-1.23-6.63-3.72-6.63-7.46v-.64l4.78.25,3-7.14h-.96c-15.98-.34-30.54-2.34-43.68-5.99-.26-.08-.62-.19-1.08-.32-5.06-1.36-8.27-1.98-9.63-1.85-2.68.26-5.33.98-7.97,2.17-.21.72-.68,2.06-1.4,4.02-.72,1.96-1.17,3.21-1.34,3.76,1.19-.13,3.15-.19,5.87-.19l7.78.13c2.25.04,3.59-.21,4.02-.76v-.13c6.08,2.04,12.45,3.4,19.13,4.08-6.04,2.51-10.69,4.55-13.96,6.12-7.1,3.44-13.26,5.29-18.49,5.55-.07,0-.14.03-.21.04-5.78-.31-9.24-5.1-10.37-14.39-.68-5.36-1.42-15.47-2.23-30.35-1.28-21.93-3.8-39.76-7.59-53.5-.17.51-.59,1.71-1.24,3.6-.66,1.89-1.24,3.6-1.75,5.13,2.98,9.95,5.27,27.18,6.89,51.71,1.4,21.51,2.87,34.18,4.4,38,1.91,4.76,5.16,7.21,9.76,7.33,2.93.09,6.11-.38,9.53-1.4,3.42-1.02,10.27-3.92,20.53-8.7,10.27-4.78,18.37-7.17,24.32-7.17h.96c-.55,1.96-.82,3.68-.8,5.16.02,1.49.2,2.78.54,3.89,1.44,4.76,4.91,7.14,10.39,7.14h.13c4.89,0,9.54-3.21,13.96-9.63.77-1.06,1.25-1.68,1.47-1.85-.09.43-.13,1.21-.13,2.36s.11,2.13.32,2.93c1.02,3.78,3.55,5.82,7.59,6.12,0,0,0,0,0,0ZM272.09,168.66c-.6,2.72-1.4,5.04-2.42,6.95-1.78,2.47-5.31,4.59-10.58,6.38-2,.64-3.46.96-4.4.96-2.89-.13-4.36-2.27-4.4-6.44v-1.02c.3-5.1,2.1-9.92,5.42-14.47,1.4-1.95,4.74-5.97,10.01-12.05-1.28-2.51-2.7-5.04-4.27-7.59l2.36-8.29.13.25.13-.13c.17.64.58,1.57,1.24,2.81.66,1.23,1.92,4.17,3.79,8.8,4.46-5.36,7.14-9.18,8.03-11.48.08-.21.15-.34.19-.38l.06.13c-.04.17-.28,1.83-.7,4.97-.77,2.81-2.83,6.27-6.18,10.39,1.15,3.27,2.83,9.37,5.04,18.3,2.34,9.32,6.65,14.21,12.94,14.7.09-.02.18-.03.26-.03,4.34-.13,7.65-1.36,9.95-3.7.38-.42.68-.85.89-1.28-.77-2.93-2.44-5.97-5.04-9.12l1.59-8.29c3.61,5.19,5.46,9.93,5.55,14.22v.57c-.17,4-1.11,7.27-2.81,9.82-2.38,3.14-6.54,4.93-12.48,5.35,0,0-.01,0-.02,0-6.72-.21-11.48-6.99-14.28-20.34ZM270.5,168.02c-.04-5.1-1.15-10.27-3.32-15.49-1.06,1.19-2.64,2.93-4.72,5.23-5.27,5.65-8.37,9.73-9.31,12.24-.3.94-.47,1.76-.51,2.49.17,1.4,1.19,2.1,3.06,2.1,1.91-.04,4.42-.8,7.52-2.26,3.1-1.47,5.53-2.9,7.27-4.3ZM262.72,122.05l7.65,5.67,4.46-6.57-7.91-5.87-4.21,6.18-7.78-5.55-4.53,6.57,7.91,5.74,4.4-6.18ZM295.94,200.41l-7.78-5.68-4.53,6.63,7.91,5.8,4.4-6.5,7.65,5.67,4.65-6.5-7.91-5.87-4.4,6.44ZM97.37,197.33c.93-2.81,1.4-5.44,1.4-7.91,0-4.34-1.17-8.25-3.51-11.73-2.34-3.53-3.72-5.74-4.14-6.63l.13-.45.89-.13c1.79.77,2.83,1.19,3.12,1.28h.19c.42.17.75.17.99,0,.23-.17-.09-.75-.96-1.75-.87-1-2.36-2.69-4.46-5.07-2.1-2.38-3.54-4.08-4.3-5.1l-2.61,8.03,1.47,1.4c.77,3.57,2.64,7.75,5.61,12.53,2.97,4.78,4.76,8.19,5.36,10.23-1.66,2.47-4.25,5.21-7.78,8.22-10.54,9.01-19.49,13.52-26.84,13.52-3.87,0-7.03-.94-9.5-2.81-3.23-2.42-4.85-6.44-4.85-12.05v-.96c.13-2.17.57-4.53,1.34-7.08.68-2.21.98-3.48.89-3.83-.04-.21-.08-.34-.13-.38-.21-.21-.49-.02-.83.57-.26.51-.47.98-.64,1.4-2,4.97-3.01,9.7-3.03,14.19-.02,4.48.78,8.24,2.39,11.25,2.76,5.14,7.52,7.72,14.28,7.72,2.08,0,4.06-.28,5.93-.83,5.95-1.78,12.75-6.08,20.4-12.88,5.14-4.59,8.2-8.18,9.18-10.78ZM354.19,205.3c-7.65,6.8-14.45,11.09-20.4,12.88-1.87.55-3.85.83-5.93.83-6.47,0-11.11-2.37-13.92-7.08-5.83,4.61-11.11,7.64-15.86,9.06-1.87.55-3.85.83-5.93.83-6.76,0-11.52-2.57-14.28-7.72-1.61-3.02-2.41-6.77-2.39-11.25.02-4.48,1.03-9.21,3.03-14.19.17-.42.38-.89.64-1.4.34-.59.62-.79.83-.57.04.04.09.17.13.38.09.34-.21,1.62-.89,3.83-.76,2.55-1.21,4.91-1.34,7.08v.96c0,5.61,1.62,9.63,4.85,12.05,2.47,1.87,5.63,2.81,9.5,2.81,5.58,0,12.09-2.6,19.51-7.8-.37-1.81-.55-3.79-.54-5.94.02-4.49,1.03-9.21,3.03-14.19.17-.42.38-.89.64-1.4.34-.59.62-.79.83-.57.04.04.09.17.13.38,0,.6-.3,1.87-.89,3.83-.77,2.55-1.21,4.91-1.34,7.08v.96c0,2.95.45,5.45,1.34,7.51,1.35-1.04,2.73-2.16,4.14-3.37,3.53-3.02,6.12-5.76,7.78-8.22-.6-2.04-2.38-5.45-5.36-10.23-2.98-4.78-4.85-8.96-5.61-12.53l-1.47-1.4,2.61-8.03c.77,1.02,2.2,2.72,4.3,5.1,2.1,2.38,3.59,4.07,4.46,5.07.87,1,1.19,1.58.96,1.75-.23.17-.56.17-.99,0h-.19c-.3-.08-1.34-.51-3.12-1.28l-.89.13-.13.45c.42.89,1.81,3.1,4.14,6.63,2.34,3.49,3.51,7.4,3.51,11.73,0,2.47-.47,5.1-1.4,7.91-.98,2.59-4.04,6.18-9.18,10.78-.02.02-.05.04-.07.06,0,0,0,0,0,0,2.47,1.87,5.63,2.81,9.5,2.81,7.35,0,16.3-4.51,26.84-13.52,3.53-3.02,6.12-5.76,7.78-8.23-.36-1.1-.98-2.38-1.86-3.84-.68.29-1.37.59-2.1.9h0c-3.19.76-5.82,1.15-7.9,1.15s-3.51-.34-4.53-1.02c-1.78-1.53-2.7-3.51-2.74-5.93v-.89c.26-2.13.81-3.93,1.66-5.42,1.91-3.32,4.27-4.97,7.08-4.97,1.83,0,3.68.83,5.55,2.49,2.08,1.84,3.68,3.95,4.82,6.31,6.54-2.73,11.29-5.23,14.25-7.52.98-.76,1.55-1.15,1.72-1.15l.06.06-.06.13c-.85,1.83-1.28,3.4-1.28,4.72,0,3.95,2.08,5.91,6.25,5.87,3.19-.04,6.95-2.95,11.29-8.74.93-1.23,1.57-1.89,1.91-1.98.3-.04.42,0,.38.13-.47,1.02-.72,1.85-.77,2.49-.13,3.74,1.51,5.65,4.91,5.74,2.93.09,5.12-1.08,6.57-3.51.55-.93.93-1.87,1.15-2.81.42-2.04,1.06-3.51,1.91-4.4-.09.72-.11,1.64-.06,2.74,0,4.72,2.7,7.25,8.1,7.59,3.66-.26,6.42-1.66,8.29-4.21,0-.04-.15-2.61-.45-7.72-1.62-27.42-3.76-47.37-6.44-71.99l-.89-1.79,3.76-7.46c.34.89,1.05,2.59,2.14,5.1,1.08,2.51,2.05,4.76,2.9,6.76,1.95,5.48,2.93,8.54,2.93,9.18,0,.47-.06.72-.19.76-.76-.08-2.23-1.49-4.4-4.21l-.64-.13-.19.64c3.57,32.18,5.33,46.42,5.29,54.83,0,8.37-.81,14.69-2.42,18.94-1.62,4.21-4.36,6.95-8.22,8.23-1.32.43-2.59.64-3.83.64,0,0,0,0,0,0s0,0,0,0c-4.59-.26-7.04-2.76-7.33-7.52-2.13,5.27-4.91,7.93-8.35,7.97-3.36.04-5.46-1.4-6.31-4.34-.21-.72-.32-1.87-.32-3.44-.26.26-.85,1.11-1.79,2.55-2.55,3.74-5.1,5.99-7.65,6.76-.81.26-1.72.38-2.74.38-3.57,0-5.91-1.49-7.01-4.46-.6-1.62-.72-3.25-.38-4.91-1.21,1.31-4.65,3.26-10.3,5.85.19,1.19.29,2.43.29,3.72,0,2.25-.4,4.59-1.21,7.01-.98,2.59-4.04,6.18-9.18,10.78ZM356.55,179.73c-2.55-2.21-4.55-3.42-5.99-3.63-1.57.09-2.95.96-4.14,2.61.72,1.15,2.1,1.7,4.14,1.66,2-.04,3.99-.25,5.99-.64ZM378.61,169.4l-.13.13v.13l.13-.26ZM439.16,114.49l.57.13c2.13,2.68,3.57,4.08,4.34,4.21,0-.04.06-.17.19-.38-.04-1.27-1.91-6.5-5.61-15.69-1.15-2.76-1.98-4.72-2.49-5.87l-3.7,7.46.89,1.98c4.85,44.12,7.29,73.18,7.33,87.16l-.32,7.91c0,.81.21,1.32.64,1.53h.25c.13-.25.42-1.08.89-2.49,1.95-6.63,2.95-12.58,3-17.85,0-11.05-2.08-33.62-6.25-67.71l.26-.38ZM320.44,130.34c.27-.09,1.84-.6,2.09-.67.14-.04.28-.09.41-.13,4.65-1.55,9.29-3.1,13.94-4.66,1.84-.62,3.67-1.27,5.51-1.9.5-.17.97-.4,1.32-.8.56-.63,1.07-1.29,1.5-2.02.15-.25.28-.51.32-.8.02-.14-.11-.3-.24-.3-.11,0-.23,0-.34.04-.67.17-1.36.31-2.02.52-6,1.9-11.99,3.82-17.98,5.72-7.93,2.51-15.77,5.29-23.72,7.74-3.08.95-6.1,2.06-9.14,3.1-3.66,1.25-7.2,2.75-10.63,4.53-.46.24-.92.5-1.35.79-.78.53-1.28,1.25-1.41,2.2-.04.29-.1.57-.15.86-.17,1.03-.39,2.05-.43,3.1-.06,1.4.4,2.62,1.38,3.63.87.89,1.94,1.46,3.09,1.89.96.36.95.47,1.4-.7.05-.13.07-.28.09-.42.18-.92-.12-1.66-.86-2.22-.3-.23-.61-.44-.95-.61-.65-.34-1.2-.81-1.73-1.31-.21-.2-.39-.44-.53-.68-.39-.7-.29-1.42.26-1.99.18-.19.39-.35.59-.51.48-.38,1.02-.66,1.56-.95,3.83-2.02,7.84-3.6,11.96-4.93,7.25-2.34,14.49-4.74,21.74-7.11,1.43-.47,2.87-.92,4.31-1.38ZM129.98,117.53c-3.08.95-6.1,2.06-9.14,3.1-3.66,1.25-7.2,2.75-10.63,4.53-.46.24-.92.5-1.35.79-.78.53-1.28,1.25-1.41,2.2-.04.29-.1.57-.15.86-.17,1.03-.39,2.05-.43,3.1-.06,1.4.4,2.62,1.38,3.63.87.89,1.94,1.46,3.09,1.89.96.36.95.47,1.4-.7.05-.13.07-.28.09-.42.18-.92-.12-1.66-.86-2.22-.3-.23-.61-.44-.95-.61-.65-.34-1.2-.81-1.73-1.31-.21-.2-.39-.44-.53-.68-.39-.7-.29-1.42.26-1.99.18-.19.39-.35.59-.51.48-.38,1.02-.66,1.56-.95,3.83-2.02,7.84-3.6,11.96-4.93,7.25-2.34,14.49-4.74,21.74-7.11,1.43-.47,2.87-.92,4.31-1.38.27-.09,1.84-.6,2.09-.67.14-.04.28-.09.41-.13,4.65-1.55,9.3-3.1,13.94-4.66,1.84-.62,3.67-1.27,5.51-1.9.5-.17.97-.4,1.32-.8.56-.63,1.07-1.29,1.5-2.02.15-.25.28-.51.32-.8.02-.14-.11-.3-.24-.3-.11,0-.23,0-.34.04-.67.17-1.36.31-2.02.52-6,1.9-11.99,3.82-17.98,5.72-7.93,2.51-15.77,5.29-23.73,7.74ZM166.82,138.81c-4.73,1.48-20.53,7.04-22.62,7.97-.71.32-1.28.79-1.7,1.44-.56.86-.85,1.82-1.28,2.92,1.06-.43,1.95-.78,2.83-1.14,4.54-1.84,9.13-3.54,13.78-5.09,2.59-.86,5.19-1.7,7.79-2.53-.04.15-.09.3-.13.45-.26.98-.49,1.97-.76,2.94-.37,1.31-.69,2.63-1.28,3.87-.17.37-.29.76-.45,1.13-.25.59-.29,1.24-.45,1.85-.17.64-.22,1.31-.12,1.98.07.49.21.96.3,1.44.19,1.04.63,1.98,1.13,2.89.43.78,1.09,1.25,1.9,1.55.33.12.61.13.89-.1.36-.29.74-.56,1.07-.88,1.91-1.86,2.76-4.16,2.78-6.8,0-.35,0-.7,0-1.04,0-.11-.01-.24-.15-.28-.15-.04-.2.08-.24.18-.22.57-.43,1.13-.66,1.7-.28.67-.62,1.31-1.07,1.88-.49.62-1.12.98-1.94.97-.28,0-.5-.09-.67-.32-.37-.48-.74-.96-1.03-1.5-.42-.79-.62-1.62-.5-2.51.05-.43.21-.84.35-1.25.46-1.43.92-2.86,1.36-4.3.44-1.42.82-2.86,1.1-4.33,1.14-.37,2.29-.74,3.43-1.11,4.35-1.43,8.74-2.71,13.13-4.01,7.03-2.08,14.05-4.19,21.08-6.28.69-.2,1.27-.53,1.79-1.01.85-.78,1.46-1.72,1.85-2.8.03-.07.02-.16.02-.24-.28-.13-.52-.01-.77.05-3.46.85-6.88,1.88-10.28,2.93-3.41,1.04-6.81,2.12-10.22,3.15-2.36.71-4.74,1.35-7.09,2.07-4.4,1.36-8.79,2.77-13.19,4.15ZM281.6,107.53c4.21-1.39,8.44-2.72,12.65-4.11,4.35-1.43,8.74-2.71,13.13-4.01,7.03-2.08,14.05-4.19,21.08-6.28.69-.2,1.27-.53,1.79-1.01.85-.78,1.46-1.72,1.85-2.8.03-.07.02-.16.02-.24-.28-.13-.52-.01-.77.05-3.46.85-6.88,1.88-10.28,2.93-3.41,1.04-6.81,2.12-10.22,3.15-2.36.71-4.74,1.35-7.09,2.07-4.4,1.36-8.79,2.77-13.19,4.15-4.73,1.48-20.53,7.04-22.62,7.97-.71.32-1.28.79-1.7,1.44-.55.86-.85,1.82-1.28,2.92,1.06-.43,1.95-.78,2.83-1.14,4.54-1.84,9.13-3.54,13.78-5.09ZM52.89,121.49c-1.27.65-2.11,1.58-2.55,2.8-.16.44-.25.9-.36,1.35-.07.32.08.42.46.31.22-.06.44-.14.66-.22,1.37-.47,2.73-.93,4.1-1.4,6.77-2.32,13.53-4.64,20.31-6.95,3.04-1.04,6.1-2.04,9.16-3.04,2.29-.75,3.34-2.29,3.67-4.29,0-.05-.05-.1-.11-.21-.49.14-1,.26-1.5.42-1.75.57-3.49,1.15-5.24,1.73-8.97,2.99-17.93,6.01-26.98,8.84-.57.18-1.11.39-1.63.66ZM404.89,203.64c-.42,1.14-.45,2.32-.35,3.52.02.27.07.53.09.8.02.34-.14.5-.49.45-.99-.15-1.94-.44-2.86-.83-1-.43-1-.43-.96-1.54.01-.5.05-1,.06-1.49,0-.15.02-.34-.18-.37-.16-.03-.26.13-.33.26-.25.43-.5.86-.72,1.31-.22.45-.42.9-.61,1.36-.53,1.28-1.44,2.11-2.78,2.55-.97.32-1.87.34-2.79-.06-.39-.17-.76-.36-1.14-.55-.41-.21-.81-.43-1.23-.63-.84-.42-1.73-.57-2.68-.52-1.82.11-3.55.59-5.23,1.27-1.92.78-3.77,1.72-5.59,2.71-2.33,1.27-4.75,2.33-7.25,3.2-3.16,1.09-6.42,1.78-9.72,2.33-.79.13-1.58.29-2.36.49-.48.12-.95.32-1.33.65-.05.04-.08.14-.06.2.02.06.09.14.15.15,1.1.18,2.21.3,3.32.27,2.15-.06,4.29-.23,6.42-.43,2.6-.24,5.03-.96,7.35-2.13.65-.33,1.3-.65,1.95-.98,1.33-.68,2.66-1.38,4-2.02,2.08-1,4.24-1.75,6.55-2.08,1.54-.22,2.97-.01,4.32.78.6.35,1.22.65,1.81,1.01.7.44,1.45.46,2.22.29.72-.16,1.37-.48,1.95-.94.77-.6,1.36-1.34,1.83-2.19.3-.56.38-.57.85-.2.76.6,1.55,1.13,2.47,1.44.7.24,1.4.33,2.15.22.66-.1,1.11-.39,1.42-1.01,1.28-2.6,1.23-5.23.35-7.97-.45.18-.5.47-.59.71ZM333.63,95.6c1.66.77,3.07,1.91,4.51,3,.78.59,1.58,1.17,2.47,1.58.57.26.93.67,1.23,1.2,1.5,2.7,2.84,5.47,3.76,8.43.26.84.55,1.67.84,2.5.2.56.48,1.07.93,1.47.49.44,1.08.32,1.25-.32.24-.94.45-1.9.61-2.87.48-3.05.7-6.12.93-9.19.16-2.24.39-4.48.89-6.68.26-1.16.65-2.26,1.42-3.18.81-.96,1.81-1.11,2.88-.49.51.3.94.7,1.32,1.16.4.49.77,1.01,1.18,1.5.43.51.79,1.11,1.61,1.58.34-1.79.64-3.42.95-5.05.12-.65.04-1.26-.33-1.82-.29-.45-.56-.92-.85-1.37-.54-.83-1.18-1.56-2.01-2.12-.84-.57-1.76-.84-2.78-.66-.3.05-.57.13-.8.34-1.06.95-2.09,1.93-2.56,3.34-.22.65-.47,1.29-.68,1.94-1.1,3.48-1.47,7.07-1.72,10.69-.11,1.66-.22,3.32-.33,4.98,0,.14-.01.29-.17.36-.24.11-.37-.07-.48-.22-.29-.41-.4-.88-.52-1.36-.5-2.15-1.13-4.25-2.13-6.23-1-1.97-2.2-3.81-3.44-5.63-.86-1.27-1.94-2.33-3.08-3.34-.63-.56-1.34-.98-2.17-1.18-1.23-.3-1.59-.13-1.98,1.04-.66,1.96-.9,4-1.12,6.05-.03.3.15.46.37.56ZM244.35,194.82c-.54-.83-1.18-1.56-2.01-2.12-.84-.57-1.76-.84-2.78-.66-.3.05-.57.13-.8.34-1.06.95-2.09,1.93-2.56,3.34-.22.65-.47,1.29-.68,1.94-1.1,3.48-1.47,7.07-1.72,10.69-.11,1.66-.22,3.32-.33,4.98,0,.14-.01.29-.17.36-.24.11-.37-.07-.48-.22-.29-.41-.4-.88-.52-1.36-.5-2.15-1.13-4.25-2.13-6.23-1-1.97-2.2-3.81-3.44-5.63-.86-1.27-1.94-2.33-3.08-3.34-.63-.56-1.34-.98-2.17-1.18-1.23-.3-1.59-.13-1.98,1.04-.66,1.96-.9,4-1.12,6.05-.03.3.15.46.37.56,1.66.77,3.07,1.91,4.51,3,.78.59,1.58,1.17,2.47,1.58.57.26.93.67,1.23,1.2,1.5,2.7,2.84,5.47,3.76,8.43.26.84.55,1.67.84,2.5.2.56.48,1.07.93,1.47.49.44,1.08.32,1.25-.32.24-.94.45-1.9.61-2.87.48-3.05.7-6.12.93-9.19.16-2.24.39-4.48.89-6.68.26-1.16.65-2.26,1.42-3.18.81-.96,1.81-1.11,2.88-.49.51.3.94.7,1.32,1.16.4.49.77,1.01,1.18,1.5.43.51.79,1.11,1.61,1.58.34-1.79.64-3.42.96-5.05.12-.65.04-1.26-.33-1.82-.29-.45-.56-.92-.85-1.37ZM434.45,194.82c-.54-.83-1.18-1.56-2.01-2.12-.84-.57-1.76-.84-2.78-.66-.3.05-.57.13-.8.34-1.06.95-2.09,1.93-2.56,3.34-.22.65-.47,1.29-.68,1.94-1.1,3.48-1.47,7.07-1.72,10.69-.11,1.66-.22,3.32-.33,4.98,0,.14-.01.29-.17.36-.24.11-.37-.07-.48-.22-.29-.41-.4-.88-.52-1.36-.5-2.15-1.13-4.25-2.13-6.23-1-1.97-2.2-3.81-3.44-5.63-.86-1.27-1.94-2.33-3.08-3.34-.63-.56-1.34-.98-2.17-1.18-1.23-.3-1.59-.13-1.98,1.04-.66,1.96-.9,4-1.12,6.05-.03.3.15.46.37.56,1.66.77,3.07,1.91,4.51,3,.78.59,1.58,1.17,2.47,1.58.57.26.93.67,1.23,1.2,1.5,2.7,2.84,5.47,3.76,8.43.26.84.55,1.67.84,2.5.2.56.48,1.07.93,1.47.49.44,1.08.32,1.25-.32.24-.94.45-1.9.61-2.87.48-3.05.7-6.12.93-9.19.16-2.24.39-4.48.89-6.68.26-1.16.65-2.26,1.42-3.18.81-.96,1.81-1.11,2.88-.49.51.3.94.7,1.32,1.16.4.49.77,1.01,1.18,1.5.43.51.79,1.11,1.61,1.58.34-1.79.64-3.42.95-5.05.12-.65.04-1.26-.33-1.82-.29-.45-.56-.92-.85-1.37ZM128.63,194.82c-.54-.83-1.18-1.56-2.01-2.12-.84-.57-1.76-.84-2.78-.66-.3.05-.57.13-.8.34-1.06.95-2.09,1.93-2.56,3.34-.22.65-.47,1.29-.68,1.94-1.1,3.48-1.47,7.07-1.72,10.69-.11,1.66-.22,3.32-.33,4.98,0,.14-.01.29-.17.36-.24.11-.37-.07-.48-.22-.29-.41-.4-.88-.52-1.36-.5-2.15-1.13-4.25-2.13-6.23-1-1.97-2.2-3.81-3.44-5.63-.86-1.27-1.94-2.33-3.08-3.34-.63-.56-1.34-.98-2.17-1.18-1.23-.3-1.59-.13-1.98,1.04-.66,1.96-.9,4-1.12,6.05-.03.3.15.46.37.56,1.66.77,3.07,1.91,4.51,3,.78.59,1.58,1.17,2.47,1.58.57.26.93.67,1.23,1.2,1.5,2.7,2.84,5.47,3.76,8.43.26.84.55,1.67.84,2.5.2.56.48,1.07.93,1.47.49.44,1.08.32,1.25-.32.24-.94.45-1.9.61-2.87.48-3.05.7-6.12.93-9.19.16-2.24.39-4.48.89-6.68.26-1.16.65-2.26,1.42-3.18.81-.96,1.81-1.11,2.88-.49.51.3.94.7,1.32,1.16.4.49.77,1.01,1.18,1.5.43.51.79,1.11,1.61,1.58.34-1.79.64-3.42.96-5.05.12-.65.04-1.26-.33-1.82-.29-.45-.56-.92-.85-1.37ZM381.89,150.5c.15,1.45.85,2.59,2,3.47.63.48,1.34.51,2.06.22.76-.3,1.38-.8,1.86-1.47.4-.56.72-1.17.99-1.81.24-.56.47-1.13.72-1.68.06-.15.29-.17.37-.04.22.36.43.72.65,1.08.6.99,1.46,1.64,2.56,1.99,1.11.35,2.03.09,2.78-.8.97-1.16,1.46-2.51,1.36-4.02-.14-2.11-.58-4.16-1.52-6.08-.57-1.17-1.07-2.36-1.51-3.59-.12-.32-.26-.63-.4-.95-.07-.15-.2-.26-.35-.23-.08.02-.17.16-.2.26-.54,1.78-.55,3.54.24,5.25.51,1.11,1.03,2.22,1.54,3.33.21.45.42.9.57,1.37.15.48.24.99-.15,1.41-.4.43-.91.31-1.4.17-1.17-.34-2-1.09-2.51-2.19-.43-.94-.74-1.92-.95-2.94-.37-1.75-.73-3.51-1.09-5.27-.08-.38-.18-.74-.36-1.08-.1-.2-.32-.2-.45,0-.72,1.15-1.01,2.39-.74,3.72.29,1.42.58,2.84.91,4.26.45,1.99-.32,3.96-2.02,5.08-.95.62-1.78.56-2.59-.23-.58-.57-.99-1.25-1.11-2.09-.1-.76-.09-1.52-.02-2.29.07-.72.13-1.44.2-2.17.01-1.35-.18-2.67-.68-3.93-.08-.21-.17-.47-.44-.46-.23,0-.43.16-.55.37-.08.13-.14.27-.18.41-.33,1.12-.42,2.25-.05,3.38.3.91.44,1.86.45,2.82.02,1.11,0,2.21,0,3.32,0,.46-.03.92.01,1.37ZM311.95,154.28c.97-1.16,1.46-2.51,1.36-4.02-.14-2.11-.58-4.16-1.52-6.08-.57-1.17-1.07-2.36-1.51-3.59-.12-.32-.26-.63-.4-.95-.07-.15-.2-.26-.35-.23-.08.02-.17.16-.2.26-.54,1.78-.55,3.54.24,5.25.51,1.11,1.03,2.22,1.54,3.33.21.45.42.9.57,1.37.15.48.24.99-.15,1.41-.4.43-.91.31-1.4.17-1.17-.34-2-1.09-2.51-2.19-.43-.94-.74-1.92-.95-2.94-.37-1.75-.73-3.51-1.09-5.27-.08-.38-.18-.74-.36-1.08-.1-.2-.32-.2-.45,0-.72,1.15-1.01,2.39-.74,3.72.29,1.42.58,2.84.91,4.26.45,1.99-.32,3.96-2.02,5.08-.95.62-1.78.56-2.59-.23-.58-.57-.99-1.25-1.11-2.09-.1-.76-.09-1.52-.02-2.29.07-.72.13-1.44.2-2.17.01-1.35-.18-2.67-.68-3.93-.08-.21-.17-.47-.44-.46-.23,0-.43.16-.55.37-.08.13-.14.27-.18.41-.33,1.12-.42,2.25-.05,3.38.3.91.44,1.86.45,2.82.02,1.11,0,2.21,0,3.32,0,.46-.03.92.01,1.37.15,1.45.85,2.59,2,3.47.63.48,1.34.51,2.06.22.76-.3,1.38-.8,1.86-1.47.4-.56.72-1.17.99-1.81.24-.56.47-1.13.72-1.68.06-.15.29-.17.37-.04.22.36.43.72.65,1.08.6.99,1.46,1.64,2.56,1.99,1.11.35,2.03.09,2.78-.8ZM172.64,125.57c-.58-.57-.99-1.25-1.11-2.09-.1-.76-.09-1.52-.02-2.29.07-.72.13-1.44.2-2.17.01-1.35-.18-2.67-.68-3.93-.08-.21-.17-.47-.44-.46-.23,0-.43.16-.55.37-.08.13-.14.27-.18.41-.33,1.12-.42,2.25-.05,3.38.3.91.44,1.86.45,2.82.02,1.11,0,2.21,0,3.32,0,.46-.03.92.01,1.37.15,1.45.85,2.59,2,3.47.63.48,1.34.51,2.06.22.76-.3,1.38-.8,1.86-1.47.4-.56.72-1.17.99-1.81.24-.56.47-1.13.72-1.68.06-.15.29-.17.37-.04.22.36.43.72.65,1.08.6.99,1.46,1.64,2.56,1.99,1.11.35,2.03.09,2.78-.8.97-1.16,1.46-2.51,1.36-4.02-.14-2.11-.58-4.16-1.52-6.08-.57-1.17-1.07-2.36-1.51-3.59-.12-.32-.26-.63-.4-.95-.07-.15-.2-.26-.35-.23-.08.02-.17.16-.2.26-.54,1.78-.55,3.54.24,5.25.51,1.11,1.03,2.22,1.54,3.33.21.45.42.9.57,1.37.15.48.24.99-.15,1.41-.4.43-.91.31-1.4.17-1.17-.34-2-1.09-2.51-2.19-.43-.94-.74-1.92-.95-2.94-.37-1.75-.73-3.51-1.09-5.27-.08-.38-.18-.74-.36-1.08-.1-.2-.32-.2-.45,0-.72,1.15-1.01,2.39-.74,3.72.29,1.42.58,2.84.91,4.26.45,1.99-.32,3.96-2.02,5.08-.95.62-1.78.56-2.59-.23ZM368.53,103.17c.19,1.04.63,1.98,1.13,2.89.43.78,1.09,1.25,1.9,1.55.33.12.61.13.89-.1.36-.29.74-.56,1.07-.88,1.91-1.86,2.76-4.16,2.78-6.8,0-.35,0-.7,0-1.04,0-.11-.01-.24-.15-.28-.15-.04-.2.08-.24.18-.22.57-.43,1.13-.66,1.7-.28.67-.62,1.31-1.07,1.88-.49.62-1.12.98-1.94.97-.28,0-.5-.09-.67-.32-.37-.48-.74-.96-1.03-1.5-.42-.79-.62-1.62-.5-2.51.05-.43.21-.84.35-1.25.46-1.43.92-2.86,1.36-4.3.48-1.58.91-3.17,1.19-4.8.14-.83.24-1.66.18-2.5,0-.07-.04-.12-.11-.11-.05,0-.12.02-.15.06-.07.09-.12.2-.17.3-.63,1.15-1.06,2.38-1.4,3.64-.26.98-.49,1.97-.76,2.94-.36,1.31-.69,2.63-1.28,3.87-.17.37-.29.76-.45,1.13-.25.59-.29,1.24-.45,1.85-.17.64-.22,1.31-.12,1.98.07.49.21.96.3,1.44ZM370.38,128.61c.46-1.43.92-2.86,1.36-4.3.48-1.58.91-3.17,1.19-4.8.14-.83.24-1.66.18-2.5,0-.07-.04-.12-.11-.11-.05,0-.12.02-.15.06-.07.09-.12.2-.17.3-.63,1.15-1.06,2.38-1.4,3.64-.26.98-.49,1.97-.76,2.94-.36,1.31-.69,2.63-1.28,3.87-.17.37-.29.76-.45,1.13-.25.59-.29,1.24-.45,1.85-.17.64-.22,1.31-.12,1.98.07.49.21.96.3,1.44.19,1.04.63,1.98,1.13,2.89.43.78,1.09,1.25,1.9,1.55.33.12.61.13.89-.1.36-.29.74-.56,1.07-.88,1.91-1.86,2.76-4.16,2.78-6.8,0-.35,0-.7,0-1.04,0-.11-.01-.24-.15-.28-.15-.04-.2.08-.24.18-.22.57-.43,1.13-.66,1.7-.28.67-.62,1.31-1.07,1.88-.49.62-1.12.98-1.94.97-.28,0-.5-.09-.67-.32-.37-.48-.74-.96-1.03-1.5-.42-.79-.62-1.62-.5-2.51.05-.43.21-.84.35-1.25ZM248.36,149.9c.19,1.04.63,1.98,1.13,2.89.43.78,1.09,1.25,1.9,1.55.33.12.61.13.89-.1.36-.29.74-.56,1.07-.88,1.91-1.86,2.76-4.16,2.78-6.8,0-.35,0-.7,0-1.04,0-.11-.01-.24-.15-.28-.15-.04-.2.08-.24.18-.22.57-.43,1.13-.66,1.7-.28.67-.62,1.31-1.07,1.88-.49.62-1.12.98-1.94.97-.28,0-.5-.09-.67-.32-.37-.48-.74-.96-1.03-1.5-.42-.79-.62-1.62-.5-2.51.05-.43.21-.84.35-1.25.46-1.43.92-2.86,1.36-4.3.48-1.58.91-3.17,1.19-4.8.14-.83.24-1.66.18-2.5,0-.07-.04-.12-.11-.11-.05,0-.12.02-.15.06-.07.09-.12.2-.17.3-.63,1.15-1.06,2.38-1.4,3.64-.26.98-.49,1.97-.76,2.94-.36,1.31-.69,2.63-1.28,3.87-.17.37-.29.76-.45,1.13-.25.59-.29,1.24-.45,1.85-.17.64-.22,1.31-.12,1.98.07.49.21.96.3,1.44ZM174.55,205.86c.46-1.43.92-2.86,1.36-4.3.48-1.58.91-3.17,1.19-4.8.14-.83.24-1.66.18-2.5,0-.07-.04-.12-.11-.11-.05,0-.12.02-.15.06-.07.09-.12.2-.17.3-.63,1.15-1.06,2.38-1.4,3.64-.26.98-.49,1.97-.76,2.94-.36,1.31-.69,2.63-1.28,3.87-.17.37-.29.76-.45,1.13-.25.59-.29,1.24-.45,1.85-.17.64-.22,1.31-.12,1.98.07.49.21.96.3,1.44.19,1.04.63,1.98,1.13,2.89.43.78,1.09,1.25,1.9,1.55.33.12.61.13.89-.1.36-.29.74-.56,1.07-.88,1.91-1.86,2.76-4.16,2.78-6.8,0-.35,0-.7,0-1.04,0-.11-.01-.24-.15-.28-.15-.04-.2.08-.24.18-.22.57-.43,1.13-.66,1.7-.28.67-.62,1.31-1.07,1.88-.49.62-1.12.98-1.94.97-.28,0-.5-.09-.67-.32-.37-.48-.74-.96-1.03-1.5-.42-.79-.62-1.62-.5-2.51.05-.43.21-.84.35-1.25ZM201.38,215.8c.33.12.61.13.89-.1.36-.29.74-.56,1.07-.88,1.91-1.86,2.76-4.16,2.78-6.8,0-.35,0-.7,0-1.04,0-.11-.01-.24-.15-.28-.15-.04-.2.08-.24.18-.22.57-.43,1.13-.66,1.7-.28.67-.62,1.31-1.07,1.88-.49.62-1.12.98-1.94.97-.28,0-.5-.09-.67-.32-.37-.48-.74-.96-1.03-1.5-.42-.79-.62-1.62-.5-2.51.05-.43.21-.84.35-1.25.46-1.43.92-2.86,1.36-4.3.48-1.58.91-3.17,1.19-4.8.14-.83.24-1.66.18-2.5,0-.07-.04-.12-.11-.11-.05,0-.12.02-.15.06-.07.09-.12.2-.17.3-.63,1.15-1.06,2.38-1.4,3.64-.26.98-.49,1.97-.76,2.94-.37,1.31-.69,2.63-1.28,3.87-.17.37-.29.76-.45,1.13-.25.59-.29,1.24-.45,1.85-.17.64-.22,1.31-.12,1.98.07.49.21.96.3,1.44.19,1.04.63,1.98,1.13,2.89.43.78,1.09,1.25,1.9,1.55ZM219.96,105.6c.19,1.04.63,1.98,1.13,2.89.43.78,1.09,1.25,1.9,1.55.33.12.61.13.89-.1.36-.29.74-.56,1.07-.88,1.91-1.86,2.76-4.16,2.78-6.8,0-.35,0-.7,0-1.04,0-.11-.01-.24-.15-.28-.15-.04-.2.08-.24.18-.22.57-.43,1.13-.66,1.7-.28.67-.62,1.31-1.07,1.88-.49.62-1.12.98-1.94.97-.28,0-.5-.09-.67-.32-.37-.48-.74-.96-1.03-1.5-.42-.79-.62-1.62-.5-2.51.05-.43.21-.84.35-1.25.46-1.43.92-2.86,1.36-4.3.48-1.58.91-3.17,1.19-4.8.14-.83.24-1.66.18-2.5,0-.07-.04-.12-.11-.11-.05,0-.12.02-.15.06-.07.09-.12.2-.17.3-.63,1.15-1.06,2.38-1.4,3.64-.26.98-.49,1.97-.76,2.94-.37,1.31-.69,2.63-1.28,3.87-.17.37-.29.76-.45,1.13-.25.59-.29,1.24-.45,1.85-.17.64-.22,1.31-.12,1.98.07.49.21.96.3,1.44ZM200.39,171.02c.19,1.04.63,1.98,1.13,2.89.43.78,1.09,1.25,1.9,1.55.33.12.61.13.89-.1.36-.29.74-.56,1.07-.88,1.91-1.86,2.76-4.16,2.78-6.8,0-.35,0-.7,0-1.04,0-.11-.01-.24-.15-.28-.15-.04-.2.08-.24.18-.22.57-.43,1.13-.66,1.7-.28.67-.62,1.31-1.07,1.88-.49.62-1.12.98-1.94.97-.28,0-.5-.09-.67-.32-.37-.48-.74-.96-1.03-1.5-.42-.79-.62-1.62-.5-2.51.05-.43.21-.84.35-1.25.46-1.43.92-2.86,1.36-4.3.48-1.58.91-3.17,1.19-4.8.14-.83.24-1.66.18-2.5,0-.07-.04-.12-.11-.11-.05,0-.12.02-.15.06-.07.09-.12.2-.17.3-.63,1.15-1.06,2.38-1.4,3.64-.26.98-.49,1.97-.76,2.94-.37,1.31-.69,2.63-1.28,3.87-.17.37-.29.76-.45,1.13-.25.59-.29,1.24-.45,1.85-.17.64-.22,1.31-.12,1.98.07.49.21.96.3,1.44ZM153.78,129.56c.46-1.43.92-2.86,1.36-4.3.48-1.58.91-3.17,1.19-4.8.14-.83.24-1.66.18-2.5,0-.07-.04-.12-.11-.11-.05,0-.12.02-.15.06-.07.09-.12.2-.17.3-.63,1.15-1.06,2.38-1.4,3.64-.26.98-.49,1.97-.76,2.94-.37,1.31-.69,2.63-1.28,3.87-.17.37-.29.76-.45,1.13-.25.59-.29,1.24-.45,1.85-.17.64-.22,1.31-.12,1.98.07.49.21.96.3,1.44.19,1.04.63,1.98,1.13,2.89.43.78,1.09,1.25,1.9,1.55.33.12.61.13.89-.1.36-.29.74-.56,1.07-.88,1.91-1.86,2.76-4.16,2.78-6.8,0-.35,0-.7,0-1.04,0-.11-.01-.24-.15-.28-.15-.04-.2.08-.24.18-.22.57-.43,1.13-.66,1.7-.28.67-.62,1.31-1.07,1.88-.49.62-1.12.98-1.94.97-.28,0-.5-.09-.67-.32-.37-.48-.74-.96-1.03-1.5-.42-.79-.62-1.62-.5-2.51.05-.43.21-.84.35-1.25ZM49.35,111.11c.19,1.04.63,1.98,1.13,2.89.43.78,1.09,1.25,1.9,1.55.33.12.61.13.89-.1.36-.29.74-.56,1.07-.88,1.91-1.86,2.76-4.16,2.78-6.8,0-.35,0-.7,0-1.04,0-.11-.01-.24-.15-.28-.15-.04-.2.08-.24.18-.22.57-.43,1.13-.66,1.7-.28.67-.62,1.31-1.07,1.88-.49.62-1.12.98-1.94.97-.28,0-.5-.09-.67-.32-.37-.48-.74-.96-1.03-1.5-.42-.79-.62-1.62-.5-2.51.05-.43.21-.84.35-1.25.46-1.43.92-2.86,1.36-4.3.48-1.58.91-3.17,1.19-4.8.14-.83.24-1.66.18-2.5,0-.07-.04-.12-.11-.11-.05,0-.12.02-.15.06-.07.09-.12.2-.17.3-.63,1.15-1.06,2.38-1.4,3.64-.26.98-.49,1.97-.76,2.94-.36,1.31-.69,2.63-1.28,3.87-.17.37-.29.76-.45,1.13-.25.59-.29,1.24-.45,1.85-.17.64-.22,1.31-.12,1.98.07.49.21.96.3,1.44ZM135.69,136.21c.46-1.43.92-2.86,1.36-4.3.48-1.58.91-3.17,1.19-4.8.14-.83.24-1.66.18-2.5,0-.07-.04-.12-.11-.11-.05,0-.12.02-.15.06-.07.09-.12.2-.17.3-.63,1.15-1.06,2.38-1.4,3.64-.26.98-.49,1.97-.76,2.94-.36,1.31-.69,2.63-1.28,3.87-.17.37-.29.76-.45,1.13-.25.59-.29,1.24-.45,1.85-.17.64-.22,1.31-.12,1.98.07.49.21.96.3,1.44.19,1.04.63,1.98,1.13,2.89.43.78,1.09,1.25,1.9,1.55.33.12.61.13.89-.1.36-.29.74-.56,1.07-.88,1.91-1.86,2.76-4.16,2.78-6.8,0-.35,0-.7,0-1.04,0-.11-.01-.24-.15-.28-.15-.04-.2.08-.24.18-.22.57-.43,1.13-.66,1.7-.28.67-.62,1.31-1.07,1.88-.49.62-1.12.98-1.94.97-.28,0-.5-.09-.67-.32-.37-.48-.74-.96-1.03-1.5-.42-.79-.62-1.62-.5-2.51.05-.43.21-.84.35-1.25ZM86.38,140.77c-.28,0-.5-.09-.67-.32-.37-.48-.74-.96-1.03-1.5-.42-.79-.62-1.62-.5-2.51.05-.43.21-.84.35-1.25.46-1.43.92-2.86,1.36-4.3.48-1.58.91-3.17,1.19-4.8.14-.83.24-1.66.18-2.5,0-.07-.04-.12-.11-.11-.05,0-.12.02-.15.06-.07.09-.12.2-.17.3-.63,1.15-1.06,2.38-1.4,3.64-.26.98-.49,1.97-.76,2.94-.37,1.31-.69,2.63-1.28,3.87-.17.37-.29.76-.45,1.13-.25.59-.29,1.24-.45,1.85-.17.64-.22,1.31-.12,1.98.07.49.21.96.3,1.44.19,1.04.63,1.98,1.13,2.89.43.78,1.09,1.25,1.9,1.55.33.12.61.13.89-.1.36-.29.74-.56,1.07-.88,1.91-1.86,2.76-4.16,2.78-6.8,0-.35,0-.7,0-1.04,0-.11-.01-.24-.15-.28-.15-.04-.2.08-.24.18-.22.57-.43,1.13-.66,1.7-.28.67-.62,1.31-1.07,1.88-.49.62-1.12.98-1.94.97ZM117.59,142.86c.46-1.43.92-2.86,1.36-4.3.48-1.58.91-3.17,1.19-4.8.14-.83.24-1.66.18-2.5,0-.07-.04-.12-.11-.11-.05,0-.12.02-.15.06-.07.09-.12.2-.17.3-.63,1.15-1.06,2.38-1.4,3.64-.26.98-.49,1.97-.76,2.94-.37,1.31-.69,2.63-1.28,3.87-.17.37-.29.76-.45,1.13-.25.59-.29,1.24-.45,1.85-.17.64-.22,1.31-.12,1.98.07.49.21.96.3,1.44.19,1.04.63,1.98,1.13,2.89.43.78,1.09,1.25,1.9,1.55.33.12.61.13.89-.1.36-.29.74-.56,1.07-.88,1.91-1.86,2.76-4.16,2.78-6.8,0-.35,0-.7,0-1.04,0-.11-.01-.24-.15-.28-.15-.04-.2.08-.24.18-.22.57-.43,1.13-.66,1.7-.28.67-.62,1.31-1.07,1.88-.49.62-1.12.98-1.94.97-.28,0-.5-.09-.67-.32-.37-.48-.74-.96-1.03-1.5-.42-.79-.62-1.62-.5-2.51.05-.43.21-.84.35-1.25ZM324.58,108.51c.46-1.43.92-2.86,1.36-4.3.48-1.58.91-3.17,1.19-4.8.14-.83.24-1.66.18-2.5,0-.07-.04-.12-.11-.11-.05,0-.12.02-.15.06-.07.09-.12.2-.17.3-.63,1.15-1.06,2.38-1.4,3.64-.26.98-.49,1.97-.76,2.94-.36,1.31-.69,2.63-1.28,3.87-.17.37-.29.76-.45,1.13-.25.59-.29,1.24-.45,1.85-.17.64-.22,1.31-.12,1.98.07.49.21.96.3,1.44.19,1.04.63,1.98,1.13,2.89.43.78,1.09,1.25,1.9,1.55.33.12.61.13.89-.1.36-.29.74-.56,1.07-.88,1.91-1.86,2.76-4.16,2.78-6.8,0-.35,0-.7,0-1.04,0-.11-.01-.24-.15-.28-.15-.04-.2.08-.24.18-.22.57-.43,1.13-.66,1.7-.28.67-.62,1.31-1.07,1.88-.49.62-1.12.98-1.94.97-.28,0-.5-.09-.67-.32-.37-.48-.74-.96-1.03-1.5-.42-.79-.62-1.62-.5-2.51.05-.43.21-.84.35-1.25ZM176.7,101.72c.19,1.04.63,1.98,1.13,2.89.43.78,1.09,1.25,1.9,1.55.33.12.61.13.89-.1.36-.29.74-.56,1.07-.88,1.91-1.86,2.76-4.16,2.78-6.8,0-.35,0-.7,0-1.04,0-.11-.01-.24-.15-.28-.15-.04-.2.08-.24.18-.22.57-.43,1.13-.66,1.7-.28.67-.62,1.31-1.07,1.88-.49.62-1.12.98-1.94.97-.28,0-.5-.09-.67-.32-.37-.48-.74-.96-1.03-1.5-.42-.79-.62-1.62-.5-2.51.05-.43.21-.84.35-1.25.46-1.43.92-2.86,1.36-4.3.48-1.58.91-3.17,1.19-4.8.14-.83.24-1.66.18-2.5,0-.07-.04-.12-.11-.11-.05,0-.12.02-.15.06-.07.09-.12.2-.17.3-.63,1.15-1.06,2.38-1.4,3.64-.26.98-.49,1.97-.76,2.94-.36,1.31-.69,2.63-1.28,3.87-.17.37-.29.76-.45,1.13-.25.59-.29,1.24-.45,1.85-.17.64-.22,1.31-.12,1.98.07.49.21.96.3,1.44ZM334.97,164.25c.46-1.43.92-2.86,1.36-4.3.48-1.58.91-3.17,1.19-4.8.14-.83.24-1.66.18-2.5,0-.07-.04-.12-.11-.11-.05,0-.12.02-.15.06-.07.09-.12.2-.17.3-.63,1.15-1.06,2.38-1.4,3.64-.26.98-.49,1.97-.76,2.94-.36,1.31-.69,2.63-1.28,3.87-.17.37-.29.76-.45,1.13-.25.59-.29,1.24-.45,1.85-.17.64-.22,1.31-.12,1.98.07.49.21.96.3,1.44.19,1.04.63,1.98,1.13,2.89.43.78,1.09,1.25,1.9,1.55.33.12.61.13.89-.1.36-.29.74-.56,1.07-.88,1.91-1.86,2.76-4.16,2.78-6.8,0-.35,0-.7,0-1.04,0-.11-.01-.24-.15-.28-.15-.04-.2.08-.24.18-.22.57-.43,1.13-.66,1.7-.28.67-.62,1.31-1.07,1.88-.49.62-1.12.98-1.94.97-.28,0-.5-.09-.67-.32-.37-.48-.74-.96-1.03-1.5-.42-.79-.62-1.62-.5-2.51.05-.43.21-.84.35-1.25ZM416.67,164.47c-.25.59-.29,1.24-.45,1.85-.17.64-.22,1.31-.12,1.98.07.49.21.96.3,1.44.19,1.04.63,1.98,1.13,2.89.43.78,1.09,1.25,1.9,1.55.33.12.61.13.89-.1.36-.29.74-.56,1.07-.88,1.91-1.86,2.76-4.16,2.78-6.8,0-.35,0-.7,0-1.04,0-.11-.01-.24-.15-.28-.15-.04-.2.08-.24.18-.22.57-.43,1.13-.66,1.7-.28.67-.62,1.31-1.07,1.88-.49.62-1.12.98-1.94.97-.28,0-.5-.09-.67-.32-.37-.48-.74-.96-1.03-1.5-.42-.79-.62-1.62-.5-2.51.05-.43.21-.84.35-1.25.46-1.43.92-2.86,1.36-4.3.48-1.58.91-3.17,1.19-4.8.14-.83.24-1.66.18-2.5,0-.07-.04-.12-.11-.11-.05,0-.12.02-.15.06-.07.09-.12.2-.17.3-.63,1.15-1.06,2.38-1.4,3.64-.26.98-.49,1.97-.76,2.94-.36,1.31-.69,2.63-1.28,3.87-.17.37-.29.76-.45,1.13ZM366.14,161.35c.46-1.43.92-2.86,1.36-4.3.48-1.58.91-3.17,1.19-4.8.14-.83.24-1.66.18-2.5,0-.07-.04-.12-.11-.11-.05,0-.12.02-.15.06-.07.09-.12.2-.17.3-.63,1.15-1.06,2.38-1.4,3.64-.26.98-.49,1.97-.76,2.94-.37,1.31-.69,2.63-1.28,3.87-.17.37-.29.76-.45,1.13-.25.59-.29,1.24-.45,1.85-.17.64-.22,1.31-.12,1.98.07.49.21.96.3,1.44.19,1.04.63,1.98,1.13,2.89.43.78,1.09,1.25,1.9,1.55.33.12.61.13.89-.1.36-.29.74-.56,1.07-.88,1.91-1.86,2.76-4.16,2.78-6.8,0-.35,0-.7,0-1.04,0-.11-.01-.24-.15-.28-.15-.04-.2.08-.24.18-.22.57-.43,1.13-.66,1.7-.28.67-.62,1.31-1.07,1.88-.49.62-1.12.98-1.94.97-.28,0-.5-.09-.67-.32-.37-.48-.74-.96-1.03-1.5-.42-.79-.62-1.62-.5-2.51.05-.43.21-.84.35-1.25ZM369.11,198.16c.46-1.43.92-2.86,1.36-4.3.48-1.58.91-3.17,1.19-4.8.14-.83.24-1.66.18-2.5,0-.07-.04-.12-.11-.11-.05,0-.12.02-.15.06-.07.09-.12.2-.17.3-.63,1.15-1.06,2.38-1.4,3.64-.26.98-.49,1.97-.76,2.94-.36,1.31-.69,2.63-1.28,3.87-.17.37-.29.76-.45,1.13-.25.59-.29,1.24-.45,1.85-.17.64-.22,1.31-.12,1.98.07.49.21.96.3,1.44.19,1.04.63,1.98,1.13,2.89.43.78,1.09,1.25,1.9,1.55.33.12.61.13.89-.1.36-.29.74-.56,1.07-.88,1.91-1.86,2.76-4.16,2.78-6.8,0-.35,0-.7,0-1.04,0-.11-.01-.24-.15-.28-.15-.04-.2.08-.24.18-.22.57-.43,1.13-.66,1.7-.28.67-.62,1.31-1.07,1.88-.49.62-1.12.98-1.94.97-.28,0-.5-.09-.67-.32-.37-.48-.74-.96-1.03-1.5-.42-.79-.62-1.62-.5-2.51.05-.43.21-.84.35-1.25ZM283.95,164.25c.46-1.43.92-2.86,1.36-4.3.48-1.58.91-3.17,1.19-4.8.14-.83.24-1.66.18-2.5,0-.07-.04-.12-.11-.11-.05,0-.12.02-.15.06-.07.09-.12.2-.17.3-.63,1.15-1.06,2.38-1.4,3.64-.26.98-.49,1.97-.76,2.94-.37,1.31-.69,2.63-1.28,3.87-.17.37-.29.76-.45,1.13-.25.59-.29,1.24-.45,1.85-.17.64-.22,1.31-.12,1.98.07.49.21.96.3,1.44.19,1.04.63,1.98,1.13,2.89.43.78,1.09,1.25,1.91,1.55.33.12.61.13.89-.1.36-.29.74-.56,1.07-.88,1.91-1.86,2.76-4.16,2.78-6.8,0-.35,0-.7,0-1.04,0-.11-.01-.24-.15-.28-.15-.04-.2.08-.24.18-.22.57-.43,1.13-.66,1.7-.28.67-.62,1.31-1.07,1.88-.49.62-1.12.98-1.94.97-.28,0-.5-.09-.67-.32-.37-.48-.74-.96-1.03-1.5-.42-.79-.62-1.62-.5-2.51.05-.43.21-.84.35-1.25ZM306.48,115.16c.46-1.43.92-2.86,1.36-4.3.48-1.58.91-3.17,1.19-4.8.14-.83.24-1.66.18-2.5,0-.07-.04-.12-.11-.11-.05,0-.12.02-.15.06-.07.09-.12.2-.17.3-.63,1.15-1.06,2.38-1.4,3.64-.26.98-.49,1.97-.76,2.94-.37,1.31-.69,2.63-1.28,3.87-.17.37-.29.76-.45,1.13-.25.59-.29,1.24-.45,1.85-.17.64-.22,1.31-.12,1.98.07.49.21.96.3,1.44.19,1.04.63,1.98,1.13,2.89.43.78,1.09,1.25,1.9,1.55.33.12.61.13.89-.1.36-.29.74-.56,1.07-.88,1.91-1.86,2.76-4.16,2.78-6.8,0-.35,0-.7,0-1.04,0-.11-.01-.24-.15-.28-.15-.04-.2.08-.24.18-.22.57-.43,1.13-.66,1.7-.28.67-.62,1.31-1.07,1.88-.49.62-1.12.98-1.94.97-.28,0-.5-.09-.67-.32-.37-.48-.74-.96-1.03-1.5-.42-.79-.62-1.62-.5-2.51.05-.43.21-.84.35-1.25ZM288.38,121.81c.46-1.43.92-2.86,1.36-4.3.48-1.58.91-3.17,1.19-4.8.14-.83.24-1.66.18-2.5,0-.07-.04-.12-.11-.11-.05,0-.12.02-.15.06-.07.09-.12.2-.17.3-.63,1.15-1.06,2.38-1.4,3.64-.26.98-.49,1.97-.76,2.94-.37,1.31-.69,2.63-1.28,3.87-.17.37-.29.76-.45,1.13-.25.59-.29,1.24-.45,1.85-.17.64-.22,1.31-.12,1.98.07.49.21.96.3,1.44.19,1.04.63,1.98,1.13,2.89.43.78,1.09,1.25,1.9,1.55.33.12.61.13.89-.1.36-.29.74-.56,1.07-.88,1.91-1.86,2.76-4.16,2.78-6.8,0-.35,0-.7,0-1.04,0-.11-.01-.24-.15-.28-.15-.04-.2.08-.24.18-.22.57-.43,1.13-.66,1.7-.28.67-.62,1.31-1.07,1.88-.49.62-1.12.98-1.94.97-.28,0-.5-.09-.67-.32-.37-.48-.74-.96-1.03-1.5-.42-.79-.62-1.62-.5-2.51.05-.43.21-.84.35-1.25ZM225.97,137.8c-.37-.48-.74-.96-1.03-1.5-.42-.79-.62-1.62-.5-2.51.05-.43.21-.84.35-1.25.46-1.43.92-2.86,1.36-4.3.48-1.58.91-3.17,1.19-4.8.14-.83.24-1.66.18-2.5,0-.07-.04-.12-.11-.11-.05,0-.12.02-.15.06-.07.09-.12.2-.17.3-.63,1.15-1.06,2.38-1.4,3.64-.26.98-.49,1.97-.76,2.94-.36,1.31-.69,2.63-1.28,3.87-.17.37-.29.76-.45,1.13-.25.59-.29,1.24-.45,1.85-.17.64-.22,1.31-.12,1.98.07.49.21.96.3,1.44.19,1.04.63,1.98,1.13,2.89.43.78,1.09,1.25,1.9,1.55.33.12.61.13.89-.1.36-.29.74-.56,1.07-.88,1.91-1.86,2.76-4.16,2.78-6.8,0-.35,0-.7,0-1.04,0-.11-.01-.24-.15-.28-.15-.04-.2.08-.24.18-.22.57-.43,1.13-.66,1.7-.28.67-.62,1.31-1.07,1.88-.49.62-1.12.98-1.94.97-.28,0-.5-.09-.67-.32ZM227.75,164.96c.46-1.43.92-2.86,1.36-4.3.48-1.58.91-3.17,1.19-4.8.14-.83.24-1.66.18-2.5,0-.07-.04-.12-.11-.11-.05,0-.12.02-.15.06-.07.09-.12.2-.17.3-.63,1.15-1.06,2.38-1.4,3.64-.26.98-.49,1.97-.76,2.94-.36,1.31-.69,2.63-1.28,3.87-.17.37-.29.76-.45,1.13-.25.59-.29,1.24-.45,1.85-.17.64-.22,1.31-.12,1.98.07.49.21.96.3,1.44.19,1.04.63,1.98,1.13,2.89.43.78,1.09,1.25,1.9,1.55.33.12.61.13.89-.1.36-.29.74-.56,1.07-.88,1.91-1.86,2.76-4.16,2.78-6.8,0-.35,0-.7,0-1.04,0-.11-.01-.24-.15-.28-.15-.04-.2.08-.24.18-.22.57-.43,1.13-.66,1.7-.28.67-.62,1.31-1.07,1.88-.49.62-1.12.98-1.94.97-.28,0-.5-.09-.67-.32-.37-.48-.74-.96-1.03-1.5-.42-.79-.62-1.62-.5-2.51.05-.43.21-.84.35-1.25ZM266.85,212.78c-2.21-.76-4.61-.54-6.89.77-.33.19-.81.29-.87.8.31.27.72.23,1.09.31.79.16,1.58.3,2.37.47,1.18.25,1.46,1.28,1.15,2.18-.2.58-.55,1.05-1.08,1.37-1.12.69-2.31,1.15-3.63,1.28-.94.09-1.89.1-2.83,0-1.08-.12-2.15-.26-3.23-.39-1.32-.17-2.64-.3-3.98-.24-.6.03-1.19.09-1.76.26-.15.04-.19.23-.08.33.43.38.93.6,1.5.69,2,.31,4,.66,6.01.96,1.46.22,2.92.29,4.4.21,2.52-.15,4.72-1.2,6.87-2.41.42-.24.81-.54,1.2-.85.76-.61,1.27-1.39,1.58-2.3.51-1.48-.07-2.73-1.8-3.44ZM219.09,212.78c-2.21-.76-4.61-.54-6.89.77-.33.19-.81.29-.87.8.31.27.72.23,1.09.31.79.16,1.58.3,2.37.47,1.18.25,1.46,1.28,1.15,2.18-.2.58-.55,1.05-1.08,1.37-1.12.69-2.31,1.15-3.63,1.28-.94.09-1.89.1-2.83,0-1.08-.12-2.15-.26-3.23-.39-1.32-.17-2.64-.3-3.98-.24-.59.03-1.19.09-1.76.26-.15.04-.19.23-.08.33.43.38.93.6,1.5.69,2,.31,4,.66,6.01.96,1.46.22,2.92.29,4.4.21,2.52-.15,4.72-1.2,6.87-2.41.42-.24.81-.54,1.2-.85.76-.61,1.27-1.39,1.58-2.3.51-1.48-.07-2.73-1.8-3.44ZM191.12,212.78c-2.21-.76-4.61-.54-6.89.77-.33.19-.81.29-.87.8.31.27.72.23,1.09.31.79.16,1.58.3,2.37.47,1.18.25,1.46,1.28,1.15,2.18-.2.58-.55,1.05-1.08,1.37-1.12.69-2.31,1.15-3.63,1.28-.94.09-1.89.1-2.83,0-1.08-.12-2.15-.26-3.23-.39-1.32-.17-2.64-.3-3.98-.24-.59.03-1.19.09-1.76.26-.15.04-.19.23-.08.33.43.38.93.6,1.5.69,2,.31,4,.66,6.01.96,1.46.22,2.92.29,4.4.21,2.52-.15,4.72-1.2,6.87-2.41.42-.24.81-.54,1.2-.85.76-.61,1.27-1.39,1.58-2.3.51-1.48-.07-2.73-1.8-3.44ZM102.95,212.78c-2.21-.76-4.61-.54-6.89.77-.33.19-.81.29-.87.8.31.27.72.23,1.09.31.79.16,1.58.3,2.37.47,1.18.25,1.46,1.28,1.15,2.18-.2.58-.55,1.05-1.08,1.37-1.12.69-2.31,1.15-3.63,1.28-.94.09-1.89.1-2.83,0-1.08-.12-2.15-.26-3.23-.39-1.32-.17-2.64-.3-3.98-.24-.6.03-1.19.09-1.76.26-.15.04-.19.23-.08.33.43.38.93.6,1.5.69,2,.31,4,.66,6.01.96,1.46.22,2.92.29,4.4.21,2.52-.15,4.72-1.2,6.87-2.41.42-.24.81-.54,1.2-.85.76-.61,1.27-1.39,1.58-2.3.51-1.48-.07-2.73-1.8-3.44ZM111.51,103.12c.51,1.91.59,3.89.5,5.84-.13,2.82-.77,5.55-1.75,8.2-.13.35-.32.7-.18,1.13.57-.05.61-.55.77-.89,1.09-2.35,1.79-4.83,2.47-7.32.85-3.1.85-6.25.31-9.39-.67-3.9-2.42-7.36-4.64-10.59-.36-.53-.75-1.04-1.29-1.79-.45,1.43-.76,2.58-1.18,3.69-.25.67-.1,1.12.32,1.67,2.21,2.82,3.74,5.99,4.67,9.45ZM156.24,209.74c-1.99,1.77-4.12,3.31-6.56,4.41-1.63.74-3.28,1.42-5.06,1.69-1.48.22-2.97.27-4.41-.26-1.53-.56-1.58-.44-.66-1.92.75-1.21,1.64-2.32,2.51-3.45.81-1.05,1.56-2.14,2.15-3.33.57-1.17.9-2.41.91-3.73,0-.46-.1-.6-.55-.66-.92-.13-1.84-.22-2.75-.35-1.07-.15-2.1,0-3.14.26-.9.23-1.54.75-1.95,1.55-.26.5-.5,1.01-.68,1.54-.13.38-.48.72-.33,1.18.38-.07.77-.11,1.15-.2,1.75-.4,3.53-.51,5.31-.59.13,0,.27,0,.39.03.1.02.17.12.13.22-.05.12-.14.23-.23.32-.85.84-1.55,1.81-2.25,2.77-1.01,1.4-1.81,2.92-2.2,4.62-.26,1.11-.19,2.23-.23,3.35-.01.4.16.77.36,1.12.33.56.8.97,1.37,1.26,1.19.62,2.43.79,3.75.54,2.72-.52,5.28-1.48,7.65-2.91,3.32-2,5.99-4.66,7.91-8.04.39-.68.78-1.37.84-2.25-.29.21-.59.41-.87.64-.86.72-1.73,1.44-2.57,2.18Z"/>
  <g class="st21">
    <path class="st20" d="M425.19,170.14s3.5-.25,1.33,10.58c-2.17,10.83-9.17,9.33-9.17,9.33l2.29-14.98,5.54-4.94Z"/>
    <path class="st2" d="M407.11,167.12l.08-.04,4.31-2.46s-2.89,19.83-6.22,24.06c-3.33,4.22-3.11-14.11-3.11-14.11l4.94-7.44Z"/>
    <path class="st0" d="M391,167.28l10.56-2.56s-4.56.72-7.83,14c-3.28,13.28-6.89-3.22-6.89-3.22l4.17-8.22Z"/>
    <path class="st14" d="M373.39,168.34l8.39-1.94s-4,1-8,13.11c-4,12.11-6.78-4.44-6.78-4.44l6.39-6.72Z"/>
    <path class="st11" d="M358,187.14s4.33-3.15,6.69-3.48,3.31,6.04,3.31,6.04l-3.33,6.92-5.94-6-.73-3.48Z"/>
    <path class="st13" d="M431.06,108.89l.72-5.17s4,6.06,10.22,15c6.22,8.94,2.56,17.89,2.56,17.89l-14.28-4.67.78-23.06Z"/>
    <path class="st17" d="M418.49,90.96s8.22,11.17,10.78,18.39c2.56,7.22-4.33,15.06-4.33,15.06l-7.33-12.61.89-20.83Z"/>
    <path class="st10" d="M310.72,217.23s1.5-5.28,8.11-9.33c6.61-4.06,15-5.17,15-5.17l-.28,16.89-18.39,3.06-4.44-5.44Z"/>
    <path class="st5" d="M318.04,198.02l.75,2.29s-6.71,5.96-9.25,7c-2.54,1.04-.25-6.04-.25-6.04l.42-4.12,8.33.88Z"/>
    <path class="st3" d="M319.39,183.23s8.06,3,9.72,17.89-4.39,6.61-4.39,6.61l-7.83-12,2.5-12.5Z"/>
    <path class="st1" d="M295.17,170.56l3.17,3.25s5.17,8.83,1.92,15.42-5.62-11-5.62-11l.54-7.67Z"/>
    <path class="st6" d="M271,148.56s2.22,22.44.11,32.44,4.44,1.89,4.44,1.89c0,0,5.42-16.98,5.89-16.78s-10.44-17.56-10.44-17.56Z"/>
    <path class="st9" d="M234.86,151.19l2.33,14s.85,7.08,1.42,14.04c.35,4.24-.12,7.87-1.2,12.19-2.89,11.56-11.22,1.56-11.22,1.56l3-13.22,6.22-5.33-1.56-14,1-9.22Z"/>
    <path class="st18" d="M212.5,166.23s.01.09.04.26c.31,2.23,2.38,18.48-2.04,28.24-4.75,10.5-2.58-3.58-2.58-3.58l1.58-11.92,3-13Z"/>
    <path class="st12" d="M142.93,173.02s10.31-2.12,24.96,1.44l-5.01,6.56-11.83,5.28-8.11-13.28Z"/>
    <path class="st15" d="M105.67,162.64s-4.75,11.42,8.5,30.5l15.58-3.42-10.83-13.83-12.08-6.92-1.17-6.33Z"/>
    <path class="st8" d="M89.86,184.06l3.42,2.42s4.67,4.42,4.67,13.67-8.83,5.17-8.83,5.17l-1.92-10.83,2.67-10.42Z"/>
    <path class="st16" d="M71.24,166.27s-5.16,6.18-8.25,10.9c-.76,1.17-1.17,2.48-1.47,3.38-1.5,4.5,10.44,2.72,10.44,2.72l6.94-9.83-7.67-7.17Z"/>
    <path class="st4" d="M59.06,184.28s-5.89,4.72,2.39,17.28c8.28,12.56,9.44-.17,9.44-.17l-8.17-12.39-3.67-4.72Z"/>
  </g>
</svg>