<?xml version="1.0" encoding="UTF-8"?>
<svg id="Layer_1" xmlns="http://www.w3.org/2000/svg" version="1.1" viewBox="0 0 863.42 332.86">
  <!-- Generator: Adobe Illustrator 30.2.1, SVG Export Plug-In . SVG Version: 2.1.1 Build 1)  -->
  <defs>
    <style>
      .st0 {
        fill: #b9a779;
      }
    </style>
  </defs>
  <path class="st0" d="M153.41,251.07c1.38.39,12.44,10.41,16.32,12.35,12.37,6.2,24.73,1.57,29.28-11.48,2.73-7.81-.09-6.07-5.36-9.58-11.68-7.77-21.92-18.57-31.07-29.14-4.71-5.44-9.33-11.45-13.48-17.21l-1.44.55c-13.26,16.55-26.69,33.61-44.44,45.58-1.95,1.23-.25,5.12.48,7.02,6.73,17.49,22.44,22.37,37.66,11.06,1.1-.82,2.42-3.28,3.74-2.6l5.15,5.75c-20.79,20.55-48.34,10.75-54.49-16.88-5.94,1.84-11.56,3.82-17.97,3.35-19.35-1.42-28.11-21.51-23.91-38.67l8.07.9c-5.82,21.55,11.01,37.3,31.85,27.55-.55-17.39,1.73-33.93,10.49-49.15l9.84-15.09c-23.82.08-48.68-6.05-68.53-19.34-10.36,8.07-19.45,19.26-9.69,31.9,6.7,8.68,17.16,9.93,26.92,13.22l5.43,9.19c-10.86-2.2-22.25-4.91-31.48-11.23-20.73-14.19-14.8-34.11,2.24-48.13-5.64-7.01-12.42-13.58-14.63-22.63-6.06-24.88,24.24-35.28,43.29-38.42l-5.42,9.2c-9.02,3.41-20.09,4.47-26.42,12.58-10.09,12.91-.1,25.98,10.33,34.23,4.25-2.61,8.84-4.77,13.61-6.27,16.17-5.09,32.72-5.57,49.49-6.13,1.71-.06,3.05-.88,4.85-.03.19-.74-.18-1.02-.45-1.55-2.18-4.31-6.5-9.33-8.95-13.99-7.24-13.84-12.11-30.92-11.24-46.67.11-1.93,1.71-9.44,1.04-10.52-21.57-10.1-38.05,4.69-33.2,27.39l-7.98,1.19c-5.48-27.86,16.59-48.52,43.3-35.02.5-.03,3.68-7.03,4.39-8.16,11.79-18.74,34.29-17.99,49.19-3.5l-5.92,5.36c-14.82-14.3-34.89-9.62-41.13,10.03,11.7,7.9,21.85,19.16,30.68,30.2,4.24,5.3,8.39,12.69,12.96,17.43.49.51,1.14,1.59,1.93,1.42,13.35-16.99,25.38-35.28,43.17-48.03,1.22-.87,7.44-4.26,7.5-4.97-4.06-9.83-9.74-14.82-20.81-14.08-6.07.4-9.75,2.84-14.53,6.11-1.82,1.24-9.45,8.25-10.1,8.25h-11.18c16.1-17.31,44.2-35.9,61.02-8.55.71,1.15,2.33,5.43,3,5.64,12.19-2.8,24.09-1.17,31.65,9.6,1.38,1.96,5.25,10.46,5.25,12.52v15.77l-8.61-1.15c5.02-17.95-6.85-35.06-26.29-29.73,1.27,9,.35,16.8-1.72,25.51-4.23,17.77-12.64,34.84-24.16,48.95,12.8.98,25.81.93,38.54,3.04,10.22,1.7,20.54,4.67,29.42,10.02,8.48-8.03,18.2-17.61,12.61-30.26-4.85-10.97-18.45-13.36-28.8-16.21l-5.89-9.59c10.55,2.05,21.88,4.64,30.91,10.65,21.7,14.44,14.31,34.96-2.23,49.83,5.88,5.73,12.5,12.1,14.62,20.34,6.7,25.96-24,36.3-43.88,39.57l5.77-9.42c11.21-3.15,25.45-5.81,29.89-18.28,4.11-11.54-4.66-19.85-12.69-26.53-19.59,12.7-43.18,19.06-66.55,19.26l10.42,15.67c8.1,15.51,14.86,33.05,14.24,50.84,19.52,4.22,30.55-11.87,25.22-29.8l8.61-1.16c4.69,22.82-10.17,44.36-34.95,37.87-1.99,6.33-5.05,13.84-9.78,18.61-17.63,17.77-43.17-2.75-56.19-16.34,2.95.54,8.63-.73,11.18,0ZM157.21,132.87c3.69-.8,12.25,1.78,15.06.01,12.03-13.6,21.3-28.24,26.44-45.82,2.47-8.47,4.28-16.97,2.58-25.8-1.36-1.69-24.88,22.1-26.67,24.08-8.2,9.06-15.08,19.35-22.93,28.71-.43.59-.27,1.17-.19,1.82.61,4.88,4.87,11.83,5.71,17ZM108.04,71.37c-.74-.69-6.48-6.78-7.09-6.08-.66,24.47,6.88,47.76,21.22,67.37l17.7.21c.98-4.7,5.21-12,5.71-16.42.09-.82.15-1.54-.32-2.27-11.74-15.13-23.13-29.77-37.2-42.81ZM134.12,149.67l-14.97-11.12c-20.45.03-47.78,1.1-65.63,12.06-.44.27-.98-.19-.74.97,7.58,5.98,17.04,9.94,26.25,12.75,15.6,4.76,34.04,7.33,49.71,1.87l5.38-16.53ZM178.18,138.22l-15.2,12.29,5.35,15.67c15.08,5.44,33.22,2.94,48.3-1.55,9.82-2.92,19.38-6.97,27.65-13.05-19.23-12.22-43.93-12.52-66.1-13.36ZM201.28,239.03c1.08-6.56-.92-13.97-2.85-20.37-4.19-13.85-15-33.87-25.8-43.58-5.08-4.57-13.85-7.76-19.22-12.3-3.25,6.46-4,15.88-2.32,22.95,1.9,8.02,10.98,17.37,16.65,23.49,9.96,10.76,21.44,21.59,33.55,29.81ZM144.5,163.35c-.77-.15-1.44.11-2.13.42-8.95,4.1-18.02,11.86-23.89,19.69-11.09,14.8-16.77,33.03-16.97,51.55,10.5-8.95,20.83-18.42,30.11-28.66,10.86-11.99,16.93-17.65,14.54-35.2-.36-2.63-.98-5.25-1.67-7.8Z"/>
  <g>
    <path class="st0" d="M346.94,113.35l4.53-1.79c.26.6.68,1.96,1.11,3.5.26.94.68,2.05,1.02,3.25.09.43.17.77.26,1.2.43,1.11.68,2.22.85,3.42l.26,1.79c.34,1.62.43,3.33.43,5.04s-.26,3.25-.6,4.87c-.26.77-.6,1.37-.85,2.05-.34.6-.68,1.28-1.2,2.05-.34.43-.85.85-1.45,1.28-.68.6-1.45,1.2-2.14,1.88-.51.34-1.02.6-1.54.77-.94.43-1.88.68-2.65,1.2-.51.26-.94.51-1.45.68-1.02.43-2.14.68-3.42.94-.17.09-.34.09-.51.17-1.37.26-3.16.34-4.61.34-1.88,0-3.59,0-5.3-.34-.17-.09-.34-.09-.51-.17-1.45-.34-2.99-.85-4.53-1.71-1.2-.94-2.05-1.54-2.99-2.99-.85-.85-1.71-2.65-2.14-4.1-.6-1.45-1.11-3.5-1.02-5.21.09-.43.09-.77.17-1.11.26-2.05.77-3.67,1.37-5.55.85-2.48,1.71-4.95,2.82-7.26l3.25.85-1.37,5.3-.85,4.7c-.43,2.31.17,4.01,1.11,5.38l.34.51c.94,1.28,2.05,2.48,3.59,2.99.26.17.6.26.94.43,1.54.51,3.5.68,5.81.85h.51c3.84-.17,7.69-1.2,11.27-2.56,1.71-1.11,2.65-1.45,3.33-2.39.17-.85-.09-2.05-.34-3.59-.26-1.45-.68-2.82-1.2-4.36-.17-.34-.26-.68-.43-1.11-.6-1.79-.94-3.33-1.62-5.04-.09-.43-.26-.77-.43-1.2-.51-1.54-1.2-3.42-1.62-4.36l1.79-.6ZM336.18,103.53c2.22,0,4.01,1.62,4.01,3.93,0,1.03-.51,2.05-1.2,2.82-.68.68-1.79,1.28-2.82,1.28-2.14,0-4.01-1.96-4.01-4.1,0-2.31,1.79-3.93,4.01-3.93Z"/>
    <path class="st0" d="M364.8,128.89c-2.99-2.14-2.73-3.84-2.9-4.7,0-1.79-.34-3.33-.26-4.87l-.26-5.04.26-4.44.09-5.12-.34-4.61.34-4.78-.17-4.53.17-4.78h5.81v10.25l-.34,5.3.17,5.21-.17,5.3.09,3.08v1.96c.09,2.9,1.02,5.38,3.33,6.49v5.3h-5.81Z"/>
    <path class="st0" d="M364.8,123.6h5.81c1.71.85,5.21,1.28,7.26,1.28s4.27-.26,6.49-.43c2.65-.17,5.3-.17,7.52-.77h2.56v5.47c-4.19,2.13-10.59,2.82-15.37,2.82-3.84,0-11.27-.85-14.26-3.07v-5.3Z"/>
    <path class="st0" d="M396.32,122.49l-.34-15.12,6.15-.17.17,8.88v2.14c-.09,1.96.26,3.59.94,4.27,1.2.68,2.65,1.03,5.47,1.11v5.89l-2.39,1.79c-3.42,0-6.06-1.03-7.86-4.1-.43-.68-.77-1.37-1.2-2.05-.34,1.45-.77,3.07-2.82,4.01h-2.56v-5.47c.68-.17,2.73-.77,4.44-1.2ZM398.71,92.42c2.22,0,4.01,1.62,4.01,3.93,0,1.02-.51,2.05-1.2,2.82-.68.68-1.79,1.28-2.82,1.28-2.13,0-4.01-1.96-4.01-4.1,0-2.31,1.79-3.93,4.01-3.93Z"/>
    <path class="st0" d="M451.07,110.19l4.61-1.11c.34,1.71.85,3.33,1.2,5.04.26,1.37.51,2.9.51,4.27.09.77.17,1.54.17,2.22,0,1.37-.26,2.48-.51,3.59-.17.77-.34,1.45-.51,2.14-.68.77-1.2,1.54-1.79,2.13-.43.51-.94,1.03-1.62,1.37-.77.68-1.54,1.11-2.39,1.28-.85.26-1.79.34-3.08.34-.51,0-1.11,0-1.62-.09-.85-.09-1.62-.34-2.39-.85-.85-.34-1.71-.85-2.56-1.37-.6-.43-1.2-.85-1.71-1.37-.26-.26-.43-.51-.68-.77-.6.85-1.28,1.54-1.88,2.05-1.11.77-2.14,1.28-3.16,1.79-1.45.26-2.48.6-4.01.6-4.78-.77-7.94-2.14-11.27-5.64-.17.26-.43.51-.6.68-2.65,3.16-7.43,4.78-11.45,4.78v-6.49l2.39-1.2c2.39,0,4.19-.43,5.55-.94.68-1.45,1.45-2.48,2.14-3.5.85-1.37,1.79-2.82,2.99-4.95l1.45.77,3.33,1.54c-.94,1.54-1.71,2.9-2.48,4.18,1.11.77,2.22,1.45,3.25,1.96,1.71.51,3.5.85,5.21.85,1.37,0,2.82-.09,4.1-.51.85-1.2,1.62-2.05,2.05-3.16.51-1.62.94-3.25,1.96-6.32l1.79.43,3.76,1.2c-.94,2.22-1.28,4.18-1.96,6.24-.09.17-.17.43-.34.68.77.34,1.45.68,2.13,1.02,1.37.68,3.5,1.2,4.78,1.28,1.02-.09,2.22-.43,3.07-.68.17-.51.51-1.45.68-2.39,0-1.11-.6-4.1-.85-5.21-.26-1.54-.94-3.84-1.2-5.47l.94-.43Z"/>
    <path class="st0" d="M489.69,120.01c-.43,2.22-.43,3.16-1.2,4.78-.34.6-.6,1.2-.94,1.71-.51.85-1.11,1.54-1.96,2.05l-1.02.51c-1.28.68-2.56,1.37-4.1,1.62-1.11.26-2.39.43-3.76.51-.68.09-1.45.09-2.31,0-.6-.09-2.14,0-3.59,0h-1.45c-1.79-.09-4.1-.68-4.7-.94l.77-6.66c1.62.09,3.33.17,4.95.17,1.54,0,3.07-.26,4.53-.26h.68c4.01.09,6.15.09,7.77-.51,1.45-.6,2.22-1.11,2.99-1.88-.34-1.54-1.45-4.7-2.39-5.98-.09-.17-.17-.34-.34-.43-.51-.51-.94-1.28-1.45-1.88l-.51-.51c-3.76-3.33-7.69-6.15-12.04-8.71-2.82-1.71-5.64-3.76-8.29-5.72l2.31-6.49c1.62.94,3.16,2.14,4.78,3.42,1.37.94,2.73,1.88,4.19,2.73,1.62.94,2.73,2.05,4.36,3.16,1.2.77,2.05,1.54,3.07,2.31.34.34.77.6,1.11.85.6.51,1.37,1.11,2.05,1.79.43.51.94,1.03,1.28,1.45,1.79,2.13,3.25,4.1,4.27,6.66.17.43.34.85.51,1.37.43,1.28.85,2.82.51,4.44,0,.17-.09.26-.09.43ZM471.24,77.13c-.51-.09-1.02-.26-1.54-.17-.6.09-1.02.51-1.28,1.03-.26.43-.85,1.11-.85,1.79,0,1.88,2.65,2.13,4.01,2.13,1.28,0,2.9-.17,4.78-.51v4.27l-3.93,1.28-4.19.51-4.95,1.11-.68-2.73,3.33-1.45c0-.17-.09-.26-.17-.43-.34-.77-.85-1.71-.85-2.82,0-2.73,3.07-8.37,6.06-8.37,1.79,0,3.25,1.37,3.76,2.99l-1.2,2.31c-.6-.43-1.45-.77-2.31-.94Z"/>
    <path class="st0" d="M482.08,92.42l-.17-6.32,5.38.17-.09,5.98-.34,6.41c-.09,1.88,0,3.42-.26,4.61-.09.51-.09,1.02-.09,1.45-.09,1.11,0,1.88-.17,2.82-.34,1.37-1.02,2.73-1.37,4.01-.43,1.54-.85,2.14-1.96,3.76-.17.17-.6.77-.77,1.03-.51.77-1.11,1.28-2.05,2.13-.26.26-.68.6-1.11,1.03-.77.68-1.71,1.37-2.39,1.88-1.37,1.37-3.67,2.73-5.38,3.59-.43.17-1.45.6-3.07,1.37-.43.17-1.54.68-2.65,1.28v-2.99c1.54-.6,3.07-1.37,4.27-2.14.68-.34,1.2-.68,1.71-1.02.68-.34,1.45-.85,1.96-1.2,1.02-.77,1.79-1.54,2.22-1.96.6-.51,1.11-1.11,1.45-1.45,1.28-1.45,2.9-4.27,3.5-6.06.17-.68.43-1.96.6-3.33.43-2.05.43-2.13.43-4.36.09-1.37.34-9.82.34-10.68Z"/>
    <path class="st0" d="M503.53,131.46l-6.24-.17-.26-9.05.09-4.44.26-4.7-.26-4.19c0-3.16.09-6.06.43-9.22l-.09-4.44v-4.53l-.26-4.87,5.81.17.43,4.78c-.09,1.37-.17,2.82-.17,4.27s.17,2.9.26,4.36l-.09,4.7v4.27l.09,4.61-.43,4.61v4.61l.34,4.44-.17,4.61.26.17Z"/>
    <path class="st0" d="M548.97,124.71l-.26,6.49-4.87.17-4.7-.09c-2.99,0-6.06.34-8.8,1.62-1.11.34-2.56,1.2-4.95,2.31l-.6-1.11-1.54-3.93,6.06-2.99-.51-.77c-.09-.17-.17-.34-.26-.43-.34-.85-.68-4.1-.68-5.21-.09-1.2.09-2.39.6-3.42.68-1.37,1.37-2.82,2.22-4.01,1.62-1.62,2.14-2.05,4.19-3.42,1.45-.77,2.39-.94,4.1-1.03,2.05,0,4.1.34,5.55,1.96.17.09.34.26.43.43,1.2,1.45,1.88,2.73,2.22,4.18l-3.25,2.73c-.85-.77-2.14-1.96-4.36-2.56-.68-.26-1.54-.34-2.56-.34h-.6c-.34,0-.85,0-1.45.09-.51,0-1.02.09-1.54.17-.77,1.37-1.54,3.42-1.54,4.36.17,1.2.94,2.05,2.14,2.9.34.26.77.43,1.2.68,1.96.77,7.09.85,9.23.94l4.53.26Z"/>
    <path class="st0" d="M557.17,128.89c-2.99-2.14-2.73-3.84-2.9-4.7,0-1.79-.34-3.33-.26-4.87l-.26-5.04.26-4.44.09-5.12-.34-4.61.34-4.78-.17-4.53.17-4.78h5.81v10.25l-.34,5.3.17,5.21-.17,5.3.09,3.08v1.96c.09,2.9,1.02,5.38,3.33,6.49v5.3h-5.81Z"/>
    <path class="st0" d="M557.17,123.6h5.81c1.71.85,5.21,1.28,7.26,1.28s4.27-.26,6.49-.43c2.65-.17,5.3-.17,7.52-.77h2.56v5.47c-4.19,2.13-10.59,2.82-15.37,2.82-3.84,0-11.27-.85-14.26-3.07v-5.3Z"/>
    <path class="st0" d="M587.58,122.74l-.26-12.81,6.15-.17.17,6.32v2.14c-.09,1.96.26,3.59.94,4.27,1.2.68,2.65,1.03,5.47,1.11v5.89l-2.39,1.79c-3.42,0-6.06-1.03-7.86-4.1-.17-.26-.34-.51-.51-.85-.34,1.11-1.02,2.13-2.48,2.82h-2.56v-5.47c.51-.17,1.96-.51,3.33-.94ZM589.21,138.12c2.22,0,4.01,1.62,4.01,3.93,0,1.03-.51,2.05-1.2,2.82-.68.68-1.79,1.28-2.82,1.28-2.13,0-4.01-1.96-4.01-4.1,0-2.31,1.79-3.93,4.01-3.93Z"/>
    <path class="st0" d="M597.66,124.96l2.39-1.37h.43l5.64-6.23-.17-2.56.26-4.78-.09-4.61.09-5.13-.17-4.44.26-4.95-.17-4.7,6.15-.26-.26,4.87.09,4.95c0,.6-.17,3.67-.17,4.53.26,1.96-.26,4.44-.34,6.41-.51,2.05-.94,4.27-1.54,6.06.09-.09.17-.26.26-.34,2.82-3.5,6.41-4.95,10.76-5.81.94-.26,1.96-.43,2.9-.43,1.28,0,2.82.43,3.93.94,1.62.51,3.33,1.2,4.78,2.05,1.28.94,2.48,2.99,3.42,4.27.6,1.28,1.02,2.82,1.2,4.36.26.68-.26,3.25-.43,4.01-.6,2.99-5.04,6.41-7.94,7.35-1.45.6-3.07.77-4.53,1.37-1.71.43-3.59.51-5.3.77h-5.47l-5.21-.09h-5.13l-5.64.09v-6.32ZM610.13,118.05c-.43.43-.77.85-1.11,1.37-1.11,1.2-2.48,2.65-3.67,4.1h.77l5.98.09h1.79c3.07-.09,6.41.17,9.48-.51,1.96-.26,3.59-.34,5.47-.94,1.28-.43,2.65-.34,3.67-1.37-.09-.43-.51-1.62-1.37-2.9-.68-1.28-2.05-2.39-3.42-3.5-1.62-1.02-3.84-1.28-6.24-1.28-2.05.09-4.53.68-8.11,1.79-1.02,1.03-2.22,2.05-3.25,3.16Z"/>
    <path class="st0" d="M649.09,76.71c-.51-.09-1.02-.26-1.54-.17-.6.09-1.02.51-1.28,1.02-.26.43-.85,1.11-.85,1.79,0,1.88,2.65,2.14,4.01,2.14,1.28,0,2.9-.17,4.78-.51v4.27l-3.93,1.28-4.19.51-4.95,1.11-.68-2.73,3.33-1.45c0-.17-.09-.26-.17-.43-.34-.77-.85-1.71-.85-2.82,0-2.73,3.07-8.37,6.06-8.37,1.79,0,3.25,1.37,3.76,2.99l-1.2,2.31c-.6-.43-1.45-.77-2.31-.94ZM651.05,91.14c-.09,1.28-.17,2.56-.17,3.93,0,1.45.17,2.9.26,4.36l-.09,4.7v4.27l.09,4.61-.43,4.61v4.61l.34,4.44-.17,4.61.26.17-6.24-.17-.26-9.05.09-4.44.26-4.7-.26-4.19c0-3.16.09-6.06.43-9.22l-.09-4.44v-4.1h5.98Z"/>
    <path class="st0" d="M692.14,128.89c-1.2-.85-1.54-1.37-1.96-2.05-.6-1.03-.68-1.88-.94-2.82-.34,1.02-.85,1.71-1.54,2.31-2.05,1.11-4.27,1.11-6.41,1.2-1.45.26-3.5-.17-5.04-.85-1.2-.43-2.22-1.71-2.99-3.08-.68-1.28-1.28-2.82-1.11-5.13-.17-1.96.17-3.59.94-5.04.68-1.28,1.62-2.82,2.48-3.59,1.2-1.37,2.65-1.79,4.44-2.82,1.62-.51,3.07-1.2,4.53-1.45,1.54-.17,2.73-.77,4.01-.94l-.09-6.58,6.15-.17.17,18.19v2.14c-.09,1.96.17,3.42.85,4.1.6.51,1.28.77,2.31,1.28v5.3h-5.81ZM676.85,85.93c.94,0,2.05.26,2.65,1.03.68.77,1.11,1.62,1.11,2.73,0,.94-.43,1.88-1.11,2.65-.6.6-1.71,1.2-2.65,1.2-2.05,0-3.76-1.88-3.76-3.84,0-2.22,1.54-3.76,3.76-3.76ZM688.89,120.18c-.09-.51-.09-1.02-.09-1.54l-.17-8.71c-1.79.26-3.67.6-5.21,1.28-1.79.43-2.82,1.11-4.44,2.05-.94.77-2.14,1.45-2.99,2.56-.09.6-.34,2.22-.43,2.56.94.68,2.05,1.71,2.99,2.05,1.2.43,2.73.51,4.27.51,1.88,0,3.59-.09,6.06-.77ZM686.67,85.93c.94,0,2.05.26,2.65,1.03.68.77,1.11,1.62,1.11,2.73,0,.94-.43,1.88-1.11,2.65-.6.6-1.71,1.2-2.65,1.2-2.05,0-3.76-1.88-3.76-3.84,0-2.22,1.54-3.76,3.76-3.76Z"/>
    <path class="st0" d="M692.14,123.6h5.81c1.71.85,5.21,1.28,7.26,1.28s4.27-.26,6.49-.43c2.65-.17,5.3-.17,7.52-.77h2.56v5.47c-4.19,2.13-10.59,2.82-15.37,2.82-3.84,0-11.27-.85-14.26-3.07v-5.3Z"/>
    <path class="st0" d="M721.95,138.12c2.22,0,4.01,1.62,4.01,3.93,0,1.03-.51,2.05-1.2,2.82-.68.68-1.79,1.28-2.82,1.28-2.14,0-4.01-1.96-4.01-4.1,0-2.31,1.79-3.93,4.01-3.93ZM728.27,105.83l.77,7.77c.34,2.56.17,4.61,0,6.41-.43,2.13-.85,3.42-1.11,4.78-1.45,2.05-3.93,3.33-6.15,4.36h-2.56v-5.47c2.05-.6,3.42-1.11,4.19-1.62.43-1.54,0-3.16-.17-7l-.77-8.29,5.81-.94Z"/>
    <path class="st0" d="M742.28,116.85c0,2.39.26,5.04,1.37,5.81,1.45,1.03,3.84,1.03,5.55.94v6.32l-2.39,1.37c-1.37,0-2.48,0-3.42-.17-3.07-.34-5.38-3.5-6.06-6.32-.51-1.88-.6-4.01-.68-5.47v-1.02l.17-3.93-.26-4.61v-1.02l.17-4.01-.26-4.61.17-9.48-.17-4.53,5.98.09-.34,4.87.34,5.21v10.76l.09,5.38c0,.68-.26,2.48-.26,4.44Z"/>
    <path class="st0" d="M755.1,123.17c-.77-.77-1.54-1.71-1.88-2.65-.43-1.28-.43-2.9-.26-4.53.26-2.65,1.45-6.83,3.42-8.8,1.11-1.11,2.39-2.48,3.93-3.33,1.62-.85,2.99-1.62,4.87-1.45,1.96-.17,3.42.68,4.7,1.62,1.37,1.03,2.73,2.05,3.59,3.84.77,1.45,1.45,3.42,1.45,4.87,0,4.1-1.45,7.09-4.44,9.91.26.09.43.17.6.17,2.9.51,5.81.77,8.8.77v6.49l-2.39,1.2c-1.45,0-3.42.09-4.78-.17-1.37-.09-8.29-1.62-9.48-2.22-1.45-.68-2.73-1.37-4.01-1.96l-.94.51c-1.54,1.2-2.65,2.13-4.19,2.65-2.13.6-4.36,1.2-7.26,1.2v-6.58l2.39-1.11c3.25,0,4.7-.09,5.89-.43ZM758.51,87.81c.94,0,2.05.26,2.65,1.02.68.77,1.11,1.62,1.11,2.73,0,.94-.43,1.88-1.11,2.65-.6.6-1.71,1.2-2.65,1.2-2.05,0-3.76-1.88-3.76-3.84,0-2.22,1.54-3.76,3.76-3.76ZM764.32,121.21c3.5-1.11,7-2.99,7-5.47,0-2.9-4.44-6.15-7.35-6.32-2.82,0-7.52,2.82-7.52,6.06,0,1.88,2.31,3.33,3.76,4.1.94.6,2.48,1.11,4.1,1.62ZM768.34,87.81c.94,0,2.05.26,2.65,1.02.68.77,1.11,1.62,1.11,2.73,0,.94-.43,1.88-1.11,2.65-.6.6-1.71,1.2-2.65,1.2-2.05,0-3.76-1.88-3.76-3.84,0-2.22,1.54-3.76,3.76-3.76Z"/>
    <path class="st0" d="M792.6,105.83l.77,7.77c.34,2.56.17,4.61,0,6.41-.43,2.13-.85,3.42-1.11,4.78-.6,1.37-1.62,2.48-2.48,3.59-.68.85-1.96,1.11-3.42,1.88-1.11.26-2.56.51-4.01.85-1.54.09-3.5.17-4.87.17v-6.15l2.39-1.54c3.76,0,6.66-.77,7.86-1.54.43-1.54,0-3.16-.17-7l-.77-8.29,5.81-.94ZM788.75,91.14c2.22,0,4.01,1.62,4.01,3.93,0,1.03-.51,2.05-1.2,2.82-.68.68-1.79,1.28-2.82,1.28-2.13,0-4.01-1.96-4.01-4.1,0-2.31,1.79-3.93,4.01-3.93Z"/>
    <path class="st0" d="M464.31,205.77c-1.2-.85-1.54-1.37-1.96-2.05-.6-1.03-.68-1.88-.94-2.82-.34,1.02-.85,1.71-1.54,2.31-2.05,1.11-4.27,1.11-6.41,1.2-1.45.26-3.5-.17-5.04-.85-1.2-.43-2.22-1.71-2.99-3.08-.68-1.28-1.28-2.82-1.11-5.13-.17-1.96.17-3.59.94-5.04.68-1.28,1.62-2.82,2.48-3.59,1.2-1.37,2.65-1.79,4.44-2.82,1.62-.51,3.07-1.2,4.53-1.45,1.54-.17,2.73-.77,4.01-.94l-.09-6.58,6.15-.17.17,18.19v2.14c-.09,1.96.17,3.42.85,4.1.6.51,1.28.77,2.31,1.28v5.3h-5.81ZM449.02,162.81c.94,0,2.05.26,2.65,1.03.68.77,1.11,1.62,1.11,2.73,0,.94-.43,1.88-1.11,2.65-.6.6-1.71,1.2-2.65,1.2-2.05,0-3.76-1.88-3.76-3.84,0-2.22,1.54-3.76,3.76-3.76ZM461.07,197.06c-.09-.51-.09-1.02-.09-1.54l-.17-8.71c-1.79.26-3.67.6-5.21,1.28-1.79.43-2.82,1.11-4.44,2.05-.94.77-2.14,1.45-2.99,2.56-.09.6-.34,2.22-.43,2.56.94.68,2.05,1.71,2.99,2.05,1.2.43,2.73.51,4.27.51,1.88,0,3.59-.09,6.06-.77ZM458.85,162.81c.94,0,2.05.26,2.65,1.03.68.77,1.11,1.62,1.11,2.73,0,.94-.43,1.88-1.11,2.65-.6.6-1.71,1.2-2.65,1.2-2.05,0-3.76-1.88-3.76-3.84,0-2.22,1.54-3.76,3.76-3.76Z"/>
    <path class="st0" d="M464.32,200.48h5.81c2.22,1.11,11.36,1.96,14.09,1.96,2.39,0,4.78-.43,7.17-.68,2.99-.34,5.98-.51,8.54-1.2h2.56v5.47c-4.01,1.96-15.8,3.84-20.58,3.84s-13.84-1.45-17.6-4.1v-5.3Z"/>
    <path class="st0" d="M497.72,214.91c.94,0,2.05.26,2.65,1.03.68.77,1.11,1.62,1.11,2.73,0,.94-.43,1.88-1.11,2.65-.6.6-1.71,1.2-2.65,1.2-2.05,0-3.76-1.88-3.76-3.84,0-2.22,1.54-3.76,3.76-3.76ZM508.99,182.71l.77,7.77c.34,2.56.17,4.61,0,6.41-.43,2.13-.85,3.42-1.11,4.78-1.45,2.05-3.93,3.33-6.15,4.36h-2.56v-5.47c2.05-.6,3.42-1.11,4.19-1.62.43-1.54,0-3.16-.17-7l-.77-8.29,5.81-.94ZM507.54,214.91c.94,0,2.05.26,2.65,1.03.68.77,1.11,1.62,1.11,2.73,0,.94-.43,1.88-1.11,2.65-.6.6-1.71,1.2-2.65,1.2-2.05,0-3.76-1.88-3.76-3.84,0-2.22,1.54-3.76,3.76-3.76Z"/>
    <path class="st0" d="M523,186.38l5.64-1.71c.26,1.54.51,2.56.85,4.36.77,2.91,1.71,5.72,1.71,8.8.09,1.45.51,3.16.51,4.61-.17,2.39-.77,8.54-1.79,10.59-.51,1.62-1.37,3.25-2.56,4.44-.09.17-.26.34-.34.51-.85,1.03-1.71,1.54-2.82,2.31-1.96.51-2.9,1.03-5.04,1.03-2.22-.17-4.95-1.2-6.66-1.88l.34-4.53c2.99-.26,5.04-.6,7-.85,1.45-.68,3.16-1.62,4.19-2.82,1.28-.94,1.54-1.96,2.14-3.08.77-1.28,1.02-2.73.68-4.1-.34-2.56-.77-4.87-1.45-7.35-.51-1.45-.77-3.5-1.2-5.13-.34-1.28-.51-2.48-1.2-5.21Z"/>
    <path class="st0" d="M545.21,208.17c-1.54,0-2.82-.09-3.76-.77-1.37-.68-2.22-1.45-2.99-3.07-.6-1.28-1.54-2.82-1.45-5.21.09-1.45,0-2.91.43-4.95.26-1.37,1.11-3.07,1.88-4.44,1.88-3.33,3.76-5.89,8.03-5.89,2.73,0,6.32,2.22,7.6,4.61.77,1.37,1.37,3.16,2.05,4.95.6,1.71.6,3.07.85,4.7.17.85.26,1.62.34,2.39h4.53v6.06l-2.39,1.62h-2.22c0,.26-.09.43-.09.68-.26,1.79-.43,3.08-1.2,4.87-1.62,6.06-5.89,9.99-12.47,9.99-2.48,0-4.44-.85-7.77-1.79l-.17-4.53c3.07-.09,5.13-.09,7.17-.34,3.25,0,5.64-1.28,8.2-3.08,1.79-1.2,2.31-3.84,2.73-5.81h-9.31ZM545.89,200.91h8.03c-.17-1.96-.77-3.67-1.54-4.95-1.02-1.62-1.54-2.99-2.48-3.59-1.37-.94-3.08-1.2-4.61-1.2s-2.56.43-3.08.68c-1.02,1.54-1.45,2.9-1.45,5.13,0,3.84,3.16,3.93,5.13,3.93Z"/>
    <path class="st0" d="M605.09,187.07l4.61-1.11c.34,1.71.85,3.33,1.2,5.04.26,1.37.51,2.9.51,4.27.09.77.17,1.54.17,2.22,0,1.37-.26,2.48-.51,3.59-.17.77-.34,1.45-.51,2.14-.68.77-1.2,1.54-1.79,2.13-.43.51-.94,1.03-1.62,1.37-.77.68-1.54,1.11-2.39,1.28-.85.26-1.79.34-3.08.34-.51,0-1.11,0-1.62-.09-.85-.09-1.62-.34-2.39-.85-.85-.34-1.71-.85-2.56-1.37-.6-.43-1.2-.85-1.71-1.37-.26-.26-.43-.51-.68-.77-.6.85-1.28,1.54-1.88,2.05-1.11.77-2.14,1.28-3.16,1.79-1.45.26-2.48.6-4.01.6-4.78-.77-7.94-2.14-11.27-5.64-.17.26-.43.51-.6.68-2.65,3.16-7.43,4.78-11.45,4.78v-6.49l2.39-1.2c2.39,0,4.19-.43,5.55-.94.68-1.45,1.45-2.48,2.14-3.5.85-1.37,1.79-2.82,2.99-4.95l1.45.77,3.33,1.54c-.94,1.54-1.71,2.9-2.48,4.18,1.11.77,2.22,1.45,3.25,1.96,1.71.51,3.5.85,5.21.85,1.37,0,2.82-.09,4.1-.51.85-1.2,1.62-2.05,2.05-3.16.51-1.62.94-3.25,1.96-6.32l1.79.43,3.76,1.2c-.94,2.22-1.28,4.18-1.96,6.24-.09.17-.17.43-.34.68.77.34,1.45.68,2.13,1.02,1.37.68,3.5,1.2,4.78,1.28,1.02-.09,2.22-.43,3.07-.68.17-.51.51-1.45.68-2.39,0-1.11-.6-4.1-.85-5.21-.26-1.54-.94-3.84-1.2-5.47l.94-.43Z"/>
    <path class="st0" d="M650.37,193.65l5.89,1.62c.26.09.68.17,1.2.34,2.9.85,9.14,2.73,10.42,3.59,1.37.94,1.96,2.22,2.22,3.67.17.6.17,1.28.17,1.88,0,1.37-.94,3.42-1.62,4.7-1.11,1.79-2.99,4.1-4.27,4.95-1.2.85-7.77,3.67-9.14,4.01-2.22.51-7.6,1.37-9.82,1.37-1.88,0-3.67-.51-5.55-.68-7.26-.94-10.42-7.35-10.42-14.26v-.51c.6-4.44,2.48-9.74,4.1-13.92l3.16,1.11c-.68,3.5-1.54,7-2.73,10.34.43,2.9,1.2,7.26,4.19,8.63,1.96.94,3.84,1.71,6.06,1.71,5.21,0,10.76-.43,15.72-2.05,1.37-.34,4.53-2.31,5.47-3.16.51-.6.85-1.11,1.11-1.71-1.11-.43-2.56-1.2-3.33-1.45-1.28-.43-2.65-.6-3.93-.94l-.77-.26c-1.37-.43-2.73-.94-4.1-1.37-1.96-.6-3.93-1.2-5.89-1.71l1.88-5.89ZM639.52,226.36c.94,0,2.05.26,2.65,1.03.68.77,1.11,1.62,1.11,2.73,0,.94-.43,1.88-1.11,2.65-.6.6-1.71,1.2-2.65,1.2-2.05,0-3.76-1.88-3.76-3.84,0-2.22,1.54-3.76,3.76-3.76ZM649.34,226.36c.94,0,2.05.26,2.65,1.03.68.77,1.11,1.62,1.11,2.73,0,.94-.43,1.88-1.11,2.65-.6.6-1.71,1.2-2.65,1.2-2.05,0-3.76-1.88-3.76-3.84,0-2.22,1.54-3.76,3.76-3.76Z"/>
    <path class="st0" d="M650.37,193.65c1.28-.09,2.48-.17,3.67-.26,1.71-.09,3.25-.26,5.21-.6,1.54-.26,2.82-.85,4.27-1.28.09-1.88.26-3.67.26-5.64v-.85c-2.9,2.05-5.81,3.84-9.48,3.84-2.22,0-5.98-1.54-6.75-3.76-.51-1.62-.94-3.33-.94-5.47,0-1.96.34-2.9.51-4.53.26-1.79,1.45-3.84,2.05-5.3,1.2-2.73,4.7-5.13,7.69-5.13,2.22,0,5.3,1.96,6.58,3.76,2.22,2.9,3.42,5.13,4.01,8.8.26,1.71.17,3.76.17,5.3,0,3.08,0,9.22-1.71,11.87-.43.6-2.31,3.08-2.9,3.42-.94.94-2.31,1.45-4.01,2.13-.68.17-1.45.34-2.39.51l-6.24-6.83ZM663.27,180.66c-.77-2.82-2.31-6.06-4.7-7.86-1.2-.34-2.39-.85-3.84-.85-1.45-.09-2.65.6-3.33,1.03-.6.77-1.2,3.33-1.11,4.7,0,3.76,2.31,4.27,4.36,4.27,2.22,0,6.32-.85,8.63-1.28ZM657.12,150.08c2.22,0,4.01,1.62,4.01,3.93,0,1.02-.51,2.05-1.2,2.82-.68.68-1.79,1.28-2.82,1.28-2.14,0-4.01-1.96-4.01-4.1,0-2.31,1.79-3.93,4.01-3.93Z"/>
  </g>
</svg>