<?xml version="1.0" encoding="UTF-8"?>
<svg id="Layer_1" xmlns="http://www.w3.org/2000/svg" version="1.1" viewBox="0 0 273.43 366">
  <!-- Generator: Adobe Illustrator 30.2.1, SVG Export Plug-In . SVG Version: 2.1.1 Build 1)  -->
  <defs>
    <style>
      .st0 {
        fill: #1e8f64;
      }
    </style>
  </defs>
  <path class="st0" d="M189.02,83.54c.34.04,1.01.32,1.39.43.17.17.4,1.62.42,1.97.52,6.72-.15,14.36.01,21.27.05,2.1-.34,5.72.09,7.58.32,1.38,1.93,2.44,2.88,3.44,5.18,5.38,11.25,10.87,16.18,16.4.63.7,2.27,2.3,2.04,3.17l-75.74,75.13-12.17-12.17c-19.33-19.57-38.95-38.9-58.07-58.66-.88-.91-4.61-4.27-4.9-5.09-.17-.5,1.56-2.28,2.01-2.77,2.07-2.26,4.47-4.26,6.62-6.41,4.39-4.37,8.77-8.74,13.09-13.17.37-8.91.4-17.87.41-26.8l.31-4.52c.45-.32,9.71-.19,11.11-.18.55,0,1.02.2,1.52.21,5.87.06,11.74-.01,17.61.15,4.05-3.87,7.92-7.93,11.91-11.85,1.83-1.8,3.74-3.57,5.57-5.36.91-.89,4.52-4.96,5.52-4.95s2.63,1.7,3.37,2.38c3.98,3.71,7.93,8.07,11.82,11.94,2.55,2.54,4.97,5.2,7.61,7.62,1.29.33,7.03-.33,7.73.23.52.42-.02,3.01-.33,3.54-.51.9-2.37.49-2.47.98.36,1.47,1.3,1.99,2.58,2.58l9.59-43.7c1.21.43.74,2,.86,2.97,1.23,10.02,3.22,20.99,5.04,30.99.43,2.36,1.32,4.93,1.64,7.17.22,1.54.06,3.37.41,4.95-.05.34-.3.66-.66.67-.34.02-2.54-.91-3.33-1.08-2.22-.47-6.7-.66-8.89-.2-.41.09-1.86.51-1.84.97l.19.49c1.09.42,1.94-.41,2.76-.54.53-.08,1.72-.18,2.29-.2,3.05-.11,6.42.6,9.12,2l.18,13.43c.23.65.82,1.19,1.53,1.06.1-.49-.18-.95-.17-1.42.1-5.56.75-13,.17-18.42-.22-2.05-1.68-3.05-1.73-5.18,0-.38.13-.69.2-1.04,1.44.12,3.1-.16,4.5,0ZM152.12,82.97l-1.46-1.9c-4.19-3.71-7.8-8.49-11.88-12.27-.38-.35-1.42-1.2-1.88-1.17-1.05.2-1.45,1.29-2.12,1.93-3.64,3.51-7.25,7.07-10.84,10.63-.79.78-1.8,1.57-2.59,2.4l.19.38h30.57ZM109.37,87.57l-21.19-.02c-.39.37-.43.75-.47,1.25-.51,5.56.08,12.48.02,18.23,0,.69-.48,1.29.18,1.92l21.47-21.38ZM157.1,170.66v14.09l1.6-.03.31-.45v-13.24c.03-.35-.41-.19-.4-.55.05-2.57.95-6.18-.74-8.4-.39-.51-.95-.67-1.38-1.54-.88-1.74-1.05-4.56.02-6.18,2.99-1.5,5.95-2.51,9.3-1.42h21.96c-.24-.88.35-1.45.4-2.21.07-1.18-.2-3.03-.2-4.41-.01-5.55-.18-11.17.18-16.69.13-2.02-.19-4,1.66-5.45.34-.06.91.66.85,1.03.22,8.99-.29,17.96-.54,26.9,0,.31-.06.4.25.61.63-.52,1.61-.94,2.21-1.43,2.86-2.33,5.96-6.17,8.68-8.85.92-.91,1.87-1.72,2.8-2.66.81-.81,2.62-1.73,1.63-2.95-2.2-2.14-4.44-4.25-6.61-6.43-1.94-1.95-4.15-3.98-6.04-6.04-.51-.56-.83-1.6-1.04-1.83-.08-.08-1.85-.9-1.99-.87-.82,1.39-2.23,2.01-2.75,3.62-.41,1.3-.21,2.81-.26,4.17-.21,5.62-.15,11.48-.36,17.07-.04,1,.12,2.2-.03,3.22-.13.85-1.02,1.25-1.82,1.27-1.93.05-4.18-.2-6.12-.21-4.63-.03-9.27.04-13.91,0,.05-5.65-.06-11.32,0-16.97.02-2.35.68-6.28-.14-8.47-.97-2.58-5.83-4.93-.77-6.25,3.68-.96,11.56-.64,15.59-.52,2.07.06,4.69.56,6.68.51.21,0,.45-.08.65-.17.73-.73-1.17-3.22-1.77-3.22-.75,0-.31,1.39-1.52,1.55-2.7.37-6.39-.18-9.22.19-1.24-.52-5.71.25-6.43-.66-.15-.19-.15-.36-.18-.59-.42-3.11.19-6.66.21-9.78.01-2.06.01-4.11,0-6.14,0-2.22-1.02-2.99-2.41-4.51-1.59-1.74-3.5-3.72-5.17-5.37-1.76-1.73-2.87-3-5.55-3.07-.84-.02-1.56.22-2.3.21-11.74-.22-23.51-.26-35.27-.19-.36.06-1.33.61-1.65.85-.94.7-4.2,3.92-4.96,4.86-.67.82-1.3,1.45-.59,2.43.42.58.99.64,1.33.97,11.01,10.88,27.01,14.5,34.08,29.17,3.63,7.54,4.69,19.22,4.08,27.56-.07.93-.41,1.85-.47,2.78-.83.53-1.67.17-2.5.17-10.61.04-21.3.13-31.82.21-6.89.05-14.52-.46-21.29-.02-.72.05-1.47.25-2.2.29l-.29.29c-.42.95.17,1.15,1,1.3,2.29.4,4.1.05,6.27.04,16.73-.13,33.52.46,50.22.6,1.99.02,3.7-1.07,3.94,1.8.1,1.19.19,4.9,0,5.95-.09.5-.82.74-1.29.82-4.96.82-11.85-.52-17.02.05-10.72-.2-21.6-.22-32.4-.21-.7-.03-1,.76-.72,1.3.44.89,4.1,1.34,5.13,1.4s2.22,0,3.27,0c14.28-.13,28.45.02,42.74.18,1.31.01,2.89-.17,4.16.05.33.06.68.17.91.43ZM82.73,151.97v-30c0-.07-.55-.66-.77-.4-1.34,1.52-2.7,3.08-4.12,4.52-2.17,2.2-4.4,4.41-6.6,6.63-.86.86-3.88,3.08-3.83,4.21l14.39,15.01.93.03ZM121.3,184.71c.28.29,4.08.34,4.65.23,1.39-.27.67-2.28.69-3.14.04-1.77.28-3.58.18-5.4-.1-1.79-.32-3.91-2.18-4.72-.68-.3-1.21-.42-1.91-.11-1.18.53-1.4,1.4-1.63,2.59-.42,2.11-.45,6.78-.25,8.97.05.59.26,1.02.44,1.57ZM137.12,171.38c-1.07.28-1.71,1.52-1.85,2.56-.13.96.16,1.86.14,2.67-.06,2.12-.63,5.04-.3,7.05.06.35.32,1.15.66,1.26,1.78-.22,5.09,1.01,5.25-1.6.03-.54-.21-1.01-.21-1.52-.02-2.06.38-7.19-.42-8.78-.52-1.03-2.1-1.93-3.27-1.62ZM108.89,176.04c.46.49,2.44,2.7,2.79,2.88s.83-.32.92-.63c.34-1.15-.27-5.04-1.01-6.01-1.49-1.97-6.24-.23-3.66,2.89.26.31.65.53.96.87ZM154.74,173.12c-.25-.36-2.23-1.58-2.73-1.57-.22,0-1.42.68-1.62.85-1.43,1.22-.92,6.51-.96,8.43-.02.9-.63,3.32.31,3.94.61.4,4.47.56,5.05.28,1.06-1.38.4-3.42.37-4.98-.02-1.39.23-6-.43-6.95ZM143.04,200.59c2.9-2.86,5.66-5.92,8.5-8.84.86-1.34.05-1.71-1.24-1.83-4.18-.39-9.49.04-13.82.02-4.88-.03-9.27-.02-14.18.15-.84.03-1.77-.54-2.6.33l16.05,16.15,1.31-.14c1.36-1.44,2.79-3.04,4.2-4.41.47-.46,1.28-.94,1.76-1.41Z"/>
  <path class="st0" d="M246.23,230.56v12.27h-45.91c-.26,0-1.79-.75-2.08-.99-1.92-1.61-1.64-5.27.58-6.46.85-.46,2.73-.57,3.02-.78.19-.14.03-.47.23-.61.31-.22,2.27-.13,2.76.02v6.52h3.64v-5.75h2.88v5.75h4.22v-5.65c0-.56,2.23.11,2.68-.1v5.75h9.97c-.77-1.48-.55-3.58.76-4.7,1.59-1.37,4.54-1.23,5.76.58.09.14.57,1.09.57,1.15v2.97h1.73v-3.55c0-.37-.58-1.48-.86-1.82-1.67-2.03-4.61-.89-6.8-.58.1-.55-.84-1.86-.39-2.2.35-.26,2.44-.63,2.98-.67,2.68-.22,6.03.11,7.28,2.87.23.51.67,2.1.67,2.59v3.35h3.64v-9.97h2.68ZM201.96,237.08c-2.8-.23-2.81,3.64,0,3.45v-3.45ZM232.19,237.51c-2.29-.76-1.92,3.36.24,3.02l-.24-3.02Z"/>
  <path class="st0" d="M143.3,230.56v9.97h3.26c-.24-1.35-.32-3.71.56-4.85.68-.88,3.78-1.06,4.82-.82,2.01.47,3.23,3.37,2.34,5.2.02.14.54.47.61.47h2.78v-9.97h2.68v9.97h10.54c-.3-1.02-1.02-1.79-1.43-2.88-.17-.45-.58-1.33-.46-1.77.95-2.18,8.27-2.41,8.76-.58.21.79-.69,3.2-1.16,3.95-.29.46-.89.7-.93,1.28h4.41v-9.97c.91.13,2.15-.31,2.88.29v11.98h-7.95c-.41,0-1.44-.7-1.73-.7-.24,0-.89.47-1.28.57-2.17.55-14.22.38-16.94.14-.91-.08-1.8-.76-2.1-.77-.41-.01-1.39.76-1.73.76h-10.54l-.29-.29v-11.69c.72-.6,1.97-.16,2.88-.29ZM174.93,236.5c-1.07-.12-2.04-.32-2.99.38-.25.4.91,1.9,1.26,2.22.62.28,2.1-1.88,1.73-2.6ZM149.26,240.51c3.21.36,3.3-4.59-.03-3.12-.33,1.01-.2,2.11.03,3.12Z"/>
  <path class="st0" d="M64.71,230.56v9.97h13.03v-4.6c.91.13,2.15-.31,2.88.29v4.31c.78.12,2.3,0,2.3-1.05v-3.55h2.68c.37,2.02-1.05,4.95,2.3,4.6v-5.75c3.9-.9,2.61.78,2.67,3.36.04,1.44.61,3.35-.09,4.69h-4.22c-.18,0-1.1-.77-1.54-.76-.32.01-1.16.76-1.53.76h-27.89v-2.3h2.68l-1.92-7.86h2.88l1.73,7.86h1.34s0-9.97,0-9.97h2.68Z"/>
  <path class="st0" d="M174.16,252.03h2.36c.13.03.32.43.32.48v8.91h3.07c-1.42-3.22,1.43-6.27,4.73-5.02.94.36,1.73,1.07,1.93,2.09.28,1.39-.66,3.89,1.77,2.64v-2.88c0-.25-.56-1.61-.76-1.87-.82-1.03-2.33-1.18-3.56-1.11-.62.04-2.64.7-2.87.39s-.66-1.71-.29-2.02c.32-.26,2.97-.66,3.54-.68,1.92-.07,4.4.48,5.56,2.13.48.68,1.07,2.36,1.07,3.15v5.27l-14.38.19c-.04,2.99-2.95,3.67-5.47,3.46-4.24-.36-4.61-4.64-3.12-7.83l2.27-.03c.07,1.53-.89,3.33-.08,4.78s3.91,1.09,3.91-1.04v-11.02ZM182.86,261.15c1.91.98,1.43-1.96.88-2.5-1.12-1.12-2.21,1.82-.88,2.5Z"/>
  <path class="st0" d="M29.06,234.01v6.52h10.35v-5.65l.31-.27c.45.34,2.37-.29,2.37.27v5.65h3.83c-.6-2.81-.44-5.42,2.97-5.75,5.92-.57,6.58,6.38,1.64,7.96l-25.61.1c-4.78-.43-4.85-7.13-.52-8.01.48-.1,1.07.05,1.46-.07.34-.11.39-.68.7-.84.42-.22,1.95.2,2.49.1ZM26.38,240.53v-3.16c0-.19-.45-.3-.67-.3-2.43.02-1.96,3.98.67,3.47ZM50.47,239.9c1.18-1.33.14-3.6-1.75-2.61-.73.93-.55,2.19-.08,3.22.38.25,1.55-.29,1.83-.61Z"/>
  <path class="st0" d="M154.04,252.03v11.5c-.35.09-.68.17-1.05.2-8.53.67-17.98-.48-26.6-.06-2.94-.31-3.1-3.42-2.23-5.67l2.27-.03v2.78c0,.08.76.67.86.67h4.7v-5.27c.66-.59,1.83-.17,2.68-.29v5.56h4.03v-5.56c.85.12,2.02-.3,2.68.29v5.27h3.55l.29-.29v-5.27c.85.12,2.02-.3,2.68.29v5.27h3.16l.29-.29v-9.1h2.68Z"/>
  <path class="st0" d="M69.89,255.86c-.06.19.19.42.19.48v5.08h3.45v-4.41h2.49v4.12c.48.7,2.3.15,2.3-.58v-3.55l2.5.08c.48.34-.08,3,.27,3.75.29.61,2.01,1.03,2.01-.1v-4.89h2.49v7.57l-.29.29h-3.26c-.44,0-1.68-.91-1.95-.93s-.56.43-.91.56c-2.83,1.07-6.35-.18-9.22.55-.31,3.72-4.92,3.9-7.56,2.5l1.14-2.02c1.11.47,3.7,1.17,3.55-.66-3.89.63-5.93-3.55-3.55-6.42.44-.54,2.36-1.43,2.97-1.43h3.35ZM67.4,258.16c-1.14-.17-2.04.47-2.1,1.65-.06,1.32.88,1.92,2.1,1.61v-3.26Z"/>
  <path class="st0" d="M116.08,255.86v7.57l-.29.29h-9.01c-.31,0-1.41-.54-1.72-.77-1.33-.98-2.57-4.78-4.08-1.82.06.74,3.5.75,3.42,3.25-.06,1.73-1.67,2.58-3.19,2.76-1.18.14-4.35.17-5.49-.02-2.89-.49-2.82-4.58-1.94-6.67h2.18c.1,1.06-.39,2.08-.15,3.13.07.3.86,1.29,1.01,1.29h4.41c.06,0,.35-.39.48-.48-.62-.74-1.86-.55-2.59-1.24-2.35-2.25,2.21-7.7,5.28-4.71.71.69,1.42,2.35,2.22,2.76.79.4,1.71.16,2.56.21-.81-1.66-.46-3.86,1.21-4.83.28-.16,1.74-.73,1.96-.73h3.74ZM111.93,260.98c1.95,1.79,1.94-1.5,1.49-2.73-1.53-.55-2.59,1.72-1.49,2.73Z"/>
  <path class="st0" d="M123.94,234.01v6.52h4.03v-5.75c.44.19,2.88-.54,2.88.1v5.65h4.03v-5.75c1.02.15,1.91-.41,2.88,0v8.05h-18.5c-.79,0-2.38-1.26-2.76-2.04-1.22-2.5-.03-5.22,2.65-5.93.49-.13,1.44-.06,1.8-.27.23-.14,0-.51.24-.59.36-.13,2.76-.26,2.76,0ZM121.07,237.08c-2.87-.32-2.78,3.79,0,3.45v-3.45Z"/>
  <path class="st0" d="M216.14,252.03v9.39h3.45v-5.27c.59-.47,2.12-.46,2.68,0v5.27h4.22v-5.27c.57-.46,2.1-.47,2.68,0v7.38h-15.72v-11.5h2.68Z"/>
  <path class="st0" d="M46.7,261.42h3.93l.29-.29v-5.27c.85.12,2.02-.3,2.68.29v7.38c-.35.09-.68.17-1.05.2-2.37.19-6.67.2-9.01-.01s-4.27-1.34-4.27-3.93c0-2.68,2.3-3.94,4.74-3.96-.16-1.04,2.12-.93,2.7-.45v6.04ZM44.01,258.16c-2.67-.28-2.6,3.51,0,3.26v-3.26Z"/>
  <path class="st0" d="M102.09,230.56v9.87c0,.7-1.7,2.4-2.4,2.4h-7v-2.3h2.68l-1.92-7.86h2.88l1.82,7.67c.4.59,1.24-.5,1.24-1.05v-8.72h2.68Z"/>
  <path class="st0" d="M237.42,252.03l2.37.03.31.45c-.46,2.88,1.37,9.71-2.11,10.92-1.14.4-4.97.45-6.24.3-.21-.02-.44,0-.58-.19l-.08-2.12h2.49s-1.72-7.47-1.72-7.47h2.68l1.73,7.48c.46.01,1.15-.66,1.15-1.05v-8.34Z"/>
  <path class="st0" d="M211.32,256.27c-.18,3.22-1.06,1.61-2.75,1.69-1.92.1-1.71,1.88-1.25,3.27l2.6-.9c1.9,2.68-.56,2.08-2.2,3.12-.76.48-1.67,1.33-.99,2.3.81,1.13,3.09-.12,3.47.16l.37,2.02c-1.75.45-3.26.94-5.02.15-2.26-1.01-2.17-4.45-.13-5.63-.2-.95-.89-1.65-.98-2.66-.33-3.85,4.03-4.81,6.88-3.52Z"/>
  <path class="st0" d="M60.31,255.86v9.1c0,.09-.81,1.38-.97,1.52-1.35,1.18-3.79.76-5.18-.2-.06-.33.7-1.58.97-1.72.34-.18,1.98,1,2.45-.41l.26-8.27,2.46-.03Z"/>
  <path class="st0" d="M252.18,230.56v12.27h-2.88v-11.98c.72-.6,1.97-.16,2.88-.29Z"/>
  <path class="st0" d="M107.84,230.56v12.27h-2.88v-11.79c0-.06.25-.29.19-.48h2.68Z"/>
  <rect class="st0" x="186.05" y="230.56" width="2.68" height="12.27"/>
  <path class="st0" d="M156.91,263.53v-11.5c.85.12,2.02-.3,2.68.29v11.12c-.26.55-2.68.23-2.68.1Z"/>
  <path class="st0" d="M193.52,253.08c.16-.53,2.19-.28,2.68-.09.11.25-.19.57-.19.67v9.78c-.63.57-1.74.27-2.49.1v-10.45Z"/>
  <path class="st0" d="M26.19,231.52h.38c.04-.32.19-.63.52-.73,2.96-.91,2.28,4.1-.38,2.26-.15-.1-.16-.66-.52-.38-.06.05-.01.49-.57.68-1.62.55-2.13-1.06-1.56-2.33.41-.52,2.15-.45,2.13.5Z"/>
  <path class="st0" d="M201.96,231.71c.43-.15.44-.78.9-.92,3.22-1,1.77,4.94-.9,1.69-.45,1.6-2.5,1.17-2.51-.48,0-1.56,2.45-1.85,2.51-.29Z"/>
  <path class="st0" d="M216.53,244.94h.38c.53-1.64,2.75-.83,2.46.82-.22,1.23-2.2,1.31-2.56.14-1.23,1.8-3.37.7-2.42-1.46.78-.52,1.93-.58,2.13.5Z"/>
  <path class="st0" d="M98.44,243.8c.15.17-.13,1.1-.37,1.25-.37.22-1.8-.6-1.34.85l1.74-.11.18,1.26c-.7-.1-3.4.7-3.75.21s.18-.98.21-1.26c.03-.32-.15-.7-.09-1.14.22-1.57,2.32-1.36,3.44-1.06Z"/>
  <path class="st0" d="M135.83,231.52c-.63.92,1.53.8,1.91.58l.12,1.35-3.75.37c-.36-.87.38-1.19.39-1.26.02-.51-.48-1.08-.01-1.87s3.24-1.1,3.27-.05c.03,1.37-1.68.53-1.92.87Z"/>
  <path class="st0" d="M207.71,233.82c-.36-.87.38-1.19.39-1.26.01-.3-.27-.72-.19-1.31.17-1.31,2.46-1.64,3.36-.88l-.29,1.07c-.41.28-1.38-.51-1.54.56.3.63,1.6.07,1.73.18l.29,1.27-3.75.38Z"/>
  <path class="st0" d="M139.66,265.45h.38c.42-1.13,2.24-.93,2.29.5.05,1.52-1.77,2.03-2.29.65h-.28c-.56,1.23-2.33.91-2.38-.5-.05-1.51,1.77-1.93,2.29-.66Z"/>
  <path class="st0" d="M129.12,254.71c.39-.1.06-.55.62-.82,2.93-1.43,2.08,4.84-.52,1.59-.47.93-1.6,1.28-2.3.38-1.21-1.55,1.56-3.3,2.2-1.15Z"/>
  <path class="st0" d="M227.64,253.37h.38c.54-1.65,2.82-.87,2.22.97-.36,1.1-2.21,1-2.31-.2-.68,1.63-2.91,1.16-2.55-.63.24-1.19,2.02-1.48,2.27-.14Z"/>
  <path class="st0" d="M50.92,265.83c.36-.11.15-.52.57-.86,1.56-1.25,2.83,1.59,1.29,2.25-1.41.61-1.67-.87-1.77-.81-.44.9-1.49,1.37-2.21.48-1.31-1.61,1.65-3.44,2.12-1.06Z"/>
  <path class="st0" d="M98.64,269.28c.37-.1.35-.67.77-.86,2.34-1.06,2.51,3.08.13,2.36-.59-.18-.47-.92-.9-1.11l-.32.97c-1.34.57-2.27-.18-1.94-1.6.29-1.25,2.3-1.06,2.26.24Z"/>
  <path class="st0" d="M234.72,253.17c-1.09-.09-4.01,1.24-3.64-.66l.59-.1c-.74-1.8.41-2.74,2.19-2.48.46.07.88.19.75.71-.32,1.23-1.46.07-1.79,1.1,1.01.83,2.19-.79,1.9,1.43Z"/>
  <path class="st0" d="M196.4,250.69v1.34s-3.44.38-3.44.38c-.11-.08.16-2.41.23-2.73.28-1.31,3.19-1.1,3.14-.32l-.3.68c-.24.17-1.73-.33-1.54.56.14.66,1.76-.06,1.91.1Z"/>
  <path class="st0" d="M123.51,230.99c.65.64.34,2.46-1.01,2.46s-1.65-1.81-1.01-2.46c.33-.33,1.68-.33,2.02,0Z"/>
  <path class="st0" d="M129.55,246.43c-.67-.67-.25-2.59,1.18-2.45,1.22.12,1.44,1.86.79,2.5-.33.33-1.67.26-1.97-.05Z"/>
  <path class="st0" d="M119.28,230.79c2.6-.79,2.33,3.31.05,2.56-1.08-.35-.95-2.29-.05-2.56Z"/>
  <path class="st0" d="M127.06,246.61c-.18-.12-.43-.75-.45-1-.22-2.35,3.65-1.96,2.33.78-.34.44-1.45.49-1.88.22Z"/>
  <path class="st0" d="M41.66,244.01c1.8-.32,2.22,2.69.31,2.79-1.66.09-1.67-2.55-.31-2.79Z"/>
  <path class="st0" d="M40.33,244.41c.71.7.15,2.32-1.04,2.39-1.57.09-1.79-2.69-.13-2.76.22-.01,1.03.24,1.17.37Z"/>
  <path class="st0" d="M147.47,265.12c.98,1.21-.79,3.21-1.95,1.86-1.23-1.43.91-3.15,1.95-1.86Z"/>
  <path class="st0" d="M114.12,252.85c.59.62.24,2.17-.81,2.27-2.68.25-.96-4.14.81-2.27Z"/>
  <path class="st0" d="M45.45,252.12c1.67.06,1.65,2.93-.38,2.59-1.24-.21-1.33-2.65.38-2.59Z"/>
  <path class="st0" d="M43.78,254.48c-1.57.82-2.56-.48-1.89-1.98,1.66-1.18,2.69.36,1.89,1.98Z"/>
  <path class="st0" d="M220.88,264.72c1.53-.14,1.78,2.68-.05,2.66-1.35-.01-1.79-2.5.05-2.66Z"/>
</svg>