<?xml version="1.0" encoding="UTF-8"?>
<svg id="Layer_1" xmlns="http://www.w3.org/2000/svg" version="1.1" viewBox="0 0 245.45 270">
  <!-- Generator: Adobe Illustrator 30.2.1, SVG Export Plug-In . SVG Version: 2.1.1 Build 1)  -->
  <defs>
    <style>
      .st0 {
        fill: #fff;
      }

      .st1 {
        fill: #b9a782;
      }

      .st2 {
        fill: #cec29d;
      }
    </style>
  </defs>
  <g>
    <path class="st2" d="M216.04,64.65c-.77,3.98-2.68,8.8-4.24,12.6-16.17,39.44-52.71,68.14-95.02,74.3l-95.49,11.12,2.39-1.42c41.62-20.77,83.01-42,124.55-62.92,9.54-4.8,19.64-9.44,29.08-14.54,11.67-6.43,24.84-11.58,36.31-18.2.39-.22.87-.43.9-.95.39-.09.14.37.22.43.12.1.99-1.03,1.3-.43Z"/>
    <path class="st1" d="M148.22,98.34c-14.61-4.56-28.61-10.64-41.88-18.22-18.28-10.45-35.49-23.26-50.94-37.53-3.31-3.06-6.99-7.45-10.57-9.76-.49-.32-.61-1.09-.95-1.49-.28-.32-2.31-1.96-1.94-2.34.76.49,1.7-.11,2.25,0,.11.02,1.44.74,2,.87,1.12.26,3.11.22,4.08.45,9.91,2.37,20.35,4.07,30.31,6.5l135.68,27.19c.14.33-.2.56-.22.65-.31-.59-1.18.54-1.3.43-.08-.07.18-.52-.22-.43-.03.52-.51.73-.9.95-11.47,6.62-24.65,11.77-36.31,18.2-9.45,5.1-19.54,9.74-29.08,14.54Z"/>
  </g>
  <g>
    <g>
      <path class="st0" d="M62.61,189.82h.62c0-1.78.19-2.92,1.05-3.95.71-.84,1.78-1.27,3.16-1.27h1.57c2.81,0,4.19,1.46,4.19,4.49v6.14h-5.75c-2.32,0-3.44-.88-3.99-2.66h-.92c-.9,0-2,.37-2,2.17v2.56l-2.53,1.48v-4.04c0-3.31,1.5-4.92,4.62-4.92ZM67.34,192.59h3.35v-3.5c0-1.52-.86-1.83-1.57-1.83h-1.67c-1.12,0-1.7.56-1.7,1.61v1.91c0,1.48.86,1.8,1.59,1.8Z"/>
      <path class="st0" d="M75.82,189.56v-9.6l2.51,1.5v8.37c0,1.33.73,2.04,2.1,2.04h1.46v2.64h-1.4c-3.16,0-4.68-1.63-4.68-4.96Z"/>
      <path class="st0" d="M88.06,191.88v2.64h-6.81v-2.64h6.81Z"/>
      <path class="st0" d="M94.22,191.88v2.64h-6.81v-2.64h6.81Z"/>
      <path class="st0" d="M100.38,191.88v2.64h-6.81v-2.64h6.81Z"/>
      <path class="st0" d="M102.66,191.88v-5.86l2.51-1.29v7.15h2.3c.77,0,1.35-.64,1.35-1.35v-4.51l2.49-1.29v7.15h1.57c1.35,0,2.06-.75,2.06-2.15v-3.71l2.51-1.29v4.83c0,3.33-1.52,4.94-4.66,4.96h-13.05v-2.64h2.92ZM107.51,180.74h2.21v2.17h-2.21v-2.17ZM108.95,177.82h2.19v2.17h-2.19v-2.17ZM110.43,180.74h2.21v2.17h-2.21v-2.17Z"/>
      <path class="st0" d="M123.94,195.34c-.82-.9-1.18-2.4-1.18-3.93,0-4.04,1.59-5.22,4.96-5.22l-.43,2.56c-1.27.06-1.95.84-1.95,2.21,0,2.04.58,3.03,2.15,3.03h7.62c.75,0,1.31-.21,1.63-.62.41-.52.47-1.44.47-1.95v-.24h-5.69v-2.96c.17-3.07,2.1-5.41,5.26-5.78l.67-.02c1.05-.04,2,.26,2.81.73l-.9,2.21c-.62-.15-1.25-.19-1.72-.19-.36,0-.69.02-.97.09-.15,0-.21.04-.37.11-.19,0-.3.11-.3.11-.06.06-.09.06-.15.06-1.7.84-1.8,2.79-1.8,2.96v.02h5.8v4.55c0,1.98-1.61,3.56-3.56,3.56h-8.2c-1.52,0-3.2-.39-4.14-1.29ZM128.75,198.06h2.21v2.17h-2.21v-2.17ZM131.67,198.06h2.21v2.17h-2.21v-2.17Z"/>
      <path class="st0" d="M145.82,191.88l-1.95-8.74,2.43-1.61,2.3,10.35c1.27-.15,1.93-.67,1.93-2.04v-8.2l2.51-1.5v9.43c0,.75-.09,1.44-.26,2.02l-.09.3h2.45v2.64h-12.26l.73-2.64h2.21Z"/>
      <path class="st0" d="M161.3,191.88v2.64h-6.81v-2.64h6.81Z"/>
      <path class="st0" d="M167.46,191.88v2.64h-6.81v-2.64h6.81Z"/>
      <path class="st0" d="M169.87,189.5c0-2.17.24-3.39,1.14-4.51.92-1.1,2.1-1.44,3.99-1.44,2.86,0,4.68,1.44,4.68,4.9v6.08h-12.86v-2.64h3.35c-.19-.86-.3-1.44-.3-2.38ZM174.47,191.88h2.64v-3.44c0-1.4-.73-2.13-2.1-2.13h-.45c-1.37,0-2.1.73-2.1,2.1v1.2c0,1.87,1.1,2.25,2.02,2.25ZM173.5,179.64h2.21v2.17h-2.21v-2.17Z"/>
    </g>
    <g>
      <path class="st0" d="M69.81,202.9l-.45,2.76h-8.32v5.47h7.15l.45,2.79h-7.59v7.9h-3.15v-18.93h11.92Z"/>
      <path class="st0" d="M75.56,203.32v15.72h8.46l.45,2.79h-12.03v-18.93l3.13.42Z"/>
      <path class="st0" d="M85.76,202.9h3.41l4.66,9.02,4.63-9.02h3.32l-6.45,12.37v6.56h-3.13v-6.56l-6.45-12.37Z"/>
      <path class="st0" d="M107.42,212.64c0-5.95,2.6-9.46,7.93-9.46,2.35,0,3.94.36,5.92,1.2l.45,2.82c-2.79-.92-4.38-1.31-6.14-1.31-3.27,0-5.08,2.15-5.08,6.76s1.81,6.73,5.08,6.73c1.81,0,3.38-.39,6.14-1.26l-.45,2.79c-1.98.84-3.57,1.2-5.92,1.2-5.33,0-7.93-3.52-7.93-9.46Z"/>
      <path class="st0" d="M128.19,213.42v8.4h-3.13v-18.93l3.13.42v7.34h7.98v-7.76l3.13.42v18.51h-3.13v-8.4h-7.98Z"/>
      <path class="st0" d="M146.7,216.91l-1.68,4.55-3.21.45,7.15-18.93h2.51l6.95,18.93-3.32-.45-1.62-4.41-6.78-.14ZM152.73,214.45l-2.6-7.4-2.68,7.4h5.28Z"/>
      <path class="st0" d="M171.16,218.84h-2.12l-5.16-10.16.03,13.15h-2.96v-18.93h3.46l5.81,11.56,5.72-11.56h3.52v18.93h-3.15l.06-13.15-5.19,10.16Z"/>
    </g>
  </g>
</svg>