<?xml version="1.0" encoding="UTF-8"?>
<svg id="Layer_1" xmlns="http://www.w3.org/2000/svg" version="1.1" viewBox="0 0 308 322">
  <!-- Generator: Adobe Illustrator 30.2.1, SVG Export Plug-In . SVG Version: 2.1.1 Build 1)  -->
  <defs>
    <style>
      .st0 {
        fill: #bdb297;
      }
    </style>
  </defs>
  <path class="st0" d="M60.65,206.27h57.51c4.62,0,9.05-3.14,10.77-7.34.5-1.23,1.38-3.28.46-4.39h-22.19l-.38-.38v-49.99c0-.81.65-3.52.89-4.47,3.43-13.61,16.07-24.56,30.14-25.72,1.01-.08,2.66-.28,3.41.35l.02,45.78h11.71s-.25-10.29,0-14.41c.99-16.28,14.89-30.61,31.23-31.77,4.29-.3,14.93-.3,14.93-.63v-45.4l.42-.34c17.67.32,32.4,14.13,34.02,31.7v109.7c-1.32,16.81-15.4,30.71-32.27,31.75-15.46.96-48.09,0-48.09,0l-.26-45.8-.38-.38h-10.97l-.38.64c.48,12.17.14,23.6-8.03,33.29-10.44,12.38-25.09,13.17-40.31,12.25-17.76-1.07-32.71-16.47-32.25-34.44ZM187.41,130.39v29.71h11.74v-29.6c-.67-7.35-10.84-6.85-11.74-.11ZM187.41,193.14l.03,30.58c.77,7.33,10.57,7.36,11.67.26l-.1-37.33-11.6,6.5Z"/>
  <path class="st0" d="M61.03,194.54c-.25-.16-.33-.35-.38-.64-.26-1.4.07-3.8.01-5.37-.12-3.12,0-6.1,0-9.16.03-11.37-.65-23.73-.02-34.96.13-2.24.59-4.62,1.11-6.8,4.26-18.15,19.77-32.18,38.19-34.89.41-.33-.03-.46-.38-.51-1.27-.16-26.66.63-37.25.01-.56-.03-1.11-.03-1.61-.3-.58-15.12,10.27-33.05,25.16-33.05,5.29,0,101.34-1.2,101.34-1.2l.24,33.4-.52,1.01-48.85.12c-22.57,1.54-40.94,19.74-42.96,42.23l-.14,49.6c-.06.12-.46.51-.51.51h-33.41Z"/>
  <rect class="st0" x="19.28" y="159.17" width="24.57" height="24.57" transform="translate(-111.99 72.54) rotate(-45)"/>
  <rect class="st0" x="250.39" y="124.56" width="24.4" height="24.55" transform="translate(-19.89 225.62) rotate(-44.97)"/>
  <rect class="st0" x="19.38" y="124.71" width="24.38" height="24.38" transform="translate(-87.55 62.41) rotate(-45)"/>
  <rect class="st0" x="250.33" y="159.27" width="24.39" height="24.39" transform="translate(-44.35 235.85) rotate(-45)"/>
</svg>