<?xml version="1.0" encoding="UTF-8"?>
<svg id="Layer_1" xmlns="http://www.w3.org/2000/svg" version="1.1" viewBox="0 0 841 222.17">
  <!-- Generator: Adobe Illustrator 30.2.1, SVG Export Plug-In . SVG Version: 2.1.1 Build 1)  -->
  <defs>
    <style>
      .st0 {
        fill: #fff;
      }

      .st1 {
        fill: #f7cb22;
      }

      .st2 {
        fill: red;
      }

      .st3 {
        fill: #006837;
      }
    </style>
  </defs>
  <path d="M35.02,180.59v-8.76l10.92-1.85c1.23-.2,2.1-.92,2.61-2.15.51-1.23.87-4.28,1.08-9.15.2-4.87.31-13.25.31-25.14v-13.53c0-11.89-.1-20.27-.31-25.14-.21-4.87-.56-7.92-1.08-9.15-.51-1.23-1.38-1.95-2.61-2.15l-10.92-1.85v-8.76h56.74v8.76l-14.76,1.85c-1.64.21-2.82.92-3.54,2.15-.72,1.23-1.23,4.31-1.54,9.23-.31,4.92-.46,13.28-.46,25.06v27.37c0,7.28.36,12.53,1.08,15.76.72,3.23,2.18,5.38,4.38,6.46,2.2,1.08,5.71,1.51,10.53,1.31l10-.31c3.28-.1,5.77-.67,7.46-1.69,1.69-1.02,3.51-3.38,5.46-7.07,1.95-3.69,4.77-10.1,8.46-19.22l7.84.92-6.15,37.06H35.02Z"/>
  <path d="M136.2,169.06c1.54-1.23,3.08-3.25,4.61-6.07,1.54-2.82,3.48-7.3,5.84-13.45l27.22-70.12-2.46-6.15v-2.77h22.3c1.13,4.41,2.2,8.13,3.23,11.15,1.02,3.03,3.23,9.05,6.61,18.07l1.69,4.61,18.14,48.59c1.85,5.13,3.43,8.89,4.77,11.3,1.33,2.41,2.71,4.15,4.15,5.23,1.43,1.08,3.38,1.92,5.84,2.54v8.61h-50.59v-8.76l11.84-1.69c1.54-.31,2.61-.67,3.23-1.08.62-.41.92-1.33.92-2.77,0-1.54-.44-3.82-1.31-6.84-.87-3.02-2.33-7.46-4.38-13.3l-.92-2.77c-7.79-.2-13.84-.31-18.15-.31s-10.61.1-19.22.31l-1.69,4.46c-3.79,9.84-5.69,16.1-5.69,18.76,0,1.13.25,1.95.77,2.46.51.51,1.33.87,2.46,1.08l15.22,1.69v8.76h-40.9v-8.61c2.77-.72,4.92-1.69,6.46-2.92ZM184.79,133.54h8.61l-14.45-40.29-15.53,40.13c4.82.1,11.94.15,21.37.15Z"/>
  <path d="M278.59,180.59v-8.76l10.92-1.85c1.23-.2,2.1-.92,2.61-2.15.51-1.23.87-4.28,1.08-9.15.2-4.87.31-13.25.31-25.14v-13.53c0-11.89-.1-20.27-.31-25.14-.21-4.87-.56-7.92-1.08-9.15-.51-1.23-1.38-1.95-2.61-2.15l-10.92-1.85v-8.76h56.74v8.76l-14.76,1.85c-1.64.21-2.82.92-3.54,2.15-.72,1.23-1.23,4.31-1.54,9.23s-.46,13.28-.46,25.06v27.37c0,7.28.36,12.53,1.08,15.76.72,3.23,2.18,5.38,4.38,6.46,2.2,1.08,5.71,1.51,10.53,1.31l10-.31c3.28-.1,5.77-.67,7.46-1.69,1.69-1.02,3.51-3.38,5.46-7.07,1.95-3.69,4.77-10.1,8.46-19.22l7.84.92-6.15,37.06h-85.5Z"/>
  <path d="M435.14,175.17c2.19-3.12,3.47-6.91,3.47-10.99v-72.68c0-4.89-.24-9.91-1.35-14.04h17.13c-1.14,4.35-1.3,9.68-1.3,14.79v58.19c0,8.16-3.12,15-9.01,19.8-2.55,2.07-5.57,3.73-8.94,4.93ZM403.48,175.17c-3.37-1.2-6.4-2.86-8.94-4.93-5.9-4.79-9.01-11.64-9.01-19.8v-58.94c0-4.89-.24-9.91-1.35-14.04h17.19c-1.19,4.46-1.36,9.97-1.36,15.24v71.48c0,4.08,1.28,7.87,3.47,10.99Z"/>
  <path d="M494.59,101.4l.31,32.29c.1,11.79.33,20.12.69,24.99.36,4.87.87,7.92,1.54,9.15.67,1.23,1.87,1.95,3.61,2.15l15.22,1.85v8.76h-45.67v-8.76l7.84-1.38c1.54-.41,2.69-1.25,3.46-2.54.77-1.28,1.43-4.46,2-9.53.56-5.07.95-13.3,1.15-24.68l.15-13.07.15-15.99c0-6.56-.13-11.3-.38-14.22-.26-2.92-.64-4.74-1.15-5.46-.51-.72-1.28-1.18-2.31-1.38l-10.76-2v-8.76l29.06.15,61.82,78.58-.31-31.68c-.1-11.89-.33-20.24-.69-25.06-.36-4.82-.92-7.84-1.69-9.07-.77-1.23-2.18-1.95-4.23-2.15l-14.61-1.85v-8.76h45.98v8.76l-7.53,1.38c-1.74.41-3.05,1.31-3.92,2.69-.87,1.38-1.59,4.61-2.15,9.69-.56,5.07-.9,13.2-1,24.37l-.46,59.2-12.15,3.08-63.97-80.73Z"/>
  <path d="M591.01,169.06c1.54-1.23,3.08-3.25,4.61-6.07,1.54-2.82,3.48-7.3,5.84-13.45l27.22-70.12-2.46-6.15v-2.77h22.3c1.13,4.41,2.2,8.13,3.23,11.15,1.02,3.03,3.23,9.05,6.61,18.07l1.69,4.61,18.14,48.59c1.85,5.13,3.43,8.89,4.77,11.3,1.33,2.41,2.71,4.15,4.15,5.23,1.43,1.08,3.38,1.92,5.84,2.54v8.61h-50.59v-8.76l11.84-1.69c1.54-.31,2.61-.67,3.23-1.08.62-.41.92-1.33.92-2.77,0-1.54-.44-3.82-1.31-6.84-.87-3.02-2.33-7.46-4.38-13.3l-.92-2.77c-7.79-.2-13.84-.31-18.15-.31s-10.61.1-19.22.31l-1.69,4.46c-3.79,9.84-5.69,16.1-5.69,18.76,0,1.13.25,1.95.77,2.46.51.51,1.33.87,2.46,1.08l15.22,1.69v8.76h-40.9v-8.61c2.77-.72,4.92-1.69,6.46-2.92ZM639.6,133.54h8.61l-14.45-40.29-15.53,40.13c4.82.1,11.94.15,21.37.15Z"/>
  <rect class="st1" x="718.61" y="159.02" width="105.08" height="21.57" rx="8.3" ry="8.3"/>
  <path class="st1" d="M448.26,82.65c-.35,3.52-.35,6.92-.35,9.6v58.19c0,5.05-1.38,9.32-4.11,12.77v-71.71c0-2.37-.05-5.57-.38-8.85h4.85M395.21,82.65c-.39,3.69-.39,7.25-.39,10.05v70.51c-2.73-3.44-4.11-7.72-4.11-12.77v-58.94c0-2.37-.05-5.57-.38-8.85h4.88M463.01,72.28h-34.39v1.28c4.43,1.35,4.81,11.79,4.81,17.95v72.68c0,7.73-6.38,14.04-14.12,14.04s-14.12-6.31-14.12-14.04v-71.48c0-7.06.3-17.72,4.81-19.15v-1.28h-34.46v1.28c4.43,1.35,4.81,11.79,4.81,17.95v58.94c0,20.57,16.74,32.21,37.17,32.21h3.6c20.42,0,37.17-11.64,37.17-32.21v-58.19c0-7.13.38-17.34,4.73-18.7v-1.28h0Z"/>
  <path class="st1" d="M473.67,51.68h-110.75c-1.79,0-3.25,1.45-3.25,3.25v2.07c0,1.79,1.45,3.25,3.25,3.25h1.18v.41c0,1.79,1.45,3.25,3.25,3.25h101.9c1.79,0,3.25-1.45,3.25-3.25v-.41h1.18c1.79,0,3.25-1.45,3.25-3.25v-2.07c0-1.79-1.45-3.25-3.25-3.25Z"/>
  <g>
    <path class="st1" d="M487.06,35.63v2.43c0,2.11-1.71,3.81-3.81,3.81h-1.38v.49c0,2.11-1.71,3.81-3.81,3.81h-119.53c-2.1,0-3.81-1.7-3.81-3.81v-.49h-1.38c-2.1,0-3.81-1.7-3.81-3.81v-2.43c0-2.11,1.71-3.81,3.81-3.81h129.91c2.1,0,3.81,1.7,3.81,3.81Z"/>
    <path class="st2" d="M487.06,35.63v2.43c0,2.11-1.71,3.81-3.81,3.81h-1.38v.49c0,2.11-1.71,3.81-3.81,3.81h-37.13v-14.35h42.32c2.1,0,3.81,1.7,3.81,3.81Z"/>
    <rect class="st0" x="395.23" y="31.82" width="46.13" height="14.35"/>
    <path class="st3" d="M395.66,31.82v14.35h-37.13c-2.1,0-3.81-1.7-3.81-3.81v-.49h-1.38c-2.1,0-3.81-1.7-3.81-3.81v-2.43c0-2.11,1.71-3.81,3.81-3.81h42.32Z"/>
  </g>
</svg>