<?xml version="1.0" encoding="UTF-8"?>
<svg id="Layer_1" xmlns="http://www.w3.org/2000/svg" version="1.1" viewBox="0 0 408 360.86">
  <!-- Generator: Adobe Illustrator 30.2.1, SVG Export Plug-In . SVG Version: 2.1.1 Build 1)  -->
  <defs>
    <style>
      .st0 {
        fill: #dab07f;
      }
    </style>
  </defs>
  <g>
    <path class="st0" d="M100.86,184.76c.76-2.73,1.24-6,1.43-9.81.19-3.81.29-9.9.29-18.29v-48c0-8.89-.13-15.4-.38-19.52-.26-4.13-.89-7.62-1.9-10.48-1.02-2.86-2.73-5.93-5.14-9.24l30.67-10.67,2.67.57v101.91c0,10.16.25,17.24.76,21.24.51,4,2.03,8.1,4.57,12.29-.89-.13-3.14-.29-6.76-.48-3.62-.19-7.84-.29-12.67-.29-5.08,0-9.08.1-12,.29-2.92.19-4.7.35-5.33.48,1.78-3.93,3.05-7.27,3.81-10Z"/>
    <path class="st0" d="M193.25,171.71c.13-5.84.25-11.68.38-17.52.12-1.01.19-2.35.19-4-8.13,1.27-14.35,3.49-18.67,6.67-4.32,3.18-6.48,6.67-6.48,10.48,0,3.3,1.01,5.84,3.05,7.62,2.03,1.78,4.7,2.67,8,2.67,3.81,0,7.81-1.14,12-3.43l.76.57c-3.3,6.86-6.99,12.1-11.05,15.71-4.07,3.62-9.14,5.43-15.24,5.43s-11.11-1.81-15.05-5.43c-3.94-3.62-5.9-8.1-5.9-13.43,0-7.49,2.73-13.49,8.19-18,5.46-4.51,11.91-7.65,19.33-9.43,7.43-1.78,14.44-2.73,21.05-2.86-.13-7.49-1.59-13.17-4.38-17.05-2.79-3.87-7.75-5.81-14.86-5.81-6.6,0-14.29,2.29-23.05,6.86l-1.14-1.14c3.43-7.11,8.25-12.76,14.48-16.95,6.22-4.19,13.71-6.29,22.48-6.29,9.65,0,17.46,2.7,23.43,8.1,5.97,5.4,8.95,13.37,8.95,23.91l-.38,26.67c0,10.29,2.03,20.19,6.1,29.71-3.56-.38-7.43-.57-11.62-.57-5.59,0-11.18.25-16.76.76-2.54-7.49-3.81-15.24-3.81-23.24Z"/>
    <path class="st0" d="M243.53,184.76c.76-2.73,1.24-6,1.43-9.81.19-3.81.29-9.9.29-18.29v-48c0-8.89-.13-15.4-.38-19.52-.26-4.13-.89-7.62-1.9-10.48-1.02-2.86-2.73-5.93-5.14-9.24l30.67-10.67,2.67.57v101.91c0,10.16.25,17.24.76,21.24.51,4,2.03,8.1,4.57,12.29-.89-.13-3.14-.29-6.76-.48-3.62-.19-7.84-.29-12.67-.29-5.08,0-9.08.1-12,.29-2.92.19-4.7.35-5.33.48,1.78-3.93,3.05-7.27,3.81-10Z"/>
    <path class="st0" d="M299.72,137.14c-.26-4.12-.89-7.62-1.9-10.48-1.02-2.86-2.73-5.93-5.14-9.24l30.67-10.67,2.67.57v56.38c0,8.76.29,15.11.86,19.05.57,3.94,2.06,7.94,4.48,12-.89-.13-3.14-.29-6.76-.48-3.62-.19-7.84-.29-12.67-.29-5.08,0-9.08.1-12,.29-2.92.19-4.7.35-5.33.48,1.78-3.93,3.05-7.27,3.81-10,.76-2.73,1.24-6,1.43-9.81.19-3.81.29-9.9.29-18.29,0-8.89-.13-15.4-.38-19.52ZM311.72,94.95h1.52c6.1-4.19,11.36-9.33,15.81-15.43v-2.1c-4.19-5.59-9.46-10.86-15.81-15.81h-1.52c-6.86,5.84-12.19,11.11-16,15.81v2.1c4.32,5.71,9.65,10.86,16,15.43Z"/>
  </g>
  <g>
    <path class="st0" d="M48.03,266.57c.45-1.57.73-3.46.86-5.66.12-2.2.18-5.49.18-9.85,0-5.47-.13-9.6-.4-12.39-.27-2.79-.83-5.38-1.68-7.74,2.37.16,3.79.24,4.28.24.65,0,1.75-.08,3.3-.24l23.01,25.03-.06-4.96c-.04-4.32-.14-7.6-.31-9.82-.16-2.22-.49-4.12-.98-5.69-.49-1.57-1.26-3.09-2.33-4.56,2.2.16,3.77.24,4.71.24,1.06,0,2.49-.08,4.28-.24-.98,1.51-1.69,3.05-2.14,4.62-.45,1.57-.73,3.46-.86,5.66-.12,2.2-.18,5.49-.18,9.85v19.89h-1.22l-27.23-29.62v9.79c0,4.2.08,7.44.24,9.7.16,2.26.5,4.19,1.01,5.78.51,1.59,1.29,3.12,2.36,4.59-1.47-.16-3.04-.24-4.71-.24s-3.1.08-4.28.24c.98-1.51,1.69-3.05,2.14-4.62Z"/>
    <path class="st0" d="M89.83,244.93c0-3.3-.04-5.68-.12-7.13-.08-1.45-.24-2.63-.49-3.55s-.67-2.03-1.29-3.34c.24.04.86.09,1.84.15.98.06,2.33.09,4.04.09s3.27-.03,4.56-.09c1.29-.06,2.09-.11,2.42-.15-.82,1.27-1.36,2.94-1.62,5.02-.27,2.08-.4,4.41-.4,6.98v14.26c0,3.3.04,5.68.12,7.13.08,1.45.24,2.63.49,3.55s.67,2.03,1.29,3.34c-.24-.04-.86-.09-1.84-.15-.98-.06-2.33-.09-4.04-.09s-3.22.03-4.53.09c-1.31.06-2.12.11-2.45.15.82-1.31,1.36-3,1.62-5.08.26-2.08.4-4.43.4-7.04v-14.14Z"/>
    <path class="st0" d="M110.73,266.23c-3.41-3.55-5.11-8.59-5.11-15.12s1.7-11.64,5.11-15.21c3.41-3.57,8.37-5.35,14.9-5.35,1.75,0,4.06.24,6.92.73,2.12.37,3.75.55,4.9.55.37,0,.88-.04,1.53-.12l.24.18.49,11.93-.67.06c-1.43-3.75-3-6.53-4.71-8.32-1.71-1.79-3.84-2.69-6.36-2.69s-4.53.81-6.37,2.42c-1.84,1.61-3.24,3.8-4.22,6.58-.98,2.77-1.47,5.85-1.47,9.24s.5,6.4,1.5,9.15c1,2.75,2.41,4.94,4.22,6.55,1.81,1.61,3.93,2.42,6.33,2.42,1.67,0,3.2-.31,4.59-.92,0-3.22-.04-5.62-.12-7.19-.08-1.57-.31-2.99-.67-4.25-.37-1.26-.96-2.49-1.77-3.67,2.94.16,4.94.24,6,.24,1.51,0,3.2-.06,5.08-.18l1.22-.06c-.53,2-.86,3.9-.98,5.69-.12,1.8-.18,4.96-.18,9.49-2.37.94-4.93,1.7-7.68,2.29-2.75.59-5.36.89-7.8.89-6.53,0-11.5-1.78-14.9-5.32Z"/>
    <path class="st0" d="M150.42,244.93c0-3.3-.04-5.68-.12-7.13-.08-1.45-.24-2.63-.49-3.55s-.67-2.03-1.29-3.34c.24.04.86.09,1.84.15.98.06,2.33.09,4.04.09s3.27-.03,4.56-.09c1.29-.06,2.09-.11,2.42-.15-.82,1.27-1.36,2.94-1.62,5.02-.27,2.08-.4,4.41-.4,6.98v6.24c3.75.16,6.57.24,8.45.24s4.63-.08,8.38-.24v-4.22c0-3.3-.04-5.68-.12-7.13-.08-1.45-.24-2.63-.49-3.55s-.67-2.03-1.29-3.34c.24.04.86.09,1.84.15.98.06,2.33.09,4.04.09s3.27-.03,4.56-.09c1.29-.06,2.09-.11,2.42-.15-.82,1.27-1.36,2.94-1.62,5.02-.27,2.08-.4,4.41-.4,6.98v14.26c0,3.3.04,5.68.12,7.13.08,1.45.24,2.63.49,3.55.24.92.67,2.03,1.29,3.34-.24-.04-.86-.09-1.84-.15-.98-.06-2.33-.09-4.04-.09s-3.22.03-4.53.09c-1.31.06-2.12.11-2.45.15.82-1.31,1.36-3,1.62-5.08.26-2.08.4-4.43.4-7.04v-7.28c-2.49-.16-5.28-.24-8.38-.24s-5.96.08-8.45.24v5.39c0,3.3.04,5.68.12,7.13.08,1.45.24,2.63.49,3.55s.67,2.03,1.29,3.34c-.24-.04-.86-.09-1.84-.15-.98-.06-2.33-.09-4.04-.09s-3.22.03-4.53.09c-1.31.06-2.12.11-2.45.15.82-1.31,1.36-3,1.62-5.08.26-2.08.4-4.43.4-7.04v-14.14Z"/>
    <path class="st0" d="M190.5,242.05l1.65-11.14c3.92.16,9.16.24,15.73.24s11.87-.08,15.79-.24l1.53,11.14-.24.06c-1.47-2.86-3.18-5.02-5.14-6.49-1.96-1.47-4.45-2.41-7.47-2.81v26.25c0,2.61.13,4.96.4,7.04.26,2.08.81,3.77,1.62,5.08-.33-.04-1.13-.09-2.42-.15-1.29-.06-2.81-.09-4.56-.09s-3.06.03-4.04.09c-.98.06-1.59.11-1.84.15.61-1.31,1.04-2.42,1.29-3.34s.41-2.1.49-3.55c.08-1.45.12-3.83.12-7.13v-24.36c-3.02.41-5.51,1.35-7.47,2.81-1.96,1.47-3.67,3.63-5.14,6.49l-.31-.06Z"/>
    <path class="st0" d="M243.41,266.23c-3.41-3.55-5.11-8.59-5.11-15.12s1.7-11.64,5.11-15.21c3.41-3.57,8.37-5.35,14.9-5.35,1.75,0,4.06.24,6.92.73,2.12.37,3.75.55,4.9.55.37,0,.88-.04,1.53-.12l.24.18.49,11.93-.67.06c-1.43-3.75-3-6.53-4.71-8.32-1.71-1.79-3.84-2.69-6.36-2.69s-4.53.81-6.37,2.42c-1.84,1.61-3.24,3.8-4.22,6.58-.98,2.77-1.47,5.85-1.47,9.24s.5,6.4,1.5,9.15c1,2.75,2.41,4.94,4.22,6.55,1.81,1.61,3.93,2.42,6.33,2.42s4.59-.89,6.3-2.66c1.71-1.77,3.31-4.56,4.77-8.35l.67.06-.49,11.93-.24.18c-.65-.08-1.16-.12-1.53-.12-1.14,0-2.78.18-4.9.55-2.86.49-5.16.73-6.92.73-6.53,0-11.5-1.78-14.9-5.32Z"/>
    <path class="st0" d="M290.2,267.91c.9.84,2.1,1.25,3.61,1.25s3.17-.39,4.99-1.16c1.81-.77,3.55-1.86,5.2-3.24,1.65-1.39,3.03-2.98,4.13-4.77l.31.12-2.39,11.2c-3.14,0-7.96-.06-14.44-.18l-5.32-.06c-2.24,0-4.98.08-8.2.24.61-1.35,1.04-2.48,1.28-3.4.24-.92.4-2.07.46-3.46.06-1.39.09-3.65.09-6.79v-13.89c0-2.86-.12-5.36-.37-7.53-.24-2.16-.8-3.94-1.65-5.32.33.04,1.14.09,2.45.15,1.31.06,2.81.09,4.53.09s3.06-.03,4.04-.09c.98-.06,1.59-.11,1.84-.15-.61,1.31-1.04,2.42-1.29,3.34s-.41,2.1-.49,3.55c-.08,1.45-.12,3.83-.12,7.13v19.09c0,1.75.45,3.05,1.35,3.89Z"/>
    <path class="st0" d="M315.69,267.24c-2.31-2.88-3.46-7.25-3.46-13.13v-9.85c0-2.9-.12-5.49-.37-7.77-.24-2.28-.8-4.14-1.65-5.57.33.04,1.14.09,2.45.15,1.31.06,2.82.09,4.53.09s3.06-.03,4.04-.09c.98-.06,1.59-.11,1.84-.15-.61,1.35-1.04,2.51-1.28,3.49s-.41,2.22-.49,3.73c-.08,1.51-.12,4-.12,7.47v9.18c0,3.92.79,6.95,2.36,9.09,1.57,2.14,3.91,3.21,7.01,3.21,2.86,0,5.15-1.01,6.88-3.03,1.73-2.02,2.6-4.93,2.6-8.72v-3c0-5.26-.06-9.07-.18-11.41-.12-2.35-.42-4.26-.89-5.75-.47-1.49-1.28-2.91-2.42-4.25,2.04.12,3.59.18,4.65.18,1.14,0,2.65-.06,4.53-.18-1.18,1.43-2.01,2.95-2.48,4.56-.47,1.61-.76,3.71-.86,6.3-.1,2.59-.15,7.05-.15,13.37,0,5.35-1.29,9.41-3.86,12.21-2.57,2.8-6.28,4.19-11.14,4.19-5.39,0-9.23-1.44-11.54-4.31Z"/>
    <path class="st0" d="M351.03,267.85c.24-.92.4-2.07.46-3.46.06-1.39.09-3.65.09-6.79v-13.89c0-2.73-.12-5.19-.37-7.37-.24-2.18-.76-3.99-1.53-5.42h.24c1.59.16,3.34.24,5.26.24,1.31,0,3.1-.04,5.39-.12,2.2-.08,3.79-.12,4.77-.12,5.47,0,9.46.77,11.99,2.29,2.53,1.53,3.79,3.95,3.79,7.25,0,2.24-.83,4.13-2.48,5.66-1.65,1.53-4.19,2.5-7.62,2.91,4.24.2,7.56,1.27,9.94,3.18,2.39,1.92,3.58,4.61,3.58,8.08,0,7.26-6.18,10.89-18.54,10.89-1.1,0-2.8-.04-5.08-.12-2.45-.08-4.33-.12-5.63-.12-2.08,0-3.94.08-5.57.24.61-1.31,1.04-2.42,1.29-3.34ZM360.76,264.27c.49,3.59,2.53,5.39,6.12,5.39,4.98,0,7.47-2.96,7.47-8.87,0-2.98-.81-5.49-2.42-7.53-1.61-2.04-4.66-3.12-9.15-3.24h-.67v-1.04h.67c3.22.04,5.47-.62,6.73-1.99,1.26-1.37,1.9-3.34,1.9-5.91,0-3.02-.91-5.2-2.72-6.55-1.82-1.35-4.19-2.02-7.13-2.02h-.92v27.23c0,2,.04,3.51.12,4.53Z"/>
  </g>
</svg>