<?xml version="1.0" encoding="UTF-8"?>
<svg id="Layer_1" xmlns="http://www.w3.org/2000/svg" version="1.1" viewBox="0 0 234 248.2">
  <defs>
    <style>
      .st0 {
        fill: #231f20;
      }
    </style>
  </defs>
  <path class="st0" d="M135.23,164.9v42.35c-10.54,2.99-21.12,4.71-31.94,5.68-11.66,1.03-23.06.6-34.5-1.74-11.53-2.37-24.05-7.18-32.72-15.42-7.49-7.1-12.76-16.93-12.95-27.6l-2.5-133.43c16.91,3.18,32.74,6.9,48.85,10.93l5.01,1.18,1.87,118.03,35.56.02c-1.55,4.9-2.71,9.57-3.38,14.52-.32,2.45-.17,4.67.43,7.03,1.16,3.98,2.52,7.74,4.19,11.53,1.79,4.04,6.37,6.26,10.58,7.72-1.89-3.38-3.53-6.69-5.16-10.15-1.29-2.75-2.99-.56-6.39-3.18-.17-2.62.28-5.05.67-7.61,1.31-6.86,3.44-13.31,6.11-19.85h16.26Z"/>
  <path class="st0" d="M213.38,154.53c-3.01,1.48-5.66,2.86-8.37,4.69l-15.27,10.26-21.38,14.43c-2.52,1.7-9.92,6.17-12.76,4.32-1.68-3.05-3.16-6.24-4.13-9.62-.47-1.72.28-3.83.92-5.44l8.32-20.82c2.06-5.14,3.87-10.09,5.53-15.34.84-2.65,1.31-5.27,1.05-8-1.03-1.08-2.58-1.81-4.19-1.94-8.24-.67-16.67-.88-25-.88-.13,0-.54-.06-.62-.09-.15-.02-.13.39-.22.62-7.16,12.24-13.16,24.95-18.37,38.18l-6.88-.11c4.11-11.68,8.6-22.71,14.3-33.41l2.77-5.18c-11.53.45-22.89,1.27-34.67,2.3l-.17-7.64,12.52-.8,26.33-1.44c1.83-3.18,3.29-6.41,5.42-9.44l10.86-15.42,9.53-11.85,4.54,10.05c-5.36,5.23-10.28,10.54-14.63,16.61-2.71,3.29-4.97,6.73-7.03,10.11l5.08.15c4.78.11,9.44.34,14.09,1.2,2.45.45,4.19,1.81,5.21,4.07,2.04,4.56,3.79,9.29,4.35,14.35.45,4.04-6.37,20.82-8.24,25.6l-6.56,16.67c3.03-.67,5.42-1.91,7.81-3.55l19.21-12.99,18.65-12.82c2.65-1.83,5.21-3.23,8.22-4.84l3.79,8Z"/>
</svg>
