<?xml version="1.0" encoding="UTF-8"?>
<svg id="Layer_1" xmlns="http://www.w3.org/2000/svg" version="1.1" viewBox="0 0 461.07 235.02">
  <!-- Generator: Adobe Illustrator 30.2.1, SVG Export Plug-In . SVG Version: 2.1.1 Build 1)  -->
  <defs>
    <style>
      .st0 {
        fill: #e11624;
      }
    </style>
  </defs>
  <path class="st0" d="M158.47,111.5c-2.42,2.33-3.3,4.94-2.65,7.83.48,2.12,1.65,3.75,3.52,4.89s3.86,1.47,5.98.99c2.29-.52,4.01-1.8,5.15-3.84,1.87-3.19,2.32-6.91,1.36-11.15-.82-3.65-2.63-6.52-5.43-8.61-2.79-2.09-6.15-3.54-10.08-4.34,3.8-.95,6.54-2.22,8.24-3.8,1.69-1.59,2.16-4.08,1.39-7.48-.42-1.87-1.19-3.68-2.3-5.44-1.11-1.76-2.21-3.05-3.29-3.87-1.08-.83-1.76-.85-2.03-.08-1.24,3.58-3.9,5.84-7.97,6.76l-32.6,7.38c-1.7.39-3.3.46-4.79.24l7.75-12.29c2.88-4.56,6.01-7.68,9.38-9.36,3.37-1.68,6.39-1.68,9.04,0,1.4.88,2.05,2.22,1.95,4.01-.06,3.36,1.16,5.83,3.66,7.4,1.84,1.16,3.82,1.49,5.95.97,2.12-.51,3.77-1.69,4.93-3.53,1.25-1.99,1.56-4.11.92-6.36-.93-3.58-3.24-6.52-6.92-8.85-3.17-2-6.48-2.75-9.93-2.25-3.46.5-6.85,1.85-10.2,4.06,2.01-3.36,3.06-6.19,3.14-8.52.07-2.32-1.36-4.41-4.31-6.27-1.62-1.02-3.44-1.76-5.47-2.22-2.03-.45-3.72-.59-5.06-.42-1.35.18-1.84.64-1.49,1.38,1.65,3.41,1.37,6.88-.86,10.42l-17.83,28.26c-.93,1.48-2,2.66-3.22,3.56l-3.21-14.17c-1.19-5.26-1.19-9.68.01-13.26,1.2-3.57,3.32-5.7,6.38-6.4,1.61-.36,3.02.12,4.21,1.46,2.33,2.42,4.94,3.3,7.83,2.65,2.12-.48,3.75-1.65,4.89-3.52,1.14-1.86,1.47-3.86.99-5.98-.52-2.29-1.8-4.01-3.84-5.15-3.19-1.87-6.91-2.32-11.15-1.36-3.65.83-6.52,2.64-8.61,5.43-2.09,2.8-3.54,6.16-4.35,10.09-.95-3.8-2.22-6.55-3.8-8.24-1.59-1.69-4.08-2.15-7.47-1.39-1.87.42-3.68,1.19-5.44,2.3-1.76,1.11-3.05,2.21-3.87,3.29-.83,1.08-.85,1.76-.08,2.03,3.58,1.24,5.83,3.9,6.76,7.97l7.38,32.6c.38,1.7.46,3.3.24,4.79l-12.29-7.75c-4.56-2.88-7.68-6.01-9.36-9.38-1.68-3.37-1.68-6.39,0-9.04.88-1.4,2.22-2.05,4.01-1.95,3.36.06,5.82-1.16,7.41-3.66,1.16-1.84,1.49-3.82.97-5.94-.51-2.12-1.69-3.77-3.53-4.93-1.99-1.25-4.11-1.56-6.36-.93-3.58.94-6.52,3.24-8.85,6.92-2,3.17-2.74,6.48-2.25,9.93.5,3.45,1.85,6.85,4.06,10.2-3.36-2.02-6.2-3.06-8.52-3.14-2.32-.07-4.41,1.36-6.27,4.3-1.02,1.62-1.76,3.44-2.22,5.47-.45,2.03-.6,3.72-.42,5.06.18,1.35.64,1.84,1.38,1.49,3.41-1.65,6.88-1.37,10.42.86l28.26,17.83c1.48.93,2.66,2,3.56,3.22l-14.17,3.21c-5.26,1.19-9.68,1.19-13.25-.01-3.57-1.2-5.71-3.33-6.4-6.38-.37-1.61.12-3.02,1.46-4.21,2.42-2.33,3.3-4.94,2.65-7.83-.48-2.12-1.65-3.75-3.52-4.89-1.86-1.14-3.86-1.47-5.98-.99-2.29.52-4.01,1.8-5.15,3.84-1.87,3.19-2.32,6.91-1.36,11.15.83,3.65,2.64,6.52,5.43,8.61,2.79,2.09,6.15,3.54,10.08,4.34-3.8.95-6.54,2.22-8.24,3.81-1.69,1.59-2.16,4.08-1.39,7.47.42,1.87,1.19,3.68,2.3,5.44,1.11,1.76,2.21,3.05,3.29,3.88,1.08.83,1.76.85,2.03.08,1.24-3.58,3.9-5.84,7.97-6.76l32.6-7.38c1.7-.39,3.3-.46,4.79-.24l-7.75,12.29c-2.88,4.56-6.01,7.69-9.38,9.36-3.37,1.68-6.39,1.68-9.04.01-1.4-.88-2.05-2.22-1.95-4.01.06-3.36-1.16-5.83-3.66-7.4-1.84-1.16-3.82-1.49-5.95-.97-2.12.51-3.77,1.69-4.93,3.53-1.25,1.99-1.56,4.11-.93,6.36.94,3.57,3.24,6.52,6.93,8.84,3.17,2,6.47,2.75,9.93,2.25,3.45-.5,6.85-1.85,10.2-4.06-2.01,3.36-3.06,6.2-3.14,8.52-.07,2.32,1.36,4.41,4.3,6.27,1.62,1.02,3.45,1.76,5.47,2.22,2.03.45,3.72.59,5.06.42,1.35-.18,1.84-.64,1.49-1.38-1.65-3.41-1.37-6.88.86-10.42l17.83-28.26c.93-1.47,2.01-2.66,3.22-3.56l3.21,14.17c1.19,5.26,1.19,9.68-.01,13.25-1.2,3.57-3.33,5.71-6.38,6.4-1.61.36-3.02-.12-4.21-1.46-2.33-2.42-4.94-3.3-7.83-2.65-2.12.48-3.75,1.65-4.89,3.52-1.14,1.86-1.47,3.86-.99,5.98.52,2.29,1.8,4.01,3.84,5.15,3.19,1.86,6.91,2.32,11.15,1.36,3.65-.83,6.52-2.64,8.61-5.43,2.09-2.79,3.54-6.16,4.34-10.09.95,3.8,2.22,6.55,3.81,8.24,1.59,1.69,4.08,2.15,7.47,1.39,1.87-.42,3.68-1.19,5.44-2.3,1.76-1.11,3.05-2.21,3.88-3.29.83-1.08.85-1.76.08-2.02-3.58-1.24-5.84-3.9-6.76-7.98l-7.38-32.6c-.38-1.7-.46-3.3-.24-4.79l12.29,7.75c4.56,2.88,7.69,6.01,9.37,9.38,1.68,3.37,1.68,6.39,0,9.04-.88,1.4-2.22,2.05-4.01,1.95-3.36-.06-5.83,1.16-7.4,3.66-1.16,1.84-1.49,3.82-.97,5.95.51,2.12,1.69,3.77,3.53,4.93,1.99,1.25,4.11,1.56,6.36.93,3.57-.94,6.52-3.24,8.84-6.92,2-3.17,2.75-6.48,2.25-9.93-.5-3.46-1.85-6.85-4.06-10.2,3.36,2.02,6.2,3.06,8.52,3.14,2.32.08,4.41-1.36,6.27-4.3,1.02-1.62,1.76-3.44,2.22-5.47.45-2.03.59-3.72.42-5.06-.18-1.35-.64-1.84-1.38-1.49-3.41,1.66-6.88,1.37-10.42-.86l-28.26-17.83c-1.47-.93-2.66-2-3.56-3.22l14.17-3.21c5.26-1.19,9.68-1.19,13.25.01,3.57,1.2,5.71,3.32,6.4,6.38.37,1.61-.12,3.02-1.46,4.21ZM108.97,118.34c-.23.37-.16.67.2.9l.23.14-5.48,1.24c-.42.1-.59.35-.49.78l.06.26-4.75-3c-.37-.23-.67-.17-.9.2l-.15.23-1.24-5.48c-.1-.42-.36-.59-.78-.49l-.26.06,3-4.75c.23-.37.16-.67-.2-.9l-.23-.14,5.48-1.24c.43-.1.59-.36.49-.78l-.06-.26,4.75,3c.37.23.67.16.9-.2l.15-.23,1.24,5.48c.1.42.35.59.78.49l.26-.06-3,4.75Z"/>
  <g>
    <path class="st0" d="M246.41,109.13v-27.07c0-9.12-4.63-14.33-15.78-14.33h-33.58v91.34h16.65v-35.61h5.5l13.9,35.61h17.95l-15.2-36.04c7.38-1.45,10.57-6.37,10.57-13.9ZM229.77,107.25c0,3.04-.87,3.91-4.05,3.91h-12.01v-30.69h12.01c3.18,0,4.05.87,4.05,3.91v22.87Z"/>
    <path class="st0" d="M271.89,67.73l-18.38,91.34h16.65l3.18-18.96h19.98l3.47,18.96h16.79l-19.25-91.34h-22.44ZM275.51,127.51l7.53-43.72,7.96,43.72h-15.49Z"/>
    <path class="st0" d="M353.68,67.73h-16.94c-11,0-15.78,5.21-15.78,14.33v62.82c0,8.97,4.78,14.33,15.78,14.33h16.94c11.15,0,15.78-5.36,15.78-14.33v-33.73h-24.03v11.73h7.24v20.27c0,3.04-.87,3.91-4.05,3.91h-6.8c-3.18,0-4.05-.87-4.05-3.91v-59.35c0-3.04.87-3.91,4.05-3.91h6.8c3.18,0,4.05.87,4.05,3.91v12.01h16.79v-13.75c0-9.12-4.63-14.33-15.78-14.33Z"/>
    <path class="st0" d="M414.33,142.42c0,3.04-1.01,3.91-4.2,3.91h-7.67c-3.18,0-4.05-.87-4.05-3.91v-47.62h-16.65v49.93c0,9.12,4.63,14.33,15.78,14.33h17.66c11.15,0,15.78-5.21,15.78-14.33v-49.93h-16.65v47.62Z"/>
    <rect class="st0" x="394.8" y="67.73" width="36.18" height="11.27"/>
  </g>
</svg>