<?xml version="1.0" encoding="UTF-8"?>
<svg id="Layer_1" xmlns="http://www.w3.org/2000/svg" version="1.1" viewBox="0 0 410 294">
  <!-- Generator: Adobe Illustrator 30.2.1, SVG Export Plug-In . SVG Version: 2.1.1 Build 1)  -->
  <defs>
    <style>
      .st0 {
        fill: #401302;
      }
    </style>
  </defs>
  <path class="st0" d="M46.74,98.03c.44-.95.79-1.69,1.18-2.55.29.31.49.5.66.72,3.11,3.88,4.79,8.48,6.47,13.06.14.39-.21,1.03-.45,1.49-.97,1.88-2.08,3.69-2.91,5.62-.29.66.07,1.6.15,2.74,4.07-3.53,6.88-3.35,8.48.21-.52.1-1.02.18-1.52.28-6.52,1.43-9.93,4.8-10.68,10.73-.6,4.75.27,9.23,1.92,13.67,2.49,6.73,4.87,13.5,7.23,20.28,2.78,7.97,3.21,16.18,2.43,24.51-.22,2.36-.5,4.71-.76,7.06.22.06.44.11.65.17.69-2.31,1.61-4.58,2.03-6.94,1.82-10.16.81-20.21-2.08-30.01-2.32-7.86-5.2-15.57-7.92-23.31-1.6-4.55-.8-6.95,3.44-9.26,3.62-1.96,7.38-2.35,11.38-.63.99-3.58,2.06-7.03-.64-10.22-1.98-2.33-4.08-4.57-6.12-6.85-.24-.3-.13-.86-.04-1.43,1.07-6.87.65-13.76.39-20.65-.03-.87.21-2.2.79-2.54.61-.36,1.91-.03,2.66.41,1.33.79,2.47,1.9,3.78,2.96.15-1.23.22-2.39.45-3.5.74-3.64-.9-5.4-3.7-6.97-2.71-1.52-5.26-.49-6.08,2.49-.45,1.64-.66,3.4-.65,5.1.02,4.31.26,8.62.35,12.93.03,1.62-.1,3.24-.15,4.87-.22.05-.44.1-.67.15-.47-.98-1.04-1.93-1.39-2.95-1.64-4.76-3.65-9.32-6.93-13.19-.99-1.17-2.13-2.3-3.43-3.06-.68-.4-2.19-.32-2.75.18-2.22,2.02-2.46,6.92-.52,9.21,1.5,1.78,3.2,3.38,4.97,5.22Z"/>
  <path class="st0" d="M266.36,201.49c-1.86-.97-3.46.14-4.97,1.15-.32.21-.59.49-.91.7-.22.14-.56.36-.7.29-1.19-.66-1.82.28-2.56.85-2.59,1.96-4.77,4.62-8.05,5.45-4.58,1.16-9.18,2.54-13.85,2.96-7.9.71-15.87.74-23.8,1.07-1.01.04-2.02.13-3.03.19l-.08.58c3.63.6,7.28,1.13,10.9,1.81,7.81,1.48,15.56,1.62,23.26-.63,5.3-1.55,10.24-3.71,13.78-8.21,1.65,2.21,3.11,4.43,4.85,6.4,1.23,1.4,2.4,1.34,3.73.16,2.39-2.11,3.87-4.72,3.75-8-.07-1.9-.49-3.8-2.32-4.76ZM256.38,207.67c.05-.04.12-.04,0,0h0ZM264.76,211.17c-1.31-1.67-2.5-3.19-3.79-4.85,1.39-.8,2.42-.98,3.35-.07,1.04,1,1.29,3.06.44,4.92Z"/>
  <path class="st0" d="M111.89,97.55c0-1.01.19-1.24.58-.7,3.25,3.64,4.88,4.65,4.88,3.02,0-.54-.16-1.35-.46-2.44-.39-1.39-1.74-5.12-4.07-11.16-2.17-5.81-3.57-9.38-4.19-10.7-.31-.62-.58-.93-.81-.93-.16,0-.39.31-.7.93-2.09,4.96-3.14,8.1-3.14,9.42,1.16,2.33,1.74,5.31,1.74,8.95s.91,18.02,2.73,43.6c1.82,25.58,2.73,40.69,2.73,45.34,0,2.56-.46,4.26-1.39,5.12-6.12,5.74-13.6,11.28-22.44,16.62-12.25,7.36-22.59,11.04-31.04,11.04-9.3,0-16.04-3.26-20.23-9.77-2.71-4.19-4.07-8.64-4.07-13.37,0-2.99.41-6.16,1.23-9.51.39.74.81,1.48,1.27,2.21,1.54,2.31,3.9,3.47,7.08,3.47,5.78,0,9.92-4.62,12.42-13.86,1.64-5.3,1.54-7.94-.29-7.94-.38,0-.96.87-1.73,2.6-1.35,2.21-2.45,3.8-3.32,4.76-1.16,1.35-2.6,2.02-4.33,2.02-2.98,0-5.25-1.59-6.79-4.77-2.41-4.53-2.84-11.22-1.3-20.07,3.56-15.79,6.36-26.53,8.38-32.21.96-2.79,1.44-4.86,1.44-6.21,0-.77-.19-1.25-.58-1.44-.96,0-2.36,2.17-4.19,6.5-4.53,11.84-7.65,22.48-9.39,31.92-1.64,7.7-2.46,13.72-2.46,18.05s.81,8.15,2.39,11.99c-1.6,4.76-2.39,10.32-2.39,16.68,0,7.13,1.51,13.33,4.53,18.6,4.49,7.75,11.74,11.62,21.74,11.62s21.16-4.65,34.18-13.95c8.45-6.05,14.57-11.28,18.37-15.7,2.63-3.1,4.53-6.74,5.7-10.93,1.55-5.66,2.33-13.72,2.33-24.18,0-3.64-.74-15.35-2.21-35.11-1.47-19.76-2.21-29.61-2.21-29.53Z"/>
  <path class="st0" d="M133.47,146.61c.7,18.68,2.05,30.23,4.07,34.64,1.94,4.11,4.57,7.4,7.91,9.88,2.28,1.67,5.62,3.42,10,5.25v.1c9.69,3.88,22.82,5.81,39.41,5.81,23.87,0,44.53-2.6,61.96-7.79,18.29-5.5,30.23-13.21,35.81-23.13,7.98,6.36,15.73,9.53,23.25,9.53,1.4,0,2.67-1.36,3.84-4.07,1.24-2.87,1.86-6.2,1.86-10s-.7-7.56-2.09-10.81c-1.78-4.26-4.42-6.39-7.91-6.39-2.79,0-5.7,1.51-8.72,4.53-2.17,2.09-3.88,4.3-5.12,6.63-.39,0-1.63,1.47-3.72,4.42-2.48,3.57-5.31,6.28-8.49,8.14-7.75,4.65-19.61,8.68-35.57,12.09-17.13,3.72-34.34,5.58-51.62,5.58-7.6,0-15.89-.62-24.88-1.86-8.78-1.21-14.7-2.53-17.79-3.96v-.11c-3.33-1.55-6.47-3.76-9.42-6.63-4.11-4.11-6.59-15-7.44-32.67-.23-7.75-.46-15.5-.7-23.25-.39-12.17-.78-20.23-1.16-24.18-1.24-10.85-2.95-18.45-5.12-22.79-.39-.77-.7-1.16-.93-1.16s-.54.46-.93,1.4c-1.78,4.34-2.67,7.32-2.67,8.95,2.01,4.42,3.49,11.16,4.42,20.23.23,2.79.81,16.67,1.74,41.62ZM302.74,161.96c1.08-.77,2.63-1.16,4.65-1.16,1.39,0,2.77.62,4.13,1.86,1.35,1.24,2.3,2.67,2.85,4.3.15.7.23,1.24.23,1.63,0,.62-.27.93-.81.93-.31,0-.74-.08-1.28-.23-4.34-1.32-8.02-3.1-11.04-5.35,0-.7.42-1.36,1.28-1.98Z"/>
  <path class="st0" d="M361.45,175.97c-2.17-1.82-4.77-2.73-7.79-2.73-10.54,0-22.48,7.21-35.81,21.62-9.07,9.92-13.91,15.15-14.53,15.69-5.5,5.04-10.31,7.56-14.42,7.56-2.64,0-4.69-.97-6.16-2.91-1.4-1.78-2.09-4.15-2.09-7.09,0-3.87,1.24-9.16,3.72-15.87,2.48-6.7,3.72-10.64,3.72-11.8,0-.23-.08-.39-.23-.46-.31,0-.78.58-1.4,1.74-5.74,11.24-8.6,20.38-8.6,27.44,0,5.04,1.47,9.3,4.42,12.79,2.79,3.33,6.08,5,9.88,5,4.42,0,9.14-2.56,14.18-7.67,5.81-6.28,11.63-12.59,17.44-18.95,10.38-10.54,19.61-15.81,27.67-15.81,4.42,0,7.71,1.98,9.88,5.93.46.78.81,1.16,1.05,1.16.15,0,.39-.39.7-1.16,1.08-2.33,1.63-5,1.63-8.02,0-2.48-1.09-4.63-3.26-6.45Z"/>
  <path class="st0" d="M363.3,92.61c-1.86.42-3.73.78-5.56,1.32-16.52,4.89-33.03,9.84-49.55,14.73-21.85,6.47-43.48,13.67-65.39,19.96-8.47,2.43-16.81,5.31-25.2,8-10.08,3.23-19.88,7.14-29.36,11.85-1.28.63-2.54,1.32-3.74,2.09-2.16,1.4-3.56,3.36-3.98,5.95-.13.78-.32,1.56-.46,2.34-.52,2.81-1.16,5.6-1.35,8.46-.24,3.84.94,7.19,3.6,10,2.34,2.48,5.23,4.1,8.36,5.35,2.6,1.04,2.59,1.33,3.87-1.85.15-.36.2-.77.28-1.16.53-2.51-.25-4.55-2.24-6.12-.81-.64-1.66-1.24-2.56-1.73-1.77-.97-3.26-2.27-4.66-3.68-.55-.55-1.04-1.21-1.41-1.9-1.04-1.94-.73-3.9.83-5.45.5-.5,1.08-.93,1.65-1.36,1.34-1,2.83-1.76,4.32-2.51,10.61-5.32,21.67-9.46,33.03-12.88,19.99-6.03,39.94-12.21,59.91-18.32,3.95-1.21,7.91-2.38,11.87-3.55.75-.22,5.06-1.56,5.76-1.73.38-.1.76-.23,1.14-.34,12.81-4.01,25.62-8,38.42-12.03,5.08-1.6,10.12-3.29,15.19-4.92,1.39-.44,2.67-1.04,3.67-2.13,1.57-1.69,3.01-3.49,4.23-5.45.42-.68.78-1.38.93-2.18.07-.37-.28-.84-.65-.85-.31,0-.63.01-.93.08Z"/>
  <path class="st0" d="M89.48,136.27c-2.09,1.39-4.25,2.66-6.48,3.81-2.67,1.38-5.37,2.72-8.05,4.08-1.62.83-3.23,1.67-5.02,2.6.46.31.73.24.99.21,1.63-.18,3.24-.51,4.85-.81,2.55-.49,5.11-.93,7.67-1.39,1.28-.23,2.44-.74,3.43-1.6.69-.6,1.4-1.17,2.07-1.79,2.55-2.36,4.83-4.96,7.09-7.59.8-.93,1.49-1.96,2.06-3.06.49-.94.81-1.92.86-3,.04-.71-.22-1.25-.8-1.62-.34-.22-.71-.43-1.09-.56-.6-.2-1.22-.36-1.85-.48-3.1-.6-6.23-.82-9.38-.9-1.64-.05-3.28.13-4.9.4-.75.12-1.35.43-1.86,1.03-1.13,1.32-2.13,2.73-3.03,4.21-.92,1.52-1.83,3.05-2.74,4.57-.12.2-.25.38-.18.65.12.02.25.08.37.06,3.31-.41,6.63-.58,9.96-.66,1.73-.04,3.46.1,5.19.2.92.05,1.23.23,1.91.8-.25.4-.68.59-1.05.84Z"/>
  <path class="st0" d="M353.84,126.59c-1.12-.75-2.34-1.11-3.7-.87-.39.07-.76.18-1.06.45-1.41,1.27-2.77,2.56-3.4,4.43-.29.86-.63,1.71-.9,2.57-1.45,4.62-1.96,9.39-2.28,14.19-.15,2.2-.29,4.41-.44,6.61-.01.18-.01.38-.23.48-.32.14-.49-.09-.64-.29-.39-.54-.53-1.17-.68-1.81-.67-2.85-1.49-5.65-2.83-8.27-1.33-2.61-2.93-5.06-4.57-7.47-1.15-1.68-2.58-3.09-4.08-4.43-.83-.74-1.78-1.3-2.88-1.57-1.63-.4-2.11-.17-2.63,1.38-.87,2.6-1.19,5.32-1.49,8.03-.04.4.2.61.5.75,2.2,1.02,4.07,2.54,5.99,3.98,1.04.78,2.09,1.55,3.28,2.1.75.35,1.24.88,1.63,1.59,1.99,3.58,3.77,7.26,4.99,11.19.35,1.12.72,2.22,1.11,3.32.26.74.64,1.42,1.24,1.96.65.59,1.44.42,1.65-.43.32-1.25.6-2.53.8-3.81.63-4.05.93-8.13,1.23-12.21.22-2.98.52-5.95,1.18-8.87.35-1.53.86-3.01,1.89-4.23,1.07-1.27,2.41-1.47,3.83-.64.68.4,1.25.93,1.75,1.54.54.65,1.02,1.35,1.56,1.99.58.68,1.05,1.47,2.14,2.1.45-2.38.86-4.54,1.27-6.7.16-.87.05-1.67-.44-2.42-.39-.6-.74-1.22-1.13-1.82-.71-1.1-1.57-2.07-2.66-2.81Z"/>
  <path class="st0" d="M342.83,204.25c-.42-.65-.92-1.22-1.56-1.65-.66-.44-1.37-.65-2.17-.51-.23.04-.45.1-.62.26-.83.74-1.63,1.5-1.99,2.6-.17.51-.37,1-.53,1.51-.85,2.71-1.15,5.51-1.34,8.33-.09,1.29-.17,2.59-.26,3.88,0,.11,0,.23-.13.28-.19.08-.29-.05-.37-.17-.23-.32-.31-.69-.4-1.06-.39-1.67-.88-3.31-1.66-4.85-.78-1.53-1.72-2.97-2.68-4.39-.67-.99-1.51-1.81-2.4-2.6-.49-.43-1.04-.76-1.69-.92-.96-.23-1.24-.1-1.54.81-.51,1.53-.7,3.12-.87,4.71-.03.23.12.36.29.44,1.29.6,2.39,1.49,3.52,2.33.61.46,1.23.91,1.92,1.23.44.2.73.52.96.93,1.17,2.1,2.21,4.26,2.93,6.57.2.65.43,1.3.65,1.95.15.44.38.83.73,1.15.38.34.84.25.97-.25.19-.74.35-1.48.47-2.23.37-2.37.55-4.77.72-7.16.13-1.75.3-3.49.69-5.21.2-.9.5-1.76,1.11-2.48.63-.75,1.41-.87,2.25-.38.4.23.73.55,1.03.9.32.38.6.79.92,1.17.34.4.62.86,1.25,1.23.26-1.4.5-2.67.74-3.93.1-.51.03-.98-.26-1.42-.23-.35-.44-.72-.66-1.07Z"/>
  <path class="st0" d="M166.61,92.09c2.58,1.19,4.76,2.96,7.01,4.65,1.21.91,2.45,1.81,3.83,2.45.88.41,1.45,1.03,1.91,1.86,2.33,4.19,4.41,8.49,5.84,13.07.41,1.3.85,2.6,1.3,3.89.31.87.75,1.66,1.45,2.29.76.69,1.68.49,1.93-.5.38-1.47.71-2.95.94-4.45.74-4.73,1.09-9.5,1.44-14.27.26-3.48.61-6.95,1.38-10.37.4-1.79,1-3.51,2.2-4.94,1.25-1.49,2.81-1.72,4.48-.75.8.47,1.46,1.09,2.04,1.79.63.76,1.19,1.57,1.83,2.33.67.8,1.23,1.72,2.5,2.45.53-2.78,1-5.31,1.48-7.83.19-1.01.06-1.95-.52-2.83-.46-.7-.87-1.43-1.32-2.13-.83-1.29-1.83-2.42-3.11-3.28-1.31-.88-2.73-1.3-4.32-1.02-.46.08-.89.21-1.24.52-1.64,1.48-3.24,2.99-3.97,5.18-.34,1.01-.73,1.99-1.05,3.01-1.7,5.4-2.29,10.98-2.66,16.59-.17,2.57-.34,5.15-.51,7.72-.01.21-.02.45-.27.56-.37.17-.58-.1-.75-.34-.45-.63-.63-1.37-.8-2.11-.78-3.33-1.75-6.6-3.31-9.67-1.55-3.05-3.42-5.91-5.34-8.74-1.34-1.96-3.01-3.61-4.77-5.18-.97-.86-2.08-1.52-3.37-1.84-1.91-.47-2.46-.2-3.07,1.62-1.02,3.04-1.39,6.21-1.74,9.38-.05.46.23.71.58.87Z"/>
  <path class="st0" d="M234.76,169.68c.26,2.55,1.5,4.57,3.52,6.11,1.12.85,2.36.9,3.63.39,1.35-.54,2.44-1.41,3.28-2.59.71-.99,1.27-2.06,1.74-3.18.42-.99.84-1.98,1.27-2.97.11-.26.51-.3.65-.07.39.63.76,1.27,1.14,1.9,1.06,1.74,2.57,2.9,4.52,3.51,1.96.62,3.58.16,4.89-1.41,1.71-2.05,2.58-4.42,2.4-7.09-.25-3.72-1.03-7.33-2.68-10.7-1.01-2.06-1.88-4.16-2.66-6.32-.21-.57-.46-1.12-.7-1.67-.11-.26-.34-.46-.61-.4-.15.03-.3.27-.36.45-.95,3.13-.97,6.23.42,9.26.9,1.96,1.82,3.9,2.71,5.86.36.8.74,1.59,1,2.42.26.84.42,1.75-.26,2.49-.7.76-1.61.55-2.46.31-2.06-.6-3.53-1.92-4.42-3.85-.76-1.65-1.3-3.39-1.68-5.17-.66-3.09-1.29-6.19-1.92-9.28-.14-.66-.31-1.31-.63-1.9-.18-.34-.56-.35-.78,0-1.28,2.02-1.78,4.2-1.3,6.56.51,2.51,1.03,5.01,1.6,7.5.8,3.5-.56,6.97-3.56,8.94-1.68,1.1-3.14.99-4.57-.41-1.03-1.01-1.75-2.21-1.95-3.68-.18-1.34-.16-2.68-.04-4.03.12-1.27.23-2.55.35-3.82.03-2.39-.32-4.7-1.2-6.92-.15-.37-.31-.82-.77-.81-.4.01-.75.29-.97.65-.14.23-.25.48-.32.73-.58,1.98-.74,3.96-.09,5.96.53,1.61.77,3.27.8,4.96.03,1.95,0,3.9,0,5.85,0,.81-.06,1.62.02,2.42Z"/>
  <path class="st0" d="M79.48,106.66c.31,1.64.98,3.11,1.78,4.55.68,1.23,1.71,1.97,3,2.44.52.19.97.21,1.4-.15.56-.46,1.17-.88,1.69-1.38,3-2.93,4.34-6.55,4.38-10.69,0-.55,0-1.09,0-1.64,0-.17-.02-.38-.24-.44-.24-.07-.31.12-.37.29-.35.89-.68,1.79-1.05,2.67-.43,1.06-.97,2.06-1.68,2.96-.78.98-1.77,1.55-3.06,1.53-.45,0-.79-.15-1.06-.5-.58-.76-1.17-1.51-1.62-2.36-.66-1.24-.97-2.55-.79-3.95.09-.68.34-1.32.54-1.97.72-2.25,1.45-4.5,2.15-6.76.76-2.48,1.43-4.98,1.87-7.54.22-1.31.38-2.61.29-3.94,0-.11-.06-.18-.17-.17-.08,0-.19.03-.23.09-.11.14-.19.31-.27.47-.99,1.81-1.67,3.74-2.21,5.72-.41,1.54-.76,3.09-1.19,4.63-.57,2.06-1.09,4.14-2.01,6.09-.27.57-.45,1.19-.7,1.77-.4.93-.46,1.95-.71,2.91-.26,1.01-.34,2.06-.19,3.12.11.77.33,1.51.47,2.27Z"/>
  <path class="st0" d="M214.63,103.38c.33,1.75,1.05,3.33,1.9,4.87.72,1.32,1.83,2.11,3.21,2.61.55.2,1.03.22,1.5-.16.6-.5,1.25-.94,1.81-1.48,3.21-3.13,4.64-7,4.68-11.44,0-.58,0-1.17,0-1.75,0-.18-.02-.41-.25-.47-.25-.07-.33.13-.4.31-.37.95-.73,1.91-1.12,2.86-.46,1.13-1.04,2.21-1.8,3.17-.83,1.05-1.89,1.65-3.27,1.64-.48,0-.84-.16-1.13-.53-.62-.81-1.25-1.62-1.74-2.53-.7-1.32-1.04-2.72-.85-4.23.09-.73.36-1.41.58-2.11.77-2.41,1.55-4.82,2.3-7.24.82-2.65,1.53-5.33,2-8.07.24-1.4.41-2.79.31-4.21,0-.12-.06-.2-.18-.18-.09,0-.2.03-.25.09-.12.15-.2.33-.29.5-1.05,1.94-1.79,4-2.36,6.12-.44,1.65-.82,3.31-1.27,4.95-.61,2.2-1.17,4.43-2.15,6.51-.29.61-.48,1.27-.75,1.9-.43,1-.49,2.08-.76,3.12-.28,1.08-.36,2.2-.2,3.34.12.82.36,1.62.51,2.43Z"/>
  <path class="st0" d="M236.02,98.33c.27,1.45.87,2.75,1.57,4.02.6,1.09,1.51,1.74,2.65,2.16.46.17.85.18,1.24-.14.5-.41,1.04-.77,1.49-1.22,2.65-2.59,3.83-5.78,3.87-9.44,0-.48,0-.97,0-1.45,0-.15-.02-.33-.21-.39-.21-.06-.27.1-.33.25-.31.79-.6,1.58-.92,2.36-.38.93-.86,1.82-1.48,2.62-.69.87-1.56,1.37-2.7,1.35-.4,0-.7-.13-.93-.44-.51-.67-1.03-1.34-1.43-2.09-.58-1.09-.86-2.25-.7-3.49.08-.6.3-1.17.48-1.74.64-1.99,1.28-3.98,1.9-5.98.67-2.19,1.26-4.4,1.65-6.66.2-1.16.34-2.31.25-3.48,0-.1-.05-.16-.15-.15-.07,0-.17.03-.21.08-.1.13-.17.27-.24.42-.87,1.6-1.48,3.3-1.95,5.05-.37,1.36-.67,2.73-1.05,4.09-.51,1.82-.96,3.66-1.77,5.38-.24.51-.4,1.05-.62,1.57-.35.82-.4,1.72-.63,2.57-.23.89-.3,1.82-.17,2.75.1.68.29,1.34.42,2Z"/>
  <path class="st0" d="M277.93,152.02c.64-1.99,1.28-3.98,1.9-5.98.67-2.19,1.26-4.4,1.65-6.67.2-1.15.34-2.31.25-3.48,0-.1-.05-.16-.15-.15-.07,0-.17.03-.21.08-.1.13-.17.27-.24.42-.87,1.6-1.48,3.3-1.95,5.05-.37,1.36-.67,2.73-1.05,4.09-.51,1.82-.96,3.66-1.77,5.38-.24.51-.4,1.05-.62,1.57-.35.82-.4,1.72-.63,2.57-.23.89-.3,1.82-.17,2.75.1.68.29,1.34.42,2.01.27,1.45.87,2.75,1.57,4.02.6,1.09,1.51,1.74,2.65,2.16.46.17.85.18,1.24-.14.5-.41,1.03-.77,1.49-1.22,2.65-2.59,3.83-5.78,3.87-9.44,0-.48,0-.97,0-1.45,0-.15-.02-.33-.21-.39-.21-.06-.27.1-.33.25-.31.79-.6,1.58-.92,2.36-.38.93-.86,1.82-1.48,2.62-.69.87-1.56,1.37-2.7,1.35-.4,0-.7-.13-.93-.44-.51-.67-1.03-1.34-1.43-2.09-.58-1.09-.86-2.25-.7-3.49.08-.6.3-1.17.48-1.74Z"/>
  <path class="st0" d="M213.26,169.69c.64-1.99,1.28-3.98,1.9-5.98.67-2.19,1.26-4.4,1.65-6.66.2-1.16.34-2.31.25-3.48,0-.1-.05-.16-.15-.15-.07,0-.17.03-.21.08-.1.13-.17.27-.24.42-.87,1.6-1.48,3.3-1.95,5.05-.37,1.36-.67,2.73-1.05,4.09-.51,1.82-.96,3.66-1.77,5.38-.24.51-.4,1.05-.62,1.57-.35.82-.4,1.72-.63,2.57-.23.89-.3,1.82-.17,2.75.1.68.29,1.34.42,2,.27,1.45.87,2.75,1.57,4.02.6,1.09,1.51,1.74,2.65,2.16.46.17.85.18,1.24-.14.5-.41,1.04-.77,1.49-1.22,2.65-2.59,3.83-5.78,3.87-9.44,0-.48,0-.97,0-1.45,0-.15-.02-.33-.21-.39-.21-.06-.27.1-.33.25-.31.79-.6,1.58-.92,2.36-.38.93-.86,1.82-1.48,2.62-.69.87-1.56,1.37-2.7,1.35-.4,0-.7-.13-.93-.44-.51-.67-1.03-1.34-1.43-2.09-.58-1.09-.86-2.25-.7-3.49.08-.6.3-1.17.48-1.74Z"/>
  <path class="st0" d="M257.32,93.63c.22,1.16.7,2.21,1.26,3.23.48.87,1.21,1.4,2.13,1.73.37.13.69.15,1-.11.4-.33.83-.62,1.2-.98,2.13-2.08,3.08-4.65,3.11-7.59,0-.39,0-.78,0-1.16,0-.12-.01-.27-.17-.31-.17-.05-.22.08-.27.2-.25.63-.49,1.27-.74,1.89-.31.75-.69,1.46-1.19,2.1-.55.7-1.25,1.1-2.17,1.09-.32,0-.56-.1-.75-.35-.41-.54-.83-1.08-1.15-1.68-.47-.88-.69-1.81-.56-2.8.06-.49.24-.94.39-1.4.51-1.6,1.03-3.2,1.52-4.8.54-1.76,1.01-3.54,1.32-5.35.16-.93.27-1.85.2-2.79,0-.08-.04-.13-.12-.12-.06,0-.14.02-.17.06-.08.1-.13.22-.2.33-.7,1.29-1.19,2.65-1.57,4.06-.29,1.09-.54,2.2-.85,3.28-.41,1.46-.77,2.94-1.43,4.32-.19.41-.32.84-.5,1.26-.28.66-.32,1.38-.5,2.07-.19.72-.24,1.46-.13,2.21.08.55.24,1.07.34,1.61Z"/>
  <path class="st0" d="M82.4,173.12c.72-2.25,1.45-4.5,2.15-6.76.76-2.48,1.43-4.98,1.87-7.54.22-1.31.38-2.61.29-3.94,0-.11-.06-.18-.17-.17-.08,0-.19.03-.23.09-.11.14-.19.31-.27.47-.99,1.81-1.67,3.74-2.21,5.72-.41,1.54-.76,3.09-1.19,4.63-.57,2.06-1.09,4.14-2.01,6.09-.27.57-.45,1.19-.7,1.77-.4.93-.46,1.95-.71,2.91-.26,1.01-.34,2.06-.19,3.12.11.77.33,1.51.47,2.27.31,1.64.98,3.11,1.78,4.55.68,1.23,1.71,1.97,3,2.44.52.19.97.21,1.4-.15.56-.46,1.17-.88,1.69-1.38,3-2.93,4.34-6.55,4.38-10.69,0-.55,0-1.09,0-1.64,0-.17-.02-.38-.24-.44-.24-.07-.31.12-.37.29-.35.89-.68,1.79-1.05,2.67-.43,1.06-.97,2.06-1.68,2.96-.78.98-1.77,1.55-3.06,1.53-.45,0-.79-.15-1.06-.5-.58-.76-1.17-1.51-1.62-2.36-.66-1.24-.97-2.55-.79-3.95.09-.68.34-1.32.54-1.97Z"/>
  <path class="st0" d="M127.86,207.98c.49.18.92.2,1.35-.15.54-.44,1.12-.84,1.62-1.32,2.87-2.8,4.16-6.27,4.19-10.24,0-.52,0-1.05,0-1.57,0-.16-.02-.36-.23-.42-.23-.06-.29.11-.36.27-.33.85-.65,1.71-1,2.56-.41,1.01-.93,1.97-1.61,2.84-.74.94-1.69,1.48-2.93,1.47-.43,0-.75-.14-1.01-.48-.56-.73-1.12-1.45-1.55-2.26-.63-1.18-.93-2.44-.76-3.78.08-.66.32-1.27.52-1.89.69-2.16,1.39-4.31,2.06-6.48.73-2.37,1.37-4.77,1.79-7.22.22-1.25.36-2.5.27-3.77,0-.11-.06-.17-.17-.16-.08,0-.18.03-.22.08-.1.14-.18.3-.26.45-.94,1.73-1.6,3.58-2.11,5.48-.4,1.47-.73,2.96-1.14,4.43-.55,1.97-1.04,3.96-1.92,5.83-.26.55-.43,1.14-.67,1.7-.38.89-.44,1.86-.68,2.79-.25.97-.33,1.97-.18,2.99.11.74.32,1.45.45,2.17.29,1.57.94,2.98,1.7,4.36.65,1.18,1.64,1.89,2.87,2.34Z"/>
  <path class="st0" d="M358.47,213.12c-.23-.06-.29.11-.36.27-.33.85-.65,1.71-1,2.56-.41,1.01-.93,1.97-1.61,2.84-.74.94-1.69,1.48-2.93,1.47-.43,0-.75-.14-1.01-.48-.56-.73-1.12-1.45-1.55-2.26-.63-1.18-.93-2.44-.76-3.78.08-.66.32-1.27.52-1.89.69-2.16,1.39-4.31,2.06-6.48.73-2.37,1.37-4.77,1.79-7.22.22-1.25.36-2.5.27-3.77,0-.11-.06-.17-.17-.16-.08,0-.18.03-.22.08-.1.14-.18.3-.26.45-.94,1.73-1.6,3.58-2.11,5.48-.4,1.47-.73,2.96-1.14,4.43-.55,1.97-1.04,3.96-1.92,5.83-.26.55-.43,1.14-.67,1.7-.38.89-.44,1.86-.68,2.79-.25.97-.33,1.97-.18,2.99.11.74.32,1.45.45,2.17.29,1.57.94,2.98,1.7,4.36.65,1.18,1.64,1.89,2.87,2.34.49.18.92.2,1.35-.15.54-.44,1.12-.84,1.62-1.32,2.87-2.8,4.16-6.27,4.19-10.24,0-.52,0-1.05,0-1.57,0-.16-.02-.36-.23-.42Z"/>
  <path class="st0" d="M125.54,167.84c.54-.44,1.12-.84,1.62-1.32,2.87-2.8,4.16-6.27,4.19-10.24,0-.52,0-1.05,0-1.57,0-.16-.02-.36-.23-.42-.23-.06-.29.11-.36.27-.33.85-.65,1.71-1,2.56-.41,1.01-.93,1.97-1.61,2.84-.74.94-1.69,1.48-2.93,1.47-.43,0-.75-.14-1.01-.48-.56-.73-1.12-1.45-1.55-2.26-.63-1.18-.93-2.44-.76-3.78.08-.66.32-1.27.52-1.89.69-2.16,1.39-4.31,2.06-6.48.73-2.37,1.37-4.77,1.79-7.22.22-1.25.36-2.5.27-3.77,0-.11-.06-.17-.17-.16-.08,0-.18.03-.22.08-.1.14-.18.3-.26.45-.94,1.73-1.6,3.58-2.11,5.48-.4,1.47-.73,2.96-1.14,4.43-.55,1.97-1.04,3.96-1.92,5.83-.26.55-.43,1.14-.67,1.7-.38.89-.44,1.86-.68,2.79-.25.97-.33,1.97-.18,2.99.11.74.32,1.45.45,2.17.29,1.57.94,2.98,1.7,4.36.65,1.18,1.64,1.89,2.87,2.34.49.18.92.2,1.35-.15Z"/>
  <path class="st0" d="M121.87,127.84c.54-.44,1.12-.84,1.62-1.32,2.87-2.8,4.16-6.27,4.19-10.24,0-.52,0-1.05,0-1.57,0-.16-.02-.36-.23-.42-.23-.06-.29.11-.36.27-.33.85-.65,1.71-1,2.56-.41,1.01-.93,1.97-1.61,2.84-.74.94-1.69,1.48-2.93,1.47-.43,0-.75-.14-1.01-.48-.56-.73-1.12-1.45-1.55-2.26-.63-1.18-.93-2.44-.76-3.78.08-.66.32-1.27.52-1.89.69-2.16,1.39-4.31,2.06-6.48.73-2.37,1.37-4.77,1.79-7.22.22-1.25.36-2.5.27-3.77,0-.11-.06-.17-.17-.16-.08,0-.18.03-.22.08-.1.14-.18.3-.26.45-.94,1.73-1.6,3.58-2.11,5.48-.4,1.47-.73,2.96-1.14,4.43-.55,1.97-1.04,3.96-1.92,5.83-.26.55-.43,1.14-.67,1.7-.38.89-.44,1.86-.68,2.79-.25.97-.33,1.97-.18,2.99.11.74.32,1.45.45,2.17.29,1.57.94,2.98,1.7,4.36.65,1.18,1.64,1.89,2.87,2.34.49.18.92.2,1.35-.15Z"/>
  <path class="st0" d="M156.58,212.74c-3.47-1.19-7.24-.85-10.83,1.22-.52.3-1.28.46-1.38,1.26.49.43,1.13.37,1.71.49,1.24.25,2.49.47,3.72.74,1.85.39,2.3,2.01,1.81,3.43-.32.91-.87,1.65-1.7,2.16-1.76,1.09-3.64,1.8-5.71,2.01-1.48.15-2.97.15-4.45-.01-1.7-.19-3.39-.4-5.08-.62-2.08-.26-4.16-.47-6.25-.37-.94.04-1.87.14-2.77.41-.23.07-.3.36-.13.51.68.6,1.46.95,2.36,1.09,3.15.49,6.3,1.04,9.45,1.51,2.29.35,4.6.46,6.91.33,3.96-.23,7.43-1.89,10.8-3.79.67-.38,1.28-.85,1.88-1.33,1.19-.95,2-2.19,2.49-3.62.8-2.32-.11-4.3-2.84-5.41Z"/>
  <path class="st0" d="M202.47,212.74c-3.47-1.19-7.24-.85-10.83,1.22-.52.3-1.28.46-1.38,1.26.49.43,1.13.37,1.71.49,1.24.25,2.49.47,3.72.74,1.85.39,2.3,2.01,1.81,3.43-.32.91-.87,1.65-1.7,2.16-1.76,1.09-3.64,1.8-5.71,2.01-1.48.15-2.97.15-4.45-.01-1.7-.19-3.39-.4-5.08-.62-2.08-.26-4.16-.47-6.25-.37-.94.04-1.87.14-2.77.41-.23.07-.3.36-.13.51.68.6,1.46.95,2.36,1.09,3.15.49,6.3,1.04,9.45,1.51,2.29.35,4.6.46,6.91.33,3.96-.23,7.43-1.89,10.8-3.79.67-.38,1.28-.85,1.88-1.33,1.19-.95,2-2.19,2.49-3.62.8-2.32-.11-4.3-2.84-5.41Z"/>
  <path class="st0" d="M110.69,212.74c-3.47-1.19-7.24-.85-10.83,1.22-.52.3-1.28.46-1.38,1.26.49.43,1.13.37,1.71.49,1.24.25,2.49.47,3.72.74,1.85.39,2.3,2.01,1.81,3.43-.32.91-.87,1.65-1.7,2.16-1.76,1.09-3.64,1.8-5.71,2.01-1.48.15-2.97.15-4.45-.01-1.7-.19-3.39-.4-5.08-.62-2.08-.26-4.16-.47-6.25-.37-.94.04-1.87.14-2.77.41-.23.07-.3.36-.13.51.68.6,1.46.95,2.36,1.09,3.15.49,6.3,1.04,9.45,1.51,2.29.35,4.6.46,6.91.33,3.96-.23,7.43-1.89,10.8-3.79.67-.38,1.28-.85,1.88-1.33,1.19-.95,2-2.19,2.49-3.62.8-2.32-.11-4.3-2.84-5.41Z"/>
  <path class="st0" d="M161.26,132.39c1.15,4.26,1.31,8.65,1.11,13-.29,6.27-1.72,12.35-3.9,18.25-.29.78-.71,1.55-.39,2.51,1.26-.12,1.36-1.22,1.72-1.99,2.43-5.22,3.98-10.75,5.49-16.28,1.88-6.9,1.89-13.91.7-20.89-1.48-8.69-5.38-16.38-10.34-23.57-.81-1.18-1.68-2.32-2.88-3.98-1,3.18-1.7,5.74-2.62,8.21-.55,1.49-.23,2.5.72,3.71,4.91,6.28,8.33,13.33,10.4,21.03Z"/>
  <path class="st0" d="M184.59,129.12c-.8.35-1.66.94-2.09,1.65-1.46,2.41-2.76,4.92-4.07,7.42-.34.65-.48,1.39-.85,2.52,1.55-.65,2.66-1.07,3.73-1.56,2.76-1.26,5.5-2.58,8.27-3.81,17.19-7.62,34.93-13.76,52.78-19.65,25.09-8.28,50.49-15.48,75.98-22.39,12.61-3.42,25.24-6.73,38.13-9,.91-.16,2-.62,2.53-1.31,2.01-2.62,3.82-5.39,5.71-8.1-.1-.16-.2-.32-.3-.48-2.63.49-5.27.88-7.88,1.47-8.61,1.95-17.22,3.9-25.79,5.97-9.19,2.22-18.39,4.45-27.52,6.93-8.31,2.26-16.54,4.82-24.79,7.3-25.91,7.76-51.8,15.56-76.88,25.81-5.68,2.32-11.32,4.76-16.95,7.22Z"/>
</svg>