<?xml version="1.0" encoding="UTF-8"?>
<svg id="Layer_1" xmlns="http://www.w3.org/2000/svg" version="1.1" viewBox="0 0 442 238.32">
  <!-- Generator: Adobe Illustrator 30.2.1, SVG Export Plug-In . SVG Version: 2.1.1 Build 1)  -->
  <defs>
    <style>
      .st0 {
        fill: #fff;
      }
    </style>
  </defs>
  <path class="st0" d="M68.71,98c2.35.73,4.25,1.36,5.68,1.88,1.44.52,3.16,1.29,5.17,2.31,2.01,1.02,3.58,2.07,4.7,3.14,1.12,1.07,2.1,2.44,2.94,4.12.84,1.67,1.25,3.5,1.25,5.49,0,2.93-.64,5.48-1.92,7.64-1.28,2.17-3.05,3.84-5.29,5.02-2.25,1.18-4.7,2.05-7.37,2.63-2.66.57-5.57.86-8.7.86-7.95,0-15.42-2.01-22.42-6.04l5.1-8.08c6.11,3.35,12.02,5.02,17.72,5.02,8.26,0,12.39-2.17,12.39-6.51,0-1.15-.33-2.18-.98-3.1-.65-.91-1.69-1.72-3.1-2.43-1.41-.71-2.73-1.28-3.96-1.72-1.23-.44-2.94-1.01-5.14-1.69-.11-.05-.2-.08-.27-.08s-.16-.03-.24-.08c-.08-.05-.17-.08-.27-.08-2.56-.78-4.52-1.41-5.88-1.88-1.36-.47-3.1-1.22-5.21-2.23-2.12-1.02-3.72-2.06-4.82-3.14-1.1-1.07-2.08-2.47-2.94-4.19-.86-1.72-1.29-3.66-1.29-5.8,0-4.44,1.83-8.02,5.49-10.74,3.97-2.87,9.59-4.31,16.86-4.31s14.16,2.01,21.17,6.04l-4.94,7.84c-5.85-3.24-11.42-4.86-16.7-4.86-3.71,0-6.53.51-8.47,1.53s-2.9,2.39-2.9,4.12c0,.94.26,1.82.78,2.63.52.81,1.1,1.48,1.73,2,.63.52,1.63,1.09,3.02,1.69,1.38.6,2.52,1.05,3.41,1.33.89.29,2.27.72,4.16,1.29.57.16.99.29,1.25.39Z"/>
  <path class="st0" d="M140.76,75.1h10.11v54.8h-10.11v-22.74h-29.87v22.74h-10.11v-54.8h10.11v22.58h29.87v-22.58Z"/>
  <path class="st0" d="M194.39,75.1l21.87,54.8h-10.19l-4.94-12.31h-26.73l-4.94,12.31h-10.27l21.95-54.8h13.25ZM178.08,108.42h19.36l-9.72-24.23-9.64,24.23Z"/>
  <path class="st0" d="M284.63,75.1v54.8h-10.04v-35.99l-16.93,23.68h-5.88l-16.93-23.68v35.99h-10.11v-54.8h7.92l22.03,30.89,22.11-30.89h7.84Z"/>
  <path class="st0" d="M295.37,75.1h48.45v9.41h-19.21v45.39h-10.04v-45.39h-19.21v-9.41Z"/>
  <path class="st0" d="M394.08,75.1h10.35l-21.95,54.8h-11.29l-21.95-54.8h10.43l17.17,42.89,17.25-42.89Z"/>
</svg>