<?xml version="1.0" encoding="UTF-8"?>
<svg id="Layer_1" xmlns="http://www.w3.org/2000/svg" version="1.1" viewBox="0 0 490 420">
  <!-- Generator: Adobe Illustrator 30.2.1, SVG Export Plug-In . SVG Version: 2.1.1 Build 1)  -->
  <defs>
    <style>
      .st0 {
        fill: #8c5b30;
      }
    </style>
  </defs>
  <g>
    <path class="st0" d="M148.53,96.51c10.8-7.58,25.02-7.87,37.53-5.47,16.43,3.34,30.14,13.73,42.18,24.86,3.49,3.53,8.13,7.23,7.33,12.84,0,15.94,7.68,31.21,19.34,41.85,11.52,10.67,26.65,16.02,41.12,21.33,15.88,5.08,32.58,10.98,43.95,23.84,10.3,10.88,11.31,28.08,6.07,41.56-7.35,17.42-27.52,25.43-45.42,24.51-21.14-.27-39.6-12.82-54.05-27.23,2.48-17.46.02-36.44-11.27-50.58-17.09-23.49-45.95-32.72-72.05-42.26-11.29-4.05-23.49-10.34-27.81-22.34-4.73-15.11.35-33.22,13.09-42.92Z"/>
    <path class="st0" d="M287.24,91.72c21.47-6.89,45.64.74,61.79,15.79-.21,26.4,0,52.79-.12,79.19-17.82-13.01-39.24-19.34-59.56-27.17-9.95-3.98-20.05-10.49-23.58-21.14-5.31-17.77,3.16-40.38,21.47-46.66Z"/>
    <path class="st0" d="M132.65,176.07c17.49,12.12,37.82,18.91,57.64,26.18,10.36,3.92,21.22,10.09,25.39,20.98,4.67,14.04.66,30.64-9.97,40.98-7.16,6.87-17.42,9.23-27.07,9.23-16.87.31-33.2-6.98-45.73-18-.25-26.47.23-52.93-.25-79.38Z"/>
  </g>
  <g>
    <path class="st0" d="M88.33,310.2c.31.8.46,1.57.46,2.29,0,1.96-1.13,3.41-3.27,3.41-2.33,0-3.68-2.76-6.04-3.95-.65-.34-1.23-.49-1.68-.49-.74,0-1.23.4-1.23,1.13,0,.55.28,1.26.92,2.03,3.15,3.77,11.85,7.65,11.85,12.31,0,2.88-1.74,5.33-4.62,5.33-2.26,0-5.66-1.77-8-1.77-1.17,0-2.08.45-2.43,1.77h-.22c-.22-.61-.34-1.25-.34-1.89,0-2.06,1.2-4.01,3.38-4.01,2.94,0,4.3,2.91,6.74,4.14.68.34,1.32.52,1.83.52.62,0,1.04-.28,1.04-.89,0-.4-.16-.92-.58-1.6-1.71-2.86-8.85-6.95-10.48-9.28-.85-1.22-1.26-2.66-1.26-4.04,0-2.64,1.53-5.02,4.45-5.02,2.02,0,4.96,1.78,7.05,1.78,1.04,0,1.86-.45,2.21-1.78h.22Z"/>
    <path class="st0" d="M104.94,315.1l.33.1v13.54c0,1.04.07,2.82.95,3.06v.21h-4.01c-.82,0-1.5-.68-1.5-1.51v-2.84c-.7,2.55-2.08,4.6-4.78,4.6s-4.16-3.21-4.16-5.21v-7.87c0-1.05-.07-2.81-.95-3.04v-.22c1.91,0,4.13-.19,5.4-.82.22.06.12.03.33.1v12.11c0,1.74.15,3.07,1.31,3.07,1.43,0,2.61-3.76,2.61-8.37v-2.84c0-1.05-.07-2.81-.94-3.04v-.22c1.91,0,4.13-.19,5.4-.82Z"/>
    <path class="st0" d="M107.71,331.8c.88-.24.95-2.02.95-3.06v-15.04c0-1.04-.07-2.81-.95-3.04v-.22c1.91,0,4.13-.18,5.42-.82l.31.1v19.02c0,1.04.07,2.82.95,3.06v.21h-6.68v-.21Z"/>
    <path class="st0" d="M117.82,327.05v-10.27h-2.2v-.82h1.48c2.29,0,3.31-1.8,3.31-3.3,0-1.07-.52-1.97-1.47-1.97l-.03-.37c3.67,0,3.7,1.71,3.7,5.64h4.01v.82h-4.01v11.12c0,1.89.86,2.79,2.02,2.79.56,0,1.2-.21,1.84-.62l.3.4c-.89,1.08-2.66,1.8-4.79,1.8-2.82,0-4.16-3.21-4.16-5.21Z"/>
    <path class="st0" d="M138.6,332.01c-.82,0-1.5-.68-1.5-1.51v-.94c-.34,1.57-1.26,2.7-3.61,2.7-1.2,0-2.46-.3-3.44-.98-1.22-.86-1.8-2.17-1.8-3.52,0-1.84.88-3.58,2.39-4.57,1.72-1.13,4.13-1.57,6.23-1.96v-5.24c-1.01.52-2.85,4.05-5.2,4.05-1.78,0-2.82-1.2-2.82-2.79,0-.67.19-1.41.58-2.15h.15c.24,1.32,1.05,1.75,2.12,1.75,1.53,0,3.58-.89,5.17-1.41.53-.16,1.07-.34,1.62-.34,1.69,0,3.18,1.35,3.18,3.12v10.32c0,1.28.07,3.03.94,3.27v.21h-4.01ZM133.09,327.26c0,2.69.71,3.62,1.99,3.62,1.41,0,1.8-2.06,1.8-4.88v-4.26c-2.05.7-3.79,2.26-3.79,5.52Z"/>
    <path class="st0" d="M144.09,331.8c.88-.24.95-2.02.95-3.06v-9.56c0-1.05-.07-2.81-.95-3.04v-.22c1.92,0,3.98-.19,5.25-.82l.24.12v5.28h.01c.62-2.89,1.94-5.4,4.78-5.4s4.16,3.19,4.16,5.2v8.24c0,1.28.07,3.03.95,3.27v.21h-4.23c-.83,0-1.51-.68-1.51-1.51v-10.47c0-1.74-.13-3.07-1.29-3.07-1.43,0-2.63,4.2-2.63,8.82v2.97c0,1.04.07,2.82.95,3.06v.21h-6.68v-.21Z"/>
    <path class="st0" d="M183,310.2c.31.8.46,1.57.46,2.29,0,1.96-1.13,3.41-3.27,3.41-2.33,0-3.68-2.76-6.04-3.95-.65-.34-1.23-.49-1.68-.49-.74,0-1.23.4-1.23,1.13,0,.55.28,1.26.92,2.03,3.15,3.77,11.85,7.65,11.85,12.31,0,2.88-1.74,5.33-4.62,5.33-2.26,0-5.66-1.77-8-1.77-1.17,0-2.08.45-2.43,1.77h-.22c-.22-.61-.34-1.25-.34-1.89,0-2.06,1.2-4.01,3.38-4.01,2.94,0,4.3,2.91,6.74,4.14.68.34,1.32.52,1.83.52.62,0,1.04-.28,1.04-.89,0-.4-.16-.92-.58-1.6-1.71-2.86-8.85-6.95-10.48-9.28-.85-1.22-1.26-2.66-1.26-4.04,0-2.64,1.53-5.02,4.45-5.02,2.02,0,4.96,1.78,7.05,1.78,1.04,0,1.86-.45,2.21-1.78h.22Z"/>
    <path class="st0" d="M195.84,332.01c-.82,0-1.5-.68-1.5-1.51v-.94c-.34,1.57-1.26,2.7-3.61,2.7-1.2,0-2.46-.3-3.44-.98-1.22-.86-1.8-2.17-1.8-3.52,0-1.84.88-3.58,2.39-4.57,1.72-1.13,4.13-1.57,6.23-1.96v-5.24c-1.01.52-2.85,4.05-5.2,4.05-1.78,0-2.82-1.2-2.82-2.79,0-.67.19-1.41.58-2.15h.15c.24,1.32,1.05,1.75,2.12,1.75,1.53,0,3.58-.89,5.17-1.41.53-.16,1.07-.34,1.62-.34,1.69,0,3.18,1.35,3.18,3.12v10.32c0,1.28.07,3.03.94,3.27v.21h-4.01ZM190.34,327.26c0,2.69.71,3.62,1.99,3.62,1.41,0,1.8-2.06,1.8-4.88v-4.26c-2.05.7-3.79,2.26-3.79,5.52Z"/>
    <path class="st0" d="M201.34,331.8c.88-.24.95-2.02.95-3.06v-9.56c0-1.05-.07-2.81-.95-3.04v-.22c1.92,0,3.98-.19,5.25-.82l.25.12v4.5c.61-2.54,1.75-4.62,3.92-4.62,1.89,0,3.64,1.86,3.64,3.74,0,1.35-2.02,2.82-2.02,3.87,0,.1.01.19.06.28l-.15.07c-1.87-.99-.42-6.12-2.6-6.12-1.93,0-2.61,4.2-2.61,8.82v2.97c0,1.04.07,2.82.94,3.06v.21h-6.68v-.21Z"/>
    <path class="st0" d="M226.23,332.01c-.82,0-1.5-.68-1.5-1.51v-.94c-.34,1.57-1.26,2.7-3.61,2.7-1.2,0-2.46-.3-3.44-.98-1.22-.86-1.8-2.17-1.8-3.52,0-1.84.88-3.58,2.39-4.57,1.72-1.13,4.13-1.57,6.23-1.96v-5.24c-1.01.52-2.85,4.05-5.2,4.05-1.78,0-2.82-1.2-2.82-2.79,0-.67.19-1.41.58-2.15h.15c.24,1.32,1.05,1.75,2.12,1.75,1.53,0,3.58-.89,5.17-1.41.53-.16,1.07-.34,1.62-.34,1.69,0,3.18,1.35,3.18,3.12v10.32c0,1.28.07,3.03.94,3.27v.21h-4.01ZM220.73,327.26c0,2.69.71,3.62,1.99,3.62,1.41,0,1.8-2.06,1.8-4.88v-4.26c-2.05.7-3.79,2.26-3.79,5.52Z"/>
    <path class="st0" d="M232.14,335.2c.37.04.74.06,1.1.06,2.92,0,5.31-1.26,6.64-3.25h-3.01l-4.33-13.2c-.34-1.07-.67-2.51-1.31-2.67v-.22c1.92,0,3.56-.19,4.84-.82l.33.1,4.26,14.83.76-10.88c.03-.28.03-.56.03-.82,0-1.28-.28-2.08-.7-2.2v-.22c1.91,0,4.25-.19,5.54-.82l.33.1-5.8,16.8c-1.05,3.03-2.98,6.13-5.83,7.42l-2.94-4.02.12-.21Z"/>
    <path class="st0" d="M255.08,331.76c.88-.27.95-2.33.95-3.55v-13.72c0-1.41-.06-3.52-.95-3.8v-.25h10.05c3.28,0,6.01,2.02,6.01,5.51v.43c0,3.47-2.78,5.94-6.16,5.94h-4.04v5.74c0,1.41.07,3.43.94,3.7v.25h-6.8v-.25ZM261.55,321.5c2.46,0,4.5-2.03,4.5-4.53v-1.56c0-2.32-1.89-4.2-4.19-4.2h-.92v10.29h.61Z"/>
    <path class="st0" d="M276.49,320.95c0,1.31.18,2.7.53,3.99.91,3.34,2.84,4.99,5,4.99,1.14,0,2.35-.46,3.5-1.38l.31.3c-1.08,2.26-3.37,3.4-5.76,3.4-3.76,0-7.78-2.81-7.78-8.48,0-6.49,3.77-8.67,7.26-8.67,3.95,0,5.69,2.76,5.69,5.27,0,2.06-1.2,3.96-3.31,3.96-1.69,0-3.16-1.23-4.41-1.29v-.33c.49-.16.92-.21,1.31-.21.62,0,1.13.12,1.59.12.82,0,1.2-1.02,1.2-2.3,0-1.99-.97-4.59-2.69-4.59-1.62,0-2.45,2.39-2.45,5.21Z"/>
    <path class="st0" d="M289.67,330.82c-1.01,0-1.8.36-2.11,1.44h-.16c-.22-.53-.33-1.1-.33-1.66.03-2.98,1.31-4.28,2.82-4.28,2.39,0,3.46,3.62,5.45,4.57.5.25,1.01.39,1.41.39.61,0,.97-.36.97-.77l-.02-.15c-.46-1.97-7.13-5.98-8.68-7.39,0,0-1.66-1.01-1.66-3.06l.02-.31-.02-.31c0-1.66,1.38-4.19,4.2-4.19h.04c1.37.02,3.8,1.38,5.54,1.38.88,0,1.56-.34,1.86-1.38h.18c.25.62.37,1.26.37,1.87,0,2.49-.92,3.9-2.64,3.9-1.9,0-3-3.49-4.91-4.42-.42-.19-.8-.28-1.11-.28-.74,0-1.13.53-1.13,1.11,0,.4.21.85.62,1.25,2.08,1.97,6.78,3.84,8.94,6.62.52.67.71,1.5.71,2.39-.22,2.63-1.69,4.72-4.02,4.72-1.47,0-4.32-1.44-6.32-1.44Z"/>
    <path class="st0" d="M301.28,331.8c.88-.24.95-2.02.95-3.06v-9.56c0-1.05-.07-2.81-.95-3.04v-.22c1.92,0,3.98-.19,5.25-.82l.25.12v4.5c.61-2.54,1.75-4.62,3.92-4.62,1.89,0,3.64,1.86,3.64,3.74,0,1.35-2.02,2.82-2.02,3.87,0,.1.01.19.06.28l-.15.07c-1.87-.99-.42-6.12-2.6-6.12-1.93,0-2.61,4.2-2.61,8.82v2.97c0,1.04.07,2.82.94,3.06v.21h-6.68v-.21Z"/>
    <path class="st0" d="M319.98,320.95c0,1.31.18,2.7.53,3.99.91,3.34,2.84,4.99,5,4.99,1.14,0,2.35-.46,3.5-1.38l.31.3c-1.08,2.26-3.37,3.4-5.76,3.4-3.76,0-7.78-2.81-7.78-8.48,0-6.49,3.77-8.67,7.26-8.67,3.95,0,5.69,2.76,5.69,5.27,0,2.06-1.2,3.96-3.31,3.96-1.69,0-3.16-1.23-4.41-1.29v-.33c.49-.16.92-.21,1.31-.21.62,0,1.13.12,1.59.12.82,0,1.2-1.02,1.2-2.3,0-1.99-.97-4.59-2.69-4.59-1.62,0-2.45,2.39-2.45,5.21Z"/>
    <path class="st0" d="M345.37,315.1l.33.1-5.91,16.8h-4.08l-4.07-13.2c-.34-1.07-.68-2.51-1.32-2.67v-.22c1.92,0,3.56-.19,4.84-.82l.33.1,4.14,15.22.88-11.27c.03-.3.04-.59.04-.85,0-1.26-.31-2.06-.7-2.17v-.22c1.92,0,4.25-.19,5.52-.82Z"/>
    <path class="st0" d="M347.98,315.34h11.93v.22c-.46.18-1.35,2.11-1.68,2.76l-6.44,13.06c2.81-.39,6.86-1.97,7.57-3.25l.22.07-.43,3.8h-12.91v-.22c.67-.12,1.42-2.12,1.77-2.78,1.5-2.85,4.75-9.71,6.44-13.06-2.58.4-6.16,1.75-6.8,2.88l-.21-.06.53-3.43Z"/>
    <path class="st0" d="M371.41,332.01c-.82,0-1.5-.68-1.5-1.51v-.94c-.34,1.57-1.26,2.7-3.61,2.7-1.2,0-2.46-.3-3.44-.98-1.22-.86-1.8-2.17-1.8-3.52,0-1.84.88-3.58,2.39-4.57,1.72-1.13,4.13-1.57,6.23-1.96v-5.24c-1.01.52-2.85,4.05-5.2,4.05-1.78,0-2.82-1.2-2.82-2.79,0-.67.19-1.41.58-2.15h.15c.24,1.32,1.05,1.75,2.12,1.75,1.53,0,3.58-.89,5.17-1.41.53-.16,1.07-.34,1.62-.34,1.69,0,3.18,1.35,3.18,3.12v10.32c0,1.28.07,3.03.94,3.27v.21h-4.01ZM365.9,327.26c0,2.69.71,3.62,1.99,3.62,1.41,0,1.8-2.06,1.8-4.88v-4.26c-2.05.7-3.79,2.26-3.79,5.52Z"/>
    <path class="st0" d="M382.73,332.26c-1.66,0-3.43-.92-4.38-2.64-.83-1.51-1.19-3.62-1.19-5.94,0-4.38,2.03-8.58,7.05-8.58,1.2,0,2.2.34,3.06.8v-2.2c0-1.04-.07-2.81-.95-3.04v-.22c1.92,0,3.98-.18,5.25-.82.16.09.09.04.25.12v19c0,1.04.07,2.82.94,3.06v.21h-4.01c-.83,0-1.5-.68-1.5-1.51v-2.43c-.09,0-.92,4.2-4.53,4.2ZM385.42,316.08c-2.67,0-3.34,4.44-3.34,7.6,0,3.53.43,7.24,1.87,7.24,1.63,0,2.95-3.06,3.09-6.62v-7.67c-.61-.34-1.17-.55-1.62-.55Z"/>
    <path class="st0" d="M398.71,320.95c0,1.31.18,2.7.53,3.99.91,3.34,2.84,4.99,5,4.99,1.14,0,2.35-.46,3.5-1.38l.31.3c-1.08,2.26-3.37,3.4-5.76,3.4-3.76,0-7.78-2.81-7.78-8.48,0-6.49,3.77-8.67,7.26-8.67,3.95,0,5.69,2.76,5.69,5.27,0,2.06-1.2,3.96-3.31,3.96-1.69,0-3.16-1.23-4.41-1.29v-.33c.49-.16.92-.21,1.31-.21.62,0,1.13.12,1.59.12.82,0,1.2-1.02,1.2-2.3,0-1.99-.97-4.59-2.69-4.59-1.62,0-2.45,2.39-2.45,5.21Z"/>
  </g>
</svg>