<?xml version="1.0" encoding="UTF-8"?>
<svg id="Layer_1" xmlns="http://www.w3.org/2000/svg" version="1.1" viewBox="0 0 456 306">
  <!-- Generator: Adobe Illustrator 30.2.1, SVG Export Plug-In . SVG Version: 2.1.1 Build 1)  -->
  <defs>
    <style>
      .st0 {
        fill: #054239;
      }
    </style>
  </defs>
  <g>
    <path class="st0" d="M378.16,128.03c-.4.39-.81.77-1.23,1.13l19.75,29.51-7.51-1c-2.43-.32-4.57-1.76-5.79-3.89l-11.79-20.58c-.47.3-.94.59-1.42.87l18.9,34.41-7.51-1.52c-2.46-.5-4.54-2.14-5.59-4.42l-11.79-25.52c-.51.21-1.04.41-1.57.6l12.35,28-5.73-1.15c-2.7-.55-4.92-2.46-5.85-5.05l-7.2-20.01c-.55.11-1.1.21-1.65.29l7.97,23.41-4.29-.86c-2.94-.59-5.28-2.81-6.05-5.71l-4.11-15.53h0c-.53.15-1.05.3-1.57.47l4.75,19.36-3.07-.62c-3.19-.64-5.65-3.18-6.2-6.38l-1.7-9.84-2.93,6.81c-.32.76-.25,1.63.21,2.32l9.05,13.64c.13.19.2.4.21.63l.17,2.58,5.7,5.71h13.41v5.86l-2.86-2.86h-3.15l2.99,3-3.26,3.26v-3.26l-2.99-3h-2.88l-2.99,3v2.58l-3.48-3.49,3.02-2.95-5.32-5.33-1.91.21c-.3.03-.61-.04-.86-.21l-11.18-7.45,8.04,10.88,12.81,17.31h-5.4c-3.06,0-5.85-1.78-7.13-4.56l-4.7-10.11c-.44.21-.89.4-1.34.58l7.54,19.02h-2.6c-3.8,0-7.06-2.72-7.74-6.47l-2.03-11.17c-.44.08-.89.15-1.34.21l1.7,13.34c.32,2.56-.62,5.13-2.54,6.86l-2.4,2.17-2.4-2.17c-1.91-1.73-2.86-4.3-2.54-6.86l1.7-13.34c-.45-.06-.89-.13-1.34-.21l-2.03,11.17c-.68,3.75-3.94,6.47-7.74,6.47h-2.6l7.54-19.02c-.45-.17-.9-.37-1.34-.58l-4.7,10.11c-1.29,2.78-4.07,4.56-7.13,4.56h-5.4l12.81-17.31,8.04-10.88-11.18,7.44c-.25.17-.56.25-.86.21l-1.91-.21-5.32,5.33,3.02,2.95-3.48,3.49v-2.58l-2.99-3h-2.88l-3,3v3.26l-3.26-3.26,2.99-3h-3.15l-2.86,2.86v-5.86h13.41l5.7-5.71.18-2.59c.02-.22.09-.44.21-.62l9.05-13.64c.46-.69.54-1.56.21-2.32l-2.93-6.82h0l-1.7,9.85c-.55,3.21-3.02,5.74-6.21,6.38l-3.06.62,4.75-19.37c-.51-.17-1.04-.32-1.57-.47l-4.1,15.54c-.77,2.9-3.12,5.12-6.06,5.71l-4.29.86,7.97-23.42c-.55-.08-1.1-.18-1.65-.28l-7.2,20.01c-.93,2.59-3.16,4.51-5.85,5.05l-5.73,1.15,12.35-28.01c-.53-.18-1.04-.39-1.56-.59l-11.79,25.52c-1.05,2.28-3.13,3.92-5.59,4.42l-7.52,1.52,18.91-34.41c-.48-.28-.96-.57-1.42-.88l-11.79,20.59c-1.22,2.13-3.36,3.57-5.79,3.89l-7.51,1,19.75-29.51c-.42-.36-.83-.74-1.24-1.13l-11.12,16.01c-1.37,1.97-3.55,3.2-5.95,3.36l-7.38.49,19.95-24.82c-.35-.44-.68-.89-1.01-1.34l-11.07,13.3c-1.49,1.8-3.71,2.83-6.04,2.83h-7.34l35.36-36.89c1.91-1.99,4.53-3.11,7.29-3.11h7.89c2.11,0,3.82,1.71,3.82,3.82v4.46c0,3.59,1.2,6.91,3.21,9.56,2.88,3.8,7.44,6.26,12.58,6.26,1.14,0,2.25-.13,3.33-.36.85-.18,1.55-.81,1.78-1.66l2.8-10.15c.04-.18.05-.37.02-.55-.19-1.23-1.85-1.99-3.72-1.71-1.49.22-2.66,1.06-2.97,2.01,0,0-.83-1.61-.85-2.82-.02-1.56.64-2.42,2.14-3.17l2.61-1.23c1.65-1.51,4.32-2.49,7.36-2.49,4.67,0,8.51,2.33,9,5.32l.05.36,1.89,14.24c.13,1.02.92,1.83,1.93,1.99.83.13,1.68.21,2.55.21,5.13,0,9.7-2.45,12.58-6.26,2.02-2.66,3.21-5.96,3.21-9.56v-4.46c0-2.11,1.71-3.82,3.82-3.82h7.89c2.75,0,5.38,1.12,7.29,3.11l35.36,36.89h-7.34c-2.33,0-4.55-1.04-6.04-2.83l-11.07-13.3c-.32.45-.66.9-1,1.34l19.94,24.82-7.39-.49c-2.39-.16-4.58-1.39-5.95-3.36l-11.12-16h-.05Z"/>
    <polygon class="st0" points="319.36 91.15 324.04 87.74 328.7 91.15 326.92 85.64 331.59 82.23 325.82 82.23 324.04 76.73 322.25 82.23 316.47 82.23 321.14 85.64 319.36 91.15"/>
    <polygon class="st0" points="342.71 91.28 345.7 96.24 346.18 90.47 351.81 89.14 346.49 86.9 346.97 81.13 343.19 85.52 337.87 83.27 340.86 88.23 337.09 92.61 342.71 91.28"/>
    <polygon class="st0" points="301.88 90.48 302.31 96.24 305.35 91.32 310.96 92.71 307.23 88.29 310.27 83.37 304.92 85.55 301.18 81.13 301.61 86.9 296.26 89.09 301.88 90.48"/>
  </g>
  <g>
    <path class="st0" d="M79.63,110.75v10.48c0,2.6,1.4,2.84,3.48,2.84v3.12c-.08.4-.8.72-1.16.72-2.52,0-3.92-1.2-4.48-3.92-1.32,1.68-3.48,3.12-5.84,3.12-2.64,0-4.6-1.76-4.6-4.88,0-3.48,2.48-5.92,6.12-7.12l3.64-1.24-.12-2.4,2.96-.72ZM67.95,106.83l2.36-2.36,2.16,2.12,2.08-2.08,2.36,2.36-2.36,2.32-2.12-2.12-2.12,2.08-2.36-2.32ZM77.23,121.95l-.24-4.68-4.32,1c-1.68.4-3.72,1.36-3.72,3,0,1.36,1.4,2.16,3.28,2.16,1.68,0,3.6-.64,5-1.48Z"/>
    <path class="st0" d="M88.35,124.07v2.56c0,.96-.28,1.28-1.24,1.28h-5.2v-2.56c0-.96.28-1.28,1.24-1.28h5.2Z"/>
    <path class="st0" d="M93.55,124.07v2.56c0,.96-.28,1.28-1.24,1.28h-5.2v-2.56c0-.96.28-1.28,1.24-1.28h5.2Z"/>
    <path class="st0" d="M98.75,124.07v2.56c0,.96-.28,1.28-1.24,1.28h-5.2v-2.56c0-.96.28-1.28,1.24-1.28h5.2Z"/>
    <path class="st0" d="M107.08,104.83v2.2c0,2.08-.88,3.08-2.24,3.08-.92,0-1.56-.48-1.84-1.12-.44.8-1.24,1.24-2.12,1.24-1.16,0-2.08-.72-2.32-2.8l-.16-1.44,1.28-.28v1.76c0,.8.52,1.32,1.48,1.32.76,0,1.4-.32,1.36-.76l-.2-2.08,1.32-.28v1.44c0,.96.68,1.52,1.52,1.52.48,0,.88-.16.84-.6l-.24-2.88,1.32-.32Z"/>
    <path class="st0" d="M97.51,124.99l1.24-.92h10.96c-.96-.8-1.8-1.84-2.68-3.12-1.36-1.96-2.8-3.48-4.6-3.48-.84,0-1.92.32-3.04.76l-.64-.88c.84-1.72,2.04-3.6,4.32-3.6,2.72,0,4.36,2.64,5.96,5.24,1.6,2.56,3.2,5.08,5.68,5.08h1.92v3.12c0,.4-.6.64-1.04.72h-18.08v-2.92Z"/>
    <path class="st0" d="M115.4,124.67l1.24-.6h4.04c-.4-1.76-1.36-3.52-2.44-5.32l2.76-2.4c1.4,2.16,1.68,4.24,1.76,7.72h1.68c3.52-6.32,7.28-9.96,11.6-9.96,3.84,0,6.8,2.88,6.8,8.32v1.64h2.64v3.24c-.12.28-.92.56-1.2.6h-28.89v-3.24ZM140.6,124.07c-.08-3.08-2.24-6.6-5.92-6.6-3.44,0-6.12,3.16-8.44,6.6h14.36Z"/>
    <path class="st0" d="M150.65,105.19v22.73h-6.4v-3.16l1.24-.68h2.68l-.6-18.12,3.08-.76Z"/>
    <path class="st0" d="M155.19,105.95l3.12-.76v22.73h-2.4l-.72-21.96Z"/>
    <path class="st0" d="M166.91,116.55l.36-2.28h3.28c4.8,0,7.6,3.08,7.6,9.8v3.84h-7.4c-3.16,0-5.32-1.72-5.32-5.32,0-2.12.72-4.64,1.48-6.04ZM166.95,108.71l2.36-2.36,2.16,2.12,2.08-2.08,2.36,2.36-2.36,2.32-2.12-2.12-2.12,2.08-2.36-2.32ZM167.27,121.59c0,1.84,1.36,2.44,4.28,2.44h4.4c-.08-3.84-1.64-6.24-5.44-6.24h-2.2c-.4.92-1.04,2.52-1.04,3.8Z"/>
    <path class="st0" d="M176.41,132.11c5.36,0,8.2-3.68,8.2-6.56,0-1.76-1.04-4.36-2.8-7.2l2.68-2.48c1.32,2.32,2.28,4.68,2.28,7.56,0,4.76-2.68,9.68-7.44,12.84l-4.4-2.96v-1.2h1.48Z"/>
    <path class="st0" d="M190.68,105.95l3.12-.76v22.73h-2.4l-.72-21.96Z"/>
    <path class="st0" d="M192.67,132.11c5.36,0,8.2-3.68,8.2-6.56,0-1.76-1.04-4.36-2.8-7.2l2.68-2.48c1.32,2.32,2.28,4.68,2.28,7.56,0,4.76-2.68,9.68-7.44,12.84l-4.4-2.96v-1.2h1.48ZM197.11,110.55l2.44-2.4,2.44,2.4-2.44,2.44-2.44-2.44Z"/>
    <path class="st0" d="M216.26,127.11h-10.2v-4.44c0-5.36,2.28-8.24,5.64-8.24,3.56,0,6.36,3.24,6.36,9.24v1.76c0,5.36-3.88,9.04-6.88,11.04l-5.6-2.96v-1.16h2.12c5.6,0,8.24-2.6,8.56-5.24ZM216.02,123.47c-.52-3.52-3-5.52-5.32-5.52-2.08,0-2.96,1.56-2.96,4.8v.72h8.28Z"/>
    <path class="st0" d="M106.04,149.16v10.48c0,2.6,1.4,2.84,3.48,2.84v3.12c-.08.4-.8.72-1.16.72-2.52,0-3.92-1.2-4.48-3.92-1.32,1.68-3.48,3.12-5.84,3.12-2.64,0-4.6-1.76-4.6-4.88,0-3.48,2.48-5.92,6.12-7.12l3.64-1.24-.12-2.4,2.96-.72ZM94.35,145.24l2.36-2.36,2.16,2.12,2.08-2.08,2.36,2.36-2.36,2.32-2.12-2.12-2.12,2.08-2.36-2.32ZM103.63,160.36l-.24-4.68-4.32,1c-1.68.4-3.72,1.36-3.72,3,0,1.36,1.4,2.16,3.28,2.16,1.68,0,3.6-.64,5-1.48Z"/>
    <path class="st0" d="M114.76,162.48v2.56c0,.96-.28,1.28-1.24,1.28h-5.2v-2.56c0-.96.28-1.28,1.24-1.28h5.2Z"/>
    <path class="st0" d="M119.96,162.48v2.56c0,.96-.28,1.28-1.24,1.28h-5.2v-2.56c0-.96.28-1.28,1.24-1.28h5.2Z"/>
    <path class="st0" d="M125.16,162.48v2.56c0,.96-.28,1.28-1.24,1.28h-5.2v-2.56c0-.96.28-1.28,1.24-1.28h5.2Z"/>
    <path class="st0" d="M130.36,162.48v2.56c0,.96-.28,1.28-1.24,1.28h-5.2v-2.56c0-.96.28-1.28,1.24-1.28h5.2Z"/>
    <path class="st0" d="M135.56,162.48v2.56c0,.96-.28,1.28-1.24,1.28h-5.2v-2.56c0-.96.28-1.28,1.24-1.28h5.2Z"/>
    <path class="st0" d="M140.77,162.48v2.56c0,.96-.28,1.28-1.24,1.28h-5.2v-2.56c0-.96.28-1.28,1.24-1.28h5.2Z"/>
    <path class="st0" d="M145.97,162.48v2.56c0,.96-.28,1.28-1.24,1.28h-5.2v-2.56c0-.96.28-1.28,1.24-1.28h5.2Z"/>
    <path class="st0" d="M153.57,143.6v2.2c0,2.08-.88,3.08-2.24,3.08-.92,0-1.56-.48-1.84-1.12-.44.8-1.24,1.24-2.12,1.24-1.16,0-2.08-.72-2.32-2.8l-.16-1.44,1.28-.28v1.76c0,.8.52,1.32,1.48,1.32.76,0,1.4-.32,1.36-.76l-.2-2.08,1.32-.28v1.44c0,.96.68,1.52,1.52,1.52.48,0,.88-.16.84-.6l-.24-2.88,1.32-.32Z"/>
    <path class="st0" d="M142.89,171.29l2.36-2.36,2.12,2.12,2.12-2.12,2.36,2.36-2.36,2.32-2.12-2.12-2.12,2.12-2.36-2.32ZM150.77,152.52c1.56,2.44,1.92,5.2,1.92,9.76v4.04h-7.96v-3.24l1.2-.6h4.6c-.24-2.36-1.16-5.08-2.52-7.56l2.76-2.4Z"/>
    <path class="st0" d="M152.55,170.53c5.36,0,8.2-3.68,8.2-6.56,0-1.76-1.04-4.36-2.8-7.2l2.68-2.48c1.32,2.32,2.28,4.68,2.28,7.56,0,4.76-2.68,9.68-7.44,12.84l-4.4-2.96v-1.2h1.48Z"/>
    <path class="st0" d="M170.42,175.37l-5.6-2.96v-1.16h2.12c5.36,0,8-2.4,8.48-4.92h-10.12v-4.44c0-5.36,2.28-8.24,5.64-8.24s6.24,3.12,6.36,8.84h2.24v3.16c-.12.32-.88.64-1.2.68h-1.24c-.8,4.28-4.04,7.32-6.68,9.04ZM175.26,162.68c-.52-3.52-3-5.52-5.32-5.52-2.08,0-2.96,1.56-2.96,4.8v.72h8.28Z"/>
    <path class="st0" d="M199.99,153.24c1.64,2.52,1.96,5.08,1.96,8.68v.56h3.32v3.44l-1.24.4h-6.84c-1.72,0-2.96-1-3.8-2.36-.84,1.52-2.24,2.36-4.2,2.36-2.12,0-3.96-.88-5.32-2.08-1.2,1.68-3,2.08-5.52,2.08v-3.12l1.24-.72h2.4l2.12-5.04,2.6-.4-1.6,4.4c1.04.52,2.68,1.04,4.24,1.04h1.92l1.48-5.04,2.6-.4-1.16,4.52c.6.6,1.28.92,2.48.92h3.08c-.24-2.12-1.2-4.52-2.52-6.84l2.76-2.4Z"/>
    <path class="st0" d="M210.43,143.6v22.72h-6.4v-3.16l1.24-.68h2.68l-.6-18.12,3.08-.76Z"/>
    <path class="st0" d="M214.34,144.36l3.12-.76v22.72h-2.4l-.72-21.96Z"/>
  </g>
</svg>