<?xml version="1.0" encoding="UTF-8"?>
<svg id="Layer_1" xmlns="http://www.w3.org/2000/svg" version="1.1" xmlns:xlink="http://www.w3.org/1999/xlink" viewBox="0 0 467 271.19">
  <!-- Generator: Adobe Illustrator 30.2.1, SVG Export Plug-In . SVG Version: 2.1.1 Build 1)  -->
  <defs>
    <style>
      .st0 {
        fill: url(#linear-gradient2);
      }

      .st1 {
        fill: #fff;
      }

      .st2 {
        fill: url(#linear-gradient1);
      }

      .st3 {
        fill: #e11624;
      }

      .st4 {
        opacity: .1;
      }

      .st5 {
        fill: url(#linear-gradient);
      }
    </style>
    <linearGradient id="linear-gradient" x1="90" y1="88.84" x2="90" y2="137.69" gradientUnits="userSpaceOnUse">
      <stop offset="0" stop-color="#faaf40"/>
      <stop offset=".18" stop-color="#f9ab3c"/>
      <stop offset=".35" stop-color="#f8a130"/>
      <stop offset=".51" stop-color="#f6921e"/>
      <stop offset=".83" stop-color="#f05a28"/>
      <stop offset=".93" stop-color="#ed3025"/>
      <stop offset="1" stop-color="#ec1c24"/>
    </linearGradient>
    <linearGradient id="linear-gradient1" x1="85.29" y1="60.82" x2="85.29" y2="136.03" xlink:href="#linear-gradient"/>
    <linearGradient id="linear-gradient2" x1="70.21" y1="39.04" x2="70.21" y2="115.21" xlink:href="#linear-gradient"/>
  </defs>
  <path class="st3" d="M189.95,90.53c-2.28-5.33-5.42-9.99-9.4-13.97-3.98-3.98-8.67-7.14-14.06-9.49-5.39-2.34-11.13-3.51-17.22-3.51s-11.83,1.17-17.22,3.51c-5.39,2.34-10.08,5.51-14.06,9.49-3.98,3.98-7.12,8.64-9.4,13.97-2,4.68-3.08,9.6-3.24,14.77h-.01v.6c0,.53-.01,1.06,0,1.59v41.77c0,3.51-.68,6.81-2.02,9.91-1.35,3.11-3.16,5.83-5.45,8.17-2.28,2.34-4.98,4.19-8.08,5.54-3.11,1.35-6.47,2.02-10.1,2.02s-6.83-.67-9.93-2.02c-3.11-1.35-5.8-3.19-8.08-5.54-2.28-2.34-4.07-5.07-5.36-8.17-1.29-3.1-1.93-6.41-1.93-9.93l-.35-43.93h-17.92v43.93c-.12,5.97.97,11.63,3.25,16.96,2.28,5.33,5.42,9.96,9.4,13.88,3.98,3.93,8.64,7.06,13.97,9.4,5.33,2.34,10.98,3.57,16.96,3.69h.35c5.97-.12,11.63-1.35,16.96-3.69,5.33-2.34,9.99-5.48,13.97-9.4,3.98-3.92,7.12-8.55,9.4-13.88,2-4.68,3.08-9.6,3.24-14.77h.01v-.63c0-.52.01-1.03,0-1.56v-41.77c0-3.51.68-6.84,2.02-9.99,1.35-3.16,3.19-5.89,5.54-8.17,2.34-2.28,5.07-4.1,8.17-5.45,3.1-1.35,6.41-2.02,9.93-2.02s6.82.68,9.93,2.02c3.1,1.35,5.83,3.16,8.17,5.45,2.34,2.28,4.19,5.01,5.54,8.17,1.35,3.16,2.02,6.5,2.02,10.02v43.93h18.28v-43.93c.12-5.98-.97-11.63-3.25-16.96Z"/>
  <g>
    <path class="st1" d="M129.55,173.89v-17.11h3.69v17.27c0,1.47.13,2.76.4,3.87.27,1.11.69,2.03,1.26,2.77.57.74,1.32,1.29,2.22,1.66.91.37,2,.56,3.29.56,1.74,0,3.13-.33,4.17-.98,1.04-.65,1.79-1.64,2.24-2.97.45-1.32.68-2.96.68-4.91v-17.27h3.69v17.27c0,2.83-.43,5.14-1.3,6.91-.87,1.78-2.1,3.08-3.71,3.91-1.6.83-3.54,1.24-5.81,1.24-1.71,0-3.24-.23-4.59-.7-1.35-.47-2.48-1.2-3.41-2.18-.92-.99-1.62-2.25-2.1-3.79-.48-1.54-.72-3.39-.72-5.55Z"/>
    <path class="st1" d="M169.63,179.94c0-.56-.09-1.06-.28-1.5-.19-.44-.54-.82-1.06-1.14-.52-.32-1.3-.56-2.34-.72l-2.65-.4c-1.55-.24-2.86-.59-3.93-1.04-1.07-.45-1.88-1.08-2.42-1.88-.55-.8-.82-1.84-.82-3.13s.36-2.38,1.08-3.29c.72-.91,1.7-1.6,2.95-2.08,1.24-.48,2.64-.72,4.19-.72,2,0,3.58.25,4.73.76,1.15.51,2,1.19,2.57,2.04.56.86.96,1.8,1.2,2.85l-3.17.52c-.37-1.12-.91-1.97-1.6-2.55-.7-.57-1.9-.86-3.61-.86-1.92,0-3.24.32-3.95.96-.71.64-1.06,1.35-1.06,2.12,0,.56.11,1.05.32,1.46.21.41.6.76,1.16,1.02.56.27,1.38.49,2.44.68l3.01.48c1.63.27,2.94.66,3.93,1.18.99.52,1.72,1.2,2.18,2.04.47.84.7,1.9.7,3.19,0,1.15-.31,2.18-.92,3.11-.61.92-1.54,1.65-2.77,2.18-1.23.53-2.78.8-4.65.8-1.23,0-2.39-.12-3.49-.36-1.1-.24-2.06-.62-2.89-1.14-.83-.52-1.5-1.21-2-2.06-.51-.85-.8-1.9-.88-3.13h3.37c.24,1.44.85,2.45,1.82,3.03.98.58,2.3.86,3.99.86s3.01-.3,3.75-.9c.73-.6,1.1-1.4,1.1-2.38Z"/>
    <path class="st1" d="M177.65,156.77h3.49v13.55l-1-1.16c.77-1.23,1.6-2.22,2.48-2.97.88-.75,1.8-1.3,2.77-1.64.96-.35,1.95-.52,2.97-.52,1.58,0,2.87.29,3.89.86,1.02.57,1.78,1.42,2.28,2.54.51,1.12.76,2.51.76,4.17v13.79h-3.49v-13.11c0-1.92-.35-3.28-1.06-4.07-.71-.79-1.77-1.18-3.19-1.18-.75,0-1.51.13-2.28.4-.78.27-1.47.7-2.08,1.28-.43.37-.8.77-1.1,1.18-.31.41-.54.88-.7,1.4-.16.52-.24,1.13-.24,1.82v12.26h-3.49v-28.62Z"/>
    <path class="st1" d="M215.52,179.38l.76,2c-.61.96-1.3,1.79-2.04,2.48-.75.7-1.58,1.23-2.5,1.6-.92.37-1.96.56-3.11.56-1.52,0-2.84-.28-3.95-.84-1.11-.56-2.02-1.34-2.75-2.32-.72-.99-1.26-2.14-1.6-3.47-.35-1.32-.52-2.75-.52-4.27,0-2.3.37-4.27,1.1-5.93.73-1.66,1.8-2.93,3.19-3.83,1.39-.89,3.03-1.34,4.93-1.34,1.31,0,2.62.31,3.93.94,1.31.63,2.47,1.86,3.49,3.71l-.88,1.48v-5.49h3.45v28.49h-3.49v-13.79ZM215.6,175.81v-1.4c0-1.31-.15-2.43-.44-3.37-.29-.93-.72-1.71-1.26-2.32-.55-.61-1.2-1.07-1.94-1.36-.75-.29-1.56-.44-2.44-.44-1.12,0-2.14.27-3.07.8-.92.53-1.65,1.4-2.18,2.58-.53,1.19-.8,2.77-.8,4.75s.28,3.63.84,4.81c.56,1.18,1.28,2.01,2.16,2.5.88.49,1.8.74,2.77.74,1.26,0,2.36-.27,3.33-.82.96-.55,1.71-1.36,2.24-2.44.53-1.08.8-2.42.8-4.03Z"/>
    <path class="st1" d="M224.42,156.77h3.57v4.05h-3.57v-4.05ZM224.5,164.67h3.49v20.72h-3.49v-20.72Z"/>
    <path class="st1" d="M233.43,164.67h3.45v5.65l-.84-1.2c.67-1.15,1.4-2.1,2.2-2.85.8-.75,1.64-1.31,2.52-1.68.88-.37,1.76-.56,2.65-.56,1.79,0,3.19.45,4.19,1.34,1,.9,1.68,2.17,2.02,3.83l-1.12-.12c.67-1.12,1.4-2.06,2.2-2.81.8-.75,1.68-1.31,2.63-1.68.95-.37,1.94-.56,2.99-.56,1.36,0,2.52.25,3.47.74.95.49,1.67,1.26,2.16,2.28.49,1.03.74,2.36.74,3.99v14.35h-3.49v-13.55c0-1.26-.14-2.23-.42-2.93-.28-.69-.69-1.18-1.22-1.46-.53-.28-1.2-.42-2-.42-.59,0-1.22.11-1.9.32-.68.21-1.34.59-1.98,1.12-.35.29-.66.63-.94,1.02-.28.39-.5.82-.66,1.28-.16.47-.24.98-.24,1.54v13.07h-3.49v-13.51c0-1.2-.14-2.16-.42-2.87-.28-.71-.7-1.22-1.24-1.52-.55-.31-1.21-.46-1.98-.46-.7,0-1.36.14-1.98.42-.63.28-1.25.7-1.86,1.26-.29.27-.59.59-.9.98-.31.39-.55.86-.74,1.4-.19.55-.28,1.2-.28,1.94v12.34h-3.49v-20.72Z"/>
    <path class="st1" d="M267.94,156.77h3.57v4.05h-3.57v-4.05ZM268.02,164.67h3.49v20.72h-3.49v-20.72Z"/>
    <path class="st1" d="M286.38,156.77h3.69v28.62h-3.69v-28.62Z"/>
    <path class="st1" d="M305.33,156.77h3.65l16.35,25.53-1.8.28v-25.81h3.57v28.62h-3.53l-16.39-25.25,1.72-.28v25.53h-3.57v-28.62Z"/>
    <path class="st1" d="M339.4,175.97l-7.98-11.3h4.09l5.93,8.82h-2.04l6.17-8.82h3.73l-7.86,11.26v-2.97l8.58,12.42h-4.05l-6.69-9.86h2l-6.73,9.86h-3.85l8.7-12.38v2.97Z"/>
    <path class="st1" d="M351.7,175.17c0-1.79.24-3.38.72-4.77.48-1.39,1.16-2.56,2.04-3.51.88-.95,1.92-1.66,3.11-2.14,1.19-.48,2.49-.72,3.91-.72,1.6,0,2.98.25,4.13.74,1.15.49,2.09,1.2,2.83,2.1.73.91,1.28,1.98,1.64,3.21.36,1.23.54,2.58.54,4.05v1.76h-17.23v-2.6h15.47l-1.72,1.32c0-1.26-.09-2.38-.26-3.37-.17-.99-.47-1.82-.88-2.48-.41-.67-.99-1.18-1.72-1.52-.74-.35-1.68-.52-2.83-.52-1.23,0-2.25.23-3.07.68-.82.45-1.45,1.08-1.9,1.86-.45.79-.78,1.69-.96,2.71-.19,1.02-.28,2.08-.28,3.21,0,1.23.13,2.34.4,3.33.27.99.66,1.84,1.18,2.54.52.71,1.17,1.25,1.94,1.62.77.37,1.68.56,2.73.56,1.74,0,3.01-.33,3.83-.98.81-.65,1.36-1.54,1.62-2.67h3.37c-.35,1.98-1.24,3.55-2.67,4.71-1.43,1.16-3.48,1.74-6.15,1.74-1.55,0-2.93-.25-4.15-.74-1.22-.49-2.24-1.21-3.09-2.14-.84-.93-1.48-2.08-1.9-3.43-.43-1.35-.64-2.87-.64-4.55Z"/>
    <path class="st1" d="M375.23,156.77h3.49v13.55l-1-1.16c.77-1.23,1.6-2.22,2.48-2.97.88-.75,1.8-1.3,2.77-1.64.96-.35,1.95-.52,2.97-.52,1.58,0,2.87.29,3.89.86,1.02.57,1.78,1.42,2.28,2.54.51,1.12.76,2.51.76,4.17v13.79h-3.49v-13.11c0-1.92-.35-3.28-1.06-4.07-.71-.79-1.77-1.18-3.19-1.18-.75,0-1.51.13-2.28.4-.78.27-1.47.7-2.08,1.28-.43.37-.8.77-1.1,1.18-.31.41-.54.88-.7,1.4-.16.52-.24,1.13-.24,1.82v12.26h-3.49v-28.62Z"/>
    <path class="st1" d="M396.07,164.67h12.18v2.77h-12.18v-2.77ZM399.27,178.66v-19.64h3.49v20.56c0,.67.1,1.26.3,1.76.2.51.51.9.92,1.18.41.28.93.42,1.54.42s1.11-.05,1.56-.14c.45-.09.85-.19,1.2-.3l.6,2.69c-.53.19-1.12.34-1.74.46-.63.12-1.37.18-2.22.18-1.55,0-2.73-.31-3.55-.92-.82-.61-1.37-1.46-1.66-2.55-.29-1.08-.44-2.32-.44-3.71Z"/>
    <path class="st1" d="M411.3,175.17c0-1.79.24-3.38.72-4.77.48-1.39,1.16-2.56,2.04-3.51.88-.95,1.92-1.66,3.11-2.14,1.19-.48,2.49-.72,3.91-.72,1.6,0,2.98.25,4.13.74,1.15.49,2.09,1.2,2.83,2.1.73.91,1.28,1.98,1.64,3.21.36,1.23.54,2.58.54,4.05v1.76h-17.23v-2.6h15.47l-1.72,1.32c0-1.26-.09-2.38-.26-3.37-.17-.99-.47-1.82-.88-2.48-.41-.67-.99-1.18-1.72-1.52-.74-.35-1.68-.52-2.83-.52-1.23,0-2.25.23-3.07.68-.82.45-1.45,1.08-1.9,1.86-.45.79-.78,1.69-.96,2.71-.19,1.02-.28,2.08-.28,3.21,0,1.23.13,2.34.4,3.33.27.99.66,1.84,1.18,2.54.52.71,1.17,1.25,1.94,1.62.77.37,1.68.56,2.73.56,1.74,0,3.01-.33,3.83-.98.81-.65,1.36-1.54,1.62-2.67h3.37c-.35,1.98-1.24,3.55-2.67,4.71-1.43,1.16-3.48,1.74-6.15,1.74-1.55,0-2.93-.25-4.15-.74-1.22-.49-2.24-1.21-3.09-2.14-.84-.93-1.48-2.08-1.9-3.43-.43-1.35-.64-2.87-.64-4.55ZM415.82,156.77h3.53v4.05h-3.53v-4.05ZM422.88,156.77h3.53v4.05h-3.53v-4.05Z"/>
  </g>
  <g>
    <g>
      <path class="st5" d="M80.63,137.69s-10-7.59-3.84-20.56c6.16-12.97,17.16-16.44,24.87-24.08,1.25-1.24,2.38-2.67,3.41-4.2,0,0,1.64,9.15-5.86,15.34-14.57,12.05-20.57,20.65-18.58,33.5Z"/>
      <path class="st4" d="M97.22,105.86h0s-7.23,4.24-13.86,12.01c-6.38,7.48-2.74,19.82-2.74,19.82-1.89-12.25,3.48-20.64,16.6-31.83Z"/>
    </g>
    <g>
      <path class="st2" d="M70.85,136.03s-15.4-11.69-5.92-31.66c9.48-19.97,26.43-25.32,38.29-37.08,1.92-1.91,3.67-4.11,5.25-6.47,0,0,2.52,14.08-9.02,23.62-22.44,18.55-31.67,31.8-28.62,51.59Z"/>
      <path class="st4" d="M96.41,87.02v-.02s-11.12,6.55-21.33,18.51c-9.82,11.51-4.22,30.52-4.22,30.52-2.91-18.86,5.36-31.78,25.56-49.01Z"/>
    </g>
    <path class="st0" d="M59.11,115.21s.87-17.33,15.67-29.57c0,0,15.15-13.14,13.63-28.08,0,0-1.47,9.56-8.82,14.04-7.34,4.48-10.58-21.81,0-32.56,0,0-13.8,9.26-17.74,35.85,0,0-6.03-3.64-2.15-14.07,0,0-5.68,7.41-7.59,23.02-1.38,11.26,4.2,14.58,6.99,31.37Z"/>
    <path class="st4" d="M71.32,88.84c-13.45,7.29-12.21,26.37-12.21,26.37,0,0,.74-14.51,12.21-26.36h0Z"/>
  </g>
</svg>