<?xml version="1.0" encoding="UTF-8"?>
<svg id="Layer_1" xmlns="http://www.w3.org/2000/svg" version="1.1" viewBox="0 0 2000 2000">
  <!-- Generator: Adobe Illustrator 30.2.1, SVG Export Plug-In . SVG Version: 2.1.1 Build 1)  -->
  <defs>
    <style>
      .st0 {
        fill: #f7cb22;
      }
    </style>
  </defs>
  <path class="st0" d="M638.8,1479.17c-1.96-2.35-2.7-4.96-2.68-7.89.12-20.24-1.24-40.41-3.19-60.54-1.48-15.32-3.18-30.63-5.19-45.88-2.52-19.1-5.47-38.14-8.21-57.22-2.26-15.76-4.49-31.53-6.7-47.3-7.32-52.35-11.37-104.88-8.55-157.76.98-18.44,2.24-36.88,3.95-55.27,1.26-13.58,3.2-27.12,5.29-40.6,2.38-15.33,4.95-30.65,8.01-45.85,2.82-14.02,6.13-27.96,9.71-41.81,3.85-14.88,7.94-29.71,12.49-44.38,7.18-23.12,15.68-45.78,25.69-67.85,2.71-5.97,5.59-11.85,8.37-17.78.48-1.03.84-2.13,1.36-3.47-3.06-.64-5.64-1.26-8.24-1.73-20.26-3.59-40.64-5.24-61.16-2.93-9.56,1.08-19.13,2.35-28.59,4.14-25.89,4.89-49.74,14.49-69.94,31.89-9.46,8.15-17.19,17.68-21.17,29.73-4.38,13.25-4.68,26.6.58,39.68,4.03,10.02,11.94,15.13,22.58,16.01,5.41.45,10.68-.29,15.66-2.61,8.3-3.85,12.43-10.58,13.62-19.43.36-2.63.97-5.25,1.69-7.81.49-1.72,1.69-3.51,3.59-3.15,1.31.25,2.75,1.68,3.42,2.95.97,1.85,1.44,4.02,1.88,6.1,1.76,8.39,1.03,16.74-.11,25.16-2.13,15.68-8.87,29-19.56,40.5-10.27,11.04-23.05,16.61-37.96,17.62-2.94.2-5.87.51-8.81.57-19.47.4-34.46-8.25-46.22-23.18-10.27-13.03-15.14-28.12-16.48-44.5-.9-11.01-.49-21.96,1.82-32.76,3.46-16.11,10.6-30.51,20.97-43.3,12.22-15.07,27.4-26.59,43.95-36.43,15.46-9.18,31.83-16.4,48.98-21.73,14.19-4.41,28.7-7.38,43.5-9.21,25.47-3.15,51.01-3.63,76.58-2.51,11.88.52,23.8,1.36,35.43,4.21,2.56.62,3.84-.4,5.27-2.37,11.07-15.28,21.88-30.78,33.48-45.65,22.61-28.99,47.63-55.77,75.38-79.94,17.98-15.66,36.92-30.04,57.06-42.83,20.47-12.99,41.82-24.23,64.29-33.35,12.52-5.08,25.4-9.05,38.15-13.43,9.73-3.35,19.87-5.25,29.45-9.02,2.3-.9,4.96-.98,7.48-1.2,8.66-.77,17.34-1.27,25.99-2.19,16.94-1.79,33.9-2.8,50.92-1.99,4.75.23,9.44,1.61,14.29,1.44,2.58-.09,4.93.8,5.81,3.41.96,2.85,1.18,5.89-1.16,8.3-2.79,2.89-5.72,5.63-8.62,8.42-3.96,3.8-8.07,7.45-11.88,11.4-2.68,2.78-5.1,5.85-7.38,8.97-3.67,5.02-5.15,10.69-5.14,16.97.09,45.66.09,91.32-.04,136.98,0,3.51,1.29,5.18,4.23,6.78,13.64,7.41,27.68,13.9,42.33,19.04,13.47,4.73,27.38,7.13,41.62,8.06,18.08,1.18,36.16,1.41,54.12-1.12,10.58-1.49,21.14-3.46,31.51-6.01,12.57-3.09,25.08-6.59,37.36-10.68,27.4-9.13,54.06-20.07,79.22-34.43,2.83-1.62,3.9-3.32,3.89-6.59-.12-37.09-.2-74.18.03-111.27.05-7.85-2.3-14.47-7.16-20.3-2.82-3.38-5.94-6.54-9.09-9.62-4.69-4.59-9.54-9.01-14.29-13.53-1.86-1.77-3.38-3.74-3.93-6.38-1.04-5.04,1.2-8.28,6.34-8.35,4.27-.06,8.56.3,12.82.67,19.48,1.67,38.96,3.4,58.54,2.14,9.89-.63,19.75-1.64,29.63-2.27,6.27-.4,12.57-.46,18.86-.63,2.72-.07,5.26.65,6.25,3.4,1.07,2.98,1.2,6.1-1.38,8.6-5.58,5.39-11.3,10.66-16.77,16.16-3.58,3.6-7.02,7.36-10.17,11.34-4.02,5.07-5.83,10.92-5.8,17.53.13,35.35.06,70.7.06,106.05,0,1.18.11,2.36.18,3.9,1.51.12,2.8.31,4.09.32,15.46.05,30.72,1.9,45.78,5.29,32.06,7.21,57.96,24.24,78.11,50.01,10.09,12.9,15.63,27.88,18.93,43.84,2.49,12.04,3.09,24.18,2.41,36.36-.74,13.31-4.24,25.91-12.26,36.82-12.9,17.56-30.49,25.43-52,23.05-16.24-1.8-29.31-10.29-39.89-22.61-1.5-1.74-2.53-3.78-2.45-6.21.11-3.18,1.97-4.82,5.02-3.89,6.5,1.99,12.91,1.51,19.4,0,9.76-2.26,16.57-8.4,21.71-16.57,3.72-5.9,5.09-12.68,5.62-19.51,1.91-24.56-6.74-44.55-26.37-59.64-12.1-9.3-25.66-15.41-40.66-17.99-8.16-1.4-16.46-2.36-24.76-.66-.77.16-1.53.37-2.51.61-.12,1.11-.33,2.14-.34,3.16-.04,4.69-.01,9.37-.01,14.06,0,162.56.06,325.12-.15,487.68-.01,10.29,3.09,18.58,10.07,25.66,5.35,5.43,10.96,10.62,16.42,15.95,2.39,2.34,4.78,4.69,6.99,7.19,2.04,2.31,2.4,5.09,1.12,7.89-1.19,2.6-3.52,3.51-6.25,3.54-.54,0-1.07.06-1.61.05-4.42-.1-8.84-.05-13.24-.35-7.88-.54-15.75-1.25-23.61-1.98-13.5-1.25-26.98-1.3-40.5-.01-11.32,1.08-22.7,1.61-34.05,2.32-2.13.13-4.28-.04-6.43-.03-7.75.05-8.86-5.87-5.87-11.37.81-1.48,2.17-2.71,3.43-3.9,6.02-5.71,12.16-11.3,18.11-17.08,4.74-4.61,8.88-9.7,10.68-16.25.49-1.78.7-3.67.85-5.52.14-1.73.04-3.48.04-5.22,0-164.97,0-329.94,0-494.91v-5.76c-1.89.82-3.11,1.24-4.23,1.85-17.06,9.27-34.88,16.73-53.25,22.97-15.83,5.38-31.91,9.81-48.21,13.52-16.87,3.85-33.89,6.61-51.15,7.65-13.37.81-26.77.74-40.11-.82-10.63-1.24-21.29-2.31-31.85-4.01-14.27-2.3-28.33-5.64-41.8-11.02-6.81-2.72-13.45-5.86-20.17-8.8-.81-.35-1.69-.57-3.08-1.03-.1,1.93-.25,3.48-.25,5.02-.02,17.94,0,35.89,0,53.83,0,140.46.06,280.93-.13,421.39-.01,9.87,3.21,17.79,9.82,24.56,6.08,6.22,12.48,12.13,18.71,18.2,1.63,1.59,3.24,3.2,4.74,4.91,2.13,2.42,2.78,5.24,1.4,8.2-1.27,2.74-3.76,3.63-6.65,3.58-4.42-.07-8.85.08-13.24-.23-9.08-.63-18.14-1.5-27.21-2.27-11.76-1-23.51-1-35.3-.08-13.87,1.08-27.78,1.83-41.67,2.54-2.18.11-4.39-.8-6.61-1.15-1.31-.21-2.64-.3-3.96-.35-2.54-.09-5.09-.02-7.63-.19-2.66-.18-5-1.1-6.05-3.85-1.05-2.74-.67-5.39,1.33-7.49,2.58-2.71,5.37-5.23,8.16-7.73,4.89-4.37,9.91-8.59,14.75-13.01,5.28-4.82,10.26-10.05,12.21-17.1,1.31-4.73,1.61-9.74,2.28-14.63,2.71-19.73,2.53-39.55,1.34-59.34-.79-13.21-2.13-26.42-4.08-39.51-2.07-13.88-4.6-27.73-7.93-41.36-3.39-13.87-7.56-27.6-12.17-41.13-10.14-29.72-23.67-57.91-39.95-84.76-17.83-29.41-38.26-56.85-62.5-81.33-24.24-24.49-51.52-45.02-81.39-62.16-20.66-11.86-42.1-22.07-64.38-30.5-.85-.32-1.67-.73-2.82-1.24-.7,1.1-1.42,2.03-1.93,3.06-12.52,25.61-23.71,51.79-32.8,78.82-6.05,17.99-11.95,36.04-17.09,54.31-4.38,15.56-7.69,31.43-11.25,47.21-3.8,16.85-6.33,33.94-8.24,51.1-2.2,19.83-3.63,39.74-3.33,59.72.43,28.92.81,57.84,1.54,86.74.51,20.08,2.37,40.07,5.33,59.97,2.34,15.77,5.35,31.39,9.45,46.78,4.97,18.61,10.51,37.07,19.68,54.16,12.29,22.91,29.78,41.04,51.46,55.22,5.25,3.44,10.69,6.59,16.02,9.91,1.24.77,2.54,1.53,3.61,2.52,4.34,4.02,3.47,8.81-2,11-3.1,1.24-6.27,2.31-9.4,3.47-29.73,11.04-57.93,24.9-82.51,45.31-4.63,3.84-9.17,7.79-13.64,11.81-1.68,1.51-3.42,1.92-5.8,1.33ZM991.06,1005.59c.35-.03.71-.05,1.06-.08.05-2.46.13-4.92.13-7.38,0-141.24,0-282.48,0-423.72,0-1.34.07-2.68-.03-4.01-.06-.86-.38-1.7-.62-2.74-9.8,2.19-19.17,4.71-28.44,7.72-20.79,6.75-40.53,15.81-59.54,26.53-22.31,12.58-43.02,27.46-62.88,43.58-17.79,14.44-34.86,29.67-50.11,46.82-19.83,22.29-36.22,47.05-51.65,72.49-.18.3-.13.74-.21,1.26,1.1.55,2.13,1.14,3.22,1.6,7.14,2.99,14.35,5.81,21.43,8.95,21.9,9.72,42.92,21.02,62.79,34.47,18.87,12.77,36.44,27.17,53.34,42.43,19.51,17.62,37.51,36.67,53.67,57.42,18.65,23.94,34.08,49.92,48.37,76.61,3.21,5.99,6.31,12.04,9.46,18.06Z"/>
</svg>